<svg width="73" height="81" viewBox="0 0 73 81" fill="none" xmlns="http://www.w3.org/2000/svg">
<g clip-path="url(#clip0_1_1460)">
<g clip-path="url(#clip1_1_1460)">
<g filter="url(#filter0_d_1_1460)">
<path d="M33.0447 11.1266C35.9004 8.47317 40.4024 8.74996 42.9168 11.7336C44.4802 13.5888 46.9123 14.476 49.301 14.0607C53.1089 13.3986 56.7073 16.0336 57.2275 19.865L57.2505 20.0348C57.5783 22.4487 59.1453 24.5161 61.3811 25.4841C64.9522 27.0304 66.5617 31.2058 64.9513 34.7458L64.895 34.8695C63.8815 37.0973 64.102 39.7066 65.4617 41.744C67.6378 45.0044 66.7465 49.4389 63.4593 51.5676C61.4097 52.8949 60.1974 55.1922 60.2578 57.6345L60.2623 57.8169C60.358 61.6869 57.2403 64.8694 53.3696 64.8526C50.9408 64.8421 48.6688 66.1469 47.425 68.2322C45.4398 71.5602 41.0419 72.6131 37.8064 70.475C35.7824 69.1374 33.2003 68.9786 31.0299 70.0583C27.5604 71.7843 23.3222 70.2004 21.7533 66.6539C20.7703 64.4317 18.6726 62.8582 16.2605 62.5711C12.4165 62.1135 9.70585 58.5728 10.2678 54.7431L10.2943 54.5627C10.6489 52.1459 9.7228 49.7171 7.84855 48.1486C4.84249 45.6329 4.49291 41.1221 7.04618 38.1525C8.64166 36.2969 9.17527 33.7339 8.43808 31.3984L8.39718 31.2688C7.2258 27.5577 9.32714 23.6105 13.0584 22.5132C15.3943 21.8262 17.1992 19.9661 17.8157 17.6103L17.8591 17.4446C18.8377 13.7054 22.7273 11.5307 26.4271 12.6544C28.748 13.3593 31.269 12.7766 33.0447 11.1266Z" fill="#FA12E3"/>
<path d="M56.803 19.922L57.2275 19.8648M56.803 19.922L56.826 20.0918C57.174 22.6545 58.8376 24.8494 61.2112 25.8771C64.5622 27.3281 66.0725 31.246 64.5613 34.5679L64.5051 34.6915M56.803 19.922C56.3155 16.3315 52.9433 13.8621 49.3748 14.4826C46.8358 14.9241 44.251 13.981 42.5893 12.0093C40.2328 9.21292 36.0129 8.95348 33.3365 11.4404C31.4493 13.1939 28.7699 13.8134 26.303 13.0641C22.8358 12.0111 19.1906 14.049 18.2735 17.5532L18.2302 17.7189C17.5757 20.22 15.6595 22.1947 13.1796 22.9241C9.67834 23.9537 7.70651 27.6576 8.80569 31.14L8.8466 31.2696C9.62877 33.7476 9.06243 36.4647 7.37111 38.4318C4.97186 41.2223 5.30246 45.4593 8.12329 47.82C10.1118 49.4841 11.0944 52.0609 10.7181 54.6251L10.6916 54.8055C10.1647 58.3964 12.7064 61.7164 16.3108 62.1455C18.8758 62.4508 21.1018 64.1223 22.145 66.4806C23.6174 69.8089 27.593 71.2892 30.8388 69.6745C33.1459 68.5267 35.8908 68.6955 38.0424 70.1174C41.0693 72.1177 45.194 71.1354 47.057 68.0122C48.3771 65.7992 50.7882 64.4128 53.371 64.424C57.0004 64.4397 59.9238 61.4556 59.8341 57.8269L59.8295 57.6445C59.7655 55.0533 61.0516 52.6159 63.2262 51.2077C66.3109 49.2102 67.1503 45.0451 65.1055 41.9814C63.664 39.8217 63.4297 37.0554 64.5051 34.6915M64.5051 34.6915L64.895 34.8693" stroke="#8A007C" stroke-width="0.856841"/>
</g>
<path d="M18.2322 45.1333L18.8446 35.0205L25.5906 35.4353L25.4746 37.3511L20.7537 37.0609L20.6162 39.3325L24.7623 39.5874L24.6471 41.4895L20.501 41.2346L20.2574 45.2578L18.2322 45.1333ZM32.2516 45.9952L30.3399 42.1829L29.1357 42.1089L28.9128 45.79L26.8876 45.6654L27.5 35.5527L31.3724 35.7908C33.7397 35.9363 34.7424 37.5226 34.6405 39.2058C34.5668 40.4237 33.8764 41.6174 32.4082 42.0491L34.6189 46.1408L32.2516 45.9952ZM29.4116 37.552L29.2459 40.2888L30.9016 40.3906C32.0374 40.4605 32.5167 39.8032 32.5589 39.1053C32.6029 38.38 32.162 37.7211 31.2452 37.6647L29.4116 37.552ZM36.5319 46.2584L37.1443 36.1456L43.9997 36.5671L43.8854 38.4556L39.0688 38.1594L38.937 40.3352L43.3979 40.6095L43.2835 42.4979L38.8227 42.2237L38.6851 44.4953L43.5018 44.7914L43.3874 46.6799L36.5319 46.2584ZM45.655 46.8193L46.2674 36.7065L53.1229 37.128L53.0085 39.0165L48.1919 38.7203L48.0601 40.8961L52.521 41.1704L52.4067 43.0588L47.9458 42.7846L47.8082 45.0562L52.6249 45.3523L52.5105 47.2408L45.655 46.8193Z" fill="white"/>
</g>
</g>
<defs>
<filter id="filter0_d_1_1460" x="1.91288" y="9.30322" width="68.1659" height="69.1384" filterUnits="userSpaceOnUse" color-interpolation-filters="sRGB">
<feFlood flood-opacity="0" result="BackgroundImageFix"/>
<feColorMatrix in="SourceAlpha" type="matrix" values="0 0 0 0 0 0 0 0 0 0 0 0 0 0 0 0 0 0 127 0" result="hardAlpha"/>
<feOffset dy="3.42736"/>
<feGaussianBlur stdDeviation="1.71368"/>
<feComposite in2="hardAlpha" operator="out"/>
<feColorMatrix type="matrix" values="0 0 0 0 0.342829 0 0 0 0 0.2925 0 0 0 0 0.675 0 0 0 0.15 0"/>
<feBlend mode="normal" in2="BackgroundImageFix" result="effect1_dropShadow_1_1460"/>
<feBlend mode="normal" in="SourceGraphic" in2="effect1_dropShadow_1_1460" result="shape"/>
</filter>
<clipPath id="clip0_1_1460">
<rect width="72" height="80" fill="white" transform="translate(0.67688 0.1875)"/>
</clipPath>
<clipPath id="clip1_1_1460">
<rect width="72" height="72" fill="white" transform="translate(0.67688 4.1875)"/>
</clipPath>
</defs>
</svg>
