<svg width="732" height="379" viewBox="0 0 732 379" fill="none" xmlns="http://www.w3.org/2000/svg">
<g clip-path="url(#clip0_1_1585)">
<g clip-path="url(#clip1_1_1585)">
<g opacity="0.2" filter="url(#filter0_i_1_1585)">
<path d="M315.94 465.121C366.697 465.121 407.843 339.069 407.843 183.577C407.843 28.0839 366.697 -97.9678 315.94 -97.9678C265.184 -97.9678 224.037 28.0839 224.037 183.577C224.037 339.069 265.184 465.121 315.94 465.121Z" fill="url(#paint0_linear_1_1585)"/>
</g>
<path d="M315.94 465.121C366.697 465.121 407.843 339.069 407.843 183.577C407.843 28.084 366.697 -97.9678 315.94 -97.9678" stroke="#571FB6" stroke-width="0.972519"/>
<g filter="url(#filter1_d_1_1585)">
<path d="M431.162 172.427C431.162 158.731 420.059 147.628 406.362 147.628C392.666 147.628 381.563 158.731 381.563 172.427C381.563 186.123 392.666 197.226 406.362 197.226C420.059 197.226 431.162 186.123 431.162 172.427Z" fill="url(#paint1_linear_1_1585)"/>
<path d="M430.675 172.427C430.675 159 419.79 148.114 406.362 148.114C392.935 148.114 382.049 159 382.049 172.427C382.049 185.855 392.935 196.74 406.362 196.74C419.79 196.74 430.675 185.855 430.675 172.427Z" stroke="#571FB6" stroke-width="0.972519"/>
</g>
<path d="M401.89 180.034C398.132 180.034 395.515 177.193 395.515 173.682C395.515 170.215 398.132 167.352 401.89 167.352C405.647 167.352 408.265 170.215 408.265 173.682C408.265 177.193 405.647 180.034 401.89 180.034ZM401.89 177.73C404.082 177.73 405.782 175.918 405.782 173.682C405.782 171.49 404.082 169.633 401.89 169.633C399.698 169.633 397.998 171.49 397.998 173.682C397.998 175.918 399.698 177.73 401.89 177.73ZM410.735 179.721V167.665H413.083V169.387C413.822 168 414.962 167.352 416.506 167.352C416.931 167.352 417.423 167.396 417.937 167.553L417.714 169.946C417.266 169.79 416.819 169.723 416.394 169.723C414.649 169.723 413.195 170.863 413.195 173.547V179.721H410.735Z" fill="white"/>
</g>
</g>
<defs>
<filter id="filter0_i_1_1585" x="155.961" y="-97.9678" width="251.882" height="563.089" filterUnits="userSpaceOnUse" color-interpolation-filters="sRGB">
<feFlood flood-opacity="0" result="BackgroundImageFix"/>
<feBlend mode="normal" in="SourceGraphic" in2="BackgroundImageFix" result="shape"/>
<feColorMatrix in="SourceAlpha" type="matrix" values="0 0 0 0 0 0 0 0 0 0 0 0 0 0 0 0 0 0 127 0" result="hardAlpha"/>
<feOffset dx="-68.0763"/>
<feGaussianBlur stdDeviation="45.7084"/>
<feComposite in2="hardAlpha" operator="arithmetic" k2="-1" k3="1"/>
<feColorMatrix type="matrix" values="0 0 0 0 0.243612 0 0 0 0 0.156174 0 0 0 0 0.642546 0 0 0 1 0"/>
<feBlend mode="normal" in2="shape" result="effect1_innerShadow_1_1585"/>
</filter>
<filter id="filter1_d_1_1585" x="376.7" y="144.71" width="59.3237" height="59.3238" filterUnits="userSpaceOnUse" color-interpolation-filters="sRGB">
<feFlood flood-opacity="0" result="BackgroundImageFix"/>
<feColorMatrix in="SourceAlpha" type="matrix" values="0 0 0 0 0 0 0 0 0 0 0 0 0 0 0 0 0 0 127 0" result="hardAlpha"/>
<feOffset dy="1.94504"/>
<feGaussianBlur stdDeviation="2.4313"/>
<feComposite in2="hardAlpha" operator="out"/>
<feColorMatrix type="matrix" values="0 0 0 0 0.395468 0 0 0 0 0.153005 0 0 0 0 0.792546 0 0 0 0.8 0"/>
<feBlend mode="normal" in2="BackgroundImageFix" result="effect1_dropShadow_1_1585"/>
<feBlend mode="normal" in="SourceGraphic" in2="effect1_dropShadow_1_1585" result="shape"/>
</filter>
<linearGradient id="paint0_linear_1_1585" x1="415.624" y1="-78.509" x2="270.718" y2="-78.509" gradientUnits="userSpaceOnUse">
<stop stop-color="#5138E8"/>
<stop offset="1" stop-color="#5138E8" stop-opacity="0"/>
</linearGradient>
<linearGradient id="paint1_linear_1_1585" x1="398.096" y1="150.547" x2="414.142" y2="234.184" gradientUnits="userSpaceOnUse">
<stop stop-color="#AB53FF"/>
<stop offset="1" stop-color="#6F2DEC"/>
</linearGradient>
<clipPath id="clip0_1_1585">
<rect width="803.33" height="378.31" fill="white" transform="translate(-71.6231 0.256836)"/>
</clipPath>
<clipPath id="clip1_1_1585">
<rect width="212.009" height="378.31" fill="white" transform="translate(224.037 0.256836)"/>
</clipPath>
</defs>
</svg>
