<svg width="56" height="56" viewBox="0 0 56 56" fill="none" xmlns="http://www.w3.org/2000/svg">
<mask id="mask0_1_1051" style="mask-type:alpha" maskUnits="userSpaceOnUse" x="0" y="0" width="56" height="56">
<g clip-path="url(#clip0_1_1051)">
<path d="M55.1769 28.2374C55.1769 22.0922 54.9108 17.1128 54.5673 13.2453C53.9927 6.77434 49.1399 1.92161 42.669 1.34694C38.8015 1.00348 33.8221 0.737366 27.6769 0.737366C21.5317 0.737366 16.5523 1.00348 12.6848 1.34694C6.21385 1.92161 1.36112 6.77434 0.786459 13.2453C0.442998 17.1128 0.17688 22.0922 0.17688 28.2374C0.17688 34.6136 0.463385 39.7347 0.825515 43.661C1.4007 49.8972 6.00403 54.5748 12.2421 55.1298C16.0915 55.4723 21.1721 55.7374 27.6769 55.7374C34.1817 55.7374 39.2623 55.4723 43.1117 55.1298C49.3498 54.5748 53.9531 49.8972 54.5283 43.661C54.8904 39.7347 55.1769 34.6136 55.1769 28.2374Z" fill="black"/>
</g>
</mask>
<g mask="url(#mask0_1_1051)">
<rect width="55" height="55" transform="translate(0.17688 0.737366)" fill="#F8F8FC"/>
<g clip-path="url(#clip1_1_1051)">
<path d="M27.5412 36.7288C34.8747 36.7288 40.8197 31.8505 40.8197 25.8326C40.8197 19.8148 34.8747 14.9364 27.5412 14.9364C20.2076 14.9364 14.2626 19.8148 14.2626 25.8326C14.2626 28.6233 15.5411 31.169 17.6437 33.0968C19.7463 35.0245 18.0929 41.4935 18.0929 41.4935L20.8795 38.9165C22.6692 37.2614 25.1034 36.7288 27.5412 36.7288Z" fill="#7F76B3" fill-opacity="0.1" stroke="#7F76B3" stroke-width="2" stroke-linecap="round" stroke-linejoin="round"/>
<path d="M22.4342 28.2167H28.5628" stroke="#7F76B3" stroke-width="2" stroke-linecap="round" stroke-linejoin="round"/>
<path d="M22.4342 23.6191H33.1592" stroke="#7F76B3" stroke-width="2" stroke-linecap="round" stroke-linejoin="round"/>
</g>
</g>
<defs>
<clipPath id="clip0_1_1051">
<rect width="55" height="55" fill="white" transform="translate(0.17688 0.737366)"/>
</clipPath>
<clipPath id="clip1_1_1051">
<rect width="28.8" height="28.8" fill="white" transform="translate(13.2769 13.8373)"/>
</clipPath>
</defs>
</svg>
