<svg width="56" height="56" viewBox="0 0 56 56" fill="none" xmlns="http://www.w3.org/2000/svg">
<mask id="mask0_1_1091" style="mask-type:alpha" maskUnits="userSpaceOnUse" x="0" y="0" width="56" height="56">
<g clip-path="url(#clip0_1_1091)">
<path d="M55.1769 28.2374C55.1769 22.0922 54.9108 17.1128 54.5673 13.2453C53.9927 6.77434 49.1399 1.92161 42.669 1.34694C38.8015 1.00348 33.8221 0.737366 27.6769 0.737366C21.5317 0.737366 16.5523 1.00348 12.6848 1.34694C6.21385 1.92161 1.36112 6.77434 0.786459 13.2453C0.442998 17.1128 0.17688 22.0922 0.17688 28.2374C0.17688 34.6136 0.463385 39.7347 0.825515 43.661C1.4007 49.8972 6.00403 54.5748 12.2421 55.1298C16.0915 55.4723 21.1721 55.7374 27.6769 55.7374C34.1817 55.7374 39.2623 55.4723 43.1117 55.1298C49.3498 54.5748 53.9531 49.8972 54.5283 43.661C54.8904 39.7347 55.1769 34.6136 55.1769 28.2374Z" fill="black"/>
</g>
</mask>
<g mask="url(#mask0_1_1091)">
<rect width="55" height="55" transform="translate(0.17688 0.737366)" fill="#F8F8FC"/>
<path d="M39.7569 22.326L39.7664 22.3478L39.777 22.3692C41.8053 26.4511 41.5361 29.7755 40.0317 32.4323C38.4961 35.1445 35.5989 37.2894 32.1461 38.7799C25.3992 41.6923 17.6311 39.2734 14.935 33.0409C12.2625 26.8629 16.01 20.1644 22.8212 17.2242C29.6324 14.284 37.0845 16.148 39.7569 22.326ZM18.2137 32.333C19.2365 34.6974 21.6023 35.8016 23.9439 36.1583C26.2972 36.5168 28.8658 36.168 30.6778 35.3859C32.5577 34.5743 33.811 33.1612 34.3208 31.3637C34.8234 29.5913 34.5779 27.542 33.6738 25.4517C32.7709 23.3646 31.3693 21.6002 29.6893 20.5452C27.9915 19.4791 25.9831 19.1311 24.0141 19.9811C22.1202 20.7987 20.2336 22.7954 19.0404 25.0347C17.8513 27.2665 17.2098 30.0121 18.2137 32.333Z" fill="url(#paint0_linear_1_1091)" stroke="#7F76B3" stroke-width="2"/>
<path opacity="0.8" d="M14.876 32.6071C17.3796 40.1591 25.27 44.8006 32.8313 42.3143C40.3926 39.8281 43.957 31.4202 41.4535 23.8681C38.9498 16.3161 31.0595 11.6746 23.4982 14.1608C15.9368 16.6471 12.3725 25.055 14.876 32.6071ZM35.8291 25.7175C36.9909 29.2223 33.9688 37.8997 29.6077 39.3337C25.2466 40.7678 19.1883 36.7666 19.1784 31.6103C19.1684 26.4539 22.0822 24.5756 26.204 23.2034C30.3258 21.831 34.6672 22.2126 35.8291 25.7175Z" fill="#7F76B3"/>
<path opacity="0.5" d="M39.248 34.0611C42.839 27.8414 41.2348 19.7352 35.0212 16.1277C28.8076 12.5201 20.9986 15.1612 17.4076 21.3809C13.8167 27.6006 15.4208 35.7068 21.6344 39.3144C27.8481 42.9218 35.6571 40.2808 39.248 34.0611ZM22.0296 24.0643C23.6961 21.1778 31.3615 18.0093 34.9453 20.09C38.5292 22.1707 39.4658 28.6571 35.9943 31.7578C32.5228 34.8584 29.5078 34.0202 26.1092 32.0639C22.7106 30.1075 20.363 26.9508 22.0296 24.0643Z" fill="url(#paint1_linear_1_1091)"/>
</g>
<defs>
<linearGradient id="paint0_linear_1_1091" x1="22.4759" y1="16.393" x2="32.4974" y2="39.6086" gradientUnits="userSpaceOnUse">
<stop stop-color="#7F76B3"/>
<stop offset="1" stop-color="#7F76B3" stop-opacity="0"/>
</linearGradient>
<linearGradient id="paint1_linear_1_1091" x1="39.248" y1="34.0611" x2="17.377" y2="21.4339" gradientUnits="userSpaceOnUse">
<stop stop-color="white"/>
<stop offset="1" stop-color="white" stop-opacity="0"/>
</linearGradient>
<clipPath id="clip0_1_1091">
<rect width="55" height="55" fill="white" transform="translate(0.17688 0.737366)"/>
</clipPath>
</defs>
</svg>
