<svg width="56" height="56" viewBox="0 0 56 56" fill="none" xmlns="http://www.w3.org/2000/svg">
<mask id="mask0_1_1109" style="mask-type:alpha" maskUnits="userSpaceOnUse" x="0" y="0" width="56" height="56">
<g clip-path="url(#clip0_1_1109)">
<path d="M55.1769 28.2374C55.1769 22.0922 54.9108 17.1128 54.5673 13.2453C53.9927 6.77434 49.1399 1.92161 42.669 1.34694C38.8015 1.00348 33.8221 0.737366 27.6769 0.737366C21.5317 0.737366 16.5523 1.00348 12.6848 1.34694C6.21385 1.92161 1.36112 6.77434 0.786459 13.2453C0.442998 17.1128 0.17688 22.0922 0.17688 28.2374C0.17688 34.6136 0.463385 39.7347 0.825515 43.661C1.4007 49.8972 6.00403 54.5748 12.2421 55.1298C16.0915 55.4723 21.1721 55.7374 27.6769 55.7374C34.1817 55.7374 39.2623 55.4723 43.1117 55.1298C49.3498 54.5748 53.9531 49.8972 54.5283 43.661C54.8904 39.7347 55.1769 34.6136 55.1769 28.2374Z" fill="black"/>
</g>
</mask>
<g mask="url(#mask0_1_1109)">
<rect width="55" height="55" transform="translate(0.17688 0.737366)" fill="#F8F8FC"/>
<g clip-path="url(#clip1_1_1109)">
<path d="M34.4269 34.9874C33.2744 34.9874 32.3308 35.0073 31.5867 35.0334C30.1934 35.0827 29.0269 35.8432 29.0269 37.2374C29.0269 38.6334 30.1904 39.3972 31.5858 39.4443C32.3165 39.4691 33.2536 39.4874 34.4269 39.4874C35.6001 39.4874 36.5373 39.4691 37.268 39.4443C38.6634 39.3972 39.8269 38.6334 39.8269 37.2374C39.8269 35.8432 38.6604 35.0827 37.267 35.0334C36.523 35.0073 35.5793 34.9874 34.4269 34.9874Z" stroke="#7F76B3" stroke-width="2" stroke-linecap="round" stroke-linejoin="round"/>
<path d="M36.2269 28.2374C36.2269 28.2087 36.2267 28.1805 36.2263 28.1526C36.2073 26.7317 34.8303 26.1108 33.4099 26.0664C32.1118 26.0258 30.2139 25.9874 27.6769 25.9874C25.1399 25.9874 23.2419 26.0258 21.9438 26.0664C20.5235 26.1108 19.1465 26.7317 19.1274 28.1526C19.1271 28.1805 19.1269 28.2087 19.1269 28.2374C19.1269 28.2826 19.1274 28.327 19.1283 28.3705C19.158 29.76 20.5046 30.3673 21.8937 30.4109C23.1582 30.4506 25.0416 30.4874 27.6769 30.4874C30.3122 30.4874 32.1956 30.4506 33.46 30.4109C34.8492 30.3673 36.1958 29.76 36.2254 28.3705C36.2264 28.327 36.2269 28.2826 36.2269 28.2374Z" stroke="#7F76B3" stroke-width="2" stroke-linecap="round" stroke-linejoin="round"/>
<path d="M20.9269 16.9874C19.7744 16.9874 18.8308 17.0072 18.0867 17.0335C16.6934 17.0827 15.5269 17.8432 15.5269 19.2374C15.5269 20.6335 16.6904 21.3972 18.0857 21.4444C18.8164 21.4691 19.7537 21.4874 20.9269 21.4874C22.1001 21.4874 23.0373 21.4691 23.768 21.4444C25.1634 21.3972 26.3269 20.6335 26.3269 19.2374C26.3269 17.8432 25.1604 17.0827 23.767 17.0335C23.023 17.0072 22.0793 16.9874 20.9269 16.9874Z" stroke="#7F76B3" stroke-width="2" stroke-linecap="round" stroke-linejoin="round"/>
</g>
</g>
<defs>
<clipPath id="clip0_1_1109">
<rect width="55" height="55" fill="white" transform="translate(0.17688 0.737366)"/>
</clipPath>
<clipPath id="clip1_1_1109">
<rect width="26.1" height="24.3" fill="white" transform="translate(14.6269 16.0873)"/>
</clipPath>
</defs>
</svg>
