<svg width="56" height="56" viewBox="0 0 56 56" fill="none" xmlns="http://www.w3.org/2000/svg">
<mask id="mask0_1_1100" style="mask-type:alpha" maskUnits="userSpaceOnUse" x="0" y="0" width="56" height="56">
<g clip-path="url(#clip0_1_1100)">
<path d="M55.1769 28.2374C55.1769 22.0922 54.9108 17.1128 54.5673 13.2453C53.9927 6.77434 49.1399 1.92161 42.669 1.34694C38.8015 1.00348 33.8221 0.737366 27.6769 0.737366C21.5317 0.737366 16.5523 1.00348 12.6848 1.34694C6.21385 1.92161 1.36112 6.77434 0.786459 13.2453C0.442998 17.1128 0.17688 22.0922 0.17688 28.2374C0.17688 34.6136 0.463385 39.7347 0.825515 43.661C1.4007 49.8972 6.00403 54.5748 12.2421 55.1298C16.0915 55.4723 21.1721 55.7374 27.6769 55.7374C34.1817 55.7374 39.2623 55.4723 43.1117 55.1298C49.3498 54.5748 53.9531 49.8972 54.5283 43.661C54.8904 39.7347 55.1769 34.6136 55.1769 28.2374Z" fill="black"/>
</g>
</mask>
<g mask="url(#mask0_1_1100)">
<rect width="55" height="55" transform="translate(0.17688 0.737366)" fill="#F8F8FC"/>
<g clip-path="url(#clip1_1_1100)">
<path d="M41.1124 28.2357C41.1124 26.738 41.0511 25.4366 40.9585 24.3252C40.6946 21.1553 38.1658 18.9448 34.9915 18.7419C33.1357 18.6232 30.7581 18.532 27.8338 18.532C24.9095 18.532 22.5319 18.6232 20.6762 18.7419C17.5019 18.9448 14.9731 21.1553 14.7091 24.3252C14.6166 25.4366 14.5553 26.738 14.5553 28.2357C14.5553 29.807 14.6227 31.1622 14.723 32.3088C14.9924 35.3896 17.4259 37.5376 20.5122 37.7332C22.3547 37.85 24.7663 37.9392 27.8338 37.9392C30.9014 37.9392 33.313 37.85 35.1554 37.7332C38.2418 37.5376 40.6752 35.3896 40.9447 32.3088C41.0449 31.1622 41.1124 29.807 41.1124 28.2357Z" fill="#7F76B3" fill-opacity="0.1" stroke="#7F76B3" stroke-width="2" stroke-linecap="round" stroke-linejoin="round"/>
<path d="M28.8555 30.2778L32.4305 32.8313L36.0055 30.2778" stroke="#7F76B3" stroke-width="2" stroke-linecap="round" stroke-linejoin="round"/>
<path d="M36.0054 26.1926L32.4304 23.639L28.8554 26.1926" stroke="#7F76B3" stroke-width="2" stroke-linecap="round" stroke-linejoin="round"/>
</g>
</g>
<defs>
<clipPath id="clip0_1_1100">
<rect width="55" height="55" fill="white" transform="translate(0.17688 0.737366)"/>
</clipPath>
<clipPath id="clip1_1_1100">
<rect width="29.7" height="22.5" fill="white" transform="translate(12.8269 16.9874)"/>
</clipPath>
</defs>
</svg>
