<svg width="56" height="56" viewBox="0 0 56 56" fill="none" xmlns="http://www.w3.org/2000/svg">
<mask id="mask0_1_1082" style="mask-type:alpha" maskUnits="userSpaceOnUse" x="0" y="0" width="56" height="56">
<g clip-path="url(#clip0_1_1082)">
<path d="M55.1769 28.2374C55.1769 22.0922 54.9108 17.1128 54.5673 13.2453C53.9927 6.77434 49.1399 1.92161 42.669 1.34694C38.8015 1.00348 33.8221 0.737366 27.6769 0.737366C21.5317 0.737366 16.5523 1.00348 12.6848 1.34694C6.21385 1.92161 1.36112 6.77434 0.786459 13.2453C0.442998 17.1128 0.17688 22.0922 0.17688 28.2374C0.17688 34.6136 0.463385 39.7347 0.825515 43.661C1.4007 49.8972 6.00403 54.5748 12.2421 55.1298C16.0915 55.4723 21.1721 55.7374 27.6769 55.7374C34.1817 55.7374 39.2623 55.4723 43.1117 55.1298C49.3498 54.5748 53.9531 49.8972 54.5283 43.661C54.8904 39.7347 55.1769 34.6136 55.1769 28.2374Z" fill="black"/>
</g>
</mask>
<g mask="url(#mask0_1_1082)">
<rect width="55" height="55" transform="translate(0.17688 0.737366)" fill="#F8F8FC"/>
<g clip-path="url(#clip1_1_1082)">
<path d="M41.0341 28.3723C41.0341 25.5007 40.9138 23.1562 40.7558 21.3155C40.4778 18.0792 38.0487 15.6501 34.8124 15.3722C32.9717 15.2141 30.6273 15.0938 27.7556 15.0938C24.884 15.0938 22.5395 15.2141 20.6987 15.3722C17.4625 15.6501 15.0334 18.0792 14.7555 21.3155C14.5974 23.1562 14.477 25.5007 14.477 28.3723C14.477 31.3593 14.6072 33.7758 14.7747 35.6485C15.0535 38.7673 17.3578 41.1046 20.4776 41.3728C22.3145 41.5307 24.7122 41.6509 27.7556 41.6509C30.799 41.6509 33.1967 41.5307 35.0336 41.3728C38.1534 41.1046 40.4577 38.7673 40.7365 35.6485C40.904 33.7758 41.0341 31.3593 41.0341 28.3723Z" stroke="#7F76B3" stroke-width="2" stroke-linecap="round" stroke-linejoin="round"/>
<path d="M40.5233 22.4998L34.7039 28.7848C34.3466 29.1707 33.835 29.376 33.31 29.3442L26.6473 28.9404C26.0631 28.905 25.4998 29.1631 25.1451 29.6285L22.0484 33.693C21.7776 34.0484 21.3816 34.2871 20.9409 34.3606L15.4983 35.2677" stroke="#7F76B3" stroke-width="2" stroke-linecap="round" stroke-linejoin="round"/>
<path d="M34.1395 29.1391L41.0341 22.4998L40.5234 38.332L36.1823 41.3962L20.0949 41.6515L16.5199 39.8641L14.7324 35.2677L21.627 34.2463L26.2234 28.8838L34.1395 29.1391Z" fill="#7F76B3" fill-opacity="0.1"/>
</g>
</g>
<defs>
<clipPath id="clip0_1_1082">
<rect width="55" height="55" fill="white" transform="translate(0.17688 0.737366)"/>
</clipPath>
<clipPath id="clip1_1_1082">
<rect width="29.7" height="28.8" fill="white" transform="translate(12.8269 13.8373)"/>
</clipPath>
</defs>
</svg>
