<svg width="56" height="56" viewBox="0 0 56 56" fill="none" xmlns="http://www.w3.org/2000/svg">
<mask id="mask0_1_1029" style="mask-type:alpha" maskUnits="userSpaceOnUse" x="0" y="0" width="56" height="56">
<g clip-path="url(#clip0_1_1029)">
<path d="M55.1769 28.2374C55.1769 22.0922 54.9108 17.1128 54.5673 13.2453C53.9927 6.77434 49.1399 1.92161 42.669 1.34694C38.8015 1.00348 33.8221 0.737366 27.6769 0.737366C21.5317 0.737366 16.5523 1.00348 12.6848 1.34694C6.21385 1.92161 1.36112 6.77434 0.786459 13.2453C0.442998 17.1128 0.17688 22.0922 0.17688 28.2374C0.17688 34.6136 0.463385 39.7347 0.825515 43.661C1.4007 49.8972 6.00403 54.5748 12.2421 55.1298C16.0915 55.4723 21.1721 55.7374 27.6769 55.7374C34.1817 55.7374 39.2623 55.4723 43.1117 55.1298C49.3498 54.5748 53.9531 49.8972 54.5283 43.661C54.8904 39.7347 55.1769 34.6136 55.1769 28.2374Z" fill="black"/>
</g>
</mask>
<g mask="url(#mask0_1_1029)">
<rect width="55" height="55" transform="translate(0.17688 0.737366)" fill="#F8F8FC"/>
<g clip-path="url(#clip1_1_1029)">
<path fill-rule="evenodd" clip-rule="evenodd" d="M27.5394 41.4931C25.3172 41.4931 23.5296 41.3877 22.1266 41.2447C19.4524 40.972 17.575 38.9015 17.3555 36.2224C17.1985 34.3062 17.0698 31.6787 17.0698 28.2146C17.0698 24.7505 17.1985 22.1229 17.3555 20.2067C17.575 17.5276 19.4524 15.4571 22.1266 15.1844C23.5296 15.0414 25.3173 14.936 27.5394 14.936C29.7256 14.936 31.5422 15.038 33.0047 15.1775C35.9246 15.4562 38.0253 17.7373 38.2526 20.6617C38.4011 22.571 38.5198 25.0783 38.5198 28.2146C38.5198 29.4173 38.5023 30.5277 38.4724 31.5472C35.9833 33.6437 32.9777 33.6695 31.4127 33.5001C30.9505 33.4501 30.5093 33.9163 30.5766 34.3762C30.8003 35.9055 30.8286 38.846 28.5422 41.4858C28.217 41.4906 27.8828 41.4931 27.5394 41.4931Z" fill="#7F76B3" fill-opacity="0.1"/>
<path d="M22.5493 41.2859C23.8834 41.4077 25.5347 41.4935 27.5396 41.4935C29.4986 41.4935 31.1608 41.4116 32.5373 41.2943C35.7491 41.0202 38.0581 38.5158 38.2877 35.3005C38.4194 33.4554 38.52 31.1016 38.52 28.215C38.52 25.3283 38.4194 22.9745 38.2877 21.1294C38.0581 17.9142 35.7491 15.4097 32.5373 15.1357C31.1608 15.0183 29.4986 14.9364 27.5396 14.9364C25.5347 14.9364 23.8834 15.0222 22.5493 15.144C19.6076 15.4127 17.5447 17.6849 17.3224 20.6304C17.1809 22.5045 17.0699 24.9993 17.0699 28.215C17.0699 31.4306 17.1809 33.9255 17.3224 35.7996C17.5447 38.7451 19.6076 41.0172 22.5493 41.2859Z" fill="#7F76B3" fill-opacity="0.1" stroke="#7F76B3" stroke-width="2" stroke-linecap="round" stroke-linejoin="round"/>
<path d="M38.2646 31.2797C35.3499 34.4498 33.1168 31.3203 30.8592 33.5779C28.6017 35.8355 31.7311 38.0686 28.3057 41.2386" stroke="#7F76B3" stroke-width="2" stroke-linecap="round" stroke-linejoin="round"/>
<path d="M22.6877 21.0655H32.902" stroke="#7F76B3" stroke-width="2" stroke-linecap="round" stroke-linejoin="round"/>
<path d="M22.6877 26.1729H29.327" stroke="#7F76B3" stroke-width="2" stroke-linecap="round" stroke-linejoin="round"/>
</g>
</g>
<defs>
<clipPath id="clip0_1_1029">
<rect width="55" height="55" fill="white" transform="translate(0.17688 0.737366)"/>
</clipPath>
<clipPath id="clip1_1_1029">
<rect width="24.3" height="28.8" fill="white" transform="translate(15.5269 13.8373)"/>
</clipPath>
</defs>
</svg>
