<svg width="70" height="70" viewBox="0 0 70 70" fill="none" xmlns="http://www.w3.org/2000/svg">
<mask id="mask0_1_1074" style="mask-type:alpha" maskUnits="userSpaceOnUse" x="0" y="0" width="70" height="70">
<g clip-path="url(#clip0_1_1074)">
<path d="M55.3069 28.3674C55.3069 22.2222 55.0408 17.2428 54.6973 13.3753C54.1227 6.90434 49.2699 2.05161 42.799 1.47695C38.9315 1.13349 33.9521 0.867371 27.8069 0.867371C21.6617 0.867371 16.6823 1.13349 12.8148 1.47695C6.34385 2.05161 1.49112 6.90434 0.916464 13.3753C0.573003 17.2428 0.306885 22.2222 0.306885 28.3674C0.306885 34.7436 0.59339 39.8647 0.95552 43.791C1.5307 50.0272 6.13403 54.7048 12.3721 55.2598C16.2215 55.6023 21.3021 55.8674 27.8069 55.8674C34.3117 55.8674 39.3923 55.6023 43.2417 55.2598C49.4798 54.7048 54.0831 50.0272 54.6583 43.791C55.0204 39.8647 55.3069 34.7436 55.3069 28.3674Z" fill="black"/>
</g>
</mask>
<g mask="url(#mask0_1_1074)">
<rect width="68.75" height="68.75" transform="translate(0.306885 0.867371)" fill="url(#paint0_linear_1_1074)"/>
<g clip-path="url(#clip1_1_1074)">
<path d="M51.1055 35.0693C51.1055 38.8031 50.9427 41.8237 50.7333 44.1646C50.3848 48.0632 47.5045 50.9847 43.6047 51.3199C41.3085 51.5174 38.3114 51.6675 34.5072 51.6675C30.7029 51.6675 27.7059 51.5174 25.4098 51.3199C21.51 50.9847 18.6296 48.0632 18.2811 44.1646C18.0718 41.8237 17.909 38.8031 17.909 35.0693C17.909 31.4798 18.0594 28.5492 18.257 26.2483C18.6044 22.2029 21.6408 19.1666 25.6862 18.8192C27.9872 18.6216 30.9177 18.4711 34.5072 18.4711" stroke="white" stroke-width="2" stroke-linecap="round" stroke-linejoin="round"/>
<path d="M27.7302 34.7204C31.7433 37.4297 33.4626 39.8338 33.4626 39.8338C33.4626 39.8338 35.1925 35.8955 38.5103 31.5531C42.084 26.8759 44.7329 25.1142 44.7329 25.1142" stroke="white" stroke-width="2" stroke-linecap="round" stroke-linejoin="round"/>
</g>
</g>
<defs>
<linearGradient id="paint0_linear_1_1074" x1="-2.72346" y1="3.2457" x2="71.4735" y2="65.5043" gradientUnits="userSpaceOnUse">
<stop stop-color="#24223E"/>
<stop offset="1" stop-color="#282642"/>
</linearGradient>
<clipPath id="clip0_1_1074">
<rect width="68.75" height="68.75" fill="white" transform="translate(0.306885 0.867371)"/>
</clipPath>
<clipPath id="clip1_1_1074">
<rect width="36" height="36" fill="white" transform="translate(16.6769 17.2374)"/>
</clipPath>
</defs>
</svg>
