<svg width="56" height="56" viewBox="0 0 56 56" fill="none" xmlns="http://www.w3.org/2000/svg">
<mask id="mask0_1_1060" style="mask-type:alpha" maskUnits="userSpaceOnUse" x="0" y="0" width="56" height="56">
<g clip-path="url(#clip0_1_1060)">
<path d="M55.1769 28.2374C55.1769 22.0922 54.9108 17.1128 54.5673 13.2453C53.9927 6.77434 49.1399 1.92161 42.669 1.34694C38.8015 1.00348 33.8221 0.737366 27.6769 0.737366C21.5317 0.737366 16.5523 1.00348 12.6848 1.34694C6.21385 1.92161 1.36112 6.77434 0.786459 13.2453C0.442998 17.1128 0.17688 22.0922 0.17688 28.2374C0.17688 34.6136 0.463385 39.7347 0.825515 43.661C1.4007 49.8972 6.00403 54.5748 12.2421 55.1298C16.0915 55.4723 21.1721 55.7374 27.6769 55.7374C34.1817 55.7374 39.2623 55.4723 43.1117 55.1298C49.3498 54.5748 53.9531 49.8972 54.5283 43.661C54.8904 39.7347 55.1769 34.6136 55.1769 28.2374Z" fill="black"/>
</g>
</mask>
<g mask="url(#mask0_1_1060)">
<rect width="55" height="55" transform="translate(0.17688 0.737366)" fill="#F8F8FC"/>
<g clip-path="url(#clip1_1_1060)">
<path d="M39.032 15.2045L41.0749 18.0134L34.691 34.867L28.5624 32.5688L35.7124 15.4598L39.032 15.2045Z" fill="#7F76B3" fill-opacity="0.1"/>
<path d="M32.7593 38.0157C31.455 39.2234 28.897 41.532 28.5435 41.3976C28.1878 41.2624 27.9446 37.8473 27.8436 36.1148C27.8056 35.4624 27.914 34.8116 28.1517 34.2029L28.5435 33.1997L34.8401 17.0764C35.4727 15.4566 37.2696 14.5918 38.895 15.2098C40.477 15.8113 41.2094 17.6134 40.5938 19.1899L34.3703 35.1262L33.899 36.3327C33.6492 36.9726 33.2634 37.549 32.7593 38.0157Z" fill="#7F76B3" fill-opacity="0.1"/>
<path d="M28.5435 33.1997L28.1517 34.2029C27.914 34.8116 27.8056 35.4624 27.8436 36.1148C27.9446 37.8473 28.1878 41.2624 28.5435 41.3976C28.897 41.532 31.455 39.2234 32.7593 38.0157C33.2634 37.549 33.6492 36.9726 33.899 36.3327L34.3703 35.1262M28.5435 33.1997L34.8401 17.0764C35.4727 15.4566 37.2696 14.5918 38.895 15.2098C40.477 15.8113 41.2094 17.6134 40.5938 19.1899L34.3703 35.1262M28.5435 33.1997C28.5435 33.1997 29.8393 33.0044 31.6268 33.5955C33.4143 34.1865 34.3703 35.1262 34.3703 35.1262" stroke="#7F76B3" stroke-width="2" stroke-linecap="round" stroke-linejoin="round"/>
<path d="M16.3056 19.5489C16.3056 19.5489 15.2842 21.5767 15.2842 28.231C15.2842 34.8853 16.3056 36.9131 16.3056 36.9131" stroke="#7F76B3" stroke-width="2" stroke-linecap="round" stroke-linejoin="round"/>
<path d="M18.8589 16.9957C18.8589 16.9957 20.1357 16.2296 24.3491 15.9743C28.5625 15.7189 30.8607 16.2296 30.8607 16.2296" stroke="#7F76B3" stroke-width="2" stroke-linecap="round" stroke-linejoin="round"/>
<path d="M18.859 39.468H24.2214" stroke="#7F76B3" stroke-width="2" stroke-linecap="round" stroke-linejoin="round"/>
<path d="M14.2626 17.2526C14.2626 18.5219 15.2915 19.5508 16.5608 19.5508C17.8301 19.5508 18.859 18.5219 18.859 17.2526C18.859 15.9833 17.8301 14.9544 16.5608 14.9544C15.2915 14.9544 14.2626 15.9833 14.2626 17.2526Z" fill="#7F76B3" fill-opacity="0.1" stroke="#7F76B3" stroke-width="2" stroke-linecap="round" stroke-linejoin="round"/>
<path d="M14.2626 39.213C14.2626 40.4823 15.2915 41.5112 16.5608 41.5112C17.8301 41.5112 18.859 40.4823 18.859 39.213C18.859 37.9438 17.8301 36.9148 16.5608 36.9148C15.2915 36.9148 14.2626 37.9438 14.2626 39.213Z" fill="#7F76B3" fill-opacity="0.1" stroke="#7F76B3" stroke-width="2" stroke-linecap="round" stroke-linejoin="round"/>
</g>
</g>
<defs>
<clipPath id="clip0_1_1060">
<rect width="55" height="55" fill="white" transform="translate(0.17688 0.737366)"/>
</clipPath>
<clipPath id="clip1_1_1060">
<rect width="28.8" height="28.8" fill="white" transform="translate(13.2769 13.8373)"/>
</clipPath>
</defs>
</svg>
