<svg width="386" height="280" viewBox="0 0 386 280" fill="none" xmlns="http://www.w3.org/2000/svg">
<mask id="mask0_1_1491" style="mask-type:alpha" maskUnits="userSpaceOnUse" x="0" y="0" width="386" height="280">
<g clip-path="url(#clip0_1_1491)">
<path d="M-4.89539 3.92432L416.041 33.1462V328.377H-4.89539V3.92432Z" fill="black"/>
</g>
</mask>
<g mask="url(#mask0_1_1491)">
<rect width="385" height="279" transform="translate(0.17688 0.377441)" fill="url(#paint0_linear_1_1491)"/>
<g clip-path="url(#clip1_1_1491)">
<path d="M45.5672 41.5837V45.0408H53.5774V49.6184H45.5672V57.7693H40.1769V37.0128H54.1657V41.5837H45.5672ZM58.4684 57.7693V37.0128H63.8587V57.7693H58.4684ZM84.2981 57.7693L74.3657 45.0681V57.7625H68.9754V37.0128H74.3657L84.3049 49.7072V37.0128H89.6952V57.7693H84.2981ZM108.698 57.7693L107.357 54.1619H99.9149L98.4852 57.7693H92.8213L100.667 37.0128H106.646L114.465 57.7693H108.698ZM103.65 43.4557L101.406 50.0557H105.893L103.65 43.4557ZM145.131 41.5837V57.7625H139.74V41.5837H134.747V37.0128H150.22V41.5837H145.131ZM164.38 57.7693L159.208 49.8029V57.7693H153.818V37.0128H162.232C164.195 37.0128 165.905 37.3886 167.308 38.8507C168.491 40.0669 169.086 41.775 169.086 43.4557C169.086 44.7607 168.682 46.2228 167.903 47.2817C167.061 48.4296 165.939 48.9625 164.571 49.2699L171.083 57.7625H164.38V57.7693ZM160.234 41.1805H159.208V46.3184H160.234C161.917 46.3184 163.538 45.6625 163.538 43.7358C163.538 41.8023 161.883 41.1805 160.234 41.1805ZM188.404 57.7693L187.063 54.1619H179.62L178.191 57.7693H172.493L180.469 37.0128H186.358L194.177 57.7693H188.404ZM183.355 43.4557L181.112 50.0557H185.599L183.355 43.4557ZM131.709 54.7016C130.355 57.3389 127.113 58.3774 124.315 58.3774C121.702 58.3774 119.082 57.4482 116.941 55.9724L119.342 51.6203C120.696 52.8159 122.297 53.7588 124.158 53.7588C125.478 53.7588 126.771 53.1917 126.771 51.6817C126.771 48.0333 117.864 50.8004 117.864 43.4489C117.864 39.206 120.758 36.3774 124.978 36.3774C127.304 36.3774 129.35 36.8762 131.395 37.942L129.562 42.3762C128.522 41.529 127.277 40.9073 125.888 40.9073C124.821 40.9073 123.562 41.5017 123.562 42.7315C123.562 45.8128 132.496 43.7973 132.496 50.9644C132.496 52.16 132.277 53.6358 131.709 54.7016Z" fill="white"/>
</g>
<path d="M46.7003 102.139L45.6163 106.495H44.1808L45.5577 102.139H46.7003ZM43.7316 102.139L42.6769 106.495H41.212L42.5792 102.139H43.7316ZM66.1534 102.374L62.1984 116.377H60.2745L57.3937 106.143C57.27 105.707 57.1951 105.232 57.1691 104.717H57.13C57.0909 105.199 57.0063 105.668 56.8761 106.124L53.9757 116.377H52.0714L47.9698 102.374H49.7765L52.755 113.116C52.8787 113.565 52.9568 114.034 52.9894 114.522H53.0382C53.0708 114.177 53.1717 113.708 53.3409 113.116L56.4366 102.374H58.0089L60.9777 113.194C61.0818 113.565 61.16 114.001 61.212 114.502H61.2511C61.2771 114.164 61.365 113.715 61.5148 113.155L64.3761 102.374H66.1534ZM68.8488 103.838C68.5623 103.838 68.3182 103.741 68.1163 103.545C67.9145 103.35 67.8136 103.103 67.8136 102.803C67.8136 102.504 67.9145 102.256 68.1163 102.061C68.3182 101.859 68.5623 101.758 68.8488 101.758C69.1417 101.758 69.3891 101.859 69.5909 102.061C69.7993 102.256 69.9034 102.504 69.9034 102.803C69.9034 103.09 69.7993 103.334 69.5909 103.536C69.3891 103.737 69.1417 103.838 68.8488 103.838ZM69.63 116.377H68.0284V106.377H69.63V116.377ZM77.5109 116.28C77.1333 116.488 76.6352 116.592 76.0167 116.592C74.2654 116.592 73.3898 115.616 73.3898 113.663V107.745H71.671V106.377H73.3898V103.936L74.9913 103.418V106.377H77.5109V107.745H74.9913V113.379C74.9913 114.05 75.1053 114.528 75.3331 114.815C75.561 115.101 75.9386 115.245 76.4659 115.245C76.8696 115.245 77.2179 115.134 77.5109 114.913V116.28ZM87.9503 116.377H86.3488V110.616C86.3488 108.532 85.574 107.491 84.0245 107.491C83.2433 107.491 82.5857 107.793 82.0519 108.399C81.518 108.998 81.2511 109.769 81.2511 110.713V116.377H79.6495V101.573H81.2511V108.038H81.2902C82.0584 106.775 83.1521 106.143 84.5714 106.143C86.824 106.143 87.9503 107.5 87.9503 110.215V116.377ZM106.212 115.792C105.177 116.338 103.888 116.612 102.345 116.612C100.353 116.612 98.7576 115.971 97.5597 114.688C96.3618 113.405 95.7628 111.722 95.7628 109.639C95.7628 107.4 96.4366 105.59 97.7843 104.209C99.132 102.829 100.841 102.139 102.911 102.139C104.239 102.139 105.34 102.331 106.212 102.715V104.463C105.209 103.903 104.103 103.624 102.892 103.624C101.284 103.624 99.9783 104.161 98.9757 105.235C97.9796 106.309 97.4816 107.745 97.4816 109.542C97.4816 111.247 97.9471 112.608 98.8781 113.624C99.8156 114.633 101.043 115.137 102.56 115.137C103.966 115.137 105.183 114.825 106.212 114.2V115.792ZM110.45 116.377H108.849V101.573H110.45V116.377ZM114.513 103.838C114.226 103.838 113.982 103.741 113.78 103.545C113.579 103.35 113.478 103.103 113.478 102.803C113.478 102.504 113.579 102.256 113.78 102.061C113.982 101.859 114.226 101.758 114.513 101.758C114.806 101.758 115.053 101.859 115.255 102.061C115.463 102.256 115.568 102.504 115.568 102.803C115.568 103.09 115.463 103.334 115.255 103.536C115.053 103.737 114.806 103.838 114.513 103.838ZM115.294 116.377H113.693V106.377H115.294V116.377ZM125.353 115.918C124.584 116.381 123.673 116.612 122.618 116.612C121.193 116.612 120.04 116.15 119.161 115.225C118.289 114.294 117.853 113.09 117.853 111.612C117.853 109.965 118.325 108.643 119.269 107.647C120.213 106.644 121.472 106.143 123.048 106.143C123.927 106.143 124.702 106.306 125.372 106.631V108.272C124.63 107.751 123.836 107.491 122.989 107.491C121.967 107.491 121.127 107.859 120.47 108.594C119.819 109.323 119.493 110.284 119.493 111.475C119.493 112.647 119.799 113.571 120.411 114.249C121.03 114.926 121.857 115.264 122.892 115.264C123.764 115.264 124.584 114.974 125.353 114.395V115.918ZM136.075 116.377H133.829L129.415 111.573H129.376V116.377H127.775V101.573H129.376V110.958H129.415L133.614 106.377H135.714L131.075 111.202L136.075 116.377ZM148.175 110.713C148.175 114.646 146.401 116.612 142.853 116.612C139.454 116.612 137.755 114.721 137.755 110.938V102.374H139.396V110.831C139.396 113.702 140.607 115.137 143.028 115.137C145.366 115.137 146.534 113.75 146.534 110.977V102.374H148.175V110.713ZM153.107 114.932H153.068V120.977H151.466V106.377H153.068V108.135H153.107C153.894 106.807 155.047 106.143 156.564 106.143C157.853 106.143 158.859 106.592 159.581 107.491C160.304 108.383 160.665 109.581 160.665 111.084C160.665 112.758 160.258 114.099 159.444 115.108C158.631 116.111 157.517 116.612 156.105 116.612C154.809 116.612 153.81 116.052 153.107 114.932ZM153.068 110.899V112.295C153.068 113.122 153.334 113.825 153.868 114.405C154.409 114.978 155.092 115.264 155.919 115.264C156.889 115.264 157.648 114.893 158.194 114.151C158.748 113.409 159.025 112.377 159.025 111.055C159.025 109.942 158.767 109.069 158.253 108.438C157.739 107.806 157.042 107.491 156.163 107.491C155.232 107.491 154.484 107.816 153.917 108.467C153.351 109.112 153.068 109.922 153.068 110.899ZM181.31 106.377L178.312 116.377H176.651L174.591 109.219C174.513 108.946 174.461 108.637 174.435 108.292H174.396C174.376 108.526 174.308 108.829 174.191 109.2L171.954 116.377H170.353L167.325 106.377H169.005L171.075 113.897C171.14 114.125 171.186 114.424 171.212 114.795H171.29C171.31 114.509 171.368 114.203 171.466 113.877L173.771 106.377H175.235L177.306 113.917C177.371 114.157 177.42 114.457 177.452 114.815H177.53C177.543 114.561 177.599 114.262 177.696 113.917L179.728 106.377H181.31ZM191.202 111.778H184.142C184.168 112.891 184.467 113.75 185.04 114.356C185.613 114.961 186.401 115.264 187.403 115.264C188.53 115.264 189.565 114.893 190.509 114.151V115.655C189.63 116.293 188.468 116.612 187.023 116.612C185.61 116.612 184.5 116.159 183.693 115.254C182.885 114.343 182.482 113.064 182.482 111.417C182.482 109.861 182.921 108.594 183.8 107.618C184.685 106.635 185.782 106.143 187.091 106.143C188.4 106.143 189.412 106.566 190.128 107.413C190.844 108.259 191.202 109.434 191.202 110.938V111.778ZM189.562 110.42C189.555 109.496 189.331 108.777 188.888 108.262C188.452 107.748 187.843 107.491 187.062 107.491C186.306 107.491 185.665 107.761 185.138 108.301C184.61 108.842 184.285 109.548 184.161 110.42H189.562ZM195.021 102.374V106.739H193.605V102.374H195.021ZM206.105 106.377L202.12 116.377H200.548L196.759 106.377H198.517L201.056 113.643C201.245 114.177 201.362 114.642 201.407 115.04H201.446C201.512 114.538 201.616 114.086 201.759 113.682L204.415 106.377H206.105ZM215.87 111.778H208.81C208.836 112.891 209.135 113.75 209.708 114.356C210.281 114.961 211.069 115.264 212.071 115.264C213.198 115.264 214.233 114.893 215.177 114.151V115.655C214.298 116.293 213.136 116.612 211.691 116.612C210.278 116.612 209.168 116.159 208.36 115.254C207.553 114.343 207.15 113.064 207.15 111.417C207.15 109.861 207.589 108.594 208.468 107.618C209.353 106.635 210.45 106.143 211.759 106.143C213.068 106.143 214.08 106.566 214.796 107.413C215.512 108.259 215.87 109.434 215.87 110.938V111.778ZM214.23 110.42C214.223 109.496 213.998 108.777 213.556 108.262C213.12 107.748 212.511 107.491 211.73 107.491C210.974 107.491 210.333 107.761 209.806 108.301C209.278 108.842 208.953 109.548 208.829 110.42H214.23ZM223.185 116.016V114.297C224.057 114.942 225.017 115.264 226.066 115.264C227.472 115.264 228.175 114.795 228.175 113.858C228.175 113.591 228.113 113.366 227.989 113.184C227.872 112.995 227.709 112.829 227.501 112.686C227.299 112.543 227.058 112.416 226.778 112.305C226.505 112.188 226.209 112.068 225.89 111.944C225.447 111.768 225.056 111.592 224.718 111.417C224.386 111.234 224.106 111.032 223.878 110.811C223.657 110.583 223.487 110.326 223.37 110.04C223.26 109.753 223.204 109.418 223.204 109.034C223.204 108.565 223.312 108.152 223.526 107.793C223.741 107.429 224.028 107.126 224.386 106.885C224.744 106.638 225.151 106.452 225.607 106.329C226.069 106.205 226.544 106.143 227.032 106.143C227.898 106.143 228.673 106.293 229.357 106.592V108.213C228.621 107.732 227.775 107.491 226.818 107.491C226.518 107.491 226.248 107.527 226.007 107.598C225.766 107.663 225.558 107.758 225.382 107.881C225.213 108.005 225.079 108.155 224.982 108.331C224.89 108.5 224.845 108.689 224.845 108.897C224.845 109.157 224.89 109.375 224.982 109.551C225.079 109.727 225.219 109.883 225.401 110.02C225.584 110.157 225.805 110.28 226.066 110.391C226.326 110.502 226.622 110.622 226.954 110.752C227.397 110.922 227.794 111.097 228.146 111.28C228.497 111.456 228.797 111.657 229.044 111.885C229.291 112.107 229.48 112.364 229.61 112.657C229.747 112.95 229.816 113.298 229.816 113.702C229.816 114.196 229.705 114.626 229.484 114.991C229.269 115.355 228.979 115.658 228.614 115.899C228.25 116.14 227.83 116.319 227.355 116.436C226.879 116.553 226.381 116.612 225.86 116.612C224.832 116.612 223.94 116.413 223.185 116.016ZM240.323 111.778H233.263C233.289 112.891 233.588 113.75 234.161 114.356C234.734 114.961 235.522 115.264 236.525 115.264C237.651 115.264 238.686 114.893 239.63 114.151V115.655C238.751 116.293 237.589 116.612 236.144 116.612C234.731 116.612 233.621 116.159 232.814 115.254C232.006 114.343 231.603 113.064 231.603 111.417C231.603 109.861 232.042 108.594 232.921 107.618C233.806 106.635 234.903 106.143 236.212 106.143C237.521 106.143 238.533 106.566 239.249 107.413C239.965 108.259 240.323 109.434 240.323 110.938V111.778ZM238.683 110.42C238.676 109.496 238.452 108.777 238.009 108.262C237.573 107.748 236.964 107.491 236.183 107.491C235.428 107.491 234.786 107.761 234.259 108.301C233.732 108.842 233.406 109.548 233.282 110.42H238.683ZM250.792 111.778H243.732C243.758 112.891 244.057 113.75 244.63 114.356C245.203 114.961 245.991 115.264 246.993 115.264C248.12 115.264 249.155 114.893 250.099 114.151V115.655C249.22 116.293 248.058 116.612 246.612 116.612C245.2 116.612 244.09 116.159 243.282 115.254C242.475 114.343 242.071 113.064 242.071 111.417C242.071 109.861 242.511 108.594 243.39 107.618C244.275 106.635 245.372 106.143 246.681 106.143C247.989 106.143 249.002 106.566 249.718 107.413C250.434 108.259 250.792 109.434 250.792 110.938V111.778ZM249.151 110.42C249.145 109.496 248.92 108.777 248.478 108.262C248.041 107.748 247.433 107.491 246.651 107.491C245.896 107.491 245.255 107.761 244.728 108.301C244.2 108.842 243.875 109.548 243.751 110.42H249.151ZM261.525 116.377H259.923V110.674C259.923 108.552 259.148 107.491 257.599 107.491C256.798 107.491 256.134 107.793 255.607 108.399C255.086 108.998 254.825 109.756 254.825 110.674V116.377H253.224V106.377H254.825V108.038H254.864C255.62 106.775 256.713 106.143 258.146 106.143C259.239 106.143 260.076 106.498 260.655 107.208C261.235 107.911 261.525 108.93 261.525 110.264V116.377ZM277.198 116.377H275.597V114.815H275.558C274.861 116.013 273.836 116.612 272.482 116.612C271.485 116.612 270.704 116.348 270.138 115.821C269.578 115.293 269.298 114.594 269.298 113.721C269.298 111.853 270.398 110.765 272.599 110.459L275.597 110.04C275.597 108.34 274.91 107.491 273.536 107.491C272.332 107.491 271.245 107.901 270.275 108.721V107.081C271.258 106.456 272.39 106.143 273.673 106.143C276.023 106.143 277.198 107.387 277.198 109.874V116.377ZM275.597 111.319L273.185 111.651C272.443 111.755 271.883 111.941 271.505 112.208C271.127 112.468 270.939 112.933 270.939 113.604C270.939 114.092 271.111 114.493 271.456 114.805C271.808 115.111 272.273 115.264 272.853 115.264C273.647 115.264 274.301 114.987 274.816 114.434C275.336 113.874 275.597 113.168 275.597 112.315V111.319ZM49.4738 129.374V138.202H51.1534V140.506H49.4738V143.377H46.6613V140.506H40.5577V138.094C41.0981 137.489 41.658 136.828 42.2374 136.112C42.8169 135.389 43.3767 134.647 43.9171 133.885C44.4575 133.124 44.9588 132.359 45.421 131.59C45.8898 130.816 46.2869 130.077 46.6124 129.374H49.4738ZM43.3214 138.202H46.6613V133.309C46.4334 133.732 46.186 134.162 45.9191 134.598C45.6521 135.028 45.3722 135.454 45.0792 135.877C44.7863 136.294 44.49 136.701 44.1906 137.098C43.8911 137.489 43.6014 137.857 43.3214 138.202ZM57.3546 143.622C54.0213 143.622 52.3546 141.281 52.3546 136.6C52.3546 134.172 52.8038 132.323 53.7023 131.053C54.6072 129.777 55.9158 129.139 57.6281 129.139C60.8833 129.139 62.5109 131.519 62.5109 136.278C62.5109 138.648 62.0649 140.464 61.173 141.727C60.2876 142.99 59.0148 143.622 57.3546 143.622ZM57.4913 131.493C56.1567 131.493 55.4894 133.169 55.4894 136.522C55.4894 139.68 56.1437 141.258 57.4523 141.258C58.7283 141.258 59.3663 139.631 59.3663 136.375C59.3663 133.12 58.7413 131.493 57.4913 131.493ZM67.3839 136.473C66.3878 136.473 65.5838 136.157 64.9718 135.526C64.3663 134.894 64.0636 134.045 64.0636 132.977C64.0636 131.812 64.3859 130.887 65.0304 130.204C65.6814 129.52 66.5473 129.178 67.6281 129.178C68.6632 129.178 69.4705 129.487 70.0499 130.106C70.6359 130.724 70.9288 131.594 70.9288 132.713C70.9288 133.866 70.6066 134.78 69.962 135.458C69.3175 136.135 68.4581 136.473 67.3839 136.473ZM67.5695 130.897C66.6189 130.897 66.1437 131.558 66.1437 132.879C66.1437 134.129 66.5962 134.754 67.5011 134.754C68.4256 134.754 68.8878 134.103 68.8878 132.801C68.8878 131.532 68.4484 130.897 67.5695 130.897ZM77.6085 129.374L68.4874 143.377H66.1046L75.2062 129.374H77.6085ZM76.1046 143.573C75.1085 143.573 74.3045 143.257 73.6925 142.625C73.087 141.994 72.7843 141.144 72.7843 140.077C72.7843 138.911 73.1066 137.987 73.7511 137.303C74.4021 136.62 75.268 136.278 76.3488 136.278C77.3904 136.278 78.201 136.584 78.7804 137.196C79.3598 137.808 79.6495 138.674 79.6495 139.793C79.6495 140.946 79.3273 141.864 78.6827 142.547C78.0382 143.231 77.1788 143.573 76.1046 143.573ZM76.2609 137.997C75.3169 137.997 74.8448 138.657 74.8448 139.979C74.8448 141.229 75.3038 141.854 76.2218 141.854C77.1463 141.854 77.6085 141.203 77.6085 139.901C77.6085 139.295 77.4848 138.827 77.2374 138.495C76.99 138.163 76.6645 137.997 76.2609 137.997ZM88.9171 131.795C88.3963 131.795 87.9698 131.642 87.6378 131.336C87.3058 131.024 87.1398 130.643 87.1398 130.194C87.1398 129.732 87.3058 129.354 87.6378 129.061C87.9698 128.768 88.3963 128.622 88.9171 128.622C89.4445 128.622 89.8709 128.768 90.1964 129.061C90.5284 129.354 90.6945 129.732 90.6945 130.194C90.6945 130.663 90.5284 131.047 90.1964 131.346C89.8709 131.646 89.4445 131.795 88.9171 131.795ZM90.4406 143.377H87.3546V133.377H90.4406V143.377ZM108.917 143.377H105.841V137.674C105.841 136.222 105.307 135.497 104.239 135.497C103.732 135.497 103.318 135.715 102.999 136.151C102.68 136.587 102.521 137.131 102.521 137.782V143.377H99.4347V137.616C99.4347 136.203 98.9106 135.497 97.8624 135.497C97.3351 135.497 96.9119 135.705 96.5929 136.122C96.2804 136.538 96.1241 137.105 96.1241 137.821V143.377H93.0382V133.377H96.1241V134.94H96.1632C96.4822 134.406 96.9282 133.973 97.5011 133.641C98.0805 133.303 98.712 133.133 99.3956 133.133C100.808 133.133 101.775 133.755 102.296 134.999C103.058 133.755 104.178 133.133 105.655 133.133C107.83 133.133 108.917 134.474 108.917 137.157V143.377ZM114.484 142.215H114.444V147.977H111.359V133.377H114.444V134.881H114.484C115.245 133.716 116.316 133.133 117.696 133.133C118.992 133.133 119.991 133.579 120.694 134.471C121.404 135.357 121.759 136.564 121.759 138.094C121.759 139.761 121.345 141.099 120.519 142.108C119.698 143.117 118.605 143.622 117.237 143.622C116.033 143.622 115.115 143.153 114.484 142.215ZM114.396 138.114V138.915C114.396 139.605 114.578 140.168 114.943 140.604C115.307 141.04 115.786 141.258 116.378 141.258C117.081 141.258 117.625 140.988 118.009 140.448C118.4 139.901 118.595 139.129 118.595 138.133C118.595 136.375 117.911 135.497 116.544 135.497C115.913 135.497 115.395 135.737 114.991 136.219C114.594 136.694 114.396 137.326 114.396 138.114ZM130.284 136.161C129.913 135.959 129.48 135.858 128.985 135.858C128.315 135.858 127.791 136.105 127.413 136.6C127.036 137.088 126.847 137.756 126.847 138.602V143.377H123.761V133.377H126.847V135.233H126.886C127.374 133.879 128.253 133.202 129.523 133.202C129.848 133.202 130.102 133.241 130.284 133.319V136.161ZM136.417 143.622C134.75 143.622 133.439 143.156 132.482 142.225C131.531 141.288 131.056 140.018 131.056 138.417C131.056 136.763 131.551 135.471 132.54 134.54C133.53 133.602 134.868 133.133 136.554 133.133C138.214 133.133 139.516 133.602 140.46 134.54C141.404 135.471 141.876 136.704 141.876 138.241C141.876 139.901 141.388 141.213 140.411 142.176C139.441 143.14 138.11 143.622 136.417 143.622ZM136.495 135.497C135.766 135.497 135.2 135.747 134.796 136.249C134.392 136.75 134.191 137.459 134.191 138.377C134.191 140.298 134.965 141.258 136.515 141.258C137.993 141.258 138.732 140.272 138.732 138.299C138.732 136.431 137.986 135.497 136.495 135.497ZM153.4 133.377L149.679 143.377H146.163L142.618 133.377H145.919L147.657 139.54C147.853 140.236 147.967 140.829 147.999 141.317H148.038C148.084 140.855 148.204 140.282 148.4 139.598L150.177 133.377H153.4ZM163.507 139.256H156.984C157.088 140.708 158.002 141.434 159.728 141.434C160.828 141.434 161.795 141.174 162.628 140.653V142.879C161.704 143.374 160.502 143.622 159.025 143.622C157.41 143.622 156.157 143.176 155.265 142.284C154.373 141.385 153.927 140.135 153.927 138.534C153.927 136.874 154.409 135.558 155.372 134.588C156.336 133.618 157.521 133.133 158.927 133.133C160.385 133.133 161.512 133.566 162.306 134.432C163.107 135.298 163.507 136.473 163.507 137.958V139.256ZM160.646 137.362C160.646 135.93 160.066 135.213 158.907 135.213C158.413 135.213 157.983 135.418 157.618 135.829C157.26 136.239 157.042 136.75 156.964 137.362H160.646ZM181.222 143.377H178.146V137.674C178.146 136.222 177.612 135.497 176.544 135.497C176.036 135.497 175.623 135.715 175.304 136.151C174.985 136.587 174.825 137.131 174.825 137.782V143.377H171.739V137.616C171.739 136.203 171.215 135.497 170.167 135.497C169.64 135.497 169.217 135.705 168.898 136.122C168.585 136.538 168.429 137.105 168.429 137.821V143.377H165.343V133.377H168.429V134.94H168.468C168.787 134.406 169.233 133.973 169.806 133.641C170.385 133.303 171.017 133.133 171.7 133.133C173.113 133.133 174.08 133.755 174.601 134.999C175.362 133.755 176.482 133.133 177.96 133.133C180.135 133.133 181.222 134.474 181.222 137.157V143.377ZM192.648 139.256H186.124C186.228 140.708 187.143 141.434 188.868 141.434C189.969 141.434 190.935 141.174 191.769 140.653V142.879C190.844 143.374 189.643 143.622 188.165 143.622C186.551 143.622 185.297 143.176 184.405 142.284C183.513 141.385 183.068 140.135 183.068 138.534C183.068 136.874 183.549 135.558 184.513 134.588C185.476 133.618 186.661 133.133 188.068 133.133C189.526 133.133 190.652 133.566 191.446 134.432C192.247 135.298 192.648 136.473 192.648 137.958V139.256ZM189.786 137.362C189.786 135.93 189.207 135.213 188.048 135.213C187.553 135.213 187.123 135.418 186.759 135.829C186.401 136.239 186.183 136.75 186.105 137.362H189.786ZM204.142 143.377H201.066V137.821C201.066 136.271 200.512 135.497 199.405 135.497C198.872 135.497 198.432 135.702 198.087 136.112C197.742 136.522 197.569 137.043 197.569 137.674V143.377H194.484V133.377H197.569V134.959H197.609C198.344 133.742 199.415 133.133 200.821 133.133C203.035 133.133 204.142 134.507 204.142 137.254V143.377ZM212.638 143.26C212.182 143.501 211.495 143.622 210.577 143.622C208.403 143.622 207.316 142.492 207.316 140.233V135.653H205.694V133.377H207.316V131.219L210.392 130.34V133.377H212.638V135.653H210.392V139.696C210.392 140.737 210.805 141.258 211.632 141.258C211.957 141.258 212.293 141.164 212.638 140.975V143.26ZM221.017 130.838C220.73 130.838 220.486 130.741 220.284 130.545C220.082 130.35 219.982 130.103 219.982 129.803C219.982 129.504 220.082 129.256 220.284 129.061C220.486 128.859 220.73 128.758 221.017 128.758C221.31 128.758 221.557 128.859 221.759 129.061C221.967 129.256 222.071 129.504 222.071 129.803C222.071 130.09 221.967 130.334 221.759 130.536C221.557 130.737 221.31 130.838 221.017 130.838ZM221.798 143.377H220.196V133.377H221.798V143.377ZM233.341 143.377H231.739V137.674C231.739 135.552 230.965 134.491 229.415 134.491C228.614 134.491 227.95 134.793 227.423 135.399C226.902 135.998 226.642 136.756 226.642 137.674V143.377H225.04V133.377H226.642V135.038H226.681C227.436 133.775 228.53 133.143 229.962 133.143C231.056 133.143 231.892 133.498 232.472 134.208C233.051 134.911 233.341 135.93 233.341 137.264V143.377ZM246.036 143.612C244.558 143.612 243.377 143.146 242.491 142.215C241.612 141.278 241.173 140.038 241.173 138.495C241.173 136.815 241.632 135.503 242.55 134.559C243.468 133.615 244.708 133.143 246.271 133.143C247.762 133.143 248.924 133.602 249.757 134.52C250.597 135.438 251.017 136.711 251.017 138.338C251.017 139.933 250.564 141.213 249.659 142.176C248.761 143.133 247.553 143.612 246.036 143.612ZM246.153 134.491C245.125 134.491 244.311 134.842 243.712 135.545C243.113 136.242 242.814 137.206 242.814 138.436C242.814 139.621 243.116 140.555 243.722 141.239C244.327 141.922 245.138 142.264 246.153 142.264C247.189 142.264 247.983 141.929 248.536 141.258C249.096 140.588 249.376 139.634 249.376 138.397C249.376 137.147 249.096 136.183 248.536 135.506C247.983 134.829 247.189 134.491 246.153 134.491ZM261.661 143.377H260.06V141.795H260.021C259.357 143.006 258.328 143.612 256.935 143.612C254.552 143.612 253.36 142.193 253.36 139.354V133.377H254.952V139.1C254.952 141.209 255.76 142.264 257.374 142.264C258.155 142.264 258.797 141.978 259.298 141.405C259.806 140.825 260.06 140.07 260.06 139.139V133.377H261.661V143.377ZM270.118 134.999C269.838 134.784 269.435 134.676 268.907 134.676C268.224 134.676 267.651 134.999 267.189 135.643C266.733 136.288 266.505 137.167 266.505 138.28V143.377H264.903V133.377H266.505V135.438H266.544C266.772 134.735 267.12 134.188 267.589 133.797C268.058 133.4 268.582 133.202 269.161 133.202C269.578 133.202 269.897 133.247 270.118 133.338V134.999ZM281.984 143.28C281.606 143.488 281.108 143.592 280.489 143.592C278.738 143.592 277.862 142.616 277.862 140.663V134.745H276.144V133.377H277.862V130.936L279.464 130.418V133.377H281.984V134.745H279.464V140.379C279.464 141.05 279.578 141.528 279.806 141.815C280.034 142.101 280.411 142.245 280.939 142.245C281.342 142.245 281.691 142.134 281.984 141.913V143.28ZM288.302 143.612C286.824 143.612 285.642 143.146 284.757 142.215C283.878 141.278 283.439 140.038 283.439 138.495C283.439 136.815 283.898 135.503 284.816 134.559C285.734 133.615 286.974 133.143 288.536 133.143C290.027 133.143 291.189 133.602 292.023 134.52C292.862 135.438 293.282 136.711 293.282 138.338C293.282 139.933 292.83 141.213 291.925 142.176C291.026 143.133 289.819 143.612 288.302 143.612ZM288.419 134.491C287.39 134.491 286.577 134.842 285.978 135.545C285.379 136.242 285.079 137.206 285.079 138.436C285.079 139.621 285.382 140.555 285.987 141.239C286.593 141.922 287.403 142.264 288.419 142.264C289.454 142.264 290.248 141.929 290.802 141.258C291.362 140.588 291.642 139.634 291.642 138.397C291.642 137.147 291.362 136.183 290.802 135.506C290.248 134.829 289.454 134.491 288.419 134.491ZM300.48 143.28C300.102 143.488 299.604 143.592 298.985 143.592C297.234 143.592 296.359 142.616 296.359 140.663V134.745H294.64V133.377H296.359V130.936L297.96 130.418V133.377H300.48V134.745H297.96V140.379C297.96 141.05 298.074 141.528 298.302 141.815C298.53 142.101 298.907 142.245 299.435 142.245C299.838 142.245 300.187 142.134 300.48 141.913V143.28ZM309.776 143.377H308.175V141.815H308.136C307.439 143.013 306.414 143.612 305.06 143.612C304.064 143.612 303.282 143.348 302.716 142.821C302.156 142.293 301.876 141.594 301.876 140.721C301.876 138.853 302.976 137.765 305.177 137.459L308.175 137.04C308.175 135.34 307.488 134.491 306.114 134.491C304.91 134.491 303.823 134.901 302.853 135.721V134.081C303.836 133.456 304.969 133.143 306.251 133.143C308.601 133.143 309.776 134.387 309.776 136.874V143.377ZM308.175 138.319L305.763 138.651C305.021 138.755 304.461 138.941 304.083 139.208C303.706 139.468 303.517 139.933 303.517 140.604C303.517 141.092 303.689 141.493 304.034 141.805C304.386 142.111 304.851 142.264 305.431 142.264C306.225 142.264 306.879 141.987 307.394 141.434C307.915 140.874 308.175 140.168 308.175 139.315V138.319ZM314.396 143.377H312.794V128.573H314.396V143.377ZM50.3331 169.577C50.3331 173.249 48.5753 175.084 45.0597 175.084C43.8227 175.084 42.742 174.85 41.8175 174.381V172.78C42.9438 173.405 44.018 173.717 45.0402 173.717C47.5011 173.717 48.7316 172.409 48.7316 169.792V168.698H48.6925C47.9308 169.974 46.785 170.612 45.255 170.612C44.0115 170.612 43.0089 170.169 42.2472 169.284C41.492 168.392 41.1144 167.197 41.1144 165.7C41.1144 164 41.5213 162.65 42.3351 161.647C43.1554 160.644 44.2752 160.143 45.6945 160.143C47.0421 160.143 48.0415 160.683 48.6925 161.764H48.7316V160.377H50.3331V169.577ZM48.7316 165.856V164.381C48.7316 163.587 48.4614 162.907 47.921 162.34C47.3872 161.774 46.7198 161.491 45.9191 161.491C44.9295 161.491 44.1547 161.852 43.5948 162.575C43.035 163.291 42.755 164.297 42.755 165.592C42.755 166.706 43.0219 167.597 43.5558 168.268C44.0962 168.932 44.809 169.264 45.6945 169.264C46.5929 169.264 47.3221 168.945 47.882 168.307C48.4484 167.669 48.7316 166.852 48.7316 165.856ZM57.755 170.612C56.2771 170.612 55.0955 170.146 54.2101 169.215C53.3312 168.278 52.8917 167.038 52.8917 165.495C52.8917 163.815 53.3507 162.503 54.2687 161.559C55.1866 160.615 56.4269 160.143 57.9894 160.143C59.4803 160.143 60.6424 160.602 61.4757 161.52C62.3156 162.438 62.7355 163.711 62.7355 165.338C62.7355 166.933 62.283 168.213 61.3781 169.176C60.4796 170.133 59.2719 170.612 57.755 170.612ZM57.8722 161.491C56.8435 161.491 56.0297 161.842 55.4308 162.545C54.8318 163.242 54.5323 164.206 54.5323 165.436C54.5323 166.621 54.8351 167.555 55.4406 168.239C56.046 168.922 56.8566 169.264 57.8722 169.264C58.9073 169.264 59.7016 168.929 60.255 168.258C60.8149 167.588 61.0948 166.634 61.0948 165.397C61.0948 164.147 60.8149 163.183 60.255 162.506C59.7016 161.829 58.9073 161.491 57.8722 161.491ZM70.4113 165.436H65.0792V164.176H70.4113V165.436ZM77.9406 170.28C77.5629 170.488 77.0649 170.592 76.4464 170.592C74.6951 170.592 73.8195 169.616 73.8195 167.663V161.745H72.1007V160.377H73.8195V157.936L75.421 157.418V160.377H77.9406V161.745H75.421V167.379C75.421 168.05 75.535 168.528 75.7628 168.815C75.9907 169.101 76.3683 169.245 76.8956 169.245C77.2993 169.245 77.6476 169.134 77.9406 168.913V170.28ZM84.2589 170.612C82.781 170.612 81.5994 170.146 80.714 169.215C79.8351 168.278 79.3956 167.038 79.3956 165.495C79.3956 163.815 79.8546 162.503 80.7726 161.559C81.6906 160.615 82.9308 160.143 84.4933 160.143C85.9842 160.143 87.1463 160.602 87.9796 161.52C88.8195 162.438 89.2394 163.711 89.2394 165.338C89.2394 166.933 88.7869 168.213 87.882 169.176C86.9835 170.133 85.7758 170.612 84.2589 170.612ZM84.3761 161.491C83.3475 161.491 82.5337 161.842 81.9347 162.545C81.3357 163.242 81.0363 164.206 81.0363 165.436C81.0363 166.621 81.339 167.555 81.9445 168.239C82.5499 168.922 83.3605 169.264 84.3761 169.264C85.4113 169.264 86.2055 168.929 86.7589 168.258C87.3188 167.588 87.5988 166.634 87.5988 165.397C87.5988 164.147 87.3188 163.183 86.7589 162.506C86.2055 161.829 85.4113 161.491 84.3761 161.491ZM96.9152 165.436H91.5831V164.176H96.9152V165.436ZM114.005 170.377H112.403V164.635C112.403 163.528 112.231 162.728 111.886 162.233C111.547 161.738 110.974 161.491 110.167 161.491C109.484 161.491 108.901 161.803 108.419 162.428C107.944 163.053 107.706 163.802 107.706 164.674V170.377H106.105V164.44C106.105 162.474 105.346 161.491 103.829 161.491C103.126 161.491 102.547 161.787 102.091 162.379C101.635 162.965 101.407 163.73 101.407 164.674V170.377H99.8058V160.377H101.407V161.959H101.446C102.156 160.749 103.191 160.143 104.552 160.143C105.235 160.143 105.831 160.335 106.339 160.719C106.847 161.097 107.195 161.595 107.384 162.213C108.126 160.833 109.233 160.143 110.704 160.143C112.905 160.143 114.005 161.5 114.005 164.215V170.377ZM124.191 170.377H122.589V168.815H122.55C121.853 170.013 120.828 170.612 119.474 170.612C118.478 170.612 117.696 170.348 117.13 169.821C116.57 169.293 116.29 168.594 116.29 167.721C116.29 165.853 117.39 164.765 119.591 164.459L122.589 164.04C122.589 162.34 121.902 161.491 120.528 161.491C119.324 161.491 118.237 161.901 117.267 162.721V161.081C118.25 160.456 119.383 160.143 120.665 160.143C123.015 160.143 124.191 161.387 124.191 163.874V170.377ZM122.589 165.319L120.177 165.651C119.435 165.755 118.875 165.941 118.497 166.208C118.12 166.468 117.931 166.933 117.931 167.604C117.931 168.092 118.103 168.493 118.448 168.805C118.8 169.111 119.265 169.264 119.845 169.264C120.639 169.264 121.293 168.987 121.808 168.434C122.329 167.874 122.589 167.168 122.589 166.315V165.319ZM132.423 161.999C132.143 161.784 131.739 161.676 131.212 161.676C130.528 161.676 129.956 161.999 129.493 162.643C129.038 163.288 128.81 164.167 128.81 165.28V170.377H127.208V160.377H128.81V162.438H128.849C129.077 161.735 129.425 161.188 129.894 160.797C130.362 160.4 130.887 160.202 131.466 160.202C131.883 160.202 132.202 160.247 132.423 160.338V161.999ZM142.462 170.377H140.216L135.802 165.573H135.763V170.377H134.161V155.573H135.763V164.958H135.802L140.001 160.377H142.101L137.462 165.202L142.462 170.377ZM152.14 165.778H145.079C145.105 166.891 145.405 167.75 145.978 168.356C146.551 168.961 147.338 169.264 148.341 169.264C149.467 169.264 150.502 168.893 151.446 168.151V169.655C150.568 170.293 149.405 170.612 147.96 170.612C146.547 170.612 145.437 170.159 144.63 169.254C143.823 168.343 143.419 167.064 143.419 165.417C143.419 163.861 143.859 162.594 144.737 161.618C145.623 160.635 146.72 160.143 148.028 160.143C149.337 160.143 150.349 160.566 151.066 161.413C151.782 162.259 152.14 163.434 152.14 164.938V165.778ZM150.499 164.42C150.493 163.496 150.268 162.777 149.825 162.262C149.389 161.748 148.78 161.491 147.999 161.491C147.244 161.491 146.603 161.761 146.075 162.301C145.548 162.842 145.222 163.548 145.099 164.42H150.499ZM159.21 170.28C158.832 170.488 158.334 170.592 157.716 170.592C155.965 170.592 155.089 169.616 155.089 167.663V161.745H153.37V160.377H155.089V157.936L156.691 157.418V160.377H159.21V161.745H156.691V167.379C156.691 168.05 156.804 168.528 157.032 168.815C157.26 169.101 157.638 169.245 158.165 169.245C158.569 169.245 158.917 169.134 159.21 168.913V170.28ZM174.874 165.778H167.814C167.84 166.891 168.139 167.75 168.712 168.356C169.285 168.961 170.073 169.264 171.075 169.264C172.202 169.264 173.237 168.893 174.181 168.151V169.655C173.302 170.293 172.14 170.612 170.694 170.612C169.282 170.612 168.172 170.159 167.364 169.254C166.557 168.343 166.153 167.064 166.153 165.417C166.153 163.861 166.593 162.594 167.472 161.618C168.357 160.635 169.454 160.143 170.763 160.143C172.071 160.143 173.084 160.566 173.8 161.413C174.516 162.259 174.874 163.434 174.874 164.938V165.778ZM173.234 164.42C173.227 163.496 173.002 162.777 172.56 162.262C172.123 161.748 171.515 161.491 170.734 161.491C169.978 161.491 169.337 161.761 168.81 162.301C168.282 162.842 167.957 163.548 167.833 164.42H173.234ZM182.247 156.979C181.935 156.803 181.58 156.715 181.183 156.715C180.063 156.715 179.503 157.422 179.503 158.834V160.377H181.847V161.745H179.503V170.377H177.911V161.745H176.202V160.377H177.911V158.756C177.911 157.708 178.214 156.881 178.819 156.276C179.425 155.664 180.18 155.358 181.085 155.358C181.573 155.358 181.961 155.417 182.247 155.534V156.979ZM188.517 156.979C188.204 156.803 187.849 156.715 187.452 156.715C186.332 156.715 185.773 157.422 185.773 158.834V160.377H188.116V161.745H185.773V170.377H184.181V161.745H182.472V160.377H184.181V158.756C184.181 157.708 184.484 156.881 185.089 156.276C185.694 155.664 186.45 155.358 187.355 155.358C187.843 155.358 188.23 155.417 188.517 155.534V156.979ZM190.665 157.838C190.379 157.838 190.135 157.741 189.933 157.545C189.731 157.35 189.63 157.103 189.63 156.803C189.63 156.504 189.731 156.256 189.933 156.061C190.135 155.859 190.379 155.758 190.665 155.758C190.958 155.758 191.206 155.859 191.407 156.061C191.616 156.256 191.72 156.504 191.72 156.803C191.72 157.09 191.616 157.334 191.407 157.536C191.206 157.737 190.958 157.838 190.665 157.838ZM191.446 170.377H189.845V160.377H191.446V170.377ZM201.505 169.918C200.737 170.381 199.825 170.612 198.771 170.612C197.345 170.612 196.193 170.15 195.314 169.225C194.441 168.294 194.005 167.09 194.005 165.612C194.005 163.965 194.477 162.643 195.421 161.647C196.365 160.644 197.625 160.143 199.2 160.143C200.079 160.143 200.854 160.306 201.525 160.631V162.272C200.782 161.751 199.988 161.491 199.142 161.491C198.12 161.491 197.28 161.859 196.622 162.594C195.971 163.323 195.646 164.284 195.646 165.475C195.646 166.647 195.952 167.571 196.564 168.249C197.182 168.926 198.009 169.264 199.044 169.264C199.916 169.264 200.737 168.974 201.505 168.395V169.918ZM204.747 157.838C204.461 157.838 204.217 157.741 204.015 157.545C203.813 157.35 203.712 157.103 203.712 156.803C203.712 156.504 203.813 156.256 204.015 156.061C204.217 155.859 204.461 155.758 204.747 155.758C205.04 155.758 205.288 155.859 205.489 156.061C205.698 156.256 205.802 156.504 205.802 156.803C205.802 157.09 205.698 157.334 205.489 157.536C205.288 157.737 205.04 157.838 204.747 157.838ZM205.528 170.377H203.927V160.377H205.528V170.377ZM216.808 165.778H209.747C209.773 166.891 210.073 167.75 210.646 168.356C211.219 168.961 212.006 169.264 213.009 169.264C214.135 169.264 215.17 168.893 216.114 168.151V169.655C215.235 170.293 214.073 170.612 212.628 170.612C211.215 170.612 210.105 170.159 209.298 169.254C208.491 168.343 208.087 167.064 208.087 165.417C208.087 163.861 208.526 162.594 209.405 161.618C210.291 160.635 211.388 160.143 212.696 160.143C214.005 160.143 215.017 160.566 215.734 161.413C216.45 162.259 216.808 163.434 216.808 164.938V165.778ZM215.167 164.42C215.161 163.496 214.936 162.777 214.493 162.262C214.057 161.748 213.448 161.491 212.667 161.491C211.912 161.491 211.271 161.761 210.743 162.301C210.216 162.842 209.89 163.548 209.767 164.42H215.167ZM227.54 170.377H225.939V164.674C225.939 162.552 225.164 161.491 223.614 161.491C222.814 161.491 222.15 161.793 221.622 162.399C221.101 162.998 220.841 163.756 220.841 164.674V170.377H219.239V160.377H220.841V162.038H220.88C221.635 160.775 222.729 160.143 224.161 160.143C225.255 160.143 226.092 160.498 226.671 161.208C227.25 161.911 227.54 162.93 227.54 164.264V170.377ZM237.384 169.918C236.616 170.381 235.704 170.612 234.65 170.612C233.224 170.612 232.071 170.15 231.193 169.225C230.32 168.294 229.884 167.09 229.884 165.612C229.884 163.965 230.356 162.643 231.3 161.647C232.244 160.644 233.504 160.143 235.079 160.143C235.958 160.143 236.733 160.306 237.403 160.631V162.272C236.661 161.751 235.867 161.491 235.021 161.491C233.998 161.491 233.159 161.859 232.501 162.594C231.85 163.323 231.525 164.284 231.525 165.475C231.525 166.647 231.831 167.571 232.443 168.249C233.061 168.926 233.888 169.264 234.923 169.264C235.795 169.264 236.616 168.974 237.384 168.395V169.918ZM247.765 160.377L243.165 171.979C242.345 174.049 241.193 175.084 239.708 175.084C239.291 175.084 238.943 175.042 238.663 174.958V173.522C239.008 173.639 239.324 173.698 239.61 173.698C240.418 173.698 241.023 173.216 241.427 172.252L242.228 170.358L238.321 160.377H240.099L242.804 168.073C242.836 168.17 242.905 168.424 243.009 168.834H243.068C243.1 168.678 243.165 168.431 243.263 168.092L246.105 160.377H247.765ZM251.534 156.374L251.349 166.432H250.03L249.855 156.374H251.534ZM250.714 170.553C250.415 170.553 250.157 170.449 249.943 170.241C249.734 170.032 249.63 169.778 249.63 169.479C249.63 169.18 249.734 168.926 249.943 168.717C250.157 168.502 250.415 168.395 250.714 168.395C251.007 168.395 251.261 168.502 251.476 168.717C251.691 168.926 251.798 169.18 251.798 169.479C251.798 169.778 251.691 170.032 251.476 170.241C251.261 170.449 251.007 170.553 250.714 170.553ZM260.118 156.139L258.751 160.495H257.599L258.653 156.139H260.118ZM257.15 156.139L255.782 160.495H254.63L255.714 156.139H257.15Z" fill="white"/>
<rect x="40.1769" y="206.377" width="305" height="41" rx="14" fill="white" fill-opacity="0.1"/>
<path d="M145.235 230.377V220.196H148.865C149.654 220.196 150.308 220.332 150.829 220.603C151.352 220.875 151.743 221.251 152.002 221.732C152.26 222.209 152.39 222.761 152.39 223.387C152.39 224.01 152.259 224.559 151.997 225.033C151.738 225.504 151.347 225.87 150.824 226.132C150.303 226.394 149.649 226.524 148.86 226.524H146.11V225.202H148.721C149.218 225.202 149.622 225.131 149.934 224.988C150.249 224.846 150.479 224.639 150.625 224.367C150.771 224.095 150.843 223.769 150.843 223.387C150.843 223.003 150.769 222.67 150.62 222.388C150.474 222.106 150.244 221.891 149.929 221.742C149.617 221.589 149.208 221.513 148.701 221.513H146.772V230.377H145.235ZM150.262 225.784L152.777 230.377H151.027L148.561 225.784H150.262ZM157.335 230.532C156.583 230.532 155.935 230.371 155.391 230.049C154.851 229.725 154.433 229.269 154.138 228.682C153.847 228.092 153.701 227.401 153.701 226.609C153.701 225.827 153.847 225.137 154.138 224.541C154.433 223.944 154.844 223.479 155.371 223.144C155.902 222.809 156.521 222.642 157.231 222.642C157.662 222.642 158.079 222.713 158.484 222.855C158.888 222.998 159.251 223.222 159.572 223.527C159.894 223.832 160.147 224.228 160.333 224.715C160.519 225.199 160.611 225.787 160.611 226.48V227.007H154.541V225.893H159.155C159.155 225.502 159.075 225.156 158.916 224.854C158.757 224.549 158.533 224.309 158.245 224.133C157.96 223.957 157.625 223.87 157.241 223.87C156.823 223.87 156.458 223.972 156.147 224.178C155.839 224.38 155.6 224.645 155.431 224.973C155.265 225.298 155.182 225.651 155.182 226.032V226.902C155.182 227.413 155.272 227.847 155.451 228.205C155.633 228.563 155.887 228.836 156.212 229.025C156.536 229.211 156.916 229.304 157.35 229.304C157.632 229.304 157.889 229.264 158.121 229.184C158.353 229.101 158.553 228.979 158.722 228.816C158.891 228.654 159.02 228.453 159.11 228.215L160.517 228.468C160.404 228.883 160.202 229.246 159.91 229.557C159.622 229.865 159.259 230.106 158.822 230.278C158.387 230.447 157.892 230.532 157.335 230.532ZM164.483 230.546C163.999 230.546 163.562 230.457 163.171 230.278C162.779 230.096 162.47 229.832 162.241 229.488C162.015 229.143 161.903 228.72 161.903 228.22C161.903 227.789 161.986 227.434 162.151 227.156C162.317 226.877 162.541 226.657 162.822 226.495C163.104 226.332 163.419 226.21 163.767 226.127C164.115 226.044 164.47 225.981 164.831 225.938C165.288 225.885 165.66 225.842 165.945 225.809C166.23 225.772 166.437 225.714 166.566 225.635C166.695 225.555 166.76 225.426 166.76 225.247V225.212C166.76 224.778 166.637 224.441 166.392 224.203C166.15 223.964 165.789 223.845 165.308 223.845C164.808 223.845 164.413 223.956 164.125 224.178C163.84 224.397 163.643 224.64 163.533 224.909L162.136 224.591C162.302 224.126 162.544 223.752 162.862 223.467C163.184 223.179 163.553 222.97 163.971 222.841C164.389 222.708 164.828 222.642 165.288 222.642C165.593 222.642 165.916 222.678 166.258 222.751C166.603 222.821 166.924 222.95 167.222 223.139C167.524 223.328 167.771 223.598 167.963 223.949C168.155 224.297 168.251 224.75 168.251 225.306V230.377H166.8V229.333H166.74C166.644 229.526 166.5 229.715 166.308 229.9C166.115 230.086 165.868 230.24 165.567 230.363C165.265 230.485 164.904 230.546 164.483 230.546ZM164.806 229.353C165.217 229.353 165.568 229.272 165.86 229.11C166.155 228.947 166.379 228.735 166.531 228.473C166.687 228.208 166.765 227.925 166.765 227.623V226.639C166.712 226.692 166.609 226.742 166.457 226.788C166.308 226.831 166.137 226.869 165.945 226.902C165.752 226.932 165.565 226.96 165.383 226.987C165.201 227.01 165.048 227.03 164.925 227.046C164.637 227.083 164.374 227.144 164.135 227.23C163.9 227.317 163.711 227.441 163.568 227.603C163.429 227.762 163.359 227.975 163.359 228.24C163.359 228.608 163.495 228.886 163.767 229.075C164.039 229.26 164.385 229.353 164.806 229.353ZM173.09 230.527C172.474 230.527 171.923 230.369 171.44 230.054C170.959 229.736 170.581 229.284 170.306 228.697C170.034 228.107 169.898 227.399 169.898 226.574C169.898 225.749 170.036 225.043 170.311 224.456C170.589 223.87 170.971 223.421 171.454 223.109C171.938 222.797 172.487 222.642 173.1 222.642C173.574 222.642 173.955 222.721 174.243 222.88C174.535 223.036 174.761 223.218 174.92 223.427C175.082 223.636 175.208 223.82 175.297 223.979H175.387V220.196H176.873V230.377H175.422V229.189H175.297C175.208 229.352 175.079 229.537 174.91 229.746C174.744 229.955 174.515 230.137 174.224 230.293C173.932 230.449 173.554 230.527 173.09 230.527ZM173.418 229.259C173.846 229.259 174.207 229.146 174.502 228.921C174.8 228.692 175.026 228.376 175.178 227.971C175.334 227.567 175.412 227.096 175.412 226.559C175.412 226.029 175.336 225.565 175.183 225.167C175.031 224.769 174.807 224.46 174.512 224.238C174.217 224.015 173.852 223.904 173.418 223.904C172.971 223.904 172.598 224.02 172.3 224.252C172.001 224.484 171.776 224.801 171.623 225.202C171.474 225.603 171.4 226.055 171.4 226.559C171.4 227.07 171.476 227.529 171.628 227.936C171.781 228.344 172.006 228.667 172.305 228.906C172.606 229.141 172.977 229.259 173.418 229.259ZM188.422 224.605L187.075 224.844C187.019 224.672 186.929 224.508 186.807 224.352C186.687 224.196 186.525 224.068 186.319 223.969C186.114 223.87 185.857 223.82 185.549 223.82C185.128 223.82 184.777 223.914 184.495 224.103C184.213 224.289 184.072 224.529 184.072 224.824C184.072 225.079 184.167 225.285 184.356 225.441C184.545 225.596 184.85 225.724 185.27 225.823L186.484 226.102C187.186 226.264 187.71 226.515 188.055 226.853C188.399 227.191 188.572 227.63 188.572 228.17C188.572 228.627 188.439 229.035 188.174 229.393C187.912 229.748 187.546 230.026 187.075 230.228C186.608 230.43 186.066 230.532 185.449 230.532C184.594 230.532 183.897 230.349 183.356 229.985C182.816 229.617 182.485 229.095 182.362 228.419L183.799 228.2C183.888 228.574 184.072 228.858 184.351 229.05C184.629 229.239 184.992 229.333 185.44 229.333C185.927 229.333 186.316 229.232 186.608 229.03C186.899 228.825 187.045 228.574 187.045 228.279C187.045 228.041 186.956 227.84 186.777 227.678C186.601 227.515 186.331 227.393 185.966 227.31L184.674 227.027C183.961 226.864 183.434 226.606 183.093 226.251C182.755 225.896 182.586 225.447 182.586 224.904C182.586 224.453 182.712 224.059 182.964 223.72C183.216 223.382 183.564 223.119 184.008 222.93C184.452 222.738 184.961 222.642 185.534 222.642C186.359 222.642 187.009 222.821 187.483 223.179C187.957 223.533 188.27 224.009 188.422 224.605ZM193.771 222.741V223.934H189.599V222.741H193.771ZM190.718 220.912H192.205V228.135C192.205 228.424 192.248 228.641 192.334 228.787C192.42 228.929 192.531 229.027 192.667 229.08C192.806 229.13 192.957 229.154 193.119 229.154C193.239 229.154 193.343 229.146 193.433 229.13C193.522 229.113 193.592 229.1 193.641 229.09L193.91 230.318C193.824 230.351 193.701 230.384 193.542 230.417C193.383 230.454 193.184 230.474 192.945 230.477C192.554 230.484 192.19 230.414 191.852 230.268C191.514 230.122 191.24 229.897 191.031 229.592C190.822 229.287 190.718 228.904 190.718 228.443V220.912ZM198.55 230.532C197.834 230.532 197.209 230.367 196.675 230.039C196.142 229.711 195.727 229.252 195.432 228.662C195.137 228.072 194.99 227.383 194.99 226.594C194.99 225.802 195.137 225.109 195.432 224.516C195.727 223.923 196.142 223.462 196.675 223.134C197.209 222.806 197.834 222.642 198.55 222.642C199.265 222.642 199.89 222.806 200.424 223.134C200.957 223.462 201.372 223.923 201.667 224.516C201.962 225.109 202.109 225.802 202.109 226.594C202.109 227.383 201.962 228.072 201.667 228.662C201.372 229.252 200.957 229.711 200.424 230.039C199.89 230.367 199.265 230.532 198.55 230.532ZM198.555 229.284C199.019 229.284 199.403 229.161 199.708 228.916C200.013 228.671 200.238 228.344 200.384 227.936C200.533 227.529 200.608 227.08 200.608 226.589C200.608 226.102 200.533 225.654 200.384 225.247C200.238 224.836 200.013 224.506 199.708 224.257C199.403 224.009 199.019 223.885 198.555 223.885C198.087 223.885 197.699 224.009 197.391 224.257C197.086 224.506 196.859 224.836 196.71 225.247C196.564 225.654 196.491 226.102 196.491 226.589C196.491 227.08 196.564 227.529 196.71 227.936C196.859 228.344 197.086 228.671 197.391 228.916C197.699 229.161 198.087 229.284 198.555 229.284ZM203.769 230.377V222.741H205.205V223.954H205.285C205.424 223.543 205.669 223.22 206.021 222.985C206.375 222.746 206.776 222.627 207.224 222.627C207.317 222.627 207.426 222.63 207.552 222.637C207.681 222.643 207.782 222.652 207.855 222.662V224.083C207.796 224.067 207.689 224.049 207.537 224.029C207.385 224.006 207.232 223.994 207.08 223.994C206.728 223.994 206.415 224.068 206.14 224.218C205.868 224.363 205.653 224.567 205.494 224.829C205.335 225.088 205.255 225.383 205.255 225.714V230.377H203.769ZM210.314 233.241C210.092 233.241 209.889 233.223 209.707 233.186C209.525 233.153 209.389 233.117 209.299 233.077L209.657 231.859C209.929 231.932 210.171 231.963 210.383 231.953C210.595 231.943 210.783 231.864 210.945 231.715C211.111 231.566 211.257 231.322 211.383 230.984L211.566 230.477L208.772 222.741H210.363L212.297 228.667H212.377L214.311 222.741H215.907L212.76 231.397C212.614 231.794 212.428 232.131 212.203 232.406C211.977 232.684 211.709 232.893 211.397 233.032C211.086 233.171 210.725 233.241 210.314 233.241Z" fill="white"/>
<g clip-path="url(#clip2_1_1491)">
<path d="M240.051 222.91L234.076 228.885M240.051 222.91L235.737 223.042M240.051 222.91L239.919 227.224" stroke="white" stroke-width="1.26748" stroke-linecap="round" stroke-linejoin="round"/>
</g>
<rect x="-3.82312" y="1.6875" width="392.69" height="6" transform="rotate(4 -3.82312 1.6875)" fill="white"/>
</g>
<defs>
<linearGradient id="paint0_linear_1_1491" x1="284.456" y1="-49.0384" x2="100.544" y2="328.038" gradientUnits="userSpaceOnUse">
<stop stop-color="#26ABFA" stop-opacity="0.8"/>
<stop offset="0.525" stop-color="#7612FA" stop-opacity="0.8"/>
</linearGradient>
<clipPath id="clip0_1_1491">
<rect width="385" height="279" fill="white" transform="translate(0.17688 0.377441)"/>
</clipPath>
<clipPath id="clip1_1_1491">
<rect width="154" height="22" fill="white" transform="translate(40.1769 36.3774)"/>
</clipPath>
<clipPath id="clip2_1_1491">
<rect width="8" height="8" fill="white" transform="translate(233.237 221.877)"/>
</clipPath>
</defs>
</svg>
