<svg width="39" height="42" viewBox="0 0 39 42" fill="none" xmlns="http://www.w3.org/2000/svg">
<g clip-path="url(#clip0_1_1316)">
<path d="M32.8747 27.8199C33.5434 26.0191 34.4229 22.622 34.4229 17.2112C34.4229 15.5841 34.1368 11.6094 34.1368 11.6094C34.1368 11.6094 28.9864 10.4648 19.544 10.4648C10.1017 10.4648 4.66519 11.6094 4.66519 11.6094L4.66516 17.2112C4.66516 22.7286 5.57968 26.1207 6.25265 27.8699C6.64167 28.881 7.43886 29.6382 8.47902 29.9413C10.1829 30.4378 13.528 31.0664 19.544 31.0664C25.4004 31.0664 28.7259 30.498 30.47 30.0308C31.5994 29.7283 32.4678 28.916 32.8747 27.8199Z" fill="#514B81" fill-opacity="0.1" stroke="#292D34"/>
<path d="M16.1104 23.0547H22.4054" stroke="#292D34" stroke-width="2" stroke-linecap="round" stroke-linejoin="round"/>
<path d="M16.1104 17.9043H26.9835" stroke="#292D34" stroke-width="2" stroke-linecap="round" stroke-linejoin="round"/>
<path d="M12.1046 17.332C11.7886 17.332 11.5323 17.5882 11.5323 17.9043C11.5323 18.2204 11.7886 18.4766 12.1046 18.4766C12.4207 18.4766 12.6769 18.2204 12.6769 17.9043C12.6769 17.5882 12.4207 17.332 12.1046 17.332Z" fill="#514B81" stroke="#292D34" stroke-width="2" stroke-linecap="round" stroke-linejoin="round"/>
<path d="M12.1046 22.4824C11.7886 22.4824 11.5323 22.7386 11.5323 23.0547C11.5323 23.3707 11.7886 23.627 12.1046 23.627C12.4207 23.627 12.6769 23.3707 12.6769 23.0547C12.6769 22.7386 12.4207 22.4824 12.1046 22.4824Z" fill="#514B81" stroke="#292D34" stroke-width="2" stroke-linecap="round" stroke-linejoin="round"/>
<path d="M34.214 11.6094C34.157 10.8208 34.0918 10.0965 34.023 9.43783C33.7119 6.46239 31.4385 4.23527 28.4592 3.96391C26.269 3.76442 23.3114 3.59766 19.544 3.59766C15.7766 3.59766 12.8191 3.76442 10.6289 3.96391C7.64961 4.23527 5.37622 6.46239 5.06513 9.43783C4.99626 10.0965 4.93106 10.8208 4.87407 11.6094M34.214 11.6094C34.3378 13.3222 34.4229 15.3382 34.4229 17.6442C34.4229 21.0001 34.2427 23.6436 34.0252 25.6117C33.7189 28.3847 31.6178 30.4252 28.8402 30.6874C26.6686 30.8925 23.6242 31.0664 19.544 31.0664C15.4639 31.0664 12.4195 30.8925 10.2479 30.6874C7.47034 30.4252 5.36921 28.3847 5.06285 25.6117C4.84541 23.6436 4.66516 21.0001 4.66516 17.6442C4.66516 15.3382 4.75027 13.3222 4.87407 11.6094M34.214 11.6094C34.214 11.6094 28.7066 10.4648 19.544 10.4648C10.3815 10.4648 4.87407 11.6094 4.87407 11.6094" stroke="#292D34" stroke-width="2" stroke-linecap="round" stroke-linejoin="round"/>
<path d="M11.5764 1.30859C11.5764 1.30859 11.5323 2.21467 11.5323 6.45898M27.5117 1.30859C27.5117 1.30859 27.5557 2.21467 27.5557 6.45898" stroke="#292D34" stroke-width="2" stroke-linecap="round" stroke-linejoin="round"/>
</g>
<defs>
<clipPath id="clip0_1_1316">
<rect width="32" height="32" fill="white" transform="translate(3.48694 0.1875)"/>
</clipPath>
</defs>
</svg>
