<svg width="82" height="42" viewBox="0 0 82 42" fill="none" xmlns="http://www.w3.org/2000/svg">
<g clip-path="url(#clip0_1_1328)">
<path d="M41.2957 1.49561C46.3406 1.49561 49.7648 1.63231 51.9677 1.7755C53.9713 1.90574 55.4936 3.46932 55.6605 5.47029C55.822 7.40644 55.9839 9.85736 55.9871 11.9307C55.9905 14.1451 55.8128 16.7902 55.646 18.7789C55.4941 20.5896 54.2182 22.0658 52.419 22.3189C50.3631 22.6081 47.1655 22.9119 42.6265 22.9615C42.2039 22.9662 42.3208 22.9686 41.8749 22.9686C41.8749 22.9686 40.0651 25.0821 37.637 27.2067C34.8607 29.6359 32.8336 30.8797 32.8336 30.8797C32.8336 30.8797 33.1163 28.8305 33.1163 26.6416C33.1163 25.1747 32.9894 23.8424 32.9056 23.1232C32.868 22.8006 32.5932 22.5636 32.2685 22.5636C31.4935 22.4851 30.8156 22.4017 30.23 22.3194C28.4286 22.0662 27.147 20.5879 26.9906 18.7756C26.8191 16.7873 26.6348 14.1439 26.6314 11.9307C26.6282 9.85614 26.7839 7.40355 26.9408 5.46687C27.1028 3.46754 28.6195 1.90594 30.6212 1.77572C32.8236 1.63244 36.2482 1.49561 41.2957 1.49561Z" fill="#24223E" fill-opacity="0.1"/>
<path d="M41.8749 22.9686C42.3208 22.9686 42.2039 22.9662 42.6265 22.9615M41.8749 22.9686L42.6265 22.9615M41.8749 22.9686C41.8749 22.9686 40.0651 25.0821 37.637 27.2067C34.8607 29.6359 32.8336 30.8797 32.8336 30.8797C32.8336 30.8797 33.1163 28.8305 33.1163 26.6416C33.1163 25.1747 32.9894 23.8424 32.9056 23.1232C32.868 22.8006 32.5932 22.5636 32.2685 22.5636C31.4935 22.4851 30.8156 22.4017 30.23 22.3194C28.4286 22.0662 27.147 20.5879 26.9906 18.7756C26.8191 16.7873 26.6348 14.1439 26.6314 11.9307C26.6282 9.85614 26.7839 7.40355 26.9408 5.46687C27.1028 3.46754 28.6195 1.90594 30.6212 1.77572C32.8236 1.63244 36.2482 1.49561 41.2957 1.49561C46.3406 1.49561 49.7648 1.63231 51.9677 1.7755C53.9713 1.90574 55.4936 3.46932 55.6605 5.47029C55.822 7.40644 55.9839 9.85736 55.9871 11.9307C55.9905 14.1451 55.8128 16.7902 55.646 18.7789C55.4941 20.5896 54.2182 22.0658 52.419 22.3189C50.3631 22.6081 47.1655 22.9119 42.6265 22.9615" stroke="#514B81" stroke-width="2" stroke-linecap="round" stroke-linejoin="round"/>
<path d="M34.5292 14.4922H42.4404" stroke="#514B81" stroke-width="2" stroke-linecap="round" stroke-linejoin="round"/>
<path d="M34.5292 8.84131H48.0911" stroke="#514B81" stroke-width="2" stroke-linecap="round" stroke-linejoin="round"/>
</g>
<defs>
<clipPath id="clip0_1_1328">
<rect width="32" height="32" fill="white" transform="translate(25.1269 0.1875)"/>
</clipPath>
</defs>
</svg>
