<svg width="41" height="41" viewBox="0 0 41 41" fill="none" xmlns="http://www.w3.org/2000/svg">
<mask id="mask0_1_1444" style="mask-type:alpha" maskUnits="userSpaceOnUse" x="0" y="0" width="41" height="41">
<g clip-path="url(#clip0_1_1444)">
<path d="M20.6769 40.1865C24.577 40.1865 27.8314 40.0391 30.4662 39.8356C35.8638 39.4186 39.909 35.3735 40.326 29.9759C40.5295 27.3412 40.6769 24.0869 40.6769 20.187C40.6769 16.2871 40.5295 13.0329 40.326 10.3981C39.909 5.00054 35.8638 0.955352 30.4662 0.538411C27.8314 0.334882 24.577 0.1875 20.6769 0.1875C16.5953 0.1875 13.2209 0.348916 10.5238 0.567178C5.32189 0.988131 1.43184 4.82756 1.03005 10.031C0.825356 12.6819 0.67688 16.0356 0.67688 20.187C0.67688 24.3384 0.825355 27.6921 1.03005 30.343C1.43183 35.5464 5.32189 39.3859 10.5238 39.8068C13.2209 40.0251 16.5953 40.1865 20.6769 40.1865Z" fill="black"/>
</g>
</mask>
<g mask="url(#mask0_1_1444)">
<rect width="40" height="40" transform="translate(0.67688 0.1875)" fill="#F8F8FC"/>
<g clip-path="url(#clip1_1_1444)">
<path d="M20.4845 8.30615C14.028 8.30615 8.79407 13.5401 8.79407 19.9965C8.79407 20.3115 8.80652 20.6235 8.83096 20.9322C8.98545 22.8831 11.3858 23.3117 12.8644 22.0296C15.6754 19.5918 20.1391 16.4949 24.756 16.3995C28.3051 16.3262 29.964 18.0675 30.7228 19.9542C30.9873 20.6117 32.1749 20.7053 32.1749 19.9966C32.1749 13.5401 26.941 8.30615 20.4845 8.30615Z" fill="#242236" fill-opacity="0.09"/>
<path d="M24.7556 18.8721L21.6082 26.291" stroke="#24223E" stroke-width="2" stroke-linecap="round" stroke-linejoin="round"/>
<path d="M31.2757 24.5008C31.855 23.1145 32.1749 21.5929 32.1749 19.9966C32.1749 13.5401 26.941 8.30615 20.4845 8.30615C14.028 8.30615 8.79407 13.5401 8.79407 19.9965C8.79407 21.7643 9.18642 23.4404 9.8888 24.9425" stroke="#24223E" stroke-width="2" stroke-linecap="round" stroke-linejoin="round"/>
<path d="M12.8413 20.2519C12.8413 15.8895 16.4648 12.353 20.9347 12.353" stroke="#24223E" stroke-width="2" stroke-linecap="round" stroke-linejoin="round"/>
<path d="M20.4841 31.6871C21.974 31.6871 23.1819 30.4792 23.1819 28.9893C23.1819 27.4993 21.974 26.2915 20.4841 26.2915C18.9941 26.2915 17.7863 27.4993 17.7863 28.9893C17.7863 30.4792 18.9941 31.6871 20.4841 31.6871Z" fill="#242236" fill-opacity="0.09" stroke="#24223E" stroke-width="2" stroke-linecap="round" stroke-linejoin="round"/>
</g>
</g>
<defs>
<clipPath id="clip0_1_1444">
<rect width="40" height="40" fill="white" transform="translate(0.67688 0.1875)"/>
</clipPath>
<clipPath id="clip1_1_1444">
<rect width="26" height="26" fill="white" transform="translate(7.67688 7.1875)"/>
</clipPath>
</defs>
</svg>
