<svg width="41" height="41" viewBox="0 0 41 41" fill="none" xmlns="http://www.w3.org/2000/svg">
<mask id="mask0_1_1434" style="mask-type:alpha" maskUnits="userSpaceOnUse" x="0" y="0" width="41" height="41">
<g clip-path="url(#clip0_1_1434)">
<path d="M20.6769 40.1865C24.577 40.1865 27.8314 40.0391 30.4662 39.8356C35.8638 39.4186 39.909 35.3735 40.326 29.9759C40.5295 27.3412 40.6769 24.0869 40.6769 20.187C40.6769 16.2871 40.5295 13.0329 40.326 10.3981C39.909 5.00054 35.8638 0.955352 30.4662 0.538411C27.8314 0.334882 24.577 0.1875 20.6769 0.1875C16.5953 0.1875 13.2209 0.348916 10.5238 0.567178C5.32189 0.988131 1.43184 4.82756 1.03005 10.031C0.825356 12.6819 0.67688 16.0356 0.67688 20.187C0.67688 24.3384 0.825355 27.6921 1.03005 30.343C1.43183 35.5464 5.32189 39.3859 10.5238 39.8068C13.2209 40.0251 16.5953 40.1865 20.6769 40.1865Z" fill="black"/>
</g>
</mask>
<g mask="url(#mask0_1_1434)">
<rect width="40" height="40" transform="translate(0.67688 0.1875)" fill="#F8F8FC"/>
<g clip-path="url(#clip1_1_1434)">
<path d="M31.4712 19.9252C31.4712 18.032 31.4065 16.4224 31.3132 15.086C31.0934 11.9339 28.7326 9.57312 25.5805 9.35327C24.2441 9.26005 22.6344 9.19531 20.741 9.19531C18.8477 9.19531 17.238 9.26005 15.9015 9.35327C12.7494 9.57312 10.3887 11.9339 10.1688 15.086C10.0756 16.4224 10.0109 18.032 10.0109 19.9252C10.0109 21.9201 10.0827 23.6001 10.1841 24.9774C10.4076 28.0153 12.6485 30.2827 15.6872 30.4946C17.0433 30.5892 18.7151 30.6551 20.741 30.6551C22.7669 30.6551 24.4388 30.5892 25.7949 30.4946C28.8336 30.2827 31.0745 28.0153 31.298 24.9774C31.3993 23.6001 31.4712 21.9201 31.4712 19.9252Z" stroke="#24223E" stroke-width="2" stroke-linecap="round" stroke-linejoin="round"/>
<path d="M31.0593 15.1875L26.4497 20.1657C26.1021 20.5411 25.6044 20.7408 25.0938 20.7099L20.0002 20.4012C19.432 20.3668 18.884 20.6178 18.539 21.0706L16.1994 24.1412C15.936 24.4869 15.5508 24.7191 15.1221 24.7905L10.837 25.5047" stroke="#24223E" stroke-width="2" stroke-linecap="round" stroke-linejoin="round"/>
<path d="M25.9024 20.5446L31.4738 15.1797L31.0611 27.973L27.5532 30.4491L14.5532 30.6555L11.6643 29.2111L10.2198 25.4969L15.7913 24.6715L19.5056 20.3383L25.9024 20.5446Z" fill="#24223E" fill-opacity="0.1"/>
</g>
</g>
<defs>
<clipPath id="clip0_1_1434">
<rect width="40" height="40" fill="white" transform="translate(0.67688 0.1875)"/>
</clipPath>
<clipPath id="clip1_1_1434">
<rect width="24" height="24" fill="white" transform="translate(8.67688 8.1875)"/>
</clipPath>
</defs>
</svg>
