<svg width="61" height="29" viewBox="0 0 61 29" fill="none" xmlns="http://www.w3.org/2000/svg">
<g clip-path="url(#clip0_1_1574)">
<path d="M46.8956 0.256836H14.7292C7.11799 0.256836 0.947845 6.42696 0.947845 14.0382C0.947845 21.6494 7.11799 27.8195 14.7292 27.8195H46.8956C54.5069 27.8195 60.677 21.6494 60.677 14.0382C60.677 6.42696 54.5069 0.256836 46.8956 0.256836Z" fill="#4AB9FD"/>
<path d="M46.6558 24.2613C52.4036 24.2613 57.0632 19.6835 57.0632 14.0364C57.0632 8.38937 52.4036 3.81152 46.6558 3.81152C40.9079 3.81152 36.2484 8.38937 36.2484 14.0364C36.2484 19.6835 40.9079 24.2613 46.6558 24.2613Z" fill="white"/>
</g>
<defs>
<clipPath id="clip0_1_1574">
<rect width="60" height="28" fill="white" transform="translate(0.676849 0.256836)"/>
</clipPath>
</defs>
</svg>
