<svg width="97" height="43" viewBox="0 0 97 43" fill="none" xmlns="http://www.w3.org/2000/svg">
<g clip-path="url(#clip0_1_1345)">
<path d="M61.2897 4.04973L63.2675 10.8307L62.7024 28.3481L57.8992 31.7386L46.3151 31.9224L50.8357 2.35449L61.2897 4.04973Z" fill="#514B81" fill-opacity="0.1"/>
<path d="M42.3592 17.329L39.7024 12.8124C39.5983 12.6355 39.5983 12.4162 39.7024 12.2393L42.3593 7.72266" stroke="#514B81" stroke-width="2" stroke-linecap="round" stroke-linejoin="round"/>
<path d="M54.7924 17.3291L57.4493 21.8458C57.5533 22.0226 57.5533 22.242 57.4493 22.4188L54.7924 26.9355" stroke="#514B81" stroke-width="2" stroke-linecap="round" stroke-linejoin="round"/>
<path d="M46.316 31.456L50.8366 2.91943" stroke="#514B81" stroke-width="2" stroke-linecap="round" stroke-linejoin="round"/>
<path d="M63.2676 17.3288C63.2676 13.4941 63.0736 10.5092 62.8464 8.32797C62.5506 5.48812 60.4162 3.35371 57.5763 3.05789C55.3951 2.83067 52.4102 2.63672 48.5755 2.63672C44.7409 2.63672 41.7559 2.83067 39.5747 3.05789C36.7348 3.35371 34.6004 5.48812 34.3046 8.32797C34.0774 10.5092 33.8834 13.4941 33.8834 17.3288C33.8834 21.2763 34.089 24.3233 34.3247 26.5201C34.6185 29.2568 36.6425 31.317 39.38 31.6043C41.5253 31.8295 44.5365 32.0208 48.5755 32.0208C52.6145 32.0208 55.6257 31.8295 57.7711 31.6043C60.5085 31.317 62.5325 29.2568 62.8263 26.5201C63.062 24.3233 63.2676 21.2763 63.2676 17.3288Z" stroke="#514B81" stroke-width="2" stroke-linecap="round" stroke-linejoin="round"/>
</g>
<defs>
<clipPath id="clip0_1_1345">
<rect width="33" height="33" fill="white" transform="translate(31.9069 0.6875)"/>
</clipPath>
</defs>
</svg>
