<svg width="64" height="42" viewBox="0 0 64 42" fill="none" xmlns="http://www.w3.org/2000/svg">
<g clip-path="url(#clip0_1_1337)">
<path d="M45.9278 20.7985C46.1184 19.1665 46.2682 16.997 46.2682 14.2098C46.2682 11.448 46.1211 9.21916 45.933 7.49827C45.6251 4.68166 43.4227 2.65483 40.5998 2.4108C38.4167 2.22206 35.4242 2.06055 31.5761 2.06055C27.7281 2.06055 24.7356 2.22206 22.5524 2.4108C19.7296 2.65483 17.5271 4.68166 17.2193 7.49827C17.0312 9.21916 16.8841 11.448 16.8841 14.2098C16.8841 16.997 17.0339 19.1665 17.2245 20.7985C17.5257 23.3775 19.5299 25.191 22.1158 25.4259C24.2757 25.6222 27.3681 25.7939 31.5761 25.7939C35.7842 25.7939 38.8765 25.6222 41.0365 25.4259C43.6224 25.191 45.6266 23.3775 45.9278 20.7985Z" fill="#24223E" fill-opacity="0.1" stroke="#514B81" stroke-width="2" stroke-linecap="round" stroke-linejoin="round"/>
<path d="M39.4876 20.1434V20.1434C39.4876 20.4555 39.7406 20.7085 40.0527 20.7085H40.0527C40.3647 20.7085 40.6177 20.4555 40.6177 20.1434V20.1434C40.6177 19.8313 40.3647 19.5783 40.0527 19.5783H40.0527C39.7406 19.5783 39.4876 19.8313 39.4876 20.1434Z" fill="#514B81" stroke="#514B81" stroke-width="2" stroke-linecap="round" stroke-linejoin="round"/>
<path d="M41.1827 30.3146C41.1827 30.3146 38.2705 29.7495 31.5764 29.7495C24.8823 29.7495 21.97 30.3146 21.97 30.3146" stroke="#514B81" stroke-width="2" stroke-linecap="round" stroke-linejoin="round"/>
</g>
<defs>
<clipPath id="clip0_1_1337">
<rect width="32" height="32" fill="white" transform="translate(15.7669 0.1875)"/>
</clipPath>
</defs>
</svg>
