<svg width="41" height="41" viewBox="0 0 41 41" fill="none" xmlns="http://www.w3.org/2000/svg">
<mask id="mask0_1_1422" style="mask-type:alpha" maskUnits="userSpaceOnUse" x="0" y="0" width="41" height="41">
<g clip-path="url(#clip0_1_1422)">
<path d="M20.6769 40.1865C24.577 40.1865 27.8314 40.0391 30.4662 39.8356C35.8638 39.4186 39.909 35.3735 40.326 29.9759C40.5295 27.3412 40.6769 24.0869 40.6769 20.187C40.6769 16.2871 40.5295 13.0329 40.326 10.3981C39.909 5.00054 35.8638 0.955352 30.4662 0.538411C27.8314 0.334882 24.577 0.1875 20.6769 0.1875C16.5953 0.1875 13.2209 0.348916 10.5238 0.567178C5.32189 0.988131 1.43184 4.82756 1.03005 10.031C0.825356 12.6819 0.67688 16.0356 0.67688 20.187C0.67688 24.3384 0.825355 27.6921 1.03005 30.343C1.43183 35.5464 5.32189 39.3859 10.5238 39.8068C13.2209 40.0251 16.5953 40.1865 20.6769 40.1865Z" fill="black"/>
</g>
</mask>
<g mask="url(#mask0_1_1422)">
<rect width="40" height="40" transform="translate(0.67688 0.1875)" fill="#F8F8FC"/>
<g clip-path="url(#clip1_1_1422)">
<path fill-rule="evenodd" clip-rule="evenodd" d="M20.4623 31.2657C18.3456 31.2657 16.698 31.1519 15.4587 31.0071C13.5001 30.7784 12.123 29.2564 11.9446 27.2927C11.7956 25.6524 11.6652 23.304 11.6652 20.1084C11.6652 16.9128 11.7956 14.5645 11.9446 12.9242C12.123 10.9604 13.5001 9.43841 15.4587 9.2097C16.698 9.06497 18.3456 8.95117 20.4623 8.95117C22.5596 8.95117 24.2521 9.0629 25.559 9.20574C27.698 9.43952 29.2371 11.1121 29.4225 13.2558C29.5658 14.9137 29.6885 17.1862 29.6885 20.1084C29.6885 21.1189 29.6738 22.0517 29.6487 22.9083C27.4944 24.7225 24.8799 24.6909 23.602 24.5356C23.2635 24.4944 22.9427 24.8346 22.9972 25.1712C23.1994 26.4197 23.2849 28.9739 21.3047 31.2595C21.0315 31.2636 20.7507 31.2657 20.4623 31.2657Z" fill="#242236" fill-opacity="0.09"/>
<path d="M15.4588 31.0071C16.6982 31.1519 18.3457 31.2657 20.4624 31.2657C22.5597 31.2657 24.2523 31.1539 25.5592 31.0111C27.6981 30.7773 29.2373 29.1048 29.4226 26.9611C29.566 25.3031 29.6886 23.0307 29.6886 20.1084C29.6886 17.1862 29.566 14.9137 29.4226 13.2558C29.2373 11.1121 27.6981 9.43952 25.5592 9.20574C24.2523 9.0629 22.5597 8.95117 20.4624 8.95117C18.3457 8.95117 16.6982 9.06497 15.4588 9.2097C13.5003 9.43841 12.1231 10.9604 11.9447 12.9242C11.7957 14.5645 11.6653 16.9128 11.6653 20.1084C11.6653 23.304 11.7957 25.6524 11.9447 27.2927C12.1231 29.2564 13.5003 30.7784 15.4588 31.0071Z" stroke="#24223E" stroke-width="2" stroke-linecap="round" stroke-linejoin="round"/>
<path d="M29.4738 22.6826C27.0247 25.3463 25.1484 22.7168 23.2515 24.6137C21.3545 26.5106 23.984 28.387 21.1058 31.0506" stroke="#24223E" stroke-width="2" stroke-linecap="round" stroke-linejoin="round"/>
<path d="M16.3859 14.1001H24.9684" stroke="#24223E" stroke-width="2" stroke-linecap="round" stroke-linejoin="round"/>
<path d="M16.3859 18.3916H21.9645" stroke="#24223E" stroke-width="2" stroke-linecap="round" stroke-linejoin="round"/>
</g>
</g>
<defs>
<clipPath id="clip0_1_1422">
<rect width="40" height="40" fill="white" transform="translate(0.67688 0.1875)"/>
</clipPath>
<clipPath id="clip1_1_1422">
<rect width="22" height="26" fill="white" transform="translate(9.67688 7.1875)"/>
</clipPath>
</defs>
</svg>
