<svg width="386" height="284" viewBox="0 0 386 284" fill="none" xmlns="http://www.w3.org/2000/svg">
<mask id="mask0_1_1506" style="mask-type:alpha" maskUnits="userSpaceOnUse" x="0" y="0" width="386" height="284">
<g clip-path="url(#clip0_1_1506)">
<path d="M-4.89539 3.92432L416.041 33.1462V328.377H-4.89539V3.92432Z" fill="black"/>
</g>
</mask>
<g mask="url(#mask0_1_1506)">
<rect width="385" height="283" transform="translate(0.17688 0.377441)" fill="url(#paint0_linear_1_1506)"/>
<path d="M60.4618 52.6179C59.3236 56.1409 57.3313 59.1988 52.1678 59.401C44.485 59.401 42.1476 53.0231 42.1476 49.6004C42.1476 40.793 49.2417 38.666 52.0874 38.666C55.3187 38.666 59.8927 40.1451 59.8927 43.9512C59.8927 45.2873 59.0387 46.5837 57.6568 46.5837C56.3156 46.5837 55.3187 45.6932 55.3187 44.2553C55.3187 42.332 56.9043 42.0684 56.9043 41.5419C56.9043 40.2058 53.7744 39.6591 52.6768 39.6591C47.8997 39.6591 46.6593 43.1214 46.6593 49.6012C46.6593 52.5774 47.4118 54.8452 47.696 55.5335C48.4486 57.1737 49.9725 58.2064 52.5543 58.348C55.4615 58.5105 58.2259 56.1813 59.4251 52.6179H60.4618ZM66.6026 49.014C66.6026 53.1646 66.6439 58.4094 71.6645 58.4094C76.6852 58.4094 76.725 53.1646 76.725 49.0133C76.725 44.9038 76.6852 39.6591 71.6645 39.6591C66.6439 39.6591 66.6026 44.9031 66.6026 49.014ZM81.2585 49.014C81.2585 55.007 76.8882 59.401 71.6848 59.401C66.4808 59.401 62.0909 54.9868 62.0909 49.014C62.0909 43.0405 66.4605 38.6667 71.6645 38.6667C76.8679 38.6667 81.2585 43.0203 81.2585 49.014ZM84.7747 40.3062H82.0509V39.1723H83.0876C84.0229 39.1932 84.9371 39.1528 85.8716 39.0712C86.8069 39.0112 87.7421 38.869 88.6571 38.6667V43.9108H88.7586C90.1404 40.793 92.0718 38.6667 95.6896 38.6667C97.4789 38.6667 101.605 39.0712 101.605 43.6067V57.5991H104.287V58.7329H95.1415V57.5991H97.7225V44.2351C97.7225 40.6312 96.5842 40.0837 94.5927 40.0837C91.2185 40.0837 88.6375 44.6807 88.6375 48.3857V57.5788H91.32V58.7127H82.0509V57.5788H84.7747V40.3062ZM116.016 39.173V40.3069H119.045L114.024 54.5014H113.923L109.105 40.3062H111.748V39.1723H102.804V40.3062H105.182L111.829 59.4003H113.536L120.386 40.3062H122.765V39.1723L116.016 39.173ZM136.117 46.037V44.3564C136.117 40.793 134.023 39.6591 131.544 39.6591C128.555 39.6591 127.214 42.4324 127.112 42.7769C126.807 43.8299 126.625 44.9436 126.625 46.037H136.117ZM140.589 52.6179C139.593 57.2141 136.218 59.401 131.848 59.401C126.787 59.401 121.908 55.3515 121.908 49.8438C121.908 44.0126 125.791 38.6667 131.686 38.6667C136.747 38.6667 140.569 42.0886 140.63 47.4749H126.564V49.4993C126.564 54.3996 127.214 58.348 132.621 58.348C135.446 58.348 138.78 55.878 139.471 52.6179H140.589ZM144.412 40.3062H141.688V39.1723H142.724C143.659 39.1932 144.574 39.1528 145.509 39.0712C146.444 39.0112 147.379 38.869 148.294 38.6667V43.9108H148.396C149.778 40.793 151.709 38.6667 155.347 38.6667C157.136 38.6667 161.262 39.0712 161.262 43.6067V57.5991H163.946V58.7329H154.798V57.5991H157.38V44.2351C157.38 40.6312 156.242 40.0837 154.249 40.0837C150.875 40.0837 148.294 44.6807 148.294 48.3857V57.5788H150.977V58.7127H141.688V57.5788H144.412V40.3062ZM178.642 46.037V44.3564C178.642 40.793 176.549 39.6591 174.069 39.6591C171.081 39.6591 169.739 42.4324 169.658 42.7769C169.353 43.8299 169.17 44.9436 169.17 46.037H178.642ZM183.114 52.6179C182.118 57.2141 178.744 59.401 174.374 59.401C169.313 59.401 164.454 55.3515 164.454 49.8438C164.454 44.0126 168.317 38.6667 174.232 38.6667C179.293 38.6667 183.114 42.0886 183.175 47.4749H169.109V49.4993C169.109 54.3996 169.759 58.348 175.166 58.348C177.992 58.348 181.325 55.878 182.016 52.6179H183.114Z" fill="white"/>
<path d="M46.7003 106.139L45.6163 110.495H44.1808L45.5577 106.139H46.7003ZM43.7316 106.139L42.6769 110.495H41.212L42.5792 106.139H43.7316ZM59.0831 119.792C58.048 120.338 56.7589 120.612 55.2159 120.612C53.2238 120.612 51.6287 119.971 50.4308 118.688C49.2329 117.405 48.6339 115.722 48.6339 113.639C48.6339 111.4 49.3077 109.59 50.6554 108.209C52.0031 106.829 53.712 106.139 55.7823 106.139C57.1105 106.139 58.2107 106.331 59.0831 106.715V108.463C58.0805 107.903 56.9738 107.624 55.7628 107.624C54.1547 107.624 52.8494 108.161 51.8468 109.235C50.8507 110.309 50.3527 111.745 50.3527 113.542C50.3527 115.247 50.8182 116.608 51.7491 117.624C52.6866 118.633 53.9139 119.137 55.4308 119.137C56.837 119.137 58.0545 118.825 59.0831 118.2V119.792ZM63.3214 120.377H61.7198V105.573H63.3214V120.377ZM67.3839 107.838C67.0975 107.838 66.8533 107.741 66.6515 107.545C66.4497 107.35 66.3488 107.103 66.3488 106.803C66.3488 106.504 66.4497 106.256 66.6515 106.061C66.8533 105.859 67.0975 105.758 67.3839 105.758C67.6769 105.758 67.9243 105.859 68.1261 106.061C68.3344 106.256 68.4386 106.504 68.4386 106.803C68.4386 107.09 68.3344 107.334 68.1261 107.536C67.9243 107.737 67.6769 107.838 67.3839 107.838ZM68.1652 120.377H66.5636V110.377H68.1652V120.377ZM78.2238 119.918C77.4555 120.381 76.5441 120.612 75.4894 120.612C74.0636 120.612 72.9113 120.15 72.0323 119.225C71.16 118.294 70.7238 117.09 70.7238 115.612C70.7238 113.965 71.1958 112.643 72.1398 111.647C73.0838 110.644 74.3435 110.143 75.9191 110.143C76.798 110.143 77.5727 110.306 78.2433 110.631V112.272C77.5011 111.751 76.7068 111.491 75.8605 111.491C74.8383 111.491 73.9985 111.859 73.3409 112.594C72.6899 113.323 72.3644 114.284 72.3644 115.475C72.3644 116.647 72.6704 117.571 73.2823 118.249C73.9008 118.926 74.7277 119.264 75.7628 119.264C76.6352 119.264 77.4555 118.974 78.2238 118.395V119.918ZM88.9464 120.377H86.7003L82.2863 115.573H82.2472V120.377H80.6456V105.573H82.2472V114.958H82.2863L86.4855 110.377H88.5851L83.9464 115.202L88.9464 120.377ZM101.046 114.713C101.046 118.646 99.2719 120.612 95.7238 120.612C92.3253 120.612 90.6261 118.721 90.6261 114.938V106.374H92.2667V114.831C92.2667 117.702 93.4777 119.137 95.8995 119.137C98.2368 119.137 99.4054 117.75 99.4054 114.977V106.374H101.046V114.713ZM105.978 118.932H105.939V124.977H104.337V110.377H105.939V112.135H105.978C106.765 110.807 107.918 110.143 109.435 110.143C110.724 110.143 111.73 110.592 112.452 111.491C113.175 112.383 113.536 113.581 113.536 115.084C113.536 116.758 113.129 118.099 112.316 119.108C111.502 120.111 110.388 120.612 108.976 120.612C107.68 120.612 106.681 120.052 105.978 118.932ZM105.939 114.899V116.295C105.939 117.122 106.206 117.825 106.739 118.405C107.28 118.978 107.963 119.264 108.79 119.264C109.76 119.264 110.519 118.893 111.066 118.151C111.619 117.409 111.896 116.377 111.896 115.055C111.896 113.942 111.638 113.069 111.124 112.438C110.61 111.806 109.913 111.491 109.034 111.491C108.103 111.491 107.355 111.816 106.788 112.467C106.222 113.112 105.939 113.922 105.939 114.899ZM122.403 107.838C122.117 107.838 121.873 107.741 121.671 107.545C121.469 107.35 121.368 107.103 121.368 106.803C121.368 106.504 121.469 106.256 121.671 106.061C121.873 105.859 122.117 105.758 122.403 105.758C122.696 105.758 122.944 105.859 123.146 106.061C123.354 106.256 123.458 106.504 123.458 106.803C123.458 107.09 123.354 107.334 123.146 107.536C122.944 107.737 122.696 107.838 122.403 107.838ZM123.185 120.377H121.583V110.377H123.185V120.377ZM125.821 120.016V118.297C126.694 118.942 127.654 119.264 128.702 119.264C130.109 119.264 130.812 118.795 130.812 117.858C130.812 117.591 130.75 117.366 130.626 117.184C130.509 116.995 130.346 116.829 130.138 116.686C129.936 116.543 129.695 116.416 129.415 116.305C129.142 116.188 128.845 116.068 128.526 115.944C128.084 115.768 127.693 115.592 127.355 115.417C127.023 115.234 126.743 115.032 126.515 114.811C126.293 114.583 126.124 114.326 126.007 114.04C125.896 113.753 125.841 113.418 125.841 113.034C125.841 112.565 125.948 112.152 126.163 111.793C126.378 111.429 126.665 111.126 127.023 110.885C127.381 110.638 127.788 110.452 128.243 110.329C128.706 110.205 129.181 110.143 129.669 110.143C130.535 110.143 131.31 110.293 131.993 110.592V112.213C131.258 111.732 130.411 111.491 129.454 111.491C129.155 111.491 128.885 111.527 128.644 111.598C128.403 111.663 128.194 111.758 128.019 111.881C127.849 112.005 127.716 112.155 127.618 112.331C127.527 112.5 127.482 112.689 127.482 112.897C127.482 113.157 127.527 113.375 127.618 113.551C127.716 113.727 127.856 113.883 128.038 114.02C128.22 114.157 128.442 114.28 128.702 114.391C128.963 114.502 129.259 114.622 129.591 114.752C130.034 114.922 130.431 115.097 130.782 115.28C131.134 115.456 131.433 115.657 131.681 115.885C131.928 116.107 132.117 116.364 132.247 116.657C132.384 116.95 132.452 117.298 132.452 117.702C132.452 118.196 132.342 118.626 132.12 118.991C131.905 119.355 131.616 119.658 131.251 119.899C130.887 120.14 130.467 120.319 129.991 120.436C129.516 120.553 129.018 120.612 128.497 120.612C127.469 120.612 126.577 120.413 125.821 120.016ZM148.712 120.377H147.11V114.616C147.11 112.532 146.336 111.491 144.786 111.491C144.005 111.491 143.347 111.793 142.814 112.399C142.28 112.998 142.013 113.769 142.013 114.713V120.377H140.411V105.573H142.013V112.038H142.052C142.82 110.775 143.914 110.143 145.333 110.143C147.586 110.143 148.712 111.5 148.712 114.215V120.377ZM155.919 120.612C154.441 120.612 153.26 120.146 152.374 119.215C151.495 118.278 151.056 117.038 151.056 115.495C151.056 113.815 151.515 112.503 152.433 111.559C153.351 110.615 154.591 110.143 156.153 110.143C157.644 110.143 158.806 110.602 159.64 111.52C160.48 112.438 160.9 113.711 160.9 115.338C160.9 116.933 160.447 118.213 159.542 119.176C158.644 120.133 157.436 120.612 155.919 120.612ZM156.036 111.491C155.008 111.491 154.194 111.842 153.595 112.545C152.996 113.242 152.696 114.206 152.696 115.436C152.696 116.621 152.999 117.555 153.605 118.239C154.21 118.922 155.021 119.264 156.036 119.264C157.071 119.264 157.866 118.929 158.419 118.258C158.979 117.588 159.259 116.634 159.259 115.397C159.259 114.147 158.979 113.183 158.419 112.506C157.866 111.829 157.071 111.491 156.036 111.491ZM176.056 110.377L173.058 120.377H171.398L169.337 113.219C169.259 112.946 169.207 112.637 169.181 112.292H169.142C169.122 112.526 169.054 112.829 168.937 113.2L166.7 120.377H165.099L162.071 110.377H163.751L165.821 117.897C165.887 118.125 165.932 118.424 165.958 118.795H166.036C166.056 118.509 166.114 118.203 166.212 117.877L168.517 110.377H169.982L172.052 117.917C172.117 118.157 172.166 118.457 172.198 118.815H172.276C172.29 118.561 172.345 118.262 172.443 117.917L174.474 110.377H176.056ZM187.579 120.612C186.101 120.612 184.92 120.146 184.034 119.215C183.155 118.278 182.716 117.038 182.716 115.495C182.716 113.815 183.175 112.503 184.093 111.559C185.011 110.615 186.251 110.143 187.814 110.143C189.304 110.143 190.467 110.602 191.3 111.52C192.14 112.438 192.56 113.711 192.56 115.338C192.56 116.933 192.107 118.213 191.202 119.176C190.304 120.133 189.096 120.612 187.579 120.612ZM187.696 111.491C186.668 111.491 185.854 111.842 185.255 112.545C184.656 113.242 184.357 114.206 184.357 115.436C184.357 116.621 184.659 117.555 185.265 118.239C185.87 118.922 186.681 119.264 187.696 119.264C188.732 119.264 189.526 118.929 190.079 118.258C190.639 117.588 190.919 116.634 190.919 115.397C190.919 114.147 190.639 113.183 190.079 112.506C189.526 111.829 188.732 111.491 187.696 111.491ZM203.204 120.377H201.603V118.795H201.564C200.9 120.006 199.871 120.612 198.478 120.612C196.095 120.612 194.903 119.193 194.903 116.354V110.377H196.495V116.1C196.495 118.209 197.303 119.264 198.917 119.264C199.698 119.264 200.34 118.978 200.841 118.405C201.349 117.825 201.603 117.07 201.603 116.139V110.377H203.204V120.377ZM211.661 111.999C211.381 111.784 210.978 111.676 210.45 111.676C209.767 111.676 209.194 111.999 208.732 112.643C208.276 113.288 208.048 114.167 208.048 115.28V120.377H206.446V110.377H208.048V112.438H208.087C208.315 111.735 208.663 111.188 209.132 110.797C209.601 110.4 210.125 110.202 210.704 110.202C211.121 110.202 211.44 110.247 211.661 110.338V111.999ZM223.526 120.28C223.149 120.488 222.651 120.592 222.032 120.592C220.281 120.592 219.405 119.616 219.405 117.663V111.745H217.687V110.377H219.405V107.936L221.007 107.418V110.377H223.526V111.745H221.007V117.379C221.007 118.05 221.121 118.528 221.349 118.815C221.577 119.101 221.954 119.245 222.482 119.245C222.885 119.245 223.234 119.134 223.526 118.913V120.28ZM233.702 115.778H226.642C226.668 116.891 226.967 117.75 227.54 118.356C228.113 118.961 228.901 119.264 229.903 119.264C231.03 119.264 232.065 118.893 233.009 118.151V119.655C232.13 120.293 230.968 120.612 229.523 120.612C228.11 120.612 227 120.159 226.193 119.254C225.385 118.343 224.982 117.064 224.982 115.417C224.982 113.861 225.421 112.594 226.3 111.618C227.185 110.635 228.282 110.143 229.591 110.143C230.9 110.143 231.912 110.566 232.628 111.413C233.344 112.259 233.702 113.434 233.702 114.938V115.778ZM232.062 114.42C232.055 113.496 231.831 112.777 231.388 112.262C230.952 111.748 230.343 111.491 229.562 111.491C228.806 111.491 228.165 111.761 227.638 112.301C227.11 112.842 226.785 113.548 226.661 114.42H232.062ZM243.292 120.377H241.691V118.815H241.651C240.955 120.013 239.929 120.612 238.575 120.612C237.579 120.612 236.798 120.348 236.232 119.821C235.672 119.293 235.392 118.594 235.392 117.721C235.392 115.853 236.492 114.765 238.693 114.459L241.691 114.04C241.691 112.34 241.004 111.491 239.63 111.491C238.426 111.491 237.338 111.901 236.368 112.721V111.081C237.351 110.456 238.484 110.143 239.767 110.143C242.117 110.143 243.292 111.387 243.292 113.874V120.377ZM241.691 115.319L239.278 115.651C238.536 115.755 237.976 115.941 237.599 116.208C237.221 116.468 237.032 116.933 237.032 117.604C237.032 118.092 237.205 118.493 237.55 118.805C237.901 119.111 238.367 119.264 238.946 119.264C239.741 119.264 240.395 118.987 240.909 118.434C241.43 117.874 241.691 117.168 241.691 116.315V115.319ZM260.509 120.377H258.907V114.635C258.907 113.528 258.735 112.728 258.39 112.233C258.051 111.738 257.478 111.491 256.671 111.491C255.987 111.491 255.405 111.803 254.923 112.428C254.448 113.053 254.21 113.802 254.21 114.674V120.377H252.609V114.44C252.609 112.474 251.85 111.491 250.333 111.491C249.63 111.491 249.051 111.787 248.595 112.379C248.139 112.965 247.911 113.73 247.911 114.674V120.377H246.31V110.377H247.911V111.959H247.95C248.66 110.749 249.695 110.143 251.056 110.143C251.739 110.143 252.335 110.335 252.843 110.719C253.351 111.097 253.699 111.595 253.888 112.213C254.63 110.833 255.737 110.143 257.208 110.143C259.409 110.143 260.509 111.5 260.509 114.215V120.377ZM262.931 120.016V118.297C263.803 118.942 264.763 119.264 265.812 119.264C267.218 119.264 267.921 118.795 267.921 117.858C267.921 117.591 267.859 117.366 267.735 117.184C267.618 116.995 267.456 116.829 267.247 116.686C267.045 116.543 266.804 116.416 266.525 116.305C266.251 116.188 265.955 116.068 265.636 115.944C265.193 115.768 264.803 115.592 264.464 115.417C264.132 115.234 263.852 115.032 263.624 114.811C263.403 114.583 263.234 114.326 263.116 114.04C263.006 113.753 262.95 113.418 262.95 113.034C262.95 112.565 263.058 112.152 263.273 111.793C263.487 111.429 263.774 111.126 264.132 110.885C264.49 110.638 264.897 110.452 265.353 110.329C265.815 110.205 266.29 110.143 266.778 110.143C267.644 110.143 268.419 110.293 269.103 110.592V112.213C268.367 111.732 267.521 111.491 266.564 111.491C266.264 111.491 265.994 111.527 265.753 111.598C265.512 111.663 265.304 111.758 265.128 111.881C264.959 112.005 264.825 112.155 264.728 112.331C264.637 112.5 264.591 112.689 264.591 112.897C264.591 113.157 264.637 113.375 264.728 113.551C264.825 113.727 264.965 113.883 265.148 114.02C265.33 114.157 265.551 114.28 265.812 114.391C266.072 114.502 266.368 114.622 266.7 114.752C267.143 114.922 267.54 115.097 267.892 115.28C268.243 115.456 268.543 115.657 268.79 115.885C269.038 116.107 269.226 116.364 269.357 116.657C269.493 116.95 269.562 117.298 269.562 117.702C269.562 118.196 269.451 118.626 269.23 118.991C269.015 119.355 268.725 119.658 268.36 119.899C267.996 120.14 267.576 120.319 267.101 120.436C266.625 120.553 266.127 120.612 265.607 120.612C264.578 120.612 263.686 120.413 262.931 120.016ZM49.0538 147.016C48.3572 147.42 47.3514 147.622 46.0363 147.622C44.4998 147.622 43.2563 147.156 42.3058 146.225C41.3553 145.294 40.88 144.093 40.88 142.622C40.88 140.922 41.3878 139.584 42.4034 138.608C43.4256 137.625 44.7895 137.133 46.4952 137.133C47.6736 137.133 48.5265 137.29 49.0538 137.602V140.219C48.4093 139.737 47.6899 139.497 46.8956 139.497C46.0102 139.497 45.3071 139.757 44.7863 140.278C44.2719 140.792 44.0148 141.505 44.0148 142.417C44.0148 143.302 44.2622 143.999 44.757 144.506C45.2517 145.008 45.9321 145.258 46.798 145.258C47.5662 145.258 48.3182 145.017 49.0538 144.536V147.016ZM60.0695 143.256H53.546C53.6502 144.708 54.5649 145.434 56.2902 145.434C57.3904 145.434 58.3572 145.174 59.1906 144.653V146.879C58.2661 147.374 57.0649 147.622 55.587 147.622C53.9725 147.622 52.7192 147.176 51.8273 146.284C50.9353 145.385 50.4894 144.135 50.4894 142.534C50.4894 140.874 50.9712 139.558 51.9347 138.588C52.8982 137.618 54.0831 137.133 55.4894 137.133C56.9477 137.133 58.074 137.566 58.8683 138.432C59.6691 139.298 60.0695 140.473 60.0695 141.958V143.256ZM57.2081 141.362C57.2081 139.93 56.6287 139.213 55.4698 139.213C54.9751 139.213 54.5454 139.418 54.1808 139.829C53.8227 140.239 53.6046 140.75 53.5265 141.362H57.2081ZM71.5636 147.377H68.4874V141.821C68.4874 140.271 67.934 139.497 66.8273 139.497C66.2934 139.497 65.854 139.702 65.5089 140.112C65.1639 140.522 64.9913 141.043 64.9913 141.674V147.377H61.9054V137.377H64.9913V138.959H65.0304C65.7661 137.742 66.837 137.133 68.2433 137.133C70.4568 137.133 71.5636 138.507 71.5636 141.254V147.377ZM80.0597 147.26C79.604 147.501 78.9171 147.622 77.9991 147.622C75.8247 147.622 74.7374 146.492 74.7374 144.233V139.653H73.1163V137.377H74.7374V135.219L77.8136 134.34V137.377H80.0597V139.653H77.8136V143.696C77.8136 144.737 78.227 145.258 79.0538 145.258C79.3794 145.258 79.7146 145.164 80.0597 144.975V147.26ZM88.3312 140.161C87.9601 139.959 87.5271 139.858 87.0323 139.858C86.3618 139.858 85.8377 140.105 85.4601 140.6C85.0825 141.088 84.8937 141.756 84.8937 142.602V147.377H81.8077V137.377H84.8937V139.233H84.9327C85.421 137.879 86.2999 137.202 87.5695 137.202C87.895 137.202 88.1489 137.241 88.3312 137.319V140.161ZM98.0968 147.377H95.1769V145.942H95.1378C94.4672 147.062 93.4744 147.622 92.1593 147.622C91.1892 147.622 90.4243 147.348 89.8644 146.801C89.311 146.248 89.0343 145.512 89.0343 144.594C89.0343 142.654 90.1834 141.534 92.4816 141.235L95.1964 140.874C95.1964 139.78 94.604 139.233 93.4191 139.233C92.2277 139.233 91.0948 139.588 90.0206 140.297V137.973C90.4503 137.752 91.0363 137.556 91.7784 137.387C92.5271 137.218 93.2075 137.133 93.8195 137.133C96.671 137.133 98.0968 138.556 98.0968 141.401V147.377ZM95.1964 143.315V142.641L93.38 142.875C92.3774 143.006 91.8761 143.458 91.8761 144.233C91.8761 144.584 91.9965 144.874 92.2374 145.102C92.4848 145.323 92.8169 145.434 93.2335 145.434C93.8129 145.434 94.285 145.236 94.6495 144.838C95.0141 144.435 95.1964 143.927 95.1964 143.315ZM103.624 147.377H100.538V132.573H103.624V147.377ZM107.784 135.795C107.263 135.795 106.837 135.642 106.505 135.336C106.173 135.024 106.007 134.643 106.007 134.194C106.007 133.732 106.173 133.354 106.505 133.061C106.837 132.768 107.263 132.622 107.784 132.622C108.312 132.622 108.738 132.768 109.064 133.061C109.396 133.354 109.562 133.732 109.562 134.194C109.562 134.663 109.396 135.047 109.064 135.346C108.738 135.646 108.312 135.795 107.784 135.795ZM109.308 147.377H106.222V137.377H109.308V147.377ZM119.825 147.377H110.851V146.098L115.87 139.653H111.349V137.377H119.786V138.901L115.03 145.102H119.825V147.377ZM130.48 143.256H123.956C124.06 144.708 124.975 145.434 126.7 145.434C127.801 145.434 128.767 145.174 129.601 144.653V146.879C128.676 147.374 127.475 147.622 125.997 147.622C124.383 147.622 123.129 147.176 122.237 146.284C121.345 145.385 120.9 144.135 120.9 142.534C120.9 140.874 121.381 139.558 122.345 138.588C123.308 137.618 124.493 137.133 125.9 137.133C127.358 137.133 128.484 137.566 129.278 138.432C130.079 139.298 130.48 140.473 130.48 141.958V143.256ZM127.618 141.362C127.618 139.93 127.039 139.213 125.88 139.213C125.385 139.213 124.956 139.418 124.591 139.829C124.233 140.239 124.015 140.75 123.937 141.362H127.618ZM152.325 137.377L149.444 147.377H146.202L144.728 141.518C144.63 141.127 144.575 140.701 144.562 140.239H144.503C144.457 140.747 144.392 141.16 144.308 141.479L142.726 147.377H139.523L136.7 137.377H139.845L141.222 143.901C141.287 144.207 141.336 144.578 141.368 145.014H141.427C141.459 144.558 141.518 144.174 141.603 143.862L143.321 137.377H146.261L147.804 143.901C147.843 144.064 147.888 144.441 147.941 145.034H148.009C148.041 144.656 148.094 144.278 148.165 143.901L149.464 137.377H152.325ZM158.468 147.622C156.801 147.622 155.489 147.156 154.532 146.225C153.582 145.288 153.107 144.018 153.107 142.417C153.107 140.763 153.601 139.471 154.591 138.54C155.581 137.602 156.918 137.133 158.605 137.133C160.265 137.133 161.567 137.602 162.511 138.54C163.455 139.471 163.927 140.704 163.927 142.241C163.927 143.901 163.439 145.213 162.462 146.176C161.492 147.14 160.161 147.622 158.468 147.622ZM158.546 139.497C157.817 139.497 157.25 139.747 156.847 140.249C156.443 140.75 156.241 141.459 156.241 142.377C156.241 144.298 157.016 145.258 158.566 145.258C160.043 145.258 160.782 144.272 160.782 142.299C160.782 140.431 160.037 139.497 158.546 139.497ZM172.452 140.161C172.081 139.959 171.648 139.858 171.153 139.858C170.483 139.858 169.959 140.105 169.581 140.6C169.204 141.088 169.015 141.756 169.015 142.602V147.377H165.929V137.377H169.015V139.233H169.054C169.542 137.879 170.421 137.202 171.691 137.202C172.016 137.202 172.27 137.241 172.452 137.319V140.161ZM183.917 147.377H180.216L177.023 142.417H176.984V147.377H173.898V132.573H176.984V141.997H177.023L180.001 137.377H183.663L180.079 142.075L183.917 147.377ZM186.876 145.151L185.314 149.956H184.171L185.314 145.151H186.876ZM194.63 147.016V145.297C195.502 145.942 196.463 146.264 197.511 146.264C198.917 146.264 199.62 145.795 199.62 144.858C199.62 144.591 199.558 144.366 199.435 144.184C199.318 143.995 199.155 143.829 198.946 143.686C198.745 143.543 198.504 143.416 198.224 143.305C197.95 143.188 197.654 143.068 197.335 142.944C196.892 142.768 196.502 142.592 196.163 142.417C195.831 142.234 195.551 142.032 195.323 141.811C195.102 141.583 194.933 141.326 194.816 141.04C194.705 140.753 194.65 140.418 194.65 140.034C194.65 139.565 194.757 139.152 194.972 138.793C195.187 138.429 195.473 138.126 195.831 137.885C196.189 137.638 196.596 137.452 197.052 137.329C197.514 137.205 197.989 137.143 198.478 137.143C199.344 137.143 200.118 137.293 200.802 137.592V139.213C200.066 138.732 199.22 138.491 198.263 138.491C197.963 138.491 197.693 138.527 197.452 138.598C197.211 138.663 197.003 138.758 196.827 138.881C196.658 139.005 196.525 139.155 196.427 139.331C196.336 139.5 196.29 139.689 196.29 139.897C196.29 140.157 196.336 140.375 196.427 140.551C196.525 140.727 196.665 140.883 196.847 141.02C197.029 141.157 197.25 141.28 197.511 141.391C197.771 141.502 198.068 141.622 198.4 141.752C198.842 141.922 199.239 142.097 199.591 142.28C199.943 142.456 200.242 142.657 200.489 142.885C200.737 143.107 200.926 143.364 201.056 143.657C201.193 143.95 201.261 144.298 201.261 144.702C201.261 145.196 201.15 145.626 200.929 145.991C200.714 146.355 200.424 146.658 200.06 146.899C199.695 147.14 199.275 147.319 198.8 147.436C198.325 147.553 197.827 147.612 197.306 147.612C196.277 147.612 195.385 147.413 194.63 147.016ZM208.37 147.28C207.993 147.488 207.495 147.592 206.876 147.592C205.125 147.592 204.249 146.616 204.249 144.663V138.745H202.53V137.377H204.249V134.936L205.851 134.418V137.377H208.37V138.745H205.851V144.379C205.851 145.05 205.965 145.528 206.193 145.815C206.42 146.101 206.798 146.245 207.325 146.245C207.729 146.245 208.077 146.134 208.37 145.913V147.28ZM217.667 147.377H216.066V145.815H216.026C215.33 147.013 214.304 147.612 212.95 147.612C211.954 147.612 211.173 147.348 210.607 146.821C210.047 146.293 209.767 145.594 209.767 144.721C209.767 142.853 210.867 141.765 213.068 141.459L216.066 141.04C216.066 139.34 215.379 138.491 214.005 138.491C212.801 138.491 211.713 138.901 210.743 139.721V138.081C211.726 137.456 212.859 137.143 214.142 137.143C216.492 137.143 217.667 138.387 217.667 140.874V147.377ZM216.066 142.319L213.653 142.651C212.911 142.755 212.351 142.941 211.974 143.208C211.596 143.468 211.407 143.933 211.407 144.604C211.407 145.092 211.58 145.493 211.925 145.805C212.276 146.111 212.742 146.264 213.321 146.264C214.116 146.264 214.77 145.987 215.284 145.434C215.805 144.874 216.066 144.168 216.066 143.315V142.319ZM228.644 137.377L224.044 148.979C223.224 151.049 222.071 152.084 220.587 152.084C220.17 152.084 219.822 152.042 219.542 151.958V150.522C219.887 150.639 220.203 150.698 220.489 150.698C221.297 150.698 221.902 150.216 222.306 149.252L223.107 147.358L219.2 137.377H220.978L223.683 145.073C223.715 145.17 223.784 145.424 223.888 145.834H223.946C223.979 145.678 224.044 145.431 224.142 145.092L226.984 137.377H228.644ZM240.04 147.612C238.562 147.612 237.381 147.146 236.495 146.215C235.616 145.278 235.177 144.038 235.177 142.495C235.177 140.815 235.636 139.503 236.554 138.559C237.472 137.615 238.712 137.143 240.275 137.143C241.765 137.143 242.928 137.602 243.761 138.52C244.601 139.438 245.021 140.711 245.021 142.338C245.021 143.933 244.568 145.213 243.663 146.176C242.765 147.133 241.557 147.612 240.04 147.612ZM240.157 138.491C239.129 138.491 238.315 138.842 237.716 139.545C237.117 140.242 236.818 141.206 236.818 142.436C236.818 143.621 237.12 144.555 237.726 145.239C238.331 145.922 239.142 146.264 240.157 146.264C241.193 146.264 241.987 145.929 242.54 145.258C243.1 144.588 243.38 143.634 243.38 142.397C243.38 141.147 243.1 140.183 242.54 139.506C241.987 138.829 241.193 138.491 240.157 138.491ZM255.88 147.377H254.278V141.674C254.278 139.552 253.504 138.491 251.954 138.491C251.153 138.491 250.489 138.793 249.962 139.399C249.441 139.998 249.181 140.756 249.181 141.674V147.377H247.579V137.377H249.181V139.038H249.22C249.975 137.775 251.069 137.143 252.501 137.143C253.595 137.143 254.431 137.498 255.011 138.208C255.59 138.911 255.88 139.93 255.88 141.264V147.377ZM269.034 147.28C268.657 147.488 268.159 147.592 267.54 147.592C265.789 147.592 264.913 146.616 264.913 144.663V138.745H263.194V137.377H264.913V134.936L266.515 134.418V137.377H269.034V138.745H266.515V144.379C266.515 145.05 266.629 145.528 266.857 145.815C267.084 146.101 267.462 146.245 267.989 146.245C268.393 146.245 268.741 146.134 269.034 145.913V147.28ZM276.388 138.999C276.108 138.784 275.704 138.676 275.177 138.676C274.493 138.676 273.92 138.999 273.458 139.643C273.002 140.288 272.775 141.167 272.775 142.28V147.377H271.173V137.377H272.775V139.438H272.814C273.041 138.735 273.39 138.188 273.859 137.797C274.327 137.4 274.851 137.202 275.431 137.202C275.847 137.202 276.166 137.247 276.388 137.338V138.999ZM285.284 147.377H283.683V145.815H283.644C282.947 147.013 281.922 147.612 280.568 147.612C279.571 147.612 278.79 147.348 278.224 146.821C277.664 146.293 277.384 145.594 277.384 144.721C277.384 142.853 278.484 141.765 280.685 141.459L283.683 141.04C283.683 139.34 282.996 138.491 281.622 138.491C280.418 138.491 279.331 138.901 278.36 139.721V138.081C279.344 137.456 280.476 137.143 281.759 137.143C284.109 137.143 285.284 138.387 285.284 140.874V147.377ZM283.683 142.319L281.271 142.651C280.528 142.755 279.969 142.941 279.591 143.208C279.213 143.468 279.025 143.933 279.025 144.604C279.025 145.092 279.197 145.493 279.542 145.805C279.894 146.111 280.359 146.264 280.939 146.264C281.733 146.264 282.387 145.987 282.901 145.434C283.422 144.874 283.683 144.168 283.683 143.315V142.319ZM295.118 146.918C294.35 147.381 293.439 147.612 292.384 147.612C290.958 147.612 289.806 147.15 288.927 146.225C288.054 145.294 287.618 144.09 287.618 142.612C287.618 140.965 288.09 139.643 289.034 138.647C289.978 137.644 291.238 137.143 292.814 137.143C293.693 137.143 294.467 137.306 295.138 137.631V139.272C294.396 138.751 293.601 138.491 292.755 138.491C291.733 138.491 290.893 138.859 290.235 139.594C289.584 140.323 289.259 141.284 289.259 142.475C289.259 143.647 289.565 144.571 290.177 145.249C290.795 145.926 291.622 146.264 292.657 146.264C293.53 146.264 294.35 145.974 295.118 145.395V146.918ZM305.841 147.377H303.595L299.181 142.573H299.142V147.377H297.54V132.573H299.142V141.958H299.181L303.38 137.377H305.48L300.841 142.202L305.841 147.377ZM308.946 145.151L307.384 149.956H306.241L307.384 145.151H308.946ZM48.9562 174.377H47.3546V172.815H47.3156C46.6189 174.013 45.5935 174.612 44.2394 174.612C43.2433 174.612 42.462 174.348 41.8956 173.821C41.3357 173.293 41.0558 172.594 41.0558 171.721C41.0558 169.853 42.156 168.765 44.3566 168.459L47.3546 168.04C47.3546 166.34 46.6678 165.491 45.2941 165.491C44.0896 165.491 43.0024 165.901 42.0323 166.721V165.081C43.0154 164.456 44.1482 164.143 45.4308 164.143C47.781 164.143 48.9562 165.387 48.9562 167.874V174.377ZM47.3546 169.319L44.9425 169.651C44.2003 169.755 43.6404 169.941 43.2628 170.208C42.8852 170.468 42.6964 170.933 42.6964 171.604C42.6964 172.092 42.8689 172.493 43.214 172.805C43.5656 173.111 44.031 173.264 44.6105 173.264C45.4047 173.264 46.059 172.987 46.5734 172.434C47.0942 171.874 47.3546 171.168 47.3546 170.315V169.319ZM60.2745 174.377H58.673V168.674C58.673 166.552 57.8982 165.491 56.3488 165.491C55.548 165.491 54.8839 165.793 54.3566 166.399C53.8357 166.998 53.5753 167.756 53.5753 168.674V174.377H51.9738V164.377H53.5753V166.038H53.6144C54.3696 164.775 55.4633 164.143 56.8956 164.143C57.9894 164.143 58.826 164.498 59.4054 165.208C59.9848 165.911 60.2745 166.93 60.2745 168.264V174.377ZM71.837 174.377H70.2355V172.678H70.1964C69.4542 173.967 68.3084 174.612 66.7589 174.612C65.5024 174.612 64.4965 174.166 63.7413 173.274C62.9926 172.375 62.6183 171.155 62.6183 169.612C62.6183 167.958 63.035 166.633 63.8683 165.637C64.7016 164.641 65.8116 164.143 67.1984 164.143C68.5721 164.143 69.5714 164.683 70.1964 165.764H70.2355V159.573H71.837V174.377ZM70.2355 169.856V168.381C70.2355 167.574 69.9685 166.89 69.4347 166.331C68.9008 165.771 68.2238 165.491 67.4034 165.491C66.4269 165.491 65.6587 165.849 65.0988 166.565C64.5389 167.281 64.2589 168.271 64.2589 169.534C64.2589 170.686 64.5258 171.597 65.0597 172.268C65.6001 172.932 66.3227 173.264 67.2277 173.264C68.1196 173.264 68.8422 172.942 69.3956 172.297C69.9555 171.653 70.2355 170.839 70.2355 169.856ZM88.6046 169.778H81.5441C81.5701 170.891 81.8696 171.75 82.4425 172.356C83.0154 172.961 83.8032 173.264 84.8058 173.264C85.9321 173.264 86.9672 172.893 87.9113 172.151V173.655C87.0323 174.293 85.8702 174.612 84.4249 174.612C83.0122 174.612 81.9021 174.159 81.0948 173.254C80.2876 172.343 79.8839 171.064 79.8839 169.417C79.8839 167.861 80.3234 166.594 81.2023 165.618C82.0877 164.635 83.1847 164.143 84.4933 164.143C85.8019 164.143 86.8142 164.566 87.5304 165.413C88.2465 166.259 88.6046 167.434 88.6046 168.938V169.778ZM86.964 168.42C86.9575 167.496 86.7329 166.777 86.2902 166.262C85.854 165.748 85.2452 165.491 84.464 165.491C83.7088 165.491 83.0675 165.761 82.5402 166.301C82.0128 166.842 81.6873 167.548 81.5636 168.42H86.964ZM98.1945 174.377H96.5929V172.815H96.5538C95.8572 174.013 94.8318 174.612 93.4777 174.612C92.4816 174.612 91.7003 174.348 91.1339 173.821C90.574 173.293 90.2941 172.594 90.2941 171.721C90.2941 169.853 91.3943 168.765 93.5948 168.459L96.5929 168.04C96.5929 166.34 95.906 165.491 94.5323 165.491C93.3279 165.491 92.2407 165.901 91.2706 166.721V165.081C92.2537 164.456 93.3865 164.143 94.6691 164.143C97.0193 164.143 98.1945 165.387 98.1945 167.874V174.377ZM96.5929 169.319L94.1808 169.651C93.4386 169.755 92.8787 169.941 92.5011 170.208C92.1235 170.468 91.9347 170.933 91.9347 171.604C91.9347 172.092 92.1072 172.493 92.4523 172.805C92.8038 173.111 93.2693 173.264 93.8488 173.264C94.643 173.264 95.2973 172.987 95.8116 172.434C96.3325 171.874 96.5929 171.168 96.5929 170.315V169.319ZM100.607 174.016V172.297C101.479 172.942 102.439 173.264 103.487 173.264C104.894 173.264 105.597 172.795 105.597 171.858C105.597 171.591 105.535 171.366 105.411 171.184C105.294 170.995 105.131 170.829 104.923 170.686C104.721 170.543 104.48 170.416 104.2 170.305C103.927 170.188 103.631 170.068 103.312 169.944C102.869 169.768 102.478 169.592 102.14 169.417C101.808 169.234 101.528 169.032 101.3 168.811C101.079 168.583 100.909 168.326 100.792 168.04C100.681 167.753 100.626 167.418 100.626 167.034C100.626 166.565 100.734 166.152 100.948 165.793C101.163 165.429 101.45 165.126 101.808 164.885C102.166 164.638 102.573 164.452 103.028 164.329C103.491 164.205 103.966 164.143 104.454 164.143C105.32 164.143 106.095 164.293 106.778 164.592V166.213C106.043 165.732 105.196 165.491 104.239 165.491C103.94 165.491 103.67 165.527 103.429 165.598C103.188 165.663 102.98 165.758 102.804 165.881C102.635 166.005 102.501 166.155 102.403 166.331C102.312 166.5 102.267 166.689 102.267 166.897C102.267 167.157 102.312 167.375 102.403 167.551C102.501 167.727 102.641 167.883 102.823 168.02C103.006 168.157 103.227 168.28 103.487 168.391C103.748 168.502 104.044 168.622 104.376 168.752C104.819 168.922 105.216 169.097 105.568 169.28C105.919 169.456 106.219 169.657 106.466 169.885C106.713 170.107 106.902 170.364 107.032 170.657C107.169 170.95 107.237 171.298 107.237 171.702C107.237 172.196 107.127 172.626 106.905 172.991C106.691 173.355 106.401 173.658 106.036 173.899C105.672 174.14 105.252 174.319 104.776 174.436C104.301 174.553 103.803 174.612 103.282 174.612C102.254 174.612 101.362 174.413 100.607 174.016ZM110.528 161.838C110.242 161.838 109.998 161.741 109.796 161.545C109.594 161.35 109.493 161.103 109.493 160.803C109.493 160.504 109.594 160.256 109.796 160.061C109.998 159.859 110.242 159.758 110.528 159.758C110.821 159.758 111.069 159.859 111.271 160.061C111.479 160.256 111.583 160.504 111.583 160.803C111.583 161.09 111.479 161.334 111.271 161.536C111.069 161.737 110.821 161.838 110.528 161.838ZM111.31 174.377H109.708V164.377H111.31V174.377ZM116.153 174.377H114.552V159.573H116.153V174.377ZM127.355 164.377L122.755 175.979C121.935 178.049 120.782 179.084 119.298 179.084C118.881 179.084 118.533 179.042 118.253 178.958V177.522C118.598 177.639 118.914 177.698 119.2 177.698C120.008 177.698 120.613 177.216 121.017 176.252L121.818 174.358L117.911 164.377H119.689L122.394 172.073C122.426 172.17 122.495 172.424 122.599 172.834H122.657C122.69 172.678 122.755 172.431 122.853 172.092L125.694 164.377H127.355ZM141.388 173.918C140.62 174.381 139.708 174.612 138.653 174.612C137.228 174.612 136.075 174.15 135.196 173.225C134.324 172.294 133.888 171.09 133.888 169.612C133.888 167.965 134.36 166.643 135.304 165.647C136.248 164.644 137.508 164.143 139.083 164.143C139.962 164.143 140.737 164.306 141.407 164.631V166.272C140.665 165.751 139.871 165.491 139.025 165.491C138.002 165.491 137.163 165.859 136.505 166.594C135.854 167.323 135.528 168.284 135.528 169.475C135.528 170.647 135.834 171.571 136.446 172.249C137.065 172.926 137.892 173.264 138.927 173.264C139.799 173.264 140.62 172.974 141.388 172.395V173.918ZM147.989 174.612C146.512 174.612 145.33 174.146 144.444 173.215C143.566 172.278 143.126 171.038 143.126 169.495C143.126 167.815 143.585 166.503 144.503 165.559C145.421 164.615 146.661 164.143 148.224 164.143C149.715 164.143 150.877 164.602 151.71 165.52C152.55 166.438 152.97 167.711 152.97 169.338C152.97 170.933 152.517 172.213 151.612 173.176C150.714 174.133 149.506 174.612 147.989 174.612ZM148.107 165.491C147.078 165.491 146.264 165.842 145.665 166.545C145.066 167.242 144.767 168.206 144.767 169.436C144.767 170.621 145.069 171.555 145.675 172.239C146.28 172.922 147.091 173.264 148.107 173.264C149.142 173.264 149.936 172.929 150.489 172.258C151.049 171.588 151.329 170.634 151.329 169.397C151.329 168.147 151.049 167.183 150.489 166.506C149.936 165.829 149.142 165.491 148.107 165.491ZM157.13 174.377H155.528V159.573H157.13V174.377ZM161.974 174.377H160.372V159.573H161.974V174.377ZM172.374 174.377H170.773V172.815H170.734C170.037 174.013 169.012 174.612 167.657 174.612C166.661 174.612 165.88 174.348 165.314 173.821C164.754 173.293 164.474 172.594 164.474 171.721C164.474 169.853 165.574 168.765 167.775 168.459L170.773 168.04C170.773 166.34 170.086 165.491 168.712 165.491C167.508 165.491 166.42 165.901 165.45 166.721V165.081C166.433 164.456 167.566 164.143 168.849 164.143C171.199 164.143 172.374 165.387 172.374 167.874V174.377ZM170.773 169.319L168.36 169.651C167.618 169.755 167.058 169.941 166.681 170.208C166.303 170.468 166.114 170.933 166.114 171.604C166.114 172.092 166.287 172.493 166.632 172.805C166.984 173.111 167.449 173.264 168.028 173.264C168.823 173.264 169.477 172.987 169.991 172.434C170.512 171.874 170.773 171.168 170.773 170.315V169.319ZM177.032 172.932H176.993V174.377H175.392V159.573H176.993V166.135H177.032C177.82 164.807 178.972 164.143 180.489 164.143C181.772 164.143 182.775 164.592 183.497 165.491C184.226 166.383 184.591 167.581 184.591 169.084C184.591 170.758 184.184 172.099 183.37 173.108C182.556 174.111 181.443 174.612 180.03 174.612C178.709 174.612 177.709 174.052 177.032 172.932ZM176.993 168.899V170.295C176.993 171.122 177.26 171.825 177.794 172.405C178.334 172.978 179.018 173.264 179.845 173.264C180.815 173.264 181.573 172.893 182.12 172.151C182.674 171.409 182.95 170.377 182.95 169.055C182.95 167.942 182.693 167.069 182.179 166.438C181.665 165.806 180.968 165.491 180.089 165.491C179.158 165.491 178.409 165.816 177.843 166.467C177.276 167.112 176.993 167.922 176.993 168.899ZM191.329 174.612C189.851 174.612 188.67 174.146 187.784 173.215C186.905 172.278 186.466 171.038 186.466 169.495C186.466 167.815 186.925 166.503 187.843 165.559C188.761 164.615 190.001 164.143 191.564 164.143C193.054 164.143 194.217 164.602 195.05 165.52C195.89 166.438 196.31 167.711 196.31 169.338C196.31 170.933 195.857 172.213 194.952 173.176C194.054 174.133 192.846 174.612 191.329 174.612ZM191.446 165.491C190.418 165.491 189.604 165.842 189.005 166.545C188.406 167.242 188.107 168.206 188.107 169.436C188.107 170.621 188.409 171.555 189.015 172.239C189.62 172.922 190.431 173.264 191.446 173.264C192.482 173.264 193.276 172.929 193.829 172.258C194.389 171.588 194.669 170.634 194.669 169.397C194.669 168.147 194.389 167.183 193.829 166.506C193.276 165.829 192.482 165.491 191.446 165.491ZM204.083 165.999C203.803 165.784 203.4 165.676 202.872 165.676C202.189 165.676 201.616 165.999 201.153 166.643C200.698 167.288 200.47 168.167 200.47 169.28V174.377H198.868V164.377H200.47V166.438H200.509C200.737 165.735 201.085 165.188 201.554 164.797C202.023 164.4 202.547 164.202 203.126 164.202C203.543 164.202 203.862 164.247 204.083 164.338V165.999ZM212.98 174.377H211.378V172.815H211.339C210.642 174.013 209.617 174.612 208.263 174.612C207.267 174.612 206.485 174.348 205.919 173.821C205.359 173.293 205.079 172.594 205.079 171.721C205.079 169.853 206.179 168.765 208.38 168.459L211.378 168.04C211.378 166.34 210.691 165.491 209.318 165.491C208.113 165.491 207.026 165.901 206.056 166.721V165.081C207.039 164.456 208.172 164.143 209.454 164.143C211.804 164.143 212.98 165.387 212.98 167.874V174.377ZM211.378 169.319L208.966 169.651C208.224 169.755 207.664 169.941 207.286 170.208C206.909 170.468 206.72 170.933 206.72 171.604C206.72 172.092 206.892 172.493 207.237 172.805C207.589 173.111 208.054 173.264 208.634 173.264C209.428 173.264 210.082 172.987 210.597 172.434C211.118 171.874 211.378 171.168 211.378 170.315V169.319ZM220.636 174.28C220.258 174.488 219.76 174.592 219.142 174.592C217.39 174.592 216.515 173.616 216.515 171.663V165.745H214.796V164.377H216.515V161.936L218.116 161.418V164.377H220.636V165.745H218.116V171.379C218.116 172.05 218.23 172.528 218.458 172.815C218.686 173.101 219.064 173.245 219.591 173.245C219.995 173.245 220.343 173.134 220.636 172.913V174.28ZM230.812 169.778H223.751C223.777 170.891 224.077 171.75 224.65 172.356C225.222 172.961 226.01 173.264 227.013 173.264C228.139 173.264 229.174 172.893 230.118 172.151V173.655C229.239 174.293 228.077 174.612 226.632 174.612C225.219 174.612 224.109 174.159 223.302 173.254C222.495 172.343 222.091 171.064 222.091 169.417C222.091 167.861 222.53 166.594 223.409 165.618C224.295 164.635 225.392 164.143 226.7 164.143C228.009 164.143 229.021 164.566 229.737 165.413C230.454 166.259 230.812 167.434 230.812 168.938V169.778ZM229.171 168.42C229.165 167.496 228.94 166.777 228.497 166.262C228.061 165.748 227.452 165.491 226.671 165.491C225.916 165.491 225.275 165.761 224.747 166.301C224.22 166.842 223.894 167.548 223.771 168.42H229.171ZM233.8 174.592C233.5 174.592 233.243 174.485 233.028 174.27C232.82 174.055 232.716 173.798 232.716 173.499C232.716 173.199 232.82 172.942 233.028 172.727C233.243 172.506 233.5 172.395 233.8 172.395C234.106 172.395 234.366 172.506 234.581 172.727C234.796 172.942 234.903 173.199 234.903 173.499C234.903 173.798 234.796 174.055 234.581 174.27C234.366 174.485 234.106 174.592 233.8 174.592ZM242.521 160.139L241.153 164.495H240.001L241.056 160.139H242.521ZM239.552 160.139L238.185 164.495H237.032L238.116 160.139H239.552Z" fill="white"/>
<rect x="40.1769" y="210.377" width="305" height="41" rx="14" fill="white" fill-opacity="0.1"/>
<path d="M145.235 234.377V224.196H148.865C149.654 224.196 150.308 224.332 150.829 224.603C151.352 224.875 151.743 225.251 152.002 225.732C152.26 226.209 152.39 226.761 152.39 227.387C152.39 228.01 152.259 228.559 151.997 229.033C151.738 229.504 151.347 229.87 150.824 230.132C150.303 230.394 149.649 230.524 148.86 230.524H146.11V229.202H148.721C149.218 229.202 149.622 229.131 149.934 228.988C150.249 228.846 150.479 228.639 150.625 228.367C150.771 228.095 150.843 227.769 150.843 227.387C150.843 227.003 150.769 226.67 150.62 226.388C150.474 226.106 150.244 225.891 149.929 225.742C149.617 225.589 149.208 225.513 148.701 225.513H146.772V234.377H145.235ZM150.262 229.784L152.777 234.377H151.027L148.561 229.784H150.262ZM157.335 234.532C156.583 234.532 155.935 234.371 155.391 234.049C154.851 233.725 154.433 233.269 154.138 232.682C153.847 232.092 153.701 231.401 153.701 230.609C153.701 229.827 153.847 229.137 154.138 228.541C154.433 227.944 154.844 227.479 155.371 227.144C155.902 226.809 156.521 226.642 157.231 226.642C157.662 226.642 158.079 226.713 158.484 226.855C158.888 226.998 159.251 227.222 159.572 227.527C159.894 227.832 160.147 228.228 160.333 228.715C160.519 229.199 160.611 229.787 160.611 230.48V231.007H154.541V229.893H159.155C159.155 229.502 159.075 229.156 158.916 228.854C158.757 228.549 158.533 228.309 158.245 228.133C157.96 227.957 157.625 227.87 157.241 227.87C156.823 227.87 156.458 227.972 156.147 228.178C155.839 228.38 155.6 228.645 155.431 228.973C155.265 229.298 155.182 229.651 155.182 230.032V230.902C155.182 231.413 155.272 231.847 155.451 232.205C155.633 232.563 155.887 232.836 156.212 233.025C156.536 233.211 156.916 233.304 157.35 233.304C157.632 233.304 157.889 233.264 158.121 233.184C158.353 233.101 158.553 232.979 158.722 232.816C158.891 232.654 159.02 232.453 159.11 232.215L160.517 232.468C160.404 232.883 160.202 233.246 159.91 233.557C159.622 233.865 159.259 234.106 158.822 234.278C158.387 234.447 157.892 234.532 157.335 234.532ZM164.483 234.546C163.999 234.546 163.562 234.457 163.171 234.278C162.779 234.096 162.47 233.832 162.241 233.488C162.015 233.143 161.903 232.72 161.903 232.22C161.903 231.789 161.986 231.434 162.151 231.156C162.317 230.877 162.541 230.657 162.822 230.495C163.104 230.332 163.419 230.21 163.767 230.127C164.115 230.044 164.47 229.981 164.831 229.938C165.288 229.885 165.66 229.842 165.945 229.809C166.23 229.772 166.437 229.714 166.566 229.635C166.695 229.555 166.76 229.426 166.76 229.247V229.212C166.76 228.778 166.637 228.441 166.392 228.203C166.15 227.964 165.789 227.845 165.308 227.845C164.808 227.845 164.413 227.956 164.125 228.178C163.84 228.397 163.643 228.64 163.533 228.909L162.136 228.591C162.302 228.126 162.544 227.752 162.862 227.467C163.184 227.179 163.553 226.97 163.971 226.841C164.389 226.708 164.828 226.642 165.288 226.642C165.593 226.642 165.916 226.678 166.258 226.751C166.603 226.821 166.924 226.95 167.222 227.139C167.524 227.328 167.771 227.598 167.963 227.949C168.155 228.297 168.251 228.75 168.251 229.306V234.377H166.8V233.333H166.74C166.644 233.526 166.5 233.715 166.308 233.9C166.115 234.086 165.868 234.24 165.567 234.363C165.265 234.485 164.904 234.546 164.483 234.546ZM164.806 233.353C165.217 233.353 165.568 233.272 165.86 233.11C166.155 232.947 166.379 232.735 166.531 232.473C166.687 232.208 166.765 231.925 166.765 231.623V230.639C166.712 230.692 166.609 230.742 166.457 230.788C166.308 230.831 166.137 230.869 165.945 230.902C165.752 230.932 165.565 230.96 165.383 230.987C165.201 231.01 165.048 231.03 164.925 231.046C164.637 231.083 164.374 231.144 164.135 231.23C163.9 231.317 163.711 231.441 163.568 231.603C163.429 231.762 163.359 231.975 163.359 232.24C163.359 232.608 163.495 232.886 163.767 233.075C164.039 233.26 164.385 233.353 164.806 233.353ZM173.09 234.527C172.474 234.527 171.923 234.369 171.44 234.054C170.959 233.736 170.581 233.284 170.306 232.697C170.034 232.107 169.898 231.399 169.898 230.574C169.898 229.749 170.036 229.043 170.311 228.456C170.589 227.87 170.971 227.421 171.454 227.109C171.938 226.797 172.487 226.642 173.1 226.642C173.574 226.642 173.955 226.721 174.243 226.88C174.535 227.036 174.761 227.218 174.92 227.427C175.082 227.636 175.208 227.82 175.297 227.979H175.387V224.196H176.873V234.377H175.422V233.189H175.297C175.208 233.352 175.079 233.537 174.91 233.746C174.744 233.955 174.515 234.137 174.224 234.293C173.932 234.449 173.554 234.527 173.09 234.527ZM173.418 233.259C173.846 233.259 174.207 233.146 174.502 232.921C174.8 232.692 175.026 232.376 175.178 231.971C175.334 231.567 175.412 231.096 175.412 230.559C175.412 230.029 175.336 229.565 175.183 229.167C175.031 228.769 174.807 228.46 174.512 228.238C174.217 228.015 173.852 227.904 173.418 227.904C172.971 227.904 172.598 228.02 172.3 228.252C172.001 228.484 171.776 228.801 171.623 229.202C171.474 229.603 171.4 230.055 171.4 230.559C171.4 231.07 171.476 231.529 171.628 231.936C171.781 232.344 172.006 232.667 172.305 232.906C172.606 233.141 172.977 233.259 173.418 233.259ZM188.422 228.605L187.075 228.844C187.019 228.672 186.929 228.508 186.807 228.352C186.687 228.196 186.525 228.068 186.319 227.969C186.114 227.87 185.857 227.82 185.549 227.82C185.128 227.82 184.777 227.914 184.495 228.103C184.213 228.289 184.072 228.529 184.072 228.824C184.072 229.079 184.167 229.285 184.356 229.441C184.545 229.596 184.85 229.724 185.27 229.823L186.484 230.102C187.186 230.264 187.71 230.515 188.055 230.853C188.399 231.191 188.572 231.63 188.572 232.17C188.572 232.627 188.439 233.035 188.174 233.393C187.912 233.748 187.546 234.026 187.075 234.228C186.608 234.43 186.066 234.532 185.449 234.532C184.594 234.532 183.897 234.349 183.356 233.985C182.816 233.617 182.485 233.095 182.362 232.419L183.799 232.2C183.888 232.574 184.072 232.858 184.351 233.05C184.629 233.239 184.992 233.333 185.44 233.333C185.927 233.333 186.316 233.232 186.608 233.03C186.899 232.825 187.045 232.574 187.045 232.279C187.045 232.041 186.956 231.84 186.777 231.678C186.601 231.515 186.331 231.393 185.966 231.31L184.674 231.027C183.961 230.864 183.434 230.606 183.093 230.251C182.755 229.896 182.586 229.447 182.586 228.904C182.586 228.453 182.712 228.059 182.964 227.72C183.216 227.382 183.564 227.119 184.008 226.93C184.452 226.738 184.961 226.642 185.534 226.642C186.359 226.642 187.009 226.821 187.483 227.179C187.957 227.533 188.27 228.009 188.422 228.605ZM193.771 226.741V227.934H189.599V226.741H193.771ZM190.718 224.912H192.205V232.135C192.205 232.424 192.248 232.641 192.334 232.787C192.42 232.929 192.531 233.027 192.667 233.08C192.806 233.13 192.957 233.154 193.119 233.154C193.239 233.154 193.343 233.146 193.433 233.13C193.522 233.113 193.592 233.1 193.641 233.09L193.91 234.318C193.824 234.351 193.701 234.384 193.542 234.417C193.383 234.454 193.184 234.474 192.945 234.477C192.554 234.484 192.19 234.414 191.852 234.268C191.514 234.122 191.24 233.897 191.031 233.592C190.822 233.287 190.718 232.904 190.718 232.443V224.912ZM198.55 234.532C197.834 234.532 197.209 234.367 196.675 234.039C196.142 233.711 195.727 233.252 195.432 232.662C195.137 232.072 194.99 231.383 194.99 230.594C194.99 229.802 195.137 229.109 195.432 228.516C195.727 227.923 196.142 227.462 196.675 227.134C197.209 226.806 197.834 226.642 198.55 226.642C199.265 226.642 199.89 226.806 200.424 227.134C200.957 227.462 201.372 227.923 201.667 228.516C201.962 229.109 202.109 229.802 202.109 230.594C202.109 231.383 201.962 232.072 201.667 232.662C201.372 233.252 200.957 233.711 200.424 234.039C199.89 234.367 199.265 234.532 198.55 234.532ZM198.555 233.284C199.019 233.284 199.403 233.161 199.708 232.916C200.013 232.671 200.238 232.344 200.384 231.936C200.533 231.529 200.608 231.08 200.608 230.589C200.608 230.102 200.533 229.654 200.384 229.247C200.238 228.836 200.013 228.506 199.708 228.257C199.403 228.009 199.019 227.885 198.555 227.885C198.087 227.885 197.699 228.009 197.391 228.257C197.086 228.506 196.859 228.836 196.71 229.247C196.564 229.654 196.491 230.102 196.491 230.589C196.491 231.08 196.564 231.529 196.71 231.936C196.859 232.344 197.086 232.671 197.391 232.916C197.699 233.161 198.087 233.284 198.555 233.284ZM203.769 234.377V226.741H205.205V227.954H205.285C205.424 227.543 205.669 227.22 206.021 226.985C206.375 226.746 206.776 226.627 207.224 226.627C207.317 226.627 207.426 226.63 207.552 226.637C207.681 226.643 207.782 226.652 207.855 226.662V228.083C207.796 228.067 207.689 228.049 207.537 228.029C207.385 228.006 207.232 227.994 207.08 227.994C206.728 227.994 206.415 228.068 206.14 228.218C205.868 228.363 205.653 228.567 205.494 228.829C205.335 229.088 205.255 229.383 205.255 229.714V234.377H203.769ZM210.314 237.241C210.092 237.241 209.889 237.223 209.707 237.186C209.525 237.153 209.389 237.117 209.299 237.077L209.657 235.859C209.929 235.932 210.171 235.963 210.383 235.953C210.595 235.943 210.783 235.864 210.945 235.715C211.111 235.566 211.257 235.322 211.383 234.984L211.566 234.477L208.772 226.741H210.363L212.297 232.667H212.377L214.311 226.741H215.907L212.76 235.397C212.614 235.794 212.428 236.131 212.203 236.406C211.977 236.684 211.709 236.893 211.397 237.032C211.086 237.171 210.725 237.241 210.314 237.241Z" fill="white"/>
<g clip-path="url(#clip1_1_1506)">
<path d="M240.051 226.91L234.076 232.885M240.051 226.91L235.737 227.042M240.051 226.91L239.919 231.224" stroke="white" stroke-width="1.26748" stroke-linecap="round" stroke-linejoin="round"/>
</g>
<rect x="-3.82312" y="1.6875" width="392.69" height="6" transform="rotate(4 -3.82312 1.6875)" fill="white"/>
</g>
<defs>
<linearGradient id="paint0_linear_1_1506" x1="285.244" y1="-48.6541" x2="99.7557" y2="331.654" gradientUnits="userSpaceOnUse">
<stop stop-color="#26ABFA" stop-opacity="0.8"/>
<stop offset="0.525" stop-color="#7612FA" stop-opacity="0.8"/>
</linearGradient>
<clipPath id="clip0_1_1506">
<rect width="385" height="283" fill="white" transform="translate(0.17688 0.377441)"/>
</clipPath>
<clipPath id="clip1_1_1506">
<rect width="8" height="8" fill="white" transform="translate(233.237 225.877)"/>
</clipPath>
</defs>
</svg>
