<svg width="41" height="41" viewBox="0 0 41 41" fill="none" xmlns="http://www.w3.org/2000/svg">
<mask id="mask0_1_1412" style="mask-type:alpha" maskUnits="userSpaceOnUse" x="0" y="0" width="41" height="41">
<g clip-path="url(#clip0_1_1412)">
<path d="M20.6769 40.1865C24.577 40.1865 27.8314 40.0391 30.4662 39.8356C35.8638 39.4186 39.909 35.3735 40.326 29.9759C40.5295 27.3412 40.6769 24.0869 40.6769 20.187C40.6769 16.2871 40.5295 13.0329 40.326 10.3981C39.909 5.00054 35.8638 0.955352 30.4662 0.538411C27.8314 0.334882 24.577 0.1875 20.6769 0.1875C16.5953 0.1875 13.2209 0.348916 10.5238 0.567178C5.32189 0.988131 1.43184 4.82756 1.03005 10.031C0.825356 12.6819 0.67688 16.0356 0.67688 20.187C0.67688 24.3384 0.825355 27.6921 1.03005 30.343C1.43183 35.5464 5.32189 39.3859 10.5238 39.8068C13.2209 40.0251 16.5953 40.1865 20.6769 40.1865Z" fill="black"/>
</g>
</mask>
<g mask="url(#mask0_1_1412)">
<rect width="40" height="40" transform="translate(0.67688 0.1875)" fill="#F8F8FC"/>
<g clip-path="url(#clip1_1_1412)">
<path d="M24.5979 20.1871C24.5979 18.0208 22.8417 16.2646 20.6755 16.2646C18.5092 16.2646 16.753 18.0208 16.753 20.1871C16.753 22.3533 18.5092 24.1095 20.6755 24.1095C22.8417 24.1095 24.5979 22.3533 24.5979 20.1871Z" stroke="#24223E" stroke-width="2" stroke-linecap="round" stroke-linejoin="round"/>
<path d="M18.4999 29.3208C19.1966 29.5042 19.9256 29.6018 20.6763 29.6018C21.5024 29.6018 22.3024 29.4839 23.0618 29.2631L23.5021 30.0665C23.9961 30.968 24.9697 31.3503 25.8255 30.8298L26.8585 30.2015C27.7142 29.681 27.8717 28.6107 27.3776 27.7092L26.9384 26.9076C28.0478 25.7618 28.8752 24.314 29.3005 22.6905H30.2185C31.2066 22.6905 32.0077 21.8466 32.0077 20.8055V19.5489C32.0077 18.5079 31.2066 17.664 30.2185 17.664H29.3005C28.8752 16.0404 28.0478 14.5927 26.9384 13.4469L27.3776 12.6453C27.8717 11.7438 27.7142 10.6735 26.8584 10.153L25.8255 9.52467C24.9697 9.00416 24.0112 9.39561 23.5171 10.2972L22.9754 11.0668C22.2417 10.8619 21.4711 10.7527 20.6763 10.7527C19.8501 10.7527 19.0502 10.8705 18.2907 11.0914L17.8355 10.2971C17.3414 9.3956 16.3828 9.00416 15.527 9.52467L14.4941 10.153C13.6383 10.6735 13.4658 11.7529 13.9599 12.6544L14.4142 13.4469C13.3047 14.5927 12.4773 16.0404 12.052 17.664H11.134C10.1459 17.664 9.34485 18.5079 9.34485 19.5489V20.8055C9.34485 21.8466 10.1459 22.6905 11.134 22.6905H12.052C12.4773 24.314 13.3047 25.7618 14.4142 26.9076L13.9749 27.7092C13.4808 28.6107 13.6383 29.681 14.4941 30.2015L15.527 30.8298C16.3828 31.3503 17.477 31.0414 17.9711 30.1398L18.4999 29.3208Z" stroke="#24223E" stroke-width="2" stroke-linecap="round" stroke-linejoin="round"/>
<path fill-rule="evenodd" clip-rule="evenodd" d="M20.6763 29.6018C19.9256 29.6018 19.1966 29.5042 18.4999 29.3208L17.9711 30.1398C17.477 31.0414 16.3828 31.3503 15.527 30.8298L14.4941 30.2015C13.6383 29.681 13.4808 28.6107 13.9749 27.7091L14.4142 26.9076C13.3047 25.7617 12.4773 24.314 12.052 22.6904H11.134C10.1459 22.6904 9.34485 21.8465 9.34485 20.8055V19.5489C9.34485 18.5079 10.1459 17.664 11.134 17.664H12.052C12.4773 16.0404 13.3047 14.5927 14.4142 13.4469L13.9599 12.6545C13.4658 11.7529 13.6383 10.6735 14.4941 10.153L15.527 9.52467C16.3828 9.00416 17.3414 9.3956 17.8355 10.2971L18.2907 11.0914C19.0502 10.8705 19.8501 10.7527 20.6763 10.7527C21.4711 10.7527 22.2417 10.8619 22.9754 11.0668L23.5171 10.2972C24.0112 9.39562 24.9697 9.00416 25.8255 9.52467L26.8584 10.153C27.7142 10.6735 27.8717 11.7438 27.3776 12.6453L26.9384 13.4469C28.0478 14.5927 28.8752 16.0404 29.3005 17.664H30.2185C31.2066 17.664 32.0077 18.5079 32.0077 19.5489V20.8055C32.0077 21.8465 31.2066 22.6904 30.2185 22.6904H29.3005C28.8752 24.314 28.0478 25.7617 26.9384 26.9076L27.3776 27.7091C27.8717 28.6107 27.7142 29.681 26.8585 30.2015L25.8255 30.8298C24.9697 31.3503 23.9961 30.968 23.5021 30.0664L23.0618 29.2631C22.3024 29.4839 21.5024 29.6018 20.6763 29.6018ZM20.6755 16.2645C18.5092 16.2645 16.753 18.0206 16.753 20.1869C16.753 22.3531 18.5092 24.1093 20.6755 24.1093C22.8418 24.1093 24.5979 22.3531 24.5979 20.1869C24.5979 18.0206 22.8418 16.2645 20.6755 16.2645Z" fill="#242236" fill-opacity="0.09"/>
</g>
</g>
<defs>
<clipPath id="clip0_1_1412">
<rect width="40" height="40" fill="white" transform="translate(0.67688 0.1875)"/>
</clipPath>
<clipPath id="clip1_1_1412">
<rect width="26" height="24" fill="white" transform="translate(7.67688 8.1875)"/>
</clipPath>
</defs>
</svg>
