<svg width="145" height="33" viewBox="0 0 145 33" fill="none" xmlns="http://www.w3.org/2000/svg">
<g clip-path="url(#clip0_1_1893)">
<path d="M22.9069 0.756836H2.44688C1.47688 0.756836 0.67688 1.52684 0.67688 2.47684V23.0368C0.67688 23.9868 1.47688 24.7568 2.44688 24.7568H22.9069C23.8869 24.7568 24.6769 23.9868 24.6769 23.0368V2.47684C24.6769 1.52684 23.8769 0.756836 22.9069 0.756836ZM7.94688 20.8568H4.32688V9.99684H7.94688V20.8568ZM6.14688 8.51684H6.11688C4.89688 8.51684 4.11688 7.68684 4.11688 6.64684C4.11688 5.58684 4.91688 4.77684 6.16688 4.77684C7.40688 4.77684 8.16688 5.57684 8.18688 6.64684C8.18688 7.68684 7.40688 8.51684 6.13688 8.51684H6.14688ZM21.0169 20.8568H17.3869V15.0568C17.3869 13.6068 16.8669 12.6068 15.5569 12.6068C14.5569 12.6068 13.9569 13.2768 13.6869 13.9268C13.5869 14.1568 13.5769 14.4768 13.5769 14.8068V20.8568H9.95688C9.95688 20.8568 10.0069 11.0368 9.95688 10.0168H13.5869V11.5568C13.9146 10.9881 14.3915 10.5198 14.9661 10.2026C15.5406 9.88531 16.191 9.73118 16.8469 9.75684C19.2369 9.75684 21.0269 11.3168 21.0269 14.6468V20.8568H21.0169Z" fill="white"/>
</g>
<g clip-path="url(#clip1_1_1893)">
<path d="M63.1769 0.756836C64.0069 0.756836 64.6769 1.42684 64.6769 2.25684V23.2568C64.6769 24.0868 64.0069 24.7568 63.1769 24.7568H57.1769V15.7568H60.1769L60.9269 12.0068H57.1769V10.5068C57.1769 9.00684 57.9269 8.25684 59.4269 8.25684H60.9269V4.50684H57.9269C55.1669 4.50684 53.4269 6.66684 53.4269 9.75684V12.0068H50.4269V15.7568H53.4269V24.7568H42.1769C41.7791 24.7568 41.3975 24.5988 41.1162 24.3175C40.8349 24.0362 40.6769 23.6547 40.6769 23.2568V2.25684C40.6769 1.42684 41.3469 0.756836 42.1769 0.756836H63.1769Z" fill="white"/>
</g>
<g clip-path="url(#clip2_1_1893)">
<path d="M97.6569 0.757039C98.5937 0.724692 99.5273 0.883578 100.401 1.224C101.274 1.56442 102.069 2.07924 102.737 2.73704C103.381 3.40484 103.884 4.19493 104.217 5.06059C104.55 5.92626 104.707 6.84994 104.677 7.77704V17.737C104.677 19.817 103.997 21.607 102.697 22.867C101.318 24.1403 99.4928 24.8192 97.6169 24.757H87.7369C85.8766 24.8147 84.0689 24.1354 82.7069 22.867C82.0317 22.1908 81.5031 21.3828 81.1538 20.4933C80.8046 19.6038 80.6422 18.652 80.6769 17.697V7.77704C80.6769 3.55704 83.4769 0.757039 87.6969 0.757039H97.6569ZM97.7069 2.98704H87.7369C86.2869 2.98704 85.0369 3.41704 84.2069 4.23704C83.7634 4.70943 83.4197 5.26638 83.1963 5.87462C82.9729 6.48286 82.8745 7.12989 82.9069 7.77704V17.697C82.9069 19.197 83.3369 20.397 84.2069 21.277C85.1772 22.1352 86.4427 22.5834 87.7369 22.527H97.6169C98.911 22.5834 100.177 22.1352 101.147 21.277C101.613 20.8162 101.978 20.2635 102.219 19.6541C102.46 19.0447 102.571 18.3919 102.547 17.737V7.77704C102.579 6.4897 102.113 5.23956 101.247 4.28704C100.774 3.84353 100.218 3.49982 99.6093 3.27646C99.0011 3.0531 98.354 2.95466 97.7069 2.98704ZM92.6769 6.51704C96.0669 6.51704 98.8769 9.31704 98.8769 12.717C98.8769 14.3614 98.2237 15.9384 97.0609 17.1011C95.8982 18.2638 94.3212 18.917 92.6769 18.917C91.0325 18.917 89.4555 18.2638 88.2928 17.1011C87.1301 15.9384 86.4769 14.3614 86.4769 12.717C86.4769 11.0727 87.1301 9.4957 88.2928 8.33298C89.4555 7.17025 91.0325 6.51704 92.6769 6.51704ZM92.6769 8.73704C91.6256 8.7423 90.6189 9.16225 89.8755 9.90563C89.1321 10.649 88.7121 11.6557 88.7069 12.707C88.7121 13.7583 89.1321 14.7651 89.8755 15.5084C90.6189 16.2518 91.6256 16.6718 92.6769 16.677C93.7282 16.6718 94.7349 16.2518 95.4783 15.5084C96.2217 14.7651 96.6416 13.7583 96.6469 12.707C96.6416 11.6557 96.2217 10.649 95.4783 9.90563C94.7349 9.16225 93.7282 8.7423 92.6769 8.73704ZM99.1169 4.96704C99.4882 4.96704 99.8443 5.11454 100.107 5.37709C100.369 5.63964 100.517 5.99574 100.517 6.36704C100.517 6.73834 100.369 7.09444 100.107 7.35699C99.8443 7.61954 99.4882 7.76704 99.1169 7.76704C98.7456 7.76704 98.3895 7.61954 98.1269 7.35699C97.8644 7.09444 97.7169 6.73834 97.7169 6.36704C97.7169 5.99574 97.8644 5.63964 98.1269 5.37709C98.3895 5.11454 98.7456 4.96704 99.1169 4.96704Z" fill="white"/>
</g>
<path d="M138.921 3.00684H142.229L135.002 11.2668L143.504 22.5068H136.847L131.633 15.6898L125.667 22.5068H122.357L130.087 13.6718L121.931 3.00684H128.757L133.47 9.23784L138.921 3.00684ZM137.76 20.5268H139.593L127.761 4.88284H125.794L137.76 20.5268Z" fill="white"/>
<defs>
<clipPath id="clip0_1_1893">
<rect width="24" height="24" fill="white" transform="translate(0.67688 0.756836)"/>
</clipPath>
<clipPath id="clip1_1_1893">
<rect width="24" height="24" fill="white" transform="translate(40.6769 0.756836)"/>
</clipPath>
<clipPath id="clip2_1_1893">
<rect width="24" height="24" fill="white" transform="translate(80.6769 0.756836)"/>
</clipPath>
</defs>
</svg>
