<svg width="74" height="42" viewBox="0 0 74 42" fill="none" xmlns="http://www.w3.org/2000/svg">
<g clip-path="url(#clip0_1_1355)">
<path d="M49.8168 1.68066L52.0771 4.78859L45.0136 23.4362L38.2327 20.8934L46.1438 1.9632L49.8168 1.68066Z" fill="#24223E" fill-opacity="0.1"/>
<path d="M38.21 21.5855L37.7258 22.8252C37.4962 23.4133 37.3915 24.0404 37.4274 24.6707C37.5338 26.5365 37.8066 30.5027 38.21 30.6561C38.611 30.8086 41.5773 28.1184 42.9821 26.8145C43.4684 26.3631 43.8409 25.8067 44.0823 25.1886L44.6569 23.7171M38.21 21.5855L45.1768 3.74596C45.8767 1.95373 47.865 0.996821 49.6634 1.68066C51.4137 2.34619 52.2241 4.34017 51.543 6.08439L44.6569 23.7171M38.21 21.5855C38.21 21.5855 39.6437 21.3695 41.6215 22.0234C43.5992 22.6774 44.6569 23.7171 44.6569 23.7171" stroke="#514B81" stroke-width="2" stroke-linecap="round" stroke-linejoin="round"/>
<path d="M24.6682 6.48389C24.6682 6.48389 23.538 8.72757 23.538 16.0902C23.538 23.4529 24.6682 25.6966 24.6682 25.6966" stroke="#514B81" stroke-width="2" stroke-linecap="round" stroke-linejoin="round"/>
<path d="M27.4943 3.65849C27.4943 3.65849 28.907 2.81087 33.5689 2.52833C38.2308 2.24579 40.7737 2.81087 40.7737 2.81087" stroke="#514B81" stroke-width="2" stroke-linecap="round" stroke-linejoin="round"/>
<path d="M27.4946 28.522H33.428" stroke="#514B81" stroke-width="2" stroke-linecap="round" stroke-linejoin="round"/>
<path d="M22.4084 3.94081C22.4084 5.34519 23.5469 6.48367 24.9513 6.48367C26.3557 6.48367 27.4942 5.34519 27.4942 3.94081C27.4942 2.53643 26.3557 1.39795 24.9513 1.39795C23.5469 1.39795 22.4084 2.53643 22.4084 3.94081Z" stroke="#514B81" stroke-width="2" stroke-linecap="round" stroke-linejoin="round"/>
<path d="M22.4084 28.2392C22.4084 29.6436 23.5469 30.782 24.9513 30.782C26.3557 30.782 27.4942 29.6436 27.4942 28.2392C27.4942 26.8348 26.3557 25.6963 24.9513 25.6963C23.5469 25.6963 22.4084 26.8348 22.4084 28.2392Z" stroke="#514B81" stroke-width="2" stroke-linecap="round" stroke-linejoin="round"/>
</g>
<defs>
<clipPath id="clip0_1_1355">
<rect width="33" height="32" fill="white" transform="translate(20.5569 0.1875)"/>
</clipPath>
</defs>
</svg>
