<svg width="60" height="29" viewBox="0 0 60 29" fill="none" xmlns="http://www.w3.org/2000/svg">
<g clip-path="url(#clip0_1_1581)">
<path d="M45.0994 0.256836H14.6873C7.076 0.256836 0.905853 6.42696 0.905853 14.0382C0.905853 21.6494 7.076 27.8195 14.6873 27.8195H45.0994C52.7106 27.8195 58.8808 21.6494 58.8808 14.0382C58.8808 6.42696 52.7106 0.256836 45.0994 0.256836Z" fill="#020202" fill-opacity="0.2"/>
<path d="M14.5213 24.2613C20.1003 24.2613 24.623 19.6835 24.623 14.0364C24.623 8.38937 20.1003 3.81152 14.5213 3.81152C8.94224 3.81152 4.41956 8.38937 4.41956 14.0364C4.41956 19.6835 8.94224 24.2613 14.5213 24.2613Z" fill="white"/>
</g>
<defs>
<clipPath id="clip0_1_1581">
<rect width="59" height="28" fill="white" transform="translate(0.676849 0.256836)"/>
</clipPath>
</defs>
</svg>
