<svg width="60" height="29" viewBox="0 0 60 29" fill="none" xmlns="http://www.w3.org/2000/svg">
<g clip-path="url(#clip0_1_1563)">
<path d="M45.0994 0.756836H14.6873C7.076 0.756836 0.905853 6.92696 0.905853 14.5382C0.905853 22.1494 7.076 28.3195 14.6873 28.3195H45.0994C52.7106 28.3195 58.8808 22.1494 58.8808 14.5382C58.8808 6.92696 52.7106 0.756836 45.0994 0.756836Z" fill="#020202" fill-opacity="0.2"/>
<path d="M14.5213 24.7613C20.1003 24.7613 24.623 20.1835 24.623 14.5364C24.623 8.88937 20.1003 4.31152 14.5213 4.31152C8.94224 4.31152 4.41956 8.88937 4.41956 14.5364C4.41956 20.1835 8.94224 24.7613 14.5213 24.7613Z" fill="white"/>
</g>
<defs>
<clipPath id="clip0_1_1563">
<rect width="59" height="28" fill="white" transform="translate(0.676849 0.756836)"/>
</clipPath>
</defs>
</svg>
