<svg width="31" height="32" viewBox="0 0 31 32" fill="none" xmlns="http://www.w3.org/2000/svg">
<g clip-path="url(#clip0_1_1578)">
<path d="M20.9846 6.15575L17.1646 2.28918C16.3244 1.43876 14.9622 1.43876 14.1221 2.28918L10.3517 6.10552C10.3517 6.10552 16.6029 8.8121 12.7831 12.7132C8.94673 16.6313 6.25496 10.2522 6.25496 10.2522L2.48463 14.0685C1.64446 14.9189 1.64446 16.2977 2.48463 17.1481L6.30465 21.0147C6.30465 21.0147 0.0272529 23.6798 3.93408 27.5997C7.82407 31.5027 10.4398 25.2003 10.4398 25.2003L14.2598 29.0669C15.1 29.9173 16.4621 29.9173 17.3023 29.0668L21.0727 25.2505C21.0727 25.2505 14.8214 22.5439 18.6413 18.6428C22.4777 14.7247 25.1694 21.1038 25.1694 21.1038L28.9398 17.2875C29.7799 16.4371 29.7799 15.0583 28.9398 14.2079L25.1198 10.3413C25.1198 10.3413 31.3971 7.67621 27.4903 3.7563C23.6003 -0.146713 20.9846 6.15575 20.9846 6.15575Z" fill="white" fill-opacity="0.09" stroke="white" stroke-width="2" stroke-linecap="round" stroke-linejoin="round"/>
</g>
<defs>
<clipPath id="clip0_1_1578">
<rect width="31" height="31" fill="white" transform="translate(0.00683594 0.256836)"/>
</clipPath>
</defs>
</svg>
