<svg width="32" height="33" viewBox="0 0 32 33" fill="none" xmlns="http://www.w3.org/2000/svg">
<g clip-path="url(#clip0_1_1556)">
<path d="M13.7722 4.04427V18.6549L23.6626 27.0425C23.6626 27.0425 30.8799 19.769 26.603 11.6202C22.0588 2.962 13.7722 4.04427 13.7722 4.04427Z" fill="white" fill-opacity="0.09"/>
<path d="M1.47681 17.1431C1.47681 9.90916 7.34104 4.04492 14.5749 4.04492C21.8088 4.04492 27.673 9.90915 27.673 17.1431V17.4624C27.673 24.6963 21.8088 30.5606 14.5749 30.5606C7.34104 30.5606 1.47681 24.6963 1.47681 17.4624V17.1431Z" fill="white" fill-opacity="0.09" stroke="white" stroke-width="2" stroke-linecap="round" stroke-linejoin="round"/>
<path d="M13.7722 18.6553L17.5145 21.9022" stroke="white" stroke-width="2" stroke-linecap="round" stroke-linejoin="round"/>
<path d="M13.7722 18.6551V10.5381" stroke="white" stroke-width="2" stroke-linecap="round" stroke-linejoin="round"/>
<path d="M22.3275 2.4211C22.3275 2.4211 26.2289 2.04093 27.941 3.77393C29.6532 5.50693 29.2777 9.45586 29.2777 9.45586" stroke="white" stroke-width="2" stroke-linecap="round" stroke-linejoin="round"/>
</g>
<defs>
<clipPath id="clip0_1_1556">
<rect width="32" height="32" fill="white" transform="translate(0.00683594 0.256836)"/>
</clipPath>
</defs>
</svg>
