<svg width="147" height="39" viewBox="0 0 147 39" fill="none" xmlns="http://www.w3.org/2000/svg">
<g clip-path="url(#clip0_1_1882)">
<path fill-rule="evenodd" clip-rule="evenodd" d="M6.29199 28.0156L11.3065 24.165C13.9706 27.6504 16.8011 29.257 19.9518 29.257C23.0855 29.257 25.836 27.6694 28.3801 24.2114L33.4662 27.9692C29.7954 32.9557 25.2337 35.5903 19.9518 35.5903C14.6867 35.5903 10.0808 32.9725 6.29199 28.0156Z" fill="url(#paint0_linear_1_1882)"/>
<path fill-rule="evenodd" clip-rule="evenodd" d="M19.6692 11.2793L10.7438 18.989L6.61804 14.1926L19.6881 2.90234L32.655 14.201L28.5103 18.9806L19.6692 11.2793Z" fill="url(#paint1_linear_1_1882)"/>
<path d="M52.4308 30.8335C49.3834 30.8335 46.8435 29.8434 44.7838 27.8631C42.7241 25.8555 41.709 23.282 41.709 20.1407C41.709 16.974 42.7515 14.371 44.8112 12.3338C46.9004 10.2692 49.4403 9.25162 52.4603 9.25162C56.1859 9.25162 59.4861 10.8624 61.4068 13.3809L58.0476 16.917C56.4386 15.1901 54.6885 14.314 52.7994 14.314C51.1904 14.314 49.8636 14.8502 48.7621 15.9544C47.6901 17.0585 47.1552 18.4455 47.1552 20.1132C47.1552 21.7261 47.6901 23.0836 48.7621 24.1877C49.8636 25.2622 51.1904 25.7985 52.7699 25.7985C54.8296 25.7985 56.6366 24.8928 58.1319 23.111L61.6321 26.4782C60.6718 27.7512 59.3744 28.7984 57.7654 29.6175C56.1564 30.4387 54.3789 30.8335 52.4308 30.8335ZM67.5522 8.93918V30.5231H62.5861V8.93918H67.5522ZM72.2592 13.5202C70.5954 13.5202 69.3823 12.3042 69.3823 10.6365C69.3823 9.02362 70.6523 7.80762 72.2592 7.80762C73.8682 7.80762 75.1107 9.02362 75.1107 10.6365C75.1107 12.3042 73.8682 13.5224 72.2592 13.5224V13.5202ZM74.7717 14.9072V30.5231H69.7762V14.9072H74.7717ZM84.3331 30.863C81.8774 30.863 79.902 30.0988 78.3519 28.5704C76.8272 27.044 76.0648 25.0912 76.0648 22.6867C76.0648 20.2821 76.8272 18.3315 78.3793 16.803C79.9315 15.2746 81.9343 14.5125 84.4173 14.5125C87.6627 14.5125 90.5143 16.0958 91.839 19.0661L87.8607 21.1604C87.0709 19.8304 85.9695 19.1506 84.531 19.1506C83.4864 19.1506 82.6398 19.4905 81.9617 20.1702C81.6399 20.5039 81.387 20.8979 81.2175 21.3298C81.0481 21.7616 80.9653 22.2227 80.9739 22.6867C80.9739 24.7514 82.4692 26.2798 84.4742 26.2798C85.9126 26.2798 87.2394 25.4881 87.8038 24.2721L91.7842 26.6471C90.4279 29.2501 87.6353 30.863 84.3331 30.863ZM109.106 30.5231H103.178L98.5762 24.327L97.8433 25.0068V30.5231H92.8794V8.93918H97.8454V19.4335L102.529 14.9072H108.597L101.91 21.1878L109.106 30.5231ZM109.439 22.4038V9.61684H114.744V22.3194C114.744 24.6669 116.099 25.7985 118.047 25.7985C119.965 25.7985 121.319 24.6099 121.319 22.3194V9.61684H126.654V22.4038C126.654 28.5704 122.391 30.8905 118.047 30.8905C113.729 30.8905 109.439 28.5704 109.439 22.4038ZM138.444 14.5125C140.674 14.5125 142.481 15.3041 143.919 16.8875C145.358 18.4434 146.063 20.3961 146.063 22.6867C146.063 24.9794 145.33 26.93 143.892 28.5429C142.451 30.1262 140.646 30.92 138.473 30.92C136.75 30.92 135.255 30.3542 134.042 29.2227V36.9451H129.046V14.9072H133.958V16.3512C135.171 15.1331 136.666 14.5125 138.444 14.5125ZM140.983 22.7437C140.983 20.7065 139.518 19.1506 137.485 19.1506C135.453 19.1506 133.958 20.7065 133.958 22.7437C133.958 23.7338 134.295 24.5825 134.945 25.2897C135.621 25.9969 136.468 26.3368 137.485 26.3368C138.5 26.3368 139.347 25.9969 139.996 25.2897C140.643 24.602 140.998 23.689 140.986 22.7437H140.983Z" fill="white"/>
</g>
<defs>
<linearGradient id="paint0_linear_1_1882" x1="6.29199" y1="31.9354" x2="33.4662" y2="31.9354" gradientUnits="userSpaceOnUse">
<stop stop-color="#8930FD"/>
<stop offset="1" stop-color="#49CCF9"/>
</linearGradient>
<linearGradient id="paint1_linear_1_1882" x1="6.61804" y1="13.8429" x2="32.655" y2="13.8429" gradientUnits="userSpaceOnUse">
<stop stop-color="#FF02F0"/>
<stop offset="1" stop-color="#FFC800"/>
</linearGradient>
<clipPath id="clip0_1_1882">
<rect width="146" height="38" fill="white" transform="translate(0.67688 0.756836)"/>
</clipPath>
</defs>
</svg>
