<svg width="147" height="47" viewBox="0 0 147 47" fill="none" xmlns="http://www.w3.org/2000/svg">
<g clip-path="url(#clip0_1_1945)">
<path fill-rule="evenodd" clip-rule="evenodd" d="M6.29199 27.4966L11.3065 23.646C13.9706 27.1314 16.8011 28.738 19.9518 28.738C23.0855 28.738 25.836 27.1504 28.3801 23.6924L33.4662 27.4502C29.7954 32.4367 25.2337 35.0713 19.9518 35.0713C14.6867 35.0713 10.0808 32.4535 6.29199 27.4966Z" fill="url(#paint0_linear_1_1945)"/>
<path fill-rule="evenodd" clip-rule="evenodd" d="M19.6692 10.7602L10.7438 18.4699L6.61804 13.6735L19.6881 2.38324L32.655 13.6819L28.5103 18.4615L19.6692 10.7602Z" fill="url(#paint1_linear_1_1945)"/>
<path d="M52.4308 30.3141C49.3834 30.3141 46.8435 29.324 44.7838 27.3437C42.7241 25.3361 41.709 22.7626 41.709 19.6213C41.709 16.4546 42.7515 13.8516 44.8112 11.8144C46.9004 9.74971 49.4403 8.73215 52.4603 8.73215C56.1859 8.73215 59.4861 10.343 61.4068 12.8615L58.0476 16.3976C56.4386 14.6707 54.6885 13.7946 52.7994 13.7946C51.1904 13.7946 49.8636 14.3308 48.7621 15.435C47.6901 16.5391 47.1552 17.9261 47.1552 19.5938C47.1552 21.2067 47.6901 22.5642 48.7621 23.6683C49.8636 24.7428 51.1904 25.2791 52.7699 25.2791C54.8296 25.2791 56.6366 24.3734 58.1319 22.5916L61.6321 25.9588C60.6718 27.2318 59.3744 28.279 57.7654 29.0981C56.1564 29.9193 54.3789 30.3141 52.4308 30.3141ZM67.5522 8.41971V30.0037H62.5861V8.41971H67.5522ZM72.2592 13.0008C70.5954 13.0008 69.3823 11.7848 69.3823 10.117C69.3823 8.50415 70.6523 7.28815 72.2592 7.28815C73.8682 7.28815 75.1107 8.50415 75.1107 10.117C75.1107 11.7848 73.8682 13.003 72.2592 13.003V13.0008ZM74.7717 14.3878V30.0037H69.7762V14.3878H74.7717ZM84.3331 30.3436C81.8774 30.3436 79.902 29.5794 78.3519 28.051C76.8272 26.5246 76.0648 24.5718 76.0648 22.1673C76.0648 19.7627 76.8272 17.8121 78.3793 16.2836C79.9315 14.7552 81.9343 13.9931 84.4173 13.9931C87.6627 13.9931 90.5143 15.5764 91.839 18.5467L87.8607 20.641C87.0709 19.311 85.9695 18.6312 84.531 18.6312C83.4864 18.6312 82.6398 18.9711 81.9617 19.6508C81.6399 19.9845 81.387 20.3785 81.2175 20.8104C81.0481 21.2422 80.9653 21.7033 80.9739 22.1673C80.9739 24.232 82.4692 25.7604 84.4742 25.7604C85.9126 25.7604 87.2394 24.9687 87.8038 23.7527L91.7842 26.1277C90.4279 28.7307 87.6353 30.3436 84.3331 30.3436ZM109.106 30.0037H103.178L98.5762 23.8076L97.8433 24.4874V30.0037H92.8794V8.41971H97.8454V18.9141L102.529 14.3878H108.597L101.91 20.6684L109.106 30.0037ZM109.439 21.8844V9.09737H114.744V21.8C114.744 24.1475 116.099 25.2791 118.047 25.2791C119.965 25.2791 121.319 24.0905 121.319 21.8V9.09737H126.654V21.8844C126.654 28.051 122.391 30.3711 118.047 30.3711C113.729 30.3711 109.439 28.051 109.439 21.8844ZM138.444 13.9931C140.674 13.9931 142.481 14.7847 143.919 16.3681C145.358 17.924 146.063 19.8767 146.063 22.1673C146.063 24.46 145.33 26.4106 143.892 28.0235C142.451 29.6068 140.646 30.4006 138.473 30.4006C136.75 30.4006 135.255 29.8348 134.042 28.7033V36.4257H129.046V14.3878H133.958V15.8318C135.171 14.6137 136.666 13.9931 138.444 13.9931ZM140.983 22.2243C140.983 20.1871 139.518 18.6312 137.485 18.6312C135.453 18.6312 133.958 20.1871 133.958 22.2243C133.958 23.2144 134.295 24.0631 134.945 24.7703C135.621 25.4775 136.468 25.8174 137.485 25.8174C138.5 25.8174 139.347 25.4775 139.996 24.7703C140.643 24.0826 140.998 23.1696 140.986 22.2243H140.983Z" fill="black"/>
</g>
<defs>
<linearGradient id="paint0_linear_1_1945" x1="6.29199" y1="31.4164" x2="33.4662" y2="31.4164" gradientUnits="userSpaceOnUse">
<stop stop-color="#8930FD"/>
<stop offset="1" stop-color="#49CCF9"/>
</linearGradient>
<linearGradient id="paint1_linear_1_1945" x1="6.61804" y1="13.3238" x2="32.655" y2="13.3238" gradientUnits="userSpaceOnUse">
<stop stop-color="#FF02F0"/>
<stop offset="1" stop-color="#FFC800"/>
</linearGradient>
<clipPath id="clip0_1_1945">
<rect width="146" height="38" fill="white" transform="translate(0.67688 0.237366)"/>
</clipPath>
</defs>
</svg>
