<svg width="106" height="28" viewBox="0 0 106 28" fill="none" xmlns="http://www.w3.org/2000/svg">
<g clip-path="url(#clip0_1_1190)">
<path d="M23.4192 15.9959C21.6896 15.9959 20.3506 14.6569 20.3506 12.8715C20.3506 11.1418 21.6896 9.80274 23.4192 9.80274C25.1488 9.80274 26.4879 11.1418 26.4879 12.8715C26.4879 14.6011 25.0931 15.9959 23.4192 15.9959ZM28.9986 9.69115V7.57098H25.2604C24.6467 7.29201 24.033 7.23623 23.4192 7.23623C20.1832 7.23623 17.6725 9.69116 17.6725 12.9273C17.6725 16.1633 20.1832 18.5624 23.3634 18.5624C26.5437 18.5624 29.0544 16.1075 29.0544 12.9273C29.0544 11.8114 28.7197 10.8071 28.1617 10.0259L28.9986 9.69115ZM10.9772 15.9959C9.24754 15.9959 7.90849 14.6569 7.90849 12.8715C7.90849 11.1418 9.24754 9.80274 10.9772 9.80274C12.7068 9.80274 14.0458 11.1418 14.0458 12.8715C14.0458 14.6011 12.7626 15.9959 10.9772 15.9959ZM10.9772 7.23623C7.74111 7.23623 5.28617 9.69116 5.28617 12.8715C5.28617 16.0517 7.7969 18.5624 10.9772 18.5624C14.1574 18.5624 16.6682 16.1075 16.6682 12.9273C16.6682 9.74695 14.2132 7.23623 10.9772 7.23623ZM1.54797 18.2835H4.17029V3.10747H1.54797V18.2835ZM30.1703 18.2835H32.7926V7.57098H30.1703V18.2835ZM23.4192 22.0217C21.6896 22.0217 20.3506 20.6826 20.3506 18.953H17.6725C17.6725 22.1891 20.1832 24.5882 23.3634 24.5882C26.5437 24.5882 29.1102 22.1333 29.1102 18.953H26.4879C26.4321 20.7384 25.0931 22.0217 23.4192 22.0217ZM42.6682 11.8114C43.0587 10.4165 44.063 9.63536 45.4579 9.63536C46.8527 9.63536 47.9128 10.4165 48.1918 11.8114H42.6682ZM45.5694 7.23623C42.3334 7.23623 39.9343 9.69116 39.9343 12.9273C39.9343 16.1633 42.1102 18.4509 45.5694 18.4509C47.4106 18.4509 49.1403 17.7255 50.4235 16.4423L48.5823 14.6011C47.6896 15.4938 46.7411 15.9959 45.6252 15.9959C44.1188 15.9959 43.0587 15.1032 42.724 13.82H51.0373V13.2062C51.0373 9.69115 48.7497 7.23623 45.5694 7.23623ZM69.1145 7.23623C67.7754 7.23623 66.6596 7.68257 65.8785 8.57527V3.05168H63.2561V18.2277H65.8785V12.4251C65.8785 10.8629 66.8269 9.85853 68.445 9.85853C69.9514 9.85853 70.7883 10.8071 70.7883 12.4251V18.2277H73.4106V11.9788C73.5222 9.02164 71.6252 7.23623 69.1145 7.23623ZM57.5651 9.85853C58.681 9.85853 59.5737 10.4165 60.2991 11.2534L62.1403 9.4122C61.0802 8.07314 59.5179 7.29202 57.5651 7.29202C54.3291 7.29202 51.8742 9.74695 51.8742 12.9273C51.8742 16.1075 54.3849 18.5624 57.5651 18.5624C59.4064 18.5624 61.0802 17.6697 62.1403 16.4423L60.2991 14.6011C59.5737 15.3822 58.6252 15.9959 57.5651 15.9959C55.8355 15.9959 54.6081 14.6569 54.6081 12.9273C54.4965 11.1976 55.8913 9.85853 57.5651 9.85853ZM38.1488 4.27915H35.5265V7.57098H34.1317V9.91434H35.5265V18.2277H38.1488V9.91434H39.6553V7.57098H38.1488V4.27915ZM31.5652 2.77271C30.6167 2.77271 29.8355 3.55383 29.8355 4.61391C29.8355 5.56241 30.6167 6.34352 31.5652 6.34352C32.6252 6.34352 33.4064 5.56241 33.4064 4.61391C33.2948 3.55383 32.5137 2.77271 31.5652 2.77271Z" fill="black"/>
<path fill-rule="evenodd" clip-rule="evenodd" d="M91.0872 0.615723V6.02775C86.8468 6.02775 83.4992 9.37538 83.4992 13.6158C83.4992 17.7445 86.8468 21.2038 91.0872 21.2038V26.6158C83.8898 26.6158 78.0314 20.8132 78.0314 13.6158C78.0314 6.4183 83.8898 0.615723 91.0872 0.615723Z" fill="#00B8FD"/>
<path fill-rule="evenodd" clip-rule="evenodd" d="M105.492 8.6311H93.8312V13.9316H100.136V20.2363H105.492V8.6311Z" fill="#00B8FD"/>
</g>
<defs>
<clipPath id="clip0_1_1190">
<rect width="105" height="27" fill="white" transform="translate(0.67688 0.187256)"/>
</clipPath>
</defs>
</svg>
