<svg width="86" height="15" viewBox="0 0 86 15" fill="none" xmlns="http://www.w3.org/2000/svg">
<g clip-path="url(#clip0_1_995)">
<path d="M14.2902 5.89618C14.402 5.78523 14.5138 5.64013 14.5138 5.4865C14.5138 5.23044 14.2386 5.12802 14.0323 5.09388L9.71616 4.47081L7.78164 0.587308C7.70426 0.42514 7.55809 0.237366 7.36034 0.237366C7.16259 0.237366 7.01643 0.42514 6.93905 0.587308L5.00452 4.47081L0.68839 5.09388C0.473443 5.12802 0.206909 5.23044 0.206909 5.4865C0.206909 5.64013 0.318681 5.78523 0.421856 5.89618L3.55148 8.91763L2.81207 13.1852C2.8111 13.192 2.81013 13.1986 2.80918 13.2051C2.80164 13.2566 2.79487 13.3029 2.79487 13.3559C2.79487 13.5779 2.90664 13.7827 3.15598 13.7827C3.27635 13.7827 3.38812 13.74 3.4999 13.6803L7.36034 11.666L11.2208 13.6803C11.324 13.74 11.4443 13.7827 11.5647 13.7827C11.814 13.7827 11.9172 13.5779 11.9172 13.3559C11.9172 13.2962 11.9172 13.245 11.9086 13.1852L11.1692 8.91763L14.2902 5.89618Z" fill="#FFC800"/>
<path d="M31.8987 5.89618C32.0104 5.78523 32.1222 5.64013 32.1222 5.4865C32.1222 5.23044 31.8471 5.12802 31.6407 5.09388L27.3246 4.47081L25.3901 0.587308C25.3127 0.42514 25.1665 0.237366 24.9688 0.237366C24.771 0.237366 24.6249 0.42514 24.5475 0.587308L22.613 4.47081L18.2968 5.09388C18.0819 5.12802 17.8154 5.23044 17.8154 5.4865C17.8154 5.64013 17.9271 5.78523 18.0303 5.89618L21.1599 8.91763L20.4205 13.1852C20.4195 13.192 20.4186 13.1986 20.4176 13.2051C20.4101 13.2566 20.4033 13.3029 20.4033 13.3559C20.4033 13.5779 20.5151 13.7827 20.7644 13.7827C20.8848 13.7827 20.9966 13.74 21.1083 13.6803L24.9688 11.666L28.8292 13.6803C28.9324 13.74 29.0528 13.7827 29.1731 13.7827C29.4225 13.7827 29.5257 13.5779 29.5257 13.3559C29.5257 13.2962 29.5257 13.245 29.5171 13.1852L28.7776 8.91763L31.8987 5.89618Z" fill="#FFC800"/>
<path d="M49.5071 5.89618C49.6189 5.78523 49.7307 5.64013 49.7307 5.4865C49.7307 5.23044 49.4555 5.12802 49.2492 5.09388L44.9331 4.47081L42.9985 0.587308C42.9212 0.42514 42.775 0.237366 42.5772 0.237366C42.3795 0.237366 42.2333 0.42514 42.1559 0.587308L40.2214 4.47081L35.9053 5.09388C35.6903 5.12802 35.4238 5.23044 35.4238 5.4865C35.4238 5.64013 35.5356 5.78523 35.6388 5.89618L38.7684 8.91763L38.029 13.1852C38.028 13.192 38.027 13.1986 38.0261 13.2051C38.0185 13.2566 38.0118 13.3029 38.0118 13.3559C38.0118 13.5779 38.1235 13.7827 38.3729 13.7827C38.4932 13.7827 38.605 13.74 38.7168 13.6803L42.5772 11.666L46.4377 13.6803C46.5409 13.74 46.6612 13.7827 46.7816 13.7827C47.0309 13.7827 47.1341 13.5779 47.1341 13.3559C47.1341 13.2962 47.1341 13.245 47.1255 13.1852L46.3861 8.91763L49.5071 5.89618Z" fill="#FFC800"/>
<path d="M67.1156 5.89618C67.2273 5.78523 67.3391 5.64013 67.3391 5.4865C67.3391 5.23044 67.064 5.12802 66.8576 5.09388L62.5415 4.47081L60.607 0.587308C60.5296 0.42514 60.3834 0.237366 60.1857 0.237366C59.9879 0.237366 59.8418 0.42514 59.7644 0.587308L57.8299 4.47081L53.5137 5.09388C53.2988 5.12802 53.0323 5.23044 53.0323 5.4865C53.0323 5.64013 53.144 5.78523 53.2472 5.89618L56.3768 8.91763L55.6374 13.1852C55.6364 13.192 55.6355 13.1986 55.6345 13.2051C55.627 13.2566 55.6202 13.3029 55.6202 13.3559C55.6202 13.5779 55.732 13.7827 55.9813 13.7827C56.1017 13.7827 56.2135 13.74 56.3252 13.6803L60.1857 11.666L64.0461 13.6803C64.1493 13.74 64.2697 13.7827 64.3901 13.7827C64.6394 13.7827 64.7426 13.5779 64.7426 13.3559C64.7426 13.2962 64.7426 13.245 64.734 13.1852L63.9945 8.91763L67.1156 5.89618Z" fill="#FFC800"/>
<path d="M84.724 5.89618C84.8358 5.78523 84.9476 5.64013 84.9476 5.4865C84.9476 5.23044 84.6724 5.12802 84.4661 5.09388L80.15 4.47081L78.2154 0.587308C78.1381 0.42514 77.9919 0.237366 77.7941 0.237366C77.5964 0.237366 77.4502 0.42514 77.3728 0.587308L75.4383 4.47081L71.1222 5.09388C70.9072 5.12802 70.6407 5.23044 70.6407 5.4865C70.6407 5.64013 70.7525 5.78523 70.8557 5.89618L73.9853 8.91763L73.2459 13.1852C73.2449 13.192 73.2439 13.1986 73.243 13.2051C73.2354 13.2566 73.2287 13.3029 73.2287 13.3559C73.2287 13.5779 73.3404 13.7827 73.5898 13.7827C73.7102 13.7827 73.8219 13.74 73.9337 13.6803L77.7941 11.666L81.6546 13.6803C81.7578 13.74 81.8781 13.7827 81.9985 13.7827C82.2478 13.7827 82.351 13.5779 82.351 13.3559C82.351 13.2962 82.351 13.245 82.3424 13.1852L81.603 8.91763L84.724 5.89618Z" fill="#FFC800"/>
</g>
<defs>
<clipPath id="clip0_1_995">
<rect width="85" height="14" fill="white" transform="translate(0.206909 0.237366)"/>
</clipPath>
</defs>
</svg>
