<svg width="138" height="34" viewBox="0 0 138 34" fill="none" xmlns="http://www.w3.org/2000/svg">
<path d="M100.818 8.06981C100.818 8.2917 100.776 8.51143 100.693 8.71646C100.61 8.92148 100.489 9.10779 100.336 9.26472C100.183 9.42166 100.002 9.54615 99.802 9.63109C99.6022 9.71602 99.3881 9.75974 99.1718 9.75974C98.9556 9.75974 98.7414 9.71602 98.5416 9.63109C98.3418 9.54615 98.1603 9.42166 98.0074 9.26472C97.8546 9.10779 97.7333 8.92148 97.6506 8.71646C97.5679 8.51143 97.5254 8.2917 97.5255 8.06981C97.5254 7.84792 97.5679 7.62819 97.6506 7.42316C97.7333 7.21814 97.8546 7.03183 98.0074 6.8749C98.1603 6.71796 98.3418 6.59347 98.5416 6.50853C98.7414 6.42359 98.9556 6.37988 99.1718 6.37988C99.3881 6.37988 99.6022 6.42359 99.802 6.50853C100.002 6.59347 100.183 6.71796 100.336 6.8749C100.489 7.03183 100.61 7.21814 100.693 7.42316C100.776 7.62819 100.818 7.84792 100.818 8.06981Z" fill="#999B9E"/>
<path d="M130.093 15.489H125.903V19.7653H130.093V15.489Z" fill="#999B9E"/>
<path d="M46.9855 15.489H42.7951V19.7653H46.9855V15.489Z" fill="#999B9E"/>
<path d="M34.4152 15.489H30.2248V19.7653H34.4152V15.489Z" fill="#999B9E"/>
<path d="M22.0382 15.489H17.8478V19.7653H22.0382V15.489Z" fill="#999B9E"/>
<path d="M9.21791 15.489H5.02747V19.7653H9.21791V15.489Z" fill="#999B9E"/>
<path d="M15.0925 6.95327H15.5897C18.8009 6.95327 20.2976 8.67112 20.923 13.2524L21.9174 13.2084L21.7847 5.93994H5.44437L5.28333 13.2084L6.2402 13.2524C6.40593 11.5345 6.60469 10.6094 7.03604 9.6842C7.79858 7.96608 9.38998 6.95327 11.3459 6.95327H12.0421V22.767C12.0421 24.4409 11.9427 24.9696 11.5452 25.3661C11.2135 25.6744 10.5503 25.8065 9.78751 25.8065H9.02497V26.8636H18.1096V25.8065H17.3424C16.5845 25.8065 15.9167 25.6741 15.5899 25.3661C15.1922 24.9696 15.0928 24.4407 15.0928 22.767L15.0925 6.95327Z" fill="#ED008C"/>
<path d="M58.3152 26.864L63.6095 8.39083V22.8874C63.6095 24.4694 63.5195 25.0254 63.1605 25.4102C62.891 25.7094 62.2663 25.8379 61.5738 25.8379H61.3045V26.864H68.7881V25.8379H68.3986C67.7102 25.8379 67.0817 25.7096 66.8124 25.4102C66.4528 25.0254 66.3631 24.4694 66.3631 22.8874V10.5292C66.3631 8.9468 66.4528 8.34816 66.8124 7.96338C67.1116 7.70686 67.7102 7.53567 68.3986 7.53567H68.7881V6.552H62.981L58.6105 21.476L54.3342 6.552H48.557V7.53567H49.0956C50.6823 7.53567 50.9815 7.87779 50.9815 9.93047V21.6899C50.9815 23.5714 50.8917 24.3412 50.6222 24.8972C50.323 25.4531 49.69 25.8379 49.0357 25.8379H48.5568V26.864H54.7229V25.8379H54.334C53.5558 25.8379 52.927 25.5385 52.5635 24.9398C52.2087 24.3412 52.1189 23.7852 52.1189 21.6899V8.39109L57.3828 26.8642L58.3152 26.864Z" fill="#999B9E"/>
<path d="M75.2242 12.4102C71.5125 12.4102 69.088 15.318 69.088 19.8938C69.088 24.2983 71.5125 27.2918 75.1306 27.2918C78.7819 27.2918 81.2067 24.2983 81.2067 19.8511C81.2067 15.4463 78.782 12.4102 75.2242 12.4102ZM75.1046 13.3936C76.178 13.3936 77.1057 14.0778 77.6146 15.2325C78.0936 16.3015 78.303 17.7555 78.303 19.8509C78.303 24.1696 77.2553 26.3076 75.1303 26.3076C73.0092 26.3076 71.987 24.1693 71.987 19.8079C71.987 17.7552 72.2006 16.3015 72.6796 15.2325C73.1546 14.1208 74.1167 13.3936 75.1046 13.3936Z" fill="#999B9E"/>
<path d="M86.1806 6.33813L81.9298 6.55198V7.49274H82.1351C83.3925 7.49274 83.6662 7.92045 83.6662 9.93021V23.8279C83.6662 25.6238 83.6063 26.0944 83.367 26.864H84.3548C85.0986 25.6238 85.2825 25.4102 85.582 25.4102C85.7274 25.4102 85.8726 25.4528 86.0867 25.6667C87.5574 26.864 88.186 27.1205 89.5331 27.1205C92.7614 27.1205 95.0964 23.9988 95.0964 19.5516C95.0964 15.3609 92.9368 12.5386 89.7084 12.5386C88.0322 12.5386 86.8092 13.3511 86.1806 14.8049V6.33813ZM89.2851 13.6076C91.2054 13.6076 92.193 15.6603 92.193 19.6798C92.193 23.9132 91.1752 26.0941 89.2295 26.0941C87.0743 26.0941 85.9408 23.8703 85.9408 19.8081C85.9408 17.7554 86.2105 16.3445 86.8391 15.2753C87.4034 14.2492 88.3657 13.6076 89.2851 13.6076Z" fill="#999B9E"/>
<path d="M100.633 12.624L96.2667 12.8805V13.8212H96.596C97.8487 13.8212 98.1185 14.2489 98.1185 16.216V23.4428C98.1185 25.4102 97.849 25.8806 96.596 25.8806H96.1212V26.8637H102.639V25.8806H102.168C100.907 25.8806 100.633 25.4526 100.633 23.4428L100.633 12.624Z" fill="#999B9E"/>
<path d="M108.207 6.33813L103.841 6.55198V7.49274H104.166C105.424 7.49274 105.693 7.92045 105.693 9.93021V23.4428C105.693 25.4528 105.424 25.8806 104.166 25.8806H103.692V26.8637H110.213V25.8806H109.734C108.472 25.8806 108.207 25.4526 108.207 23.4428V6.33813Z" fill="#999B9E"/>
<path d="M122.122 19.7653C121.976 15.2324 119.821 12.4102 116.563 12.4102C113.415 12.4102 111.145 15.489 111.145 19.7653C111.145 24.3407 113.385 27.2915 116.858 27.2915C119.103 27.2915 120.659 26.094 121.946 23.4427L121.049 22.9723C120.001 25.1959 118.953 26.094 117.337 26.094C114.972 26.094 113.959 24.2127 113.928 19.7653H122.122ZM113.958 18.696C113.984 15.489 115.027 13.4792 116.708 13.4792C118.384 13.4792 119.372 15.4463 119.342 18.696H113.958Z" fill="#999B9E"/>
<path d="M131.666 12.0615C131.919 12.0615 132.166 12.1263 132.407 12.2561C132.648 12.3859 132.835 12.5716 132.97 12.8131C133.104 13.0545 133.171 13.3063 133.171 13.5686C133.171 13.8282 133.105 14.0777 132.972 14.3171C132.84 14.5567 132.654 14.7427 132.416 14.8751C132.177 15.0075 131.927 15.0739 131.666 15.0739C131.405 15.0739 131.155 15.0078 130.916 14.8751C130.677 14.7427 130.491 14.557 130.358 14.3171C130.225 14.0777 130.158 13.8282 130.158 13.5686C130.158 13.3063 130.226 13.0545 130.361 12.8131C130.496 12.5716 130.684 12.3856 130.925 12.2561C131.167 12.1263 131.413 12.0615 131.666 12.0615ZM131.666 12.3123C131.455 12.3123 131.249 12.3664 131.049 12.4749C130.849 12.5834 130.692 12.7379 130.579 12.9393C130.466 13.1406 130.41 13.3506 130.41 13.5683C130.41 13.785 130.465 13.9927 130.577 14.1914C130.687 14.3902 130.843 14.545 131.042 14.6561C131.242 14.7672 131.45 14.8226 131.666 14.8226C131.883 14.8226 132.091 14.7672 132.29 14.6561C132.49 14.5452 132.644 14.3904 132.755 14.1914C132.865 13.9927 132.92 13.785 132.92 13.5683C132.92 13.3506 132.864 13.1406 132.752 12.9393C132.639 12.7381 132.483 12.5834 132.282 12.4749C132.082 12.3664 131.876 12.3123 131.666 12.3123ZM131.005 14.3995V12.7787H131.563C131.754 12.7787 131.892 12.7938 131.977 12.8237C132.063 12.8537 132.13 12.906 132.181 12.9806C132.232 13.055 132.257 13.1344 132.257 13.2182C132.257 13.3365 132.215 13.4398 132.13 13.5275C132.045 13.6152 131.933 13.6646 131.793 13.6753C131.85 13.6992 131.896 13.7278 131.93 13.7611C131.996 13.8249 132.076 13.932 132.17 14.0824L132.368 14.3998H132.047L131.903 14.1441C131.79 13.944 131.699 13.8186 131.631 13.7676C131.583 13.7299 131.513 13.7112 131.421 13.7112H131.267V14.3998L131.005 14.3995ZM131.267 13.4885H131.586C131.738 13.4885 131.842 13.4658 131.898 13.4203C131.953 13.3748 131.981 13.3147 131.981 13.2397C131.981 13.1916 131.967 13.1484 131.941 13.1104C131.914 13.0725 131.877 13.0438 131.829 13.0251C131.782 13.0064 131.694 12.9973 131.566 12.9973H131.267V13.4885Z" fill="#999B9E"/>
</svg>
