<svg width="125" height="17" viewBox="0 0 125 17" fill="none" xmlns="http://www.w3.org/2000/svg">
<g clip-path="url(#clip0_1_1182)">
<mask id="mask0_1_1182" style="mask-type:luminance" maskUnits="userSpaceOnUse" x="0" y="1" width="125" height="16">
<path d="M124.548 1.61572H0.67688V16.6157H124.548V1.61572Z" fill="white"/>
</mask>
<g mask="url(#mask0_1_1182)">
<path d="M80.9025 16.0382H77.5151V2.21387L88.4094 2.22284C88.4094 2.22284 90.404 2.14844 91.6729 3.402C91.6729 3.402 92.968 4.48349 92.968 7.12686V16.0361H89.5894V6.89659C89.5894 6.89659 89.631 5.96438 89.3134 5.63724C89.3134 5.63724 89.0326 5.2819 88.4987 5.2819H80.8942L80.9013 16.0333L80.9025 16.0382ZM95.3224 16.0358V3.09288V2.22419H108.917V5.29635L98.6891 5.29556V7.64434H105.794V10.6109H98.6891V12.9677H108.98V16.0406H95.3144L95.3224 16.0358ZM71.6122 16.0358V3.09288V2.22419H74.9853V16.0406H71.6122V16.0358ZM113.772 16.0358V5.29238H110.588V2.22022H123.253V5.29238H117.148V16.0358H113.774H113.772ZM60.4717 16.0358V5.29238H57.2876V2.22022H69.9526V5.29238H63.8472V16.0358H60.4741H60.4717ZM50.3 7.63481C51.1242 7.62846 51.6174 7.63561 51.8159 7.51475C51.8159 7.51475 52.1622 7.32323 52.1662 6.91223L52.167 6.00861C52.167 5.59571 51.8167 5.40609 51.8167 5.40609C51.5537 5.26316 51.108 5.29 50.0499 5.28897H43.4784V7.63458H50.4509L50.3 7.63481ZM52.1176 16.0358V11.3208C52.1176 10.8969 51.7633 10.7193 51.7633 10.7193C51.6035 10.62 51.125 10.6022 50.4206 10.6022H50.5843H43.4784V16.0351H40.1053V3.09208V2.2234H50.6343C52.4527 2.22896 53.7081 2.49639 54.5728 3.33586C55.4224 4.20137 55.5352 5.33367 55.5399 6.51204V7.49586C55.5509 8.49715 55.0248 9.4103 54.3973 9.94231L54.5234 10.0049C54.7795 10.1289 54.9195 10.3046 54.9195 10.3046C55.3968 10.9141 55.391 11.4386 55.3899 12.0833V16.0385H52.1177L52.1176 16.0358ZM1.10816 2.21943V3.08891V16.0319H4.48126V10.6037H14.7006V7.63561H4.48126V5.28841H16.3602V2.21625H1.10657L1.10816 2.21943Z" fill="#231F20"/>
<path d="M122.112 13.5924V14.2267H122.703C122.863 14.2267 123.018 14.1831 123.041 13.9458C123.075 13.6312 122.848 13.5924 122.703 13.5924H122.112ZM121.875 13.384H122.698C122.984 13.384 123.26 13.4376 123.283 13.8534C123.293 14.0917 123.221 14.1781 123.041 14.314C123.231 14.4351 123.236 14.4639 123.264 14.7834C123.283 15.0256 123.25 15.0644 123.352 15.2241H123.071L123.032 14.9919C122.993 14.7735 123.1 14.4351 122.718 14.4351H122.112V15.2242H121.875V13.384ZM122.494 12.8758C121.681 12.8758 121.018 13.5388 121.024 14.3575C121.024 15.1706 121.682 15.8336 122.5 15.8297C123.314 15.8297 123.977 15.1706 123.977 14.3527C123.977 13.5388 123.313 12.8758 122.494 12.8758ZM122.5 16.0218C121.576 16.0218 120.829 15.2764 120.829 14.3527C120.825 13.4324 121.576 12.6821 122.5 12.6821C123.42 12.6821 124.171 13.4324 124.171 14.3527C124.171 15.277 123.42 16.0186 122.5 16.0218Z" fill="#231F20"/>
<path d="M35.4665 16.1733C36.5623 15.801 37.4151 14.5391 37.6199 12.9526V12.4941H32.0021V16.1737L35.4665 16.1733ZM37.6207 5.74742V5.33253C37.4054 3.67695 36.4892 2.37233 35.3212 2.06583H32.0029V5.74702L37.6207 5.74742ZM17.849 12.4945V12.949C18.0525 14.5371 18.9051 15.8013 20.0041 16.1737H23.4502V12.4941L17.849 12.4945ZM20.1478 2.06861C18.9813 2.37527 18.0626 3.68052 17.849 5.33849V5.75044H23.4502V2.06925L20.1478 2.06861ZM37.6247 7.28231H32.0068V10.9635H37.6247V7.28231ZM24.9835 16.1756H30.4791V12.496H24.9835V16.1756ZM30.4791 2.06543H24.9835V5.74663H30.4791V2.06543ZM17.8538 10.9588H23.455V7.27754H17.8538V10.9588Z" fill="#EE2E24"/>
</g>
</g>
<defs>
<clipPath id="clip0_1_1182">
<rect width="124" height="16" fill="white" transform="translate(0.67688 0.687256)"/>
</clipPath>
</defs>
</svg>
