<svg width="1921" height="361" viewBox="0 0 1921 361" fill="none" xmlns="http://www.w3.org/2000/svg">
<g clip-path="url(#clip0_1_1175)">
<g clip-path="url(#clip1_1_1175)">
<path d="M-24.7469 359.482V66.5907C-24.6111 66.5649 -24.4472 66.534 -24.2554 66.4982C-23.5973 66.3748 -22.61 66.1917 -21.2946 65.9528C-18.6639 65.475 -14.7206 64.7741 -9.47267 63.8819C1.02319 62.0974 16.7376 59.5478 37.6075 56.4881C79.3471 50.3687 141.709 42.2089 224.186 34.0489C389.141 17.7287 634.562 1.40771 956.406 1.40771C1278.25 1.40771 1523.67 17.7287 1688.62 34.0489C1771.1 42.2089 1833.46 50.3687 1875.2 56.4881C1896.08 59.5478 1911.78 62.0974 1922.28 63.8819C1927.53 64.7741 1931.48 65.475 1934.1 65.9528C1935.42 66.1917 1936.41 66.3748 1937.07 66.4982C1937.25 66.534 1937.42 66.5649 1937.56 66.5907V359.482L1936.53 359.333C1935.39 359.168 1933.68 358.923 1931.44 358.603C1926.97 357.964 1920.35 357.027 1911.8 355.834C1894.68 353.447 1869.8 350.039 1838.76 345.948C1776.67 337.769 1689.89 326.861 1591.13 315.954C1393.62 294.14 1148.14 272.323 956.406 272.323C764.67 272.323 519.201 294.14 321.682 315.954C222.918 326.861 136.138 337.769 74.0477 345.948C43.0025 350.039 18.1299 353.447 1.01819 355.834C-7.53756 357.027 -14.1531 357.964 -18.6299 358.603C-20.8683 358.923 -22.5719 359.168 -23.7161 359.333C-24.1352 359.394 -24.4792 359.443 -24.7469 359.482Z" fill="url(#paint0_linear_1_1175)" stroke="url(#paint1_linear_1_1175)" stroke-width="1.22034"/>
</g>
</g>
<defs>
<linearGradient id="paint0_linear_1_1175" x1="956.406" y1="98.7637" x2="956.406" y2="333.307" gradientUnits="userSpaceOnUse">
<stop stop-color="#FAFAFF"/>
<stop offset="1" stop-color="#FAFAFF" stop-opacity="0"/>
</linearGradient>
<linearGradient id="paint1_linear_1_1175" x1="955.795" y1="-185.914" x2="955.795" y2="185.679" gradientUnits="userSpaceOnUse">
<stop stop-color="#CECEEA" stop-opacity="0.62"/>
<stop offset="1" stop-color="#CECEEA" stop-opacity="0"/>
</linearGradient>
<clipPath id="clip0_1_1175">
<rect width="1920" height="360" fill="white" transform="translate(0.67688 0.187256)"/>
</clipPath>
<clipPath id="clip1_1_1175">
<rect width="1952.54" height="360" fill="white" transform="translate(-15.5944 0.187256)"/>
</clipPath>
</defs>
</svg>
