<svg width="109" height="34" viewBox="0 0 109 34" fill="none" xmlns="http://www.w3.org/2000/svg">
<g clip-path="url(#clip0_1_1255)">
<mask id="mask0_1_1255" style="mask-type:luminance" maskUnits="userSpaceOnUse" x="1" y="0" width="108" height="33">
<path d="M108.262 0.615723H1.56921V32.6157H108.262V0.615723Z" fill="white"/>
</mask>
<g mask="url(#mask0_1_1255)">
<path d="M17.5691 0.615723C8.7328 0.615723 1.56921 7.77912 1.56921 16.6155C1.56921 25.4527 8.7328 32.6158 17.5691 32.6158C26.4058 32.6158 33.569 25.4527 33.569 16.6155C33.569 7.77969 26.4064 0.615723 17.5691 0.615723ZM24.9066 23.6919C24.6192 24.1633 24.0052 24.311 23.5353 24.0238C19.7782 21.7275 15.049 21.2087 9.47964 22.481C8.94296 22.604 8.40799 22.2676 8.28572 21.7311C8.16287 21.1944 8.49779 20.6594 9.03581 20.5372C15.1306 19.1438 20.3586 19.7435 24.5759 22.3205C25.0459 22.609 25.1951 23.2219 24.9066 23.6919ZM26.8649 19.336C26.5031 19.9231 25.7354 20.1073 25.149 19.7467C20.8492 17.1036 14.2926 16.3381 9.20567 17.8822C8.54594 18.0815 7.84915 17.7097 7.64891 17.0511C7.45021 16.3914 7.82221 15.6959 8.48079 15.4953C14.2915 13.7322 21.5151 14.5862 26.454 17.6212C27.0405 17.9823 27.226 18.7502 26.8649 19.336ZM27.0331 14.7995C21.8756 11.7366 13.3685 11.455 8.44505 12.9492C7.65445 13.189 6.81837 12.7427 6.57878 11.9521C6.33919 11.1611 6.78513 10.3256 7.5763 10.0852C13.2281 8.36949 22.6234 8.70098 28.5604 12.2255C29.2715 12.6475 29.5048 13.566 29.0833 14.2761C28.663 14.9873 27.7419 15.2217 27.0331 14.7995ZM45.0997 15.3864C42.3371 14.7276 41.8453 14.2653 41.8453 13.2937C41.8453 12.3759 42.7095 11.7582 43.9946 11.7582C45.2403 11.7582 46.4755 12.2272 47.7705 13.1928C47.8097 13.2221 47.8588 13.2337 47.9071 13.2261C47.9554 13.2188 47.9982 13.1923 48.0265 13.1523L49.3754 11.2509C49.4308 11.1726 49.4157 11.0646 49.341 11.0048C47.7997 9.76805 46.0641 9.16678 44.0355 9.16678C41.0527 9.16678 38.9692 10.9569 38.9692 13.518C38.9692 16.2645 40.7664 17.237 43.8723 17.9877C46.5158 18.5966 46.962 19.1067 46.962 20.0186C46.962 21.0291 46.0598 21.6573 44.6079 21.6573C42.9954 21.6573 41.6801 21.1142 40.2087 19.84C40.1723 19.8085 40.1222 19.7941 40.076 19.7968C40.0272 19.8008 39.9827 19.8234 39.9518 19.8606L38.4394 21.6606C38.3759 21.7353 38.3839 21.8469 38.4573 21.9115C40.1692 23.4397 42.2747 24.247 44.5468 24.247C47.761 24.247 49.838 22.4908 49.838 19.7726C49.8437 17.4779 48.47 16.2074 45.1054 15.3889L45.0997 15.3864ZM57.1097 12.6619C55.7165 12.6619 54.5737 13.2106 53.6314 14.335V13.0694C53.6314 12.9695 53.5504 12.8881 53.4507 12.8881H50.977C50.8771 12.8881 50.7963 12.9695 50.7963 13.0694V27.1318C50.7963 27.2317 50.8771 27.3131 50.977 27.3131H53.4507C53.5504 27.3131 53.6314 27.2317 53.6314 27.1318V22.6929C54.5739 23.7506 55.7169 24.2674 57.1097 24.2674C59.6983 24.2674 62.3189 22.2747 62.3189 18.4653C62.3228 14.655 59.7014 12.6617 57.1125 12.6617L57.1097 12.6619ZM59.4425 18.4653C59.4425 20.4051 58.2476 21.7588 56.5367 21.7588C54.8452 21.7588 53.5693 20.3436 53.5693 18.4653C53.5693 16.5872 54.8452 15.1718 56.5367 15.1718C58.2199 15.1716 59.4425 16.5566 59.4425 18.4653ZM69.0356 12.6619C65.7018 12.6619 63.09 15.229 63.09 18.5068C63.09 21.7489 65.6839 24.289 68.9947 24.289C72.3404 24.289 74.9602 21.7305 74.9602 18.4653C74.9602 15.2114 72.3582 12.6619 69.0356 12.6619ZM69.0356 21.7781C67.2624 21.7781 65.9255 20.3534 65.9255 18.4644C65.9255 16.5673 67.2162 15.1907 68.9947 15.1907C70.7794 15.1907 72.1252 16.6155 72.1252 18.5058C72.1252 20.4025 70.8258 21.7781 69.0356 21.7781ZM82.0793 12.8881H79.3572V10.1051C79.3572 10.0053 79.2766 9.92396 79.1767 9.92396H76.7034C76.6033 9.92396 76.5221 10.0053 76.5221 10.1051V12.8881H75.3328C75.2332 12.8881 75.1526 12.9695 75.1526 13.0694V15.1953C75.1526 15.2951 75.2332 15.3766 75.3328 15.3766H76.5221V20.8774C76.5221 23.1004 77.6285 24.2275 79.8106 24.2275C80.6979 24.2275 81.434 24.0443 82.1278 23.6509C82.1841 23.6193 82.2191 23.5586 82.2191 23.494V21.4695C82.2191 21.4071 82.1866 21.348 82.1331 21.3154C82.0793 21.2815 82.0122 21.2798 81.957 21.3071C81.4805 21.5469 81.0198 21.6575 80.5049 21.6575C79.7113 21.6575 79.3572 21.2972 79.3572 20.4896V15.3776H82.0793C82.1792 15.3776 82.2596 15.2962 82.2596 15.1963V13.0706C82.2634 12.9706 82.1832 12.8893 82.0819 12.8893L82.0793 12.8881ZM91.5635 12.899V12.5572C91.5635 11.5516 91.949 11.1032 92.8138 11.1032C93.3294 11.1032 93.7437 11.2056 94.2075 11.3604C94.2647 11.3783 94.3243 11.3694 94.3707 11.3352C94.4185 11.3009 94.4454 11.2461 94.4454 11.188V9.10354C94.4454 9.02386 94.3942 8.95336 94.3174 8.92986C93.8273 8.78407 93.2003 8.63448 92.2614 8.63448C89.9767 8.63448 88.769 9.92108 88.769 12.3539V12.8774H87.5806C87.4809 12.8774 87.3991 12.9588 87.3991 13.0585V15.1953C87.3991 15.2951 87.4809 15.3766 87.5806 15.3766H88.769V23.8614C88.769 23.9613 88.8497 24.0427 88.9494 24.0427H91.423C91.523 24.0427 91.6044 23.9613 91.6044 23.8614V15.3772H93.9139L97.4517 23.8599C97.0501 24.7512 96.6552 24.9285 96.116 24.9285C95.6802 24.9285 95.2213 24.7984 94.7521 24.5416C94.7079 24.5173 94.6556 24.5133 94.608 24.528C94.5608 24.5446 94.5211 24.5798 94.501 24.6256L93.6626 26.465C93.6227 26.5519 93.6569 26.6539 93.7406 26.699C94.6158 27.173 95.4059 27.3754 96.3824 27.3754C98.2089 27.3754 99.2185 26.5246 100.108 24.2357L104.4 13.1466C104.421 13.0908 104.415 13.0277 104.381 12.9783C104.347 12.9292 104.292 12.8996 104.232 12.8996H101.657C101.58 12.8996 101.511 12.9486 101.485 13.0211L98.8474 20.5561L95.958 13.0161C95.9317 12.946 95.864 12.8995 95.7892 12.8995L91.5635 12.899ZM86.0648 12.8881H83.5911C83.4912 12.8881 83.4098 12.9695 83.4098 13.0694V23.8614C83.4098 23.9613 83.4912 24.0427 83.5911 24.0427H86.0648C86.1645 24.0427 86.2461 23.9613 86.2461 23.8614V13.0702C86.2461 13.0463 86.2415 13.0227 86.2324 13.0007C86.2232 12.9786 86.2099 12.9586 86.193 12.9418C86.1761 12.9249 86.1561 12.9116 86.1341 12.9025C86.112 12.8934 86.0886 12.888 86.0648 12.8881ZM84.842 7.9742C83.862 7.9742 83.0668 8.76746 83.0668 9.74742C83.0668 10.728 83.8622 11.5222 84.842 11.5222C85.8216 11.5222 86.616 10.728 86.616 9.74742C86.616 8.76766 85.8202 7.9742 84.842 7.9742ZM106.512 16.3579C105.533 16.3579 104.771 15.5717 104.771 14.617C104.771 13.6623 105.543 12.8671 106.521 12.8671C107.5 12.8671 108.262 13.6531 108.262 14.607C108.262 15.5618 107.49 16.3579 106.512 16.3579ZM106.522 13.0402C105.63 13.0402 104.955 13.749 104.955 14.617C104.955 15.4846 105.625 16.1839 106.513 16.1839C107.404 16.1839 108.08 15.4756 108.08 14.607C108.08 13.7395 107.409 13.0402 106.522 13.0402ZM106.908 14.7861L107.4 15.4754H106.985L106.542 14.843H106.16V15.4754H105.813V13.6481H106.628C107.052 13.6481 107.331 13.8654 107.331 14.2311C107.333 14.5306 107.158 14.7137 106.908 14.7861ZM106.613 13.9617H106.16V14.5396H106.613C106.84 14.5396 106.975 14.429 106.975 14.2504C106.975 14.0624 106.838 13.9617 106.613 13.9617Z" fill="#2EBD59"/>
</g>
</g>
<defs>
<clipPath id="clip0_1_1255">
<rect width="108" height="33" fill="white" transform="translate(0.67688 0.187256)"/>
</clipPath>
</defs>
</svg>
