<svg width="81" height="23" viewBox="0 0 81 23" fill="none" xmlns="http://www.w3.org/2000/svg">
<g clip-path="url(#clip0_1_1248)">
<mask id="mask0_1_1248" style="mask-type:luminance" maskUnits="userSpaceOnUse" x="0" y="1" width="81" height="22">
<path d="M80.5692 1.61572H0.932983V22.6157H80.5692V1.61572Z" fill="white"/>
</mask>
<g mask="url(#mask0_1_1248)">
<path d="M9.87424 6.08802V22.1791H7.39428V6.08802H0.932983V3.726H16.3419V6.08802H9.87424ZM19.2905 22.1791V3.726H21.7704V22.1791H19.2905ZM39.2704 16.9515C39.2704 20.0817 37.1762 22.176 32.4234 22.176H26.1343V3.726H32.2449C36.7012 3.726 38.6807 5.73101 38.6807 8.62536C38.6807 10.5124 37.5874 11.9055 35.5186 12.6896C37.989 13.2889 39.2704 14.8827 39.2704 16.9515ZM32.4521 6.02746H28.6429V11.813H32.0664C34.7217 11.813 36.1721 10.6336 36.1721 8.83256C36.1721 7.03155 34.8715 6.02746 32.4521 6.02746ZM32.2736 14.089H28.6621V19.8745H32.6593C35.4039 19.8745 36.765 18.8991 36.765 16.9801C36.765 14.8572 34.8715 14.089 32.2736 14.089ZM55.6293 7.10806C54.1534 6.06889 52.3907 5.51425 50.5833 5.527C46.5669 5.527 43.8574 8.30341 43.8574 12.8809C43.8574 17.4583 46.5669 20.3781 50.6311 20.3781C52.5214 20.3463 54.351 19.7119 55.8556 18.5708L56.2668 21.0826C54.5423 22.0963 52.5724 22.6254 50.5705 22.619C45.1516 22.619 41.3296 18.8704 41.3296 12.9956C41.3296 7.12081 45.209 3.28611 50.5801 3.28611C52.6297 3.27336 54.6443 3.8025 56.423 4.82254L55.6293 7.10806ZM71.6279 4.58665C71.3506 4.4209 71.0669 4.26789 70.7736 4.13401C68.3606 8.75924 64 14.2579 58.1826 17.3882C58.5045 18.1213 58.9285 18.8035 59.4385 19.4219C64.4239 15.9824 69.0396 10.2702 71.6279 4.58665Z" fill="#3E8EDE"/>
<path d="M70.5529 4.02885C69.2875 3.49014 67.9231 3.216 66.5461 3.22875C61.1272 3.22875 57.2925 7.41409 57.2925 12.9255C57.2893 13.8085 57.3849 14.6883 57.5762 15.5489C63.1226 13.2889 68.057 8.30344 70.5529 4.02885ZM71.8567 4.71418C69.0101 11.7142 65.5356 16.6646 61.1112 20.9232C62.721 22.007 64.6272 22.5712 66.5652 22.5362C71.9842 22.5362 75.8189 18.3221 75.8189 12.8076C75.7997 9.15772 74.2888 6.32074 71.8567 4.71418ZM75.7997 4.10535C75.7424 2.78886 76.7624 1.67638 78.0789 1.61901C79.3954 1.56163 80.5078 2.58167 80.5652 3.89815C80.5684 3.96828 80.5684 4.03522 80.5652 4.10535C80.6226 5.42183 79.6026 6.53431 78.2861 6.59169C76.9696 6.64906 75.8571 5.62903 75.7997 4.31254C75.7966 4.24242 75.7966 4.17229 75.7997 4.10535ZM80.2943 4.10535C80.2943 2.94187 79.3507 1.99515 78.1873 1.99515C77.0238 1.99515 76.0771 2.93868 76.0771 4.10216V4.10535C76.0803 5.26883 77.027 6.21236 78.1936 6.20917C79.3571 6.20599 80.3007 5.25927 80.2975 4.0926V4.10535H80.2943ZM77.2565 2.84305H78.353C78.8854 2.84305 79.2838 3.10444 79.2838 3.61127C79.2966 3.95872 79.0639 4.2711 78.7228 4.3508L79.3699 5.25289H78.8089L78.2255 4.39542H77.7282V5.25289H77.2756V2.8303L77.2565 2.84305ZM78.3116 4.05116C78.5411 4.0926 78.7579 3.93959 78.7993 3.71008C78.8025 3.69096 78.8057 3.67183 78.8057 3.65271C78.8057 3.42957 78.624 3.24469 78.4008 3.24469C78.3721 3.24469 78.3435 3.24788 78.3148 3.25426H77.7314V4.03522H78.318L78.3116 4.05116Z" fill="#3E8EDE"/>
</g>
</g>
<defs>
<clipPath id="clip0_1_1248">
<rect width="80" height="22" fill="white" transform="translate(0.67688 0.687256)"/>
</clipPath>
</defs>
</svg>
