<svg width="82" height="15" viewBox="0 0 82 15" fill="none" xmlns="http://www.w3.org/2000/svg">
<g clip-path="url(#clip0_1_1002)">
<path d="M0.126831 5.13788H6.59671H10.5257V1.88824L0.126831 5.13788Z" fill="#FF9D28"/>
<path d="M10.5257 2.19464V14.2375L13.7754 0.588928L10.5257 2.19464Z" fill="#68C5ED"/>
<path d="M10.5254 5.13873H5.97595L10.5254 14.2378V5.13873Z" fill="#044D80"/>
<path d="M0.126831 5.13873L6.62612 7.08851L5.74729 5.13873H0.126831Z" fill="#E54747"/>
<path d="M35.1298 5.80503H29.2637L27.4579 0.589417L25.6414 5.80503L19.7752 5.79504L24.5194 9.02232L22.703 14.238L27.4472 11.0107L32.1914 14.238L30.3856 9.02232L35.1298 5.80503Z" fill="#00B67A"/>
<path d="M30.0121 10.1313L29.8043 9.11969L28.306 10.8258L30.0121 10.1313Z" fill="#005128"/>
<path d="M50.3613 10.2746C50.8567 11.1343 51.3466 11.9843 51.8361 12.8333C49.6684 14.4929 46.2959 14.6935 43.7993 12.7823C40.9262 10.5813 40.454 6.82563 41.9922 4.12218C43.7613 1.01262 47.072 0.324928 49.2036 0.82919C49.1459 0.954426 47.8693 3.603 47.8693 3.603C47.8693 3.603 47.7683 3.60963 47.7112 3.61073C47.0812 3.63744 46.6119 3.78404 46.1089 4.04409C45.5571 4.33204 45.0842 4.75077 44.7316 5.26368C44.3789 5.77659 44.1573 6.36806 44.086 6.98641C44.0116 7.6135 44.0984 8.2492 44.338 8.83346C44.5405 9.32741 44.8271 9.7661 45.2113 10.1365C45.8006 10.7052 46.502 11.0574 47.3149 11.1739C48.0847 11.2844 48.8251 11.175 49.5189 10.8264C49.7791 10.6958 50.0005 10.5516 50.2592 10.3538C50.2922 10.3325 50.3215 10.3054 50.3613 10.2746Z" fill="#FF492C"/>
<path d="M50.3661 2.7345C50.2403 2.61074 50.1237 2.49655 50.0077 2.38163C49.9385 2.31312 49.8718 2.24184 49.8009 2.17499C49.7755 2.15086 49.7456 2.1179 49.7456 2.1179C49.7456 2.1179 49.7698 2.0667 49.7801 2.0457C49.9158 1.77331 50.1285 1.57422 50.3808 1.41584C50.6599 1.23936 50.9849 1.14957 51.315 1.15781C51.7373 1.1661 52.1299 1.27126 52.4612 1.55452C52.7058 1.76355 52.8312 2.02876 52.8533 2.34535C52.8902 2.87945 52.6692 3.28849 52.2303 3.57395C51.9724 3.74192 51.6943 3.87176 51.4155 4.02554C51.2617 4.11045 51.1302 4.18503 50.9799 4.33863C50.8477 4.49279 50.8413 4.6381 50.8413 4.6381L52.839 4.63552V5.52525H49.7554V5.43924C49.7436 5.00202 49.7946 4.59058 49.9948 4.19351C50.179 3.82922 50.4652 3.56254 50.809 3.35719C51.0739 3.19898 51.3527 3.06435 51.6181 2.90689C51.7818 2.80983 51.8975 2.66746 51.8966 2.46101C51.8966 2.28384 51.7676 2.12637 51.5835 2.0772C51.1492 1.96006 50.7072 2.147 50.4773 2.54444C50.4438 2.60245 50.4096 2.6601 50.3661 2.7345ZM54.2302 9.32857L52.5467 6.42124H49.2152L47.5208 9.35859H50.8768L52.5329 12.2521L54.2302 9.32857Z" fill="#FF492C"/>
<path d="M80.2778 7.02064L74.8855 1.62841C74.6991 1.45533 74.4195 1.45533 74.2465 1.62841L73.1813 2.69354L77.5084 7.02064C77.6815 7.19372 77.6815 7.48664 77.5084 7.65972L73.0482 12.12L74.1133 13.1851C74.2997 13.3582 74.5793 13.3582 74.7524 13.1851L80.2644 7.67303C80.4508 7.48663 80.4508 7.20704 80.2778 7.02064Z" fill="#009C9C"/>
<path d="M71.0916 2.02965L70.7055 1.64354C70.5191 1.47046 70.2395 1.47046 70.0664 1.64354L69.0013 2.70867L69.707 3.41432L71.0916 4.79899L72.4763 3.41432L71.0916 2.02965Z" fill="#40E3E3"/>
<path d="M70.9715 10.043L69.5868 11.4277L68.8812 12.1334L69.9463 13.1985C70.1327 13.3716 70.4123 13.3716 70.5854 13.1985L70.9715 12.8124L72.3562 11.4277L70.9715 10.043Z" fill="#40E3E3"/>
<path d="M73.3414 7.02287C73.5145 7.20927 73.5145 7.48887 73.3414 7.66196L70.9715 10.0319L72.3562 11.4166L76.1108 7.66196C76.2839 7.48887 76.2839 7.19596 76.1108 7.02287L72.4893 3.40143L71.0914 4.7861L73.3414 7.02287Z" fill="#1ABAB8"/>
<path d="M64.5408 7.15378L68.2954 3.3992L66.9107 2.01452L66.5113 1.62841C66.3249 1.45533 66.0453 1.45533 65.8722 1.62841L60.3601 7.15378C60.187 7.32686 60.187 7.61978 60.3601 7.79286L65.7524 13.1851C65.9388 13.3582 66.2183 13.3582 66.3914 13.1851L66.7909 12.799L68.1755 11.4143L64.5541 7.79286C64.3677 7.61978 64.3677 7.34018 64.5408 7.15378Z" fill="#87F0F0"/>
<path d="M68.7213 7.15246L70.3723 5.50151L68.9876 4.11684L68.2819 3.41119L64.554 7.16578C64.3809 7.33886 64.3809 7.63177 64.554 7.80485L68.1621 11.413L68.8678 10.7074L70.2524 9.32267L68.7213 7.79154C68.5482 7.63177 68.5482 7.33886 68.7213 7.15246Z" fill="#40E3E3"/>
<path d="M68.7212 7.79253L70.2524 9.32365L71.9033 7.6727C72.0764 7.49962 72.0764 7.20671 71.9033 7.03362L70.3722 5.5025L68.7212 7.15345C68.5615 7.33985 68.5615 7.61945 68.7212 7.79253Z" fill="#17CFCF"/>
</g>
<defs>
<clipPath id="clip0_1_1002">
<rect width="81" height="14" fill="white" transform="translate(0.126831 0.237366)"/>
</clipPath>
</defs>
</svg>
