<svg width="65" height="27" viewBox="0 0 65 27" fill="none" xmlns="http://www.w3.org/2000/svg">
<g clip-path="url(#clip0_1_1206)">
<mask id="mask0_1_1206" style="mask-type:luminance" maskUnits="userSpaceOnUse" x="1" y="1" width="63" height="26">
<path d="M63.9329 1.61572H1.61194V26.6157H63.9329V1.61572Z" fill="white"/>
</mask>
<g mask="url(#mask0_1_1206)">
<path d="M1.61194 24.875H13.7292V26.6096H1.61194V24.875Z" fill="#1F70C1"/>
<path d="M1.61194 21.5479H13.7292V23.2886H1.61194V21.5479Z" fill="#1F70C1"/>
<path d="M5.06897 18.2268H10.2665V19.9675H5.06897V18.2268Z" fill="#1F70C1"/>
<path d="M5.06897 14.9058H10.2665V16.6466H5.06897V14.9058Z" fill="#1F70C1"/>
<path d="M5.06897 11.5847H10.2665V13.3254H5.06897V11.5847Z" fill="#1F70C1"/>
<path d="M5.06897 8.25757H10.2665V9.99832H5.06897V8.25757Z" fill="#1F70C1"/>
<path d="M13.7292 4.93677H1.61194V6.67752H13.7292V4.93677Z" fill="#1F70C1"/>
<path d="M13.7292 1.61572H1.61194V3.35648H13.7292V1.61572Z" fill="#1F70C1"/>
<path d="M15.4574 23.2886H34.0932C34.408 22.7516 34.6426 22.1652 34.7846 21.5479H15.4574V23.2886Z" fill="#1F70C1"/>
<path d="M32.6423 14.9058H18.9201V16.6466H34.0929C33.6978 15.9798 33.2101 15.3935 32.6423 14.9058Z" fill="#1F70C1"/>
<path d="M18.9201 11.5847V13.3254H32.6423C33.2225 12.8377 33.7101 12.2513 34.0929 11.5847H18.9201Z" fill="#1F70C1"/>
<path d="M34.0933 4.93677H15.4574V6.67752H34.7846C34.6241 6.06023 34.3895 5.47385 34.0933 4.93677Z" fill="#1F70C1"/>
<path d="M28.3648 1.61572H15.4574V3.35648H32.8154C31.655 2.28237 30.0809 1.61572 28.3648 1.61572Z" fill="#1F70C1"/>
<path d="M24.1114 8.25781H18.9201V9.99856H24.1114V8.25781Z" fill="#1F70C1"/>
<path d="M29.309 9.99832H34.7411C34.8954 9.44279 34.9756 8.85635 34.9756 8.25757H29.309V9.99832Z" fill="#1F70C1"/>
<path d="M18.9201 18.2268H24.1114V19.9675H18.9201V18.2268Z" fill="#1F70C1"/>
<path d="M29.309 18.2268V19.9675H34.9756C34.9756 19.3687 34.8954 18.7823 34.7411 18.2268H29.309Z" fill="#1F70C1"/>
<path d="M15.4574 26.5973L28.3648 26.6158C30.0932 26.6158 31.655 25.9491 32.8216 24.875H15.4574V26.5973Z" fill="#1F70C1"/>
<path d="M36.2352 24.875H44.8895V26.6096H36.2352V24.875Z" fill="#1F70C1"/>
<path d="M36.2352 21.5479H44.8895V23.2886H36.2352V21.5479Z" fill="#1F70C1"/>
<path d="M39.6923 18.2268H44.8898V19.9675H39.6923V18.2268Z" fill="#1F70C1"/>
<path d="M39.6923 14.9058H44.8898V16.6466H39.6923V14.9058Z" fill="#1F70C1"/>
<path d="M47.297 4.93677H36.2352V6.67752H47.8957L47.297 4.93677Z" fill="#1F70C1"/>
<path d="M46.1488 1.61572H36.2352V3.35648H46.7476L46.1488 1.61572Z" fill="#1F70C1"/>
<path d="M55.2724 24.875H63.9329V26.6096H55.2724V24.875Z" fill="#1F70C1"/>
<path d="M55.2724 21.5476H63.9329V23.2882H55.2724V21.5476Z" fill="#1F70C1"/>
<path d="M55.2724 18.2268H60.4699V19.9675H55.2724V18.2268Z" fill="#1F70C1"/>
<path d="M55.2724 14.9058H60.4699V16.6466H55.2724V14.9058Z" fill="#1F70C1"/>
<path d="M55.2725 13.3254H60.47V11.5847H55.2725H50.5689L50.0812 12.9921L49.5935 11.5847H44.8898H39.6923V13.3254H44.8898V11.7266L45.4392 13.3254H54.7232L55.2725 11.7266V13.3254Z" fill="#1F70C1"/>
<path d="M60.4699 8.25757H51.7168L51.1181 9.99832H60.4699V8.25757Z" fill="#1F70C1"/>
<path d="M54.0196 1.61572L53.4208 3.35648H63.9332V1.61572H54.0196Z" fill="#1F70C1"/>
<path d="M50.0821 26.5973L50.6808 24.875H49.4833L50.0821 26.5973Z" fill="#1F70C1"/>
<path d="M48.9323 23.2886H51.2286L51.8459 21.5479H48.3212L48.9323 23.2886Z" fill="#1F70C1"/>
<path d="M47.7663 19.9675H52.3959L53.007 18.2268H47.1552L47.7663 19.9675Z" fill="#1F70C1"/>
<path d="M46.6055 16.6466H53.5623L54.1549 14.9058H46.0067L46.6055 16.6466Z" fill="#1F70C1"/>
<path d="M39.6923 9.99832H49.0441L48.4454 8.25757H39.6923V9.99832Z" fill="#1F70C1"/>
<path d="M52.2726 6.67752H63.9331V4.93677H52.8652L52.2726 6.67752Z" fill="#1F70C1"/>
</g>
</g>
<defs>
<clipPath id="clip0_1_1206">
<rect width="64" height="26" fill="white" transform="translate(0.67688 0.687256)"/>
</clipPath>
</defs>
</svg>
