<svg width="133" height="24" viewBox="0 0 133 24" fill="none" xmlns="http://www.w3.org/2000/svg">
<g clip-path="url(#clip0_1_1194)">
<mask id="mask0_1_1194" style="mask-type:luminance" maskUnits="userSpaceOnUse" x="1" y="0" width="132" height="23">
<path d="M132.612 0.615723H1.49207V22.6157H132.612V0.615723Z" fill="white"/>
</mask>
<g mask="url(#mask0_1_1194)">
<path d="M52.9884 2.85527C52.9884 2.33479 53.1974 1.83564 53.5694 1.46761C53.9414 1.09958 54.446 0.892822 54.9721 0.892822C55.4982 0.892822 56.0028 1.09958 56.3748 1.46761C56.7468 1.83564 56.9558 2.33479 56.9558 2.85527C56.9366 3.36306 56.7192 3.84375 56.3493 4.1963C55.9794 4.54885 55.4858 4.74582 54.9721 4.74582C54.4585 4.74582 53.9648 4.54885 53.5949 4.1963C53.225 3.84375 53.0076 3.36306 52.9884 2.85527Z" fill="#273B7D"/>
<path d="M84.2853 15.9434C84.2853 14.8542 85.1721 13.9741 86.2648 13.9741C86.7924 13.9741 87.2984 14.1815 87.6714 14.5505C88.0444 14.9196 88.254 15.4201 88.254 15.942C88.254 16.464 88.0444 16.9645 87.6714 17.3336C87.2984 17.7026 86.7924 17.91 86.2648 17.91C85.1735 17.91 84.2853 17.0285 84.2853 15.942" fill="#499FDD"/>
<path d="M20.4324 15.092C18.725 15.092 17.537 13.75 17.537 11.8313C17.537 9.91396 18.725 8.57332 20.4338 8.57332C22.1508 8.57332 23.3513 9.91396 23.3513 11.8313C23.3513 13.78 22.1771 15.092 20.4324 15.092ZM20.4324 5.70755C16.8187 5.70755 14.1955 8.2836 14.1955 11.8313C14.1955 15.3803 16.8201 17.955 20.4324 17.955C24.0613 17.955 26.6942 15.3803 26.6942 11.8326C26.6942 8.2836 24.0613 5.70755 20.4338 5.70755H20.4324ZM49.1459 12.1388C49.0201 11.8981 48.8611 11.676 48.6735 11.4787L48.5629 11.3653L48.679 11.2559C48.8448 11.0824 49.0146 10.8774 49.1776 10.6396L52.3686 5.94944H48.4953L46.0985 9.61877C45.9632 9.81556 45.6897 9.91396 45.2794 9.91396H44.7338V2.97707C44.7338 1.58997 43.8594 1.40137 42.9159 1.40137H41.2996L41.3037 17.7746H44.7351V12.8631H45.057C45.4479 12.8631 45.7131 12.9081 45.8361 13.1186L47.7286 16.6526C48.2576 17.612 48.7839 17.7746 49.7758 17.7746H52.4046L50.4458 14.5713L49.1473 12.1388H49.1459ZM65.8027 5.68022C64.0566 5.68022 62.9432 6.44825 62.3188 7.09738L62.1116 7.30511L62.037 7.02222C61.8547 6.32662 61.2358 5.94534 60.3061 5.94534H58.7686L58.7783 17.7705H62.1861V12.3205C62.1861 11.7875 62.2552 11.3256 62.3989 10.9033C62.7774 9.6256 63.8355 8.83161 65.1575 8.83161C66.2212 8.83161 66.637 9.38782 66.637 10.8227V15.9734C66.637 17.1979 67.2102 17.7705 68.4493 17.7705H70.0711L70.0656 10.2487C70.0656 7.26138 68.5917 5.68158 65.8027 5.68158V5.68022ZM55.0126 5.94944H53.3978L53.4088 15.0934V17.7746H55.1314L55.1922 17.7774L55.9962 17.7746H56.7947V17.7705H56.8001L56.8071 7.74652C56.8071 6.53708 56.2228 5.9508 55.0141 5.9508L55.0126 5.94944ZM33.8166 15.092C32.1092 15.092 30.9199 13.75 30.9199 11.8313C30.9199 9.91396 32.1093 8.57332 33.8181 8.57332C35.531 8.57332 36.7356 9.91396 36.7356 11.8313C36.7356 13.78 35.5614 15.092 33.8181 15.092H33.8166ZM33.8166 5.70755C30.2002 5.70755 27.5755 8.2836 27.5755 11.8313C27.5755 15.3803 30.2002 17.955 33.8181 17.955C37.4414 17.955 40.0798 15.3803 40.0798 11.8326C40.0798 8.2836 37.4414 5.70755 33.8181 5.70755" fill="#273B7D"/>
<path d="M106.859 15.0922C105.151 15.0922 103.961 13.7502 103.961 11.8315C103.961 9.91417 105.151 8.57353 106.859 8.57353C108.574 8.57353 109.778 9.91417 109.778 11.8315C109.778 13.7803 108.604 15.0922 106.859 15.0922ZM106.859 5.70776C103.242 5.70776 100.619 8.28381 100.619 11.8315C100.619 15.3806 103.242 17.9553 106.859 17.9553C110.484 17.9553 113.121 15.3806 113.121 11.8329C113.121 8.28381 110.482 5.70776 106.859 5.70776Z" fill="#499FDD"/>
<path d="M77.2506 14.5714C75.3871 14.5714 74.7241 12.9643 74.7241 11.4569C74.7241 10.7927 74.8939 8.6294 77.0724 8.6294C78.154 8.6294 79.5948 8.93552 79.5948 11.5676C79.5948 14.0507 78.3198 14.5714 77.2506 14.5714ZM81.3644 5.91806C80.7179 5.91806 80.2206 6.17361 79.9706 6.63963L79.8766 6.82002L79.7192 6.68336C79.1694 6.21324 78.1831 5.6543 76.582 5.6543C73.3952 5.6543 71.2499 8.02263 71.2499 11.5444C71.2499 15.0647 73.4698 17.5246 76.6456 17.5246C77.73 17.5246 78.5878 17.2732 79.2674 16.7648L79.5299 16.5694V16.8973C79.5299 18.4771 78.498 19.349 76.6262 19.349C75.7159 19.349 74.8885 19.1304 74.3331 18.9308C73.6121 18.7149 73.1866 18.894 72.8951 19.6114L72.6244 20.2729L72.2417 21.2404L72.4779 21.3648C73.677 21.9934 75.2366 22.3692 76.6456 22.3692C79.5465 22.3692 82.9364 20.9001 82.9364 16.7648L82.9488 5.91806H81.3644Z" fill="#273B7D"/>
<path d="M7.74361 14.9568L4.96979 14.9541V11.6742C4.96979 10.9718 5.24469 10.6083 5.85112 10.5236H7.74361C9.09322 10.5236 9.96624 11.3654 9.96762 12.7279C9.96624 14.1273 9.11533 14.9555 7.74361 14.9555V14.9568ZM4.96979 6.10673V5.24304C4.96979 4.4873 5.29305 4.12789 6.0017 4.08142H7.42179C8.63879 4.08142 9.36816 4.80162 9.36816 6.00834C9.36816 6.92669 8.86807 7.99948 7.46597 7.99948H4.96979V6.10673ZM11.2855 9.38112L10.784 9.10233L11.222 8.73198C11.7317 8.29877 12.584 7.32438 12.584 5.64345C12.584 3.06877 10.5672 1.40698 7.44388 1.40698H3.47374C3.02702 1.42309 2.60371 1.60862 2.2915 1.92512C1.97929 2.24162 1.80213 2.66483 1.79675 3.10703V17.716H7.51428C10.9857 17.716 13.2263 15.8465 13.2263 12.9507C13.2263 11.3914 12.5025 10.059 11.2855 9.38112Z" fill="#273B7D"/>
<path d="M128.341 5.71997C127.638 5.72253 126.944 5.88142 126.311 6.1849C125.678 6.48838 125.122 6.9287 124.684 7.47332L124.438 7.78218L124.244 7.43642C123.612 6.29804 122.526 5.71997 121.016 5.71997C119.432 5.71997 118.369 6.5946 117.876 7.11391L117.553 7.45966L117.428 7.00458C117.249 6.34861 116.659 5.98919 115.767 5.98919H114.334L114.32 17.7693H117.574V12.5694C117.574 12.113 117.632 11.6634 117.746 11.1919C118.057 9.93458 118.911 8.58301 120.346 8.7183C121.23 8.80303 121.664 9.4795 121.664 10.786V17.7693H124.94V12.5694C124.94 11.9995 124.994 11.5732 125.124 11.1468C125.387 9.94688 126.279 8.71693 127.663 8.71693C128.666 8.71693 129.036 9.27724 129.036 10.786V16.0474C129.036 17.2364 129.572 17.7693 130.775 17.7693H132.306L132.309 10.2489C132.309 7.24373 130.972 5.71997 128.341 5.71997ZM98.7327 13.6791C98.723 13.6914 97.3237 15.1509 95.4795 15.1509C93.7998 15.1509 92.1035 14.1314 92.1035 11.856C92.1035 9.89085 93.4185 8.51741 95.3027 8.51741C95.9133 8.51741 96.6096 8.73333 96.7187 9.09822L96.7339 9.15971C96.8035 9.41092 96.9549 9.63239 97.1647 9.78978C97.3745 9.94717 97.6309 10.0317 97.8942 10.0302L99.6762 10.033V8.49144C99.6762 6.45793 97.0612 5.71997 95.3027 5.71997C91.5398 5.71997 88.8102 8.31105 88.8102 11.8806C88.8102 15.4475 91.5095 18.0358 95.2337 18.0358C98.4634 18.0358 100.22 15.9354 100.237 15.9149L100.331 15.8001L98.9192 13.4837L98.7327 13.6791Z" fill="#499FDD"/>
</g>
</g>
<defs>
<clipPath id="clip0_1_1194">
<rect width="132" height="23" fill="white" transform="translate(0.67688 0.187256)"/>
</clipPath>
</defs>
</svg>
