<svg width="91" height="26" viewBox="0 0 91 26" fill="none" xmlns="http://www.w3.org/2000/svg">
<g clip-path="url(#clip0_1_1261)">
<mask id="mask0_1_1261" style="mask-type:luminance" maskUnits="userSpaceOnUse" x="1" y="0" width="90" height="25">
<path d="M90.0665 0.615723H1.26184V24.6157H90.0665V0.615723Z" fill="white"/>
</mask>
<g mask="url(#mask0_1_1261)">
<path d="M13.4728 23.0688C12.1369 23.3034 10.7775 23.3737 9.37126 23.561L5.08209 10.9986V24.1002C3.74621 24.2408 2.52748 24.4283 1.26184 24.6158V0.615723H4.82444L9.69933 14.2332V0.615723H13.4728V23.0688ZM20.8556 9.40479C22.3088 9.40479 24.5354 9.33446 25.8713 9.33446V13.0844C24.2071 13.0844 22.2619 13.0844 20.8556 13.1548V18.733C23.0588 18.5924 25.2619 18.4047 27.4884 18.3344V21.9436L17.1055 22.764V0.615723H27.4884V4.36573H20.8556V9.40479ZM41.4337 4.36582H37.5431V21.6158C36.2775 21.6158 35.0118 21.6158 33.7933 21.6626V4.36582H29.9027V0.615723H41.4339L41.4337 4.36582ZM47.5274 9.14705H52.6603V12.897H47.5274V21.4049H43.8475V0.615723H54.3243V4.36573H47.5274V9.14705ZM60.418 18.1236C62.5509 18.1703 64.707 18.3347 66.7931 18.4516V22.1548C63.4416 21.9437 60.09 21.7331 56.6681 21.6626V0.615723H60.418V18.1236ZM69.9571 22.4126C71.1524 22.4831 72.418 22.5534 73.6368 22.6938V0.615723H69.9571V22.4126ZM90.0666 0.615723L85.3087 12.0299L90.0666 24.6158C88.6602 24.4283 87.254 24.1704 85.8477 23.936L83.1525 16.9987L80.4106 23.3737C79.0509 23.1391 77.7384 23.0688 76.3793 22.8813L81.2074 11.8891L76.8479 0.615723H80.8789L83.3399 6.92043L85.965 0.615723H90.0666Z" fill="#D81F26"/>
</g>
</g>
<defs>
<clipPath id="clip0_1_1261">
<rect width="90" height="25" fill="white" transform="translate(0.67688 0.187256)"/>
</clipPath>
</defs>
</svg>
