<svg width="316" height="209" viewBox="0 0 316 209" fill="none" xmlns="http://www.w3.org/2000/svg">
<g clip-path="url(#clip0_1_1671)">
<g clip-path="url(#clip1_1_1671)">
<g clip-path="url(#clip2_1_1671)">
<g opacity="0.6" filter="url(#filter0_f_1_1671)">
<g filter="url(#filter1_d_1_1671)">
<path d="M46.6743 195.913C59.5007 195.913 69.8985 185.515 69.8985 172.689C69.8985 159.863 59.5007 149.465 46.6743 149.465C33.8479 149.465 23.4501 159.863 23.4501 172.689C23.4501 185.515 33.8479 195.913 46.6743 195.913Z" fill="white"/>
</g>
<mask id="mask0_1_1671" style="mask-type:luminance" maskUnits="userSpaceOnUse" x="32" y="159" width="26" height="26">
<path d="M32.9123 159.787H57.8566V184.731H32.9123V159.787Z" fill="white"/>
</mask>
<g mask="url(#mask0_1_1671)">
<path d="M55.5892 162.46H44.865C44.8648 163.096 44.99 163.725 45.2332 164.313C45.4764 164.9 45.833 165.434 46.2825 165.884C46.732 166.333 47.2657 166.69 47.8531 166.933C48.4404 167.176 49.07 167.302 49.7058 167.302H51.6818V169.208C51.6825 170.491 52.1924 171.722 53.0996 172.629C54.0067 173.536 55.2369 174.047 56.5199 174.047V163.39C56.5199 162.876 56.1037 162.46 55.5892 162.46Z" fill="#2684FF"/>
<path d="M50.2831 167.804H39.5579C39.5586 169.087 40.0686 170.317 40.9757 171.224C41.8828 172.132 43.113 172.642 44.396 172.643H46.372V174.556C46.3737 175.839 46.8846 177.069 47.7924 177.975C48.7002 178.882 49.9307 179.391 51.2137 179.391V168.734C51.2137 168.221 50.7967 167.804 50.2831 167.804Z" fill="url(#paint0_linear_1_1671)"/>
<path d="M44.9733 173.146H34.2481C34.2481 173.781 34.3734 174.411 34.6167 174.998C34.86 175.586 35.2167 176.119 35.6663 176.569C36.1159 177.018 36.6497 177.375 37.2371 177.618C37.8245 177.861 38.4541 177.986 39.0899 177.986H41.0713V179.894C41.0721 181.176 41.5813 182.405 42.4873 183.312C43.3932 184.219 44.622 184.73 45.904 184.732V174.075C45.904 173.562 45.4869 173.146 44.9733 173.146Z" fill="url(#paint1_linear_1_1671)"/>
</g>
<g filter="url(#filter2_d_1_1671)">
<path d="M280.767 143.66C293.593 143.66 303.991 133.263 303.991 120.436C303.991 107.61 293.593 97.2119 280.767 97.2119C267.941 97.2119 257.543 107.61 257.543 120.436C257.543 133.263 267.941 143.66 280.767 143.66Z" fill="white"/>
</g>
<path fill-rule="evenodd" clip-rule="evenodd" d="M287.891 120.83C287.165 120.821 286.444 120.956 285.77 121.227C285.097 121.499 284.484 121.901 283.967 122.411C283.45 122.922 283.04 123.529 282.76 124.199C282.48 124.869 282.336 125.588 282.336 126.315C282.336 127.041 282.48 127.76 282.76 128.43C283.04 129.1 283.451 129.708 283.968 130.218C284.484 130.728 285.097 131.13 285.771 131.402C286.445 131.673 287.165 131.808 287.892 131.798C289.334 131.78 290.711 131.194 291.724 130.167C292.737 129.14 293.305 127.756 293.305 126.314C293.305 124.871 292.737 123.487 291.723 122.461C290.71 121.434 289.333 120.849 287.891 120.83ZM273.643 120.831C272.189 120.831 270.794 121.409 269.765 122.437C268.737 123.466 268.159 124.861 268.159 126.315C268.159 127.77 268.737 129.165 269.765 130.193C270.794 131.221 272.189 131.799 273.643 131.799C275.098 131.799 276.493 131.221 277.521 130.193C278.55 129.165 279.127 127.77 279.127 126.315C279.127 124.861 278.55 123.466 277.521 122.437C276.493 121.409 275.098 120.831 273.643 120.831ZM286.251 113.976C286.251 114.696 286.109 115.409 285.833 116.074C285.558 116.74 285.154 117.344 284.645 117.853C284.135 118.363 283.531 118.767 282.865 119.042C282.2 119.318 281.487 119.46 280.767 119.46C280.047 119.46 279.334 119.318 278.668 119.042C278.003 118.767 277.399 118.363 276.889 117.853C276.38 117.344 275.976 116.74 275.701 116.074C275.425 115.409 275.283 114.696 275.283 113.976C275.283 112.522 275.861 111.127 276.889 110.098C277.918 109.07 279.313 108.492 280.767 108.492C282.221 108.492 283.616 109.07 284.645 110.098C285.673 111.127 286.251 112.522 286.251 113.976Z" fill="#F06A6A"/>
<g filter="url(#filter3_d_1_1671)">
<path d="M283.215 70.3332C296.041 70.3332 306.439 59.9354 306.439 47.109C306.439 34.2826 296.041 23.8848 283.215 23.8848C270.388 23.8848 259.99 34.2826 259.99 47.109C259.99 59.9354 270.388 70.3332 283.215 70.3332Z" fill="white"/>
</g>
<path d="M274.275 53.9094C273.724 53.9104 273.182 53.7651 272.705 53.4883C272.228 53.2116 271.833 52.8133 271.561 52.3341C271.292 51.8581 271.159 51.3182 271.174 50.772C271.189 50.2259 271.352 49.6941 271.645 49.2335L277.236 40.4552C277.522 39.9839 277.929 39.5968 278.414 39.3334C278.898 39.07 279.444 38.9396 279.996 38.9554C280.547 38.9685 281.085 39.1279 281.554 39.4172C282.023 39.7065 282.407 40.1153 282.667 40.6018C282.922 41.0845 283.042 41.6277 283.012 42.1732C282.982 42.7186 282.805 43.2457 282.498 43.6978L276.911 52.4761C276.628 52.9176 276.238 53.2804 275.777 53.531C275.316 53.7816 274.8 53.9117 274.275 53.9094Z" fill="#F62B54"/>
<path d="M283.864 53.9082C283.314 53.9099 282.772 53.7653 282.296 53.4891C281.82 53.2129 281.426 52.8151 281.154 52.3365C280.886 51.8619 280.752 51.3232 280.767 50.7783C280.782 50.2335 280.946 49.703 281.24 49.244L286.819 40.4858C287.101 40.0075 287.506 39.6134 287.991 39.3441C288.477 39.0748 289.026 38.9402 289.581 38.9541C290.136 38.9648 290.678 39.1241 291.151 39.4154C291.624 39.7067 292.01 40.1194 292.27 40.6105C292.524 41.0977 292.64 41.6452 292.604 42.1935C292.569 42.7418 292.383 43.2699 292.069 43.7202L286.489 52.4785C286.207 52.9183 285.819 53.2798 285.36 53.5297C284.901 53.7796 284.386 53.9098 283.864 53.9082Z" fill="#FFCC00"/>
<path d="M293.239 53.9825C294.828 53.9825 296.116 52.7203 296.116 51.1641C296.116 49.6088 294.828 48.3467 293.239 48.3467C291.649 48.3467 290.36 49.6088 290.36 51.1641C290.36 52.7213 291.649 53.9825 293.239 53.9825Z" fill="#00CA72"/>
<g filter="url(#filter4_d_1_1671)">
<path d="M219.134 190.753C227.447 190.753 234.186 184.014 234.186 175.701C234.186 167.388 227.447 160.648 219.134 160.648C210.821 160.648 204.082 167.388 204.082 175.701C204.082 184.014 210.821 190.753 219.134 190.753Z" fill="white"/>
</g>
<path d="M225.415 167.896H212.853C212.011 167.896 211.328 168.579 211.328 169.421V181.982C211.328 182.824 212.011 183.506 212.853 183.506H225.415C226.256 183.506 226.939 182.824 226.939 181.982V169.421C226.939 168.579 226.256 167.896 225.415 167.896Z" fill="url(#paint2_linear_1_1671)"/>
<path d="M224.178 169.925H220.881C220.686 169.925 220.5 170.002 220.363 170.139C220.226 170.277 220.149 170.463 220.149 170.657V176.023C220.149 176.427 220.476 176.754 220.881 176.754H224.178C224.274 176.755 224.369 176.736 224.458 176.699C224.547 176.662 224.627 176.608 224.695 176.54C224.763 176.473 224.817 176.392 224.854 176.303C224.89 176.214 224.909 176.119 224.909 176.023V170.657C224.909 170.561 224.89 170.466 224.854 170.377C224.817 170.288 224.763 170.207 224.695 170.139C224.627 170.071 224.547 170.017 224.458 169.981C224.369 169.944 224.274 169.925 224.178 169.925ZM217.387 169.925H214.089C213.993 169.925 213.898 169.944 213.809 169.981C213.72 170.017 213.64 170.071 213.572 170.139C213.504 170.207 213.45 170.288 213.413 170.377C213.376 170.466 213.357 170.561 213.357 170.657V179.925C213.357 180.329 213.685 180.657 214.089 180.657H217.387C217.791 180.657 218.119 180.329 218.119 179.925V170.657C218.119 170.463 218.042 170.277 217.904 170.139C217.767 170.002 217.581 169.925 217.387 169.925Z" fill="white"/>
<g filter="url(#filter5_d_1_1671)">
<path d="M129.679 190.753C137.992 190.753 144.732 184.014 144.732 175.701C144.732 167.388 137.992 160.648 129.679 160.648C121.366 160.648 114.627 167.388 114.627 175.701C114.627 184.014 121.366 190.753 129.679 190.753Z" fill="white"/>
</g>
<path d="M125.203 175.638C125.203 175.638 125.953 174.465 126.975 174.465C128.52 174.418 129.792 177.421 130.02 177.843C131.746 173.714 134.609 170.219 136.926 167.896H122.613V184.951C122.613 185.608 122.545 186.218 122.431 186.852C124.294 186.523 126.134 186.054 127.906 185.397C132.246 183.731 133.95 181.972 133.95 181.972L134.064 181.854L134.132 181.995C134.404 182.699 134.813 183.332 135.222 183.966C135.813 184.74 136.131 184.81 136.359 184.74C136.608 184.67 136.745 184.224 136.813 183.544C136.88 182.84 136.926 181.315 136.926 179.415V169.21C132.769 174.723 129.656 182.981 129.656 182.981C129.656 182.981 127.589 175.614 125.203 175.638Z" fill="#003059"/>
<g filter="url(#filter6_d_1_1671)">
<path d="M110.881 51.7649C123.707 51.7649 134.105 41.367 134.105 28.5406C134.105 15.7142 123.707 5.31641 110.881 5.31641C98.0542 5.31641 87.6564 15.7142 87.6564 28.5406C87.6564 41.367 98.0542 51.7649 110.881 51.7649Z" fill="white"/>
</g>
<path d="M109.885 17.6408L99.9433 21.754C99.8209 21.8049 99.7164 21.8911 99.6432 22.0016C99.5701 22.1121 99.5315 22.242 99.5325 22.3745C99.5335 22.507 99.5739 22.6363 99.6487 22.7457C99.7235 22.8551 99.8292 22.9398 99.9524 22.9888L109.935 26.9473C110.812 27.2951 111.789 27.2951 112.666 26.9473L122.649 22.9888C122.773 22.9401 122.879 22.8556 122.954 22.7461C123.029 22.6367 123.07 22.5073 123.071 22.3745C123.072 22.2418 123.033 22.1118 122.96 22.0012C122.886 21.8906 122.781 21.8046 122.658 21.754L112.717 17.6399C111.81 17.2646 110.791 17.2646 109.884 17.6399" fill="#FCB400"/>
<path d="M112.187 29.1085V38.9977C112.187 39.4685 112.662 39.79 113.099 39.6169L124.223 35.2997C124.347 35.2506 124.453 35.1652 124.528 35.0548C124.603 34.9444 124.643 34.8139 124.643 34.6805V24.7913C124.643 24.6826 124.616 24.5755 124.565 24.4794C124.515 24.3833 124.441 24.3011 124.351 24.24C124.261 24.1789 124.158 24.1408 124.05 24.129C123.942 24.1171 123.832 24.1319 123.731 24.1721L112.607 28.4893C112.483 28.5384 112.377 28.6238 112.302 28.7342C112.227 28.8447 112.187 28.9751 112.187 29.1085Z" fill="#18BFFF"/>
<path d="M109.589 29.6187L106.288 31.2123L105.952 31.3744L98.9835 34.7136C98.5418 34.9267 97.9781 34.6043 97.9781 34.1144V24.8325C97.9781 24.655 98.0692 24.5011 98.1912 24.3863C98.2415 24.3362 98.2985 24.2933 98.3606 24.2589C98.4519 24.2069 98.5535 24.1759 98.6583 24.168C98.763 24.1601 98.8681 24.1756 98.9662 24.2133L109.534 28.4003C110.071 28.6134 110.113 29.3656 109.589 29.6187Z" fill="#F82B60"/>
<path d="M109.589 29.6189L106.287 31.2125L98.1912 24.3856C98.2412 24.3361 98.2979 24.2938 98.3597 24.26C98.451 24.2077 98.5527 24.1764 98.6576 24.1682C98.7625 24.16 98.8679 24.1752 98.9662 24.2126L109.534 28.4005C110.071 28.6136 110.113 29.3658 109.589 29.6189Z" fill="black" fill-opacity="0.25"/>
<g filter="url(#filter7_d_1_1671)">
<path d="M209.672 37.6468C217.985 37.6468 224.724 30.9076 224.724 22.5944C224.724 14.2812 217.985 7.54199 209.672 7.54199C201.359 7.54199 194.62 14.2812 194.62 22.5944C194.62 30.9076 201.359 37.6468 209.672 37.6468Z" fill="white"/>
</g>
<path fill-rule="evenodd" clip-rule="evenodd" d="M204.897 17.109C205.398 17.5151 205.585 17.4842 206.524 17.4213L215.381 16.8895C215.568 16.8895 215.412 16.7029 215.35 16.671L213.879 15.6083C213.597 15.3898 213.222 15.1384 212.502 15.2013L203.926 15.8269C203.614 15.8578 203.551 16.0145 203.676 16.1392L204.897 17.109ZM205.428 19.1734V28.4916C205.428 28.9925 205.679 29.1801 206.242 29.1482L215.975 28.5854C216.539 28.5545 216.602 28.2103 216.602 27.8023V18.5478C216.602 18.1416 216.445 17.9231 216.101 17.9541L205.929 18.5478C205.554 18.5796 205.428 18.7663 205.428 19.1734ZM215.037 19.6733C215.099 19.9547 215.037 20.236 214.755 20.2679L214.286 20.3608V27.2405C213.879 27.459 213.504 27.5847 213.191 27.5847C212.69 27.5847 212.564 27.4281 212.189 26.9591L209.121 22.1438V26.8025L210.092 27.0219C210.092 27.0219 210.092 27.5847 209.309 27.5847L207.15 27.7094C207.087 27.5847 207.15 27.2723 207.369 27.2095L207.933 27.0538V20.8917L207.15 20.8289C207.088 20.5475 207.243 20.1413 207.682 20.1095L209.998 19.9538L213.191 24.8319V20.5183L212.376 20.4245C212.314 20.0803 212.564 19.8308 212.877 19.7999L215.037 19.6733ZM203.206 14.9827L212.126 14.3262C213.222 14.2315 213.504 14.2943 214.192 14.7951L217.04 16.7958C217.51 17.14 217.666 17.2338 217.666 17.6089V28.5864C217.666 29.2739 217.415 29.6809 216.539 29.7428L206.18 30.3693C205.522 30.4003 205.209 30.3065 204.865 29.8685L202.768 27.1476C202.393 26.6468 202.236 26.2725 202.236 25.8345V16.0764C202.236 15.5145 202.487 15.0447 203.206 14.9827Z" fill="black"/>
<g filter="url(#filter8_d_1_1671)">
<path d="M82.3703 130.542C90.6835 130.542 97.4227 123.803 97.4227 115.49C97.4227 107.177 90.6835 100.438 82.3703 100.438C74.0571 100.438 67.3179 107.177 67.3179 115.49C67.3179 123.803 74.0571 130.542 82.3703 130.542Z" fill="white"/>
</g>
<path d="M78.0676 106.849H87.2302C88.1591 106.849 89.0498 107.218 89.7067 107.875C90.3636 108.531 90.7329 109.422 90.7333 110.351V119.514C90.7329 120.443 90.3636 121.334 89.7067 121.991C89.0498 122.647 88.1591 123.016 87.2302 123.017H78.0676C77.1389 123.016 76.2484 122.647 75.5917 121.99C74.935 121.334 74.5659 120.443 74.5654 119.514V110.351C74.5659 109.422 74.935 108.532 75.5917 107.875C76.2484 107.218 77.1389 106.849 78.0676 106.849Z" fill="#FFD02F"/>
<path d="M85.7996 108.867H84.0249L85.5037 111.465L82.2501 108.867H80.4744L82.1017 112.044L78.6996 108.867H76.9239L78.6996 112.91L76.9239 120.997H78.6996L82.1017 112.331L80.4744 120.997H82.2501L85.5037 111.757L84.0249 120.997H85.8006L89.0542 110.887L85.7996 108.867Z" fill="#050038"/>
<g filter="url(#filter9_d_1_1671)">
<path d="M32.9123 96.1369C45.7386 96.1369 56.1365 85.7391 56.1365 72.9127C56.1365 60.0863 45.7386 49.6885 32.9123 49.6885C20.0859 49.6885 9.68802 60.0863 9.68802 72.9127C9.68802 85.7391 20.0859 96.1369 32.9123 96.1369Z" fill="white"/>
</g>
<path d="M25.6055 70.9415C26.9377 70.9415 27.5661 71.1646 28.5313 72.0433L33.7081 76.7539C33.8611 76.8933 33.8921 76.9488 33.923 77.0326C33.9352 77.0635 33.9402 77.0969 33.9376 77.13C33.9376 77.1573 33.9376 77.1992 33.923 77.2275C33.8921 77.3112 33.8611 77.3668 33.7081 77.5061L30.1695 80.7397C30.0165 80.879 29.9555 80.9072 29.8635 80.9346C29.8326 80.9491 29.787 80.9491 29.7561 80.9491C29.726 80.9491 29.6796 80.9491 29.6495 80.9346C29.5576 80.9072 29.4956 80.879 29.3427 80.7397L19.3095 71.6108C19.0181 71.3467 19.1256 70.9415 19.6164 70.9415H25.6055ZM40.2181 65.1855C38.8859 65.1855 38.2575 65.4086 37.2932 66.2874L32.1155 70.998C31.9625 71.1373 31.9315 71.1928 31.9015 71.2766C31.886 71.3039 31.886 71.3458 31.886 71.374C31.886 71.4014 31.886 71.4433 31.9015 71.4715C31.9315 71.5553 31.9625 71.6108 32.1155 71.7501L35.6541 74.97C35.8071 75.1094 35.8681 75.1376 35.9601 75.1649C35.991 75.1786 36.0366 75.1786 36.0675 75.1786C36.0985 75.1786 36.144 75.1786 36.175 75.1649C36.266 75.1376 36.328 75.1094 36.4809 74.97L46.5141 65.8412C46.8055 65.5762 46.698 65.1719 46.2072 65.1719H40.2181V65.1855Z" fill="#08CF65"/>
</g>
<g filter="url(#filter10_d_1_1671)">
<path d="M172.807 159.696C205.579 159.696 232.147 133.128 232.147 100.356C232.147 67.583 205.579 41.0156 172.807 41.0156C140.034 41.0156 113.467 67.583 113.467 100.356C113.467 133.128 140.034 159.696 172.807 159.696Z" fill="white"/>
</g>
<path d="M141.347 119.655L152.996 110.678C159.186 118.804 165.762 122.549 173.082 122.549C180.362 122.549 186.753 118.849 192.664 110.786L204.48 119.547C195.951 131.173 185.353 137.315 173.082 137.315C160.849 137.315 150.149 131.212 141.347 119.655Z" fill="url(#paint3_linear_1_1671)"/>
<path d="M173.043 80.6442L152.308 98.6188L142.723 87.4365L173.087 61.1152L203.213 87.4565L193.584 98.5996L173.043 80.6442Z" fill="url(#paint4_linear_1_1671)"/>
</g>
</g>
</g>
<defs>
<filter id="filter0_f_1_1671" x="5.13496" y="0.76335" width="305.857" height="199.703" filterUnits="userSpaceOnUse" color-interpolation-filters="sRGB">
<feFlood flood-opacity="0" result="BackgroundImageFix"/>
<feBlend mode="normal" in="SourceGraphic" in2="BackgroundImageFix" result="shape"/>
<feGaussianBlur stdDeviation="2.27653" result="effect1_foregroundBlur_1_1671"/>
</filter>
<filter id="filter1_d_1_1671" x="15.2382" y="145.359" width="62.8722" height="62.872" filterUnits="userSpaceOnUse" color-interpolation-filters="sRGB">
<feFlood flood-opacity="0" result="BackgroundImageFix"/>
<feColorMatrix in="SourceAlpha" type="matrix" values="0 0 0 0 0 0 0 0 0 0 0 0 0 0 0 0 0 0 127 0" result="hardAlpha"/>
<feOffset dy="4.10595"/>
<feGaussianBlur stdDeviation="4.10595"/>
<feComposite in2="hardAlpha" operator="out"/>
<feColorMatrix type="matrix" values="0 0 0 0 0.343614 0 0 0 0 0.154931 0 0 0 0 0.808333 0 0 0 0.18 0"/>
<feBlend mode="normal" in2="BackgroundImageFix" result="effect1_dropShadow_1_1671"/>
<feBlend mode="normal" in="SourceGraphic" in2="effect1_dropShadow_1_1671" result="shape"/>
</filter>
<filter id="filter2_d_1_1671" x="249.331" y="93.106" width="62.8722" height="62.872" filterUnits="userSpaceOnUse" color-interpolation-filters="sRGB">
<feFlood flood-opacity="0" result="BackgroundImageFix"/>
<feColorMatrix in="SourceAlpha" type="matrix" values="0 0 0 0 0 0 0 0 0 0 0 0 0 0 0 0 0 0 127 0" result="hardAlpha"/>
<feOffset dy="4.10595"/>
<feGaussianBlur stdDeviation="4.10595"/>
<feComposite in2="hardAlpha" operator="out"/>
<feColorMatrix type="matrix" values="0 0 0 0 0.343614 0 0 0 0 0.154931 0 0 0 0 0.808333 0 0 0 0.18 0"/>
<feBlend mode="normal" in2="BackgroundImageFix" result="effect1_dropShadow_1_1671"/>
<feBlend mode="normal" in="SourceGraphic" in2="effect1_dropShadow_1_1671" result="shape"/>
</filter>
<filter id="filter3_d_1_1671" x="251.779" y="19.7788" width="62.8722" height="62.872" filterUnits="userSpaceOnUse" color-interpolation-filters="sRGB">
<feFlood flood-opacity="0" result="BackgroundImageFix"/>
<feColorMatrix in="SourceAlpha" type="matrix" values="0 0 0 0 0 0 0 0 0 0 0 0 0 0 0 0 0 0 127 0" result="hardAlpha"/>
<feOffset dy="4.10595"/>
<feGaussianBlur stdDeviation="4.10595"/>
<feComposite in2="hardAlpha" operator="out"/>
<feColorMatrix type="matrix" values="0 0 0 0 0.343614 0 0 0 0 0.154931 0 0 0 0 0.808333 0 0 0 0.18 0"/>
<feBlend mode="normal" in2="BackgroundImageFix" result="effect1_dropShadow_1_1671"/>
<feBlend mode="normal" in="SourceGraphic" in2="effect1_dropShadow_1_1671" result="shape"/>
</filter>
<filter id="filter4_d_1_1671" x="195.87" y="156.542" width="46.5286" height="46.5283" filterUnits="userSpaceOnUse" color-interpolation-filters="sRGB">
<feFlood flood-opacity="0" result="BackgroundImageFix"/>
<feColorMatrix in="SourceAlpha" type="matrix" values="0 0 0 0 0 0 0 0 0 0 0 0 0 0 0 0 0 0 127 0" result="hardAlpha"/>
<feOffset dy="4.10595"/>
<feGaussianBlur stdDeviation="4.10595"/>
<feComposite in2="hardAlpha" operator="out"/>
<feColorMatrix type="matrix" values="0 0 0 0 0.343614 0 0 0 0 0.154931 0 0 0 0 0.808333 0 0 0 0.18 0"/>
<feBlend mode="normal" in2="BackgroundImageFix" result="effect1_dropShadow_1_1671"/>
<feBlend mode="normal" in="SourceGraphic" in2="effect1_dropShadow_1_1671" result="shape"/>
</filter>
<filter id="filter5_d_1_1671" x="106.415" y="156.542" width="46.5286" height="46.5283" filterUnits="userSpaceOnUse" color-interpolation-filters="sRGB">
<feFlood flood-opacity="0" result="BackgroundImageFix"/>
<feColorMatrix in="SourceAlpha" type="matrix" values="0 0 0 0 0 0 0 0 0 0 0 0 0 0 0 0 0 0 127 0" result="hardAlpha"/>
<feOffset dy="4.10595"/>
<feGaussianBlur stdDeviation="4.10595"/>
<feComposite in2="hardAlpha" operator="out"/>
<feColorMatrix type="matrix" values="0 0 0 0 0.343614 0 0 0 0 0.154931 0 0 0 0 0.808333 0 0 0 0.18 0"/>
<feBlend mode="normal" in2="BackgroundImageFix" result="effect1_dropShadow_1_1671"/>
<feBlend mode="normal" in="SourceGraphic" in2="effect1_dropShadow_1_1671" result="shape"/>
</filter>
<filter id="filter6_d_1_1671" x="79.4445" y="1.21046" width="62.8723" height="62.872" filterUnits="userSpaceOnUse" color-interpolation-filters="sRGB">
<feFlood flood-opacity="0" result="BackgroundImageFix"/>
<feColorMatrix in="SourceAlpha" type="matrix" values="0 0 0 0 0 0 0 0 0 0 0 0 0 0 0 0 0 0 127 0" result="hardAlpha"/>
<feOffset dy="4.10595"/>
<feGaussianBlur stdDeviation="4.10595"/>
<feComposite in2="hardAlpha" operator="out"/>
<feColorMatrix type="matrix" values="0 0 0 0 0.343614 0 0 0 0 0.154931 0 0 0 0 0.808333 0 0 0 0.18 0"/>
<feBlend mode="normal" in2="BackgroundImageFix" result="effect1_dropShadow_1_1671"/>
<feBlend mode="normal" in="SourceGraphic" in2="effect1_dropShadow_1_1671" result="shape"/>
</filter>
<filter id="filter7_d_1_1671" x="186.408" y="3.43605" width="46.5286" height="46.5283" filterUnits="userSpaceOnUse" color-interpolation-filters="sRGB">
<feFlood flood-opacity="0" result="BackgroundImageFix"/>
<feColorMatrix in="SourceAlpha" type="matrix" values="0 0 0 0 0 0 0 0 0 0 0 0 0 0 0 0 0 0 127 0" result="hardAlpha"/>
<feOffset dy="4.10595"/>
<feGaussianBlur stdDeviation="4.10595"/>
<feComposite in2="hardAlpha" operator="out"/>
<feColorMatrix type="matrix" values="0 0 0 0 0.343614 0 0 0 0 0.154931 0 0 0 0 0.808333 0 0 0 0.18 0"/>
<feBlend mode="normal" in2="BackgroundImageFix" result="effect1_dropShadow_1_1671"/>
<feBlend mode="normal" in="SourceGraphic" in2="effect1_dropShadow_1_1671" result="shape"/>
</filter>
<filter id="filter8_d_1_1671" x="59.106" y="96.3316" width="46.5286" height="46.5283" filterUnits="userSpaceOnUse" color-interpolation-filters="sRGB">
<feFlood flood-opacity="0" result="BackgroundImageFix"/>
<feColorMatrix in="SourceAlpha" type="matrix" values="0 0 0 0 0 0 0 0 0 0 0 0 0 0 0 0 0 0 127 0" result="hardAlpha"/>
<feOffset dy="4.10595"/>
<feGaussianBlur stdDeviation="4.10595"/>
<feComposite in2="hardAlpha" operator="out"/>
<feColorMatrix type="matrix" values="0 0 0 0 0.343614 0 0 0 0 0.154931 0 0 0 0 0.808333 0 0 0 0.18 0"/>
<feBlend mode="normal" in2="BackgroundImageFix" result="effect1_dropShadow_1_1671"/>
<feBlend mode="normal" in="SourceGraphic" in2="effect1_dropShadow_1_1671" result="shape"/>
</filter>
<filter id="filter9_d_1_1671" x="1.47613" y="45.5825" width="62.8722" height="62.872" filterUnits="userSpaceOnUse" color-interpolation-filters="sRGB">
<feFlood flood-opacity="0" result="BackgroundImageFix"/>
<feColorMatrix in="SourceAlpha" type="matrix" values="0 0 0 0 0 0 0 0 0 0 0 0 0 0 0 0 0 0 127 0" result="hardAlpha"/>
<feOffset dy="4.10595"/>
<feGaussianBlur stdDeviation="4.10595"/>
<feComposite in2="hardAlpha" operator="out"/>
<feColorMatrix type="matrix" values="0 0 0 0 0.343614 0 0 0 0 0.154931 0 0 0 0 0.808333 0 0 0 0.18 0"/>
<feBlend mode="normal" in2="BackgroundImageFix" result="effect1_dropShadow_1_1671"/>
<feBlend mode="normal" in="SourceGraphic" in2="effect1_dropShadow_1_1671" result="shape"/>
</filter>
<filter id="filter10_d_1_1671" x="100.822" y="34.6933" width="143.969" height="143.969" filterUnits="userSpaceOnUse" color-interpolation-filters="sRGB">
<feFlood flood-opacity="0" result="BackgroundImageFix"/>
<feColorMatrix in="SourceAlpha" type="matrix" values="0 0 0 0 0 0 0 0 0 0 0 0 0 0 0 0 0 0 127 0" result="hardAlpha"/>
<feOffset dy="6.32237"/>
<feGaussianBlur stdDeviation="6.32237"/>
<feComposite in2="hardAlpha" operator="out"/>
<feColorMatrix type="matrix" values="0 0 0 0 0.343614 0 0 0 0 0.154931 0 0 0 0 0.808333 0 0 0 0.18 0"/>
<feBlend mode="normal" in2="BackgroundImageFix" result="effect1_dropShadow_1_1671"/>
<feBlend mode="normal" in="SourceGraphic" in2="effect1_dropShadow_1_1671" result="shape"/>
</filter>
<linearGradient id="paint0_linear_1_1671" x1="2956.91" y1="173.139" x2="1799.88" y2="1525.29" gradientUnits="userSpaceOnUse">
<stop offset="0.18" stop-color="#0052CC"/>
<stop offset="1" stop-color="#2684FF"/>
</linearGradient>
<linearGradient id="paint1_linear_1_1671" x1="3030" y1="188.222" x2="1691.62" y2="1663" gradientUnits="userSpaceOnUse">
<stop offset="0.18" stop-color="#0052CC"/>
<stop offset="1" stop-color="#2684FF"/>
</linearGradient>
<linearGradient id="paint2_linear_1_1671" x1="991.834" y1="167.896" x2="991.834" y2="1728.9" gradientUnits="userSpaceOnUse">
<stop stop-color="#0091E6"/>
<stop offset="1" stop-color="#0079BF"/>
</linearGradient>
<linearGradient id="paint3_linear_1_1671" x1="141.347" y1="128.793" x2="204.48" y2="128.793" gradientUnits="userSpaceOnUse">
<stop stop-color="#8930FD"/>
<stop offset="1" stop-color="#49CCF9"/>
</linearGradient>
<linearGradient id="paint4_linear_1_1671" x1="142.723" y1="86.6215" x2="203.213" y2="86.6215" gradientUnits="userSpaceOnUse">
<stop stop-color="#FF02F0"/>
<stop offset="1" stop-color="#FFC800"/>
</linearGradient>
<clipPath id="clip0_1_1671">
<rect width="314.17" height="208.53" fill="white" transform="translate(0.846893 0.256836)"/>
</clipPath>
<clipPath id="clip1_1_1671">
<rect width="314.17" height="208.53" fill="white" transform="translate(0.846893 0.256836)"/>
</clipPath>
<clipPath id="clip2_1_1671">
<rect width="314.161" height="208.53" fill="white" transform="translate(0.85144 0.256836)"/>
</clipPath>
</defs>
</svg>
