<svg width="108" height="22" viewBox="0 0 108 22" fill="none" xmlns="http://www.w3.org/2000/svg">
<g clip-path="url(#clip0_1_1953)">
<g clip-path="url(#clip1_1_1953)">
<g clip-path="url(#clip2_1_1953)">
<mask id="mask0_1_1953" style="mask-type:luminance" maskUnits="userSpaceOnUse" x="0" y="0" width="107" height="22">
<path d="M106.612 0.237366H0.561829V21.2374H106.612V0.237366Z" fill="white"/>
</mask>
<g mask="url(#mask0_1_1953)">
<path d="M0.561829 15.508L3.58791 13.1665C5.19564 15.286 6.90378 16.2629 8.80506 16.2629C10.6962 16.2629 12.3561 15.2975 13.8913 13.1947L16.9606 15.4798C14.7454 18.512 11.9925 20.1141 8.80506 20.1141C5.62775 20.1141 2.84823 18.5223 0.561829 15.508Z" fill="url(#paint0_linear_1_1953)"/>
<path d="M8.7954 5.33127L3.40918 10.0195L0.919434 7.10284L8.8068 0.237411L16.6319 7.10793L14.1307 10.0143L8.7954 5.33127Z" fill="url(#paint1_linear_1_1953)"/>
<path fill-rule="evenodd" clip-rule="evenodd" d="M38.7952 4.94146C38.7952 5.95562 39.5273 6.69502 40.5314 6.69502V6.69634C41.5023 6.69634 42.2521 5.95562 42.2521 4.94146C42.2521 3.96068 41.5023 3.22125 40.5314 3.22125C39.5616 3.22125 38.7952 3.96068 38.7952 4.94146ZM37.6911 3.90921V17.0341H34.6942V3.90921H37.6911ZM28.5647 17.2236C26.726 17.2235 25.1934 16.6214 23.9506 15.4174C22.7077 14.1966 22.095 12.6317 22.095 10.7215C22.095 8.79592 22.7241 7.21309 23.9671 5.97425C25.2279 4.71878 26.7607 4.10002 28.5831 4.10002C30.8314 4.10002 32.823 5.07951 33.982 6.61102L31.9536 8.76127C30.9827 7.71116 29.9265 7.17839 28.7865 7.17839C27.8155 7.17839 27.0148 7.50447 26.3501 8.17589C25.7032 8.84726 25.3804 9.69067 25.3804 10.7048C25.3804 11.6856 25.7032 12.511 26.3501 13.1825C27.0148 13.8359 27.8155 14.1619 28.7687 14.1619C30.0117 14.1619 31.1021 13.6112 32.0045 12.5277L34.1168 14.5753C33.5372 15.3494 32.7543 15.9861 31.7833 16.4842C30.8126 16.9835 29.7401 17.2235 28.5647 17.2236ZM42.0473 7.53817V17.034H39.0327V7.53817H42.0473ZM44.2084 15.8466C45.1438 16.776 46.336 17.2408 47.8178 17.2408C49.8107 17.2408 51.4959 16.2599 52.3144 14.6771L49.9123 13.2329C49.5717 13.9724 48.7711 14.4537 47.903 14.4537C46.6931 14.4537 45.7907 13.5243 45.7907 12.2688C45.7801 11.699 45.9946 11.1484 46.3868 10.7386C46.796 10.3252 47.3069 10.1186 47.9373 10.1186C48.8054 10.1186 49.4701 10.5319 49.9466 11.3407L52.3474 10.0672C51.548 8.26099 49.8272 7.2982 47.8687 7.2982C46.3702 7.2982 45.1616 7.76167 44.2249 8.69108C43.2883 9.62048 42.8282 10.8067 42.8282 12.2688C42.8282 13.731 43.2883 14.9185 44.2084 15.8466ZM62.767 17.0341H59.1896L56.4124 13.2663L55.9703 13.6797V17.0341H52.9747V3.90921H55.9714V10.2906L58.798 7.53833H62.4599L58.4247 11.3574L62.767 17.0341ZM62.9681 4.32151V12.0971C62.9681 15.8469 65.5568 17.2577 68.1624 17.2577C70.7843 17.2577 73.3568 15.8469 73.3568 12.0971V4.32151H70.1375V12.0457C70.1375 13.4386 69.32 14.1613 68.1624 14.1613C66.9869 14.1613 66.1695 13.4732 66.1695 12.0457V4.32151H62.9681ZM80.4716 7.2982C81.8177 7.2982 82.9081 7.77962 83.7759 8.74242C84.6437 9.68852 85.0695 10.876 85.0695 12.2688C85.0695 13.663 84.6275 14.8492 83.7596 15.8299C82.8902 16.7927 81.8009 17.2754 80.4894 17.2754C79.4499 17.2754 78.5474 16.9314 77.8151 16.2433V20.9392H74.8005V7.53828H77.7647V8.41634C78.4965 7.67562 79.399 7.2982 80.4716 7.2982ZM79.893 10.119C81.1199 10.119 82.004 11.0651 82.004 12.3039H82.0056C82.013 12.8787 81.7988 13.4339 81.4082 13.852C81.0165 14.2821 80.5057 14.4888 79.893 14.4888C79.2793 14.4888 78.7685 14.2821 78.3605 13.852C77.9678 13.422 77.7647 12.9059 77.7647 12.3039C77.7647 11.0651 78.6666 10.119 79.893 10.119Z" fill="black"/>
<path fill-rule="evenodd" clip-rule="evenodd" d="M86.8309 16.4609C87.8378 17.0703 88.924 17.428 90.1562 17.428C92.3287 17.428 93.8254 16.2225 93.8254 14.4738C93.8254 13.3477 93.1897 12.3409 91.9045 12.0494V11.9965C92.7523 11.6918 93.5209 10.9367 93.5209 9.85033C93.5209 8.37986 92.0903 7.30681 90.3284 7.30681C89.0432 7.30681 87.8641 7.82346 87.0561 8.53883L88.2085 10.314C88.9639 9.81059 89.4406 9.62516 89.984 9.62516C90.5799 9.62516 91.0435 9.91658 91.0435 10.4332C91.0435 10.8969 90.6329 11.2546 89.8512 11.2546H88.8841V13.4537H90.1562C90.845 13.4537 91.2687 13.7982 91.2687 14.2751C91.2687 14.7917 90.8182 15.1626 89.984 15.1626C89.4805 15.1626 88.7387 15.017 87.8242 14.5003L86.8309 16.4609ZM102.054 17.428C99.4309 17.428 97.9866 15.3481 97.9866 12.3674C97.9866 9.3867 99.4309 7.30681 102.054 7.30681C104.69 7.30681 106.134 9.3867 106.134 12.3674C106.134 15.3481 104.69 17.428 102.054 17.428ZM102.067 15.1097C103.18 15.1097 103.696 13.9439 103.696 12.3674C103.696 10.8174 103.167 9.62516 102.067 9.62516C100.968 9.62516 100.424 10.8174 100.424 12.3674C100.424 13.9439 100.941 15.1097 102.067 15.1097ZM95.9611 17.481C95.2461 17.481 94.6628 16.9378 94.6628 16.2092C94.6628 15.5071 95.2461 14.9639 95.9611 14.9639C96.6368 14.9639 97.2064 15.5071 97.2064 16.2092C97.2064 16.9378 96.6368 17.481 95.9611 17.481Z" fill="black"/>
</g>
</g>
</g>
</g>
<defs>
<linearGradient id="paint0_linear_1_1953" x1="0.561829" y1="21.3654" x2="16.9606" y2="21.3654" gradientUnits="userSpaceOnUse">
<stop stop-color="#7612FA"/>
<stop offset="1" stop-color="#40DDFF"/>
</linearGradient>
<linearGradient id="paint1_linear_1_1953" x1="0.919434" y1="11.7812" x2="16.6319" y2="11.7812" gradientUnits="userSpaceOnUse">
<stop stop-color="#FA12E3"/>
<stop offset="1" stop-color="#FFD700"/>
</linearGradient>
<clipPath id="clip0_1_1953">
<rect width="107" height="21" fill="white" transform="translate(0.086853 0.237366)"/>
</clipPath>
<clipPath id="clip1_1_1953">
<rect width="107" height="21" fill="white" transform="translate(0.086853 0.237366)"/>
</clipPath>
<clipPath id="clip2_1_1953">
<rect width="107" height="21" fill="white" transform="translate(0.086853 0.237366)"/>
</clipPath>
</defs>
</svg>
