<svg width="315" height="219" viewBox="0 0 315 219" fill="none" xmlns="http://www.w3.org/2000/svg">
<g clip-path="url(#clip0_1_1599)">
<g clip-path="url(#clip1_1_1599)">
<g clip-path="url(#clip2_1_1599)">
<path d="M104.012 126.001C104.012 114.162 113.609 104.564 125.449 104.564C137.288 104.564 146.886 114.162 146.886 126.001" stroke="white" stroke-width="0.456632" stroke-dasharray="1.83 1.83"/>
<g filter="url(#filter0_d_1_1599)">
<path d="M46.637 205.615C59.5006 205.615 69.9286 195.187 69.9286 182.324C69.9286 169.46 59.5006 159.032 46.637 159.032C33.7734 159.032 23.3454 169.46 23.3454 182.324C23.3454 195.187 33.7734 205.615 46.637 205.615Z" fill="white"/>
</g>
<mask id="mask0_1_1599" style="mask-type:luminance" maskUnits="userSpaceOnUse" x="32" y="169" width="26" height="26">
<path d="M57.8515 169.384H32.8345V194.401H57.8515V169.384Z" fill="white"/>
</mask>
<g mask="url(#mask0_1_1599)">
<path d="M55.5782 172.064H44.8218C44.8218 173.352 45.3334 174.587 46.2439 175.497C47.1545 176.408 48.3896 176.92 49.6773 176.92H51.6588V178.833C51.6606 181.512 53.832 183.684 56.5113 183.686V172.997C56.5113 172.482 56.0936 172.064 55.5782 172.064Z" fill="#2684FF"/>
<path d="M50.2559 177.424H39.4996C39.5013 180.103 41.6727 182.275 44.3521 182.277H46.3335V184.196C46.3369 186.875 48.5099 189.045 51.1891 189.045V178.357C51.1891 177.842 50.7712 177.424 50.2559 177.424Z" fill="url(#paint0_linear_1_1599)"/>
<path d="M44.9307 182.78H34.1743C34.1743 185.462 36.3483 187.635 39.03 187.635H41.0176V189.548C41.0193 192.225 43.187 194.396 45.8639 194.401V183.713C45.8639 183.198 45.4461 182.78 44.9307 182.78Z" fill="url(#paint1_linear_1_1599)"/>
</g>
<g filter="url(#filter1_d_1_1599)">
<path d="M281.411 153.21C294.275 153.21 304.703 142.782 304.703 129.919C304.703 117.055 294.275 106.627 281.411 106.627C268.548 106.627 258.12 117.055 258.12 129.919C258.12 142.782 268.548 153.21 281.411 153.21Z" fill="white"/>
</g>
<path fill-rule="evenodd" clip-rule="evenodd" d="M288.556 130.314C285.518 130.314 283.056 132.777 283.056 135.815C283.056 138.852 285.518 141.314 288.556 141.314C291.593 141.314 294.055 138.852 294.055 135.815C294.055 132.777 291.593 130.314 288.556 130.314ZM274.267 130.315C271.23 130.315 268.767 132.777 268.767 135.815C268.767 138.852 271.23 141.314 274.267 141.314C277.304 141.314 279.767 138.852 279.767 135.815C279.767 132.777 277.304 130.315 274.267 130.315ZM286.911 123.44C286.911 126.478 284.449 128.94 281.411 128.94C278.374 128.94 275.912 126.478 275.912 123.44C275.912 120.403 278.374 117.94 281.411 117.94C284.449 117.94 286.911 120.403 286.911 123.44Z" fill="#F06A6A"/>
<g filter="url(#filter2_d_1_1599)">
<path d="M282.611 79.7141C295.474 79.7141 305.902 69.2861 305.902 56.4225C305.902 43.5589 295.474 33.1309 282.611 33.1309C269.747 33.1309 259.319 43.5589 259.319 56.4225C259.319 69.2861 269.747 79.7141 282.611 79.7141Z" fill="white"/>
</g>
<path d="M273.645 63.2421C273.092 63.2433 272.548 63.0977 272.071 62.8202C271.592 62.5426 271.196 62.143 270.923 61.6623C270.653 61.185 270.519 60.6433 270.534 60.0956C270.549 59.5478 270.713 59.0144 271.008 58.5525L276.615 49.7484C276.902 49.2752 277.309 48.8866 277.795 48.6224C278.282 48.3582 278.829 48.2278 279.382 48.2446C279.935 48.2578 280.474 48.4177 280.945 48.7078C281.415 48.9979 281.8 49.4078 282.061 49.8956C282.583 50.8839 282.518 52.0729 281.892 53.0006L276.289 61.8048C276.005 62.2476 275.614 62.6114 275.152 62.8628C274.689 63.114 274.171 63.2445 273.645 63.2421Z" fill="#F62B54"/>
<path d="M283.262 63.2418C282.131 63.2418 281.091 62.6371 280.544 61.6655C280.275 61.1895 280.142 60.6493 280.157 60.1029C280.172 59.5566 280.336 59.0246 280.63 58.5641L286.225 49.7801C286.508 49.3003 286.914 48.9049 287.401 48.6347C287.888 48.3647 288.439 48.2299 288.995 48.2442C290.136 48.2691 291.17 48.907 291.692 49.9048C292.211 50.9026 292.135 52.0987 291.49 53.024L285.896 61.8081C285.612 62.2489 285.222 62.6114 284.762 62.862C284.302 63.1125 283.786 63.2432 283.262 63.2418Z" fill="#FFCC00"/>
<path d="M292.664 63.3157C294.258 63.3157 295.551 62.0506 295.551 60.4899C295.551 58.9292 294.258 57.6641 292.664 57.6641C291.07 57.6641 289.777 58.9292 289.777 60.4899C289.777 62.0506 291.07 63.3157 292.664 63.3157Z" fill="#00CA72"/>
<g filter="url(#filter3_d_1_1599)">
<path d="M219.599 200.441C227.936 200.441 234.695 193.682 234.695 185.344C234.695 177.007 227.936 170.248 219.599 170.248C211.261 170.248 204.503 177.007 204.503 185.344C204.503 193.682 211.261 200.441 219.599 200.441Z" fill="white"/>
</g>
<path d="M225.898 177.517H213.299C212.455 177.517 211.77 178.201 211.77 179.045V191.643C211.77 192.488 212.455 193.172 213.299 193.172H225.898C226.742 193.172 227.427 192.488 227.427 191.643V179.045C227.427 178.201 226.742 177.517 225.898 177.517Z" fill="url(#paint2_linear_1_1599)"/>
<path d="M224.658 179.552H221.351C220.945 179.552 220.616 179.881 220.616 180.286V185.668C220.616 186.073 220.945 186.401 221.351 186.401H224.658C225.063 186.401 225.391 186.073 225.391 185.668V180.286C225.391 179.881 225.063 179.552 224.658 179.552Z" fill="white"/>
<path d="M217.846 179.552H214.539C214.134 179.552 213.805 179.881 213.805 180.286V189.581C213.805 189.987 214.134 190.315 214.539 190.315H217.846C218.252 190.315 218.581 189.987 218.581 189.581V180.286C218.581 179.881 218.252 179.552 217.846 179.552Z" fill="white"/>
<g filter="url(#filter4_d_1_1599)">
<path d="M129.884 200.441C138.221 200.441 144.98 193.682 144.98 185.344C144.98 177.007 138.221 170.248 129.884 170.248C121.546 170.248 114.787 177.007 114.787 185.344C114.787 193.682 121.546 200.441 129.884 200.441Z" fill="white"/>
</g>
<path d="M125.394 185.28C125.394 185.28 126.147 184.104 127.171 184.104C128.721 184.057 129.997 187.068 130.225 187.492C131.957 183.351 134.828 179.845 137.151 177.517H122.797C122.797 178.951 122.797 193.421 122.797 194.621C122.797 195.28 122.728 195.891 122.614 196.527C124.483 196.197 126.328 195.727 128.105 195.068C132.458 193.397 134.167 191.633 134.167 191.633L134.281 191.515L134.349 191.657C134.623 192.363 135.033 192.997 135.443 193.633C136.035 194.409 136.354 194.48 136.582 194.409C136.833 194.339 136.97 193.891 137.038 193.209C137.106 192.503 137.151 190.974 137.151 189.068V178.834C132.982 184.363 129.86 192.645 129.86 192.645C129.86 192.645 127.787 185.257 125.394 185.28Z" fill="#003059"/>
<g filter="url(#filter5_d_1_1599)">
<path d="M126.556 54.6545C139.419 54.6545 149.847 44.2265 149.847 31.3629C149.847 18.4993 139.419 8.07129 126.556 8.07129C113.692 8.07129 103.264 18.4993 103.264 31.3629C103.264 44.2265 113.692 54.6545 126.556 54.6545Z" fill="white"/>
</g>
<path d="M125.557 20.4299L115.586 24.5555C115.032 24.7849 115.038 25.5726 115.596 25.7938L125.608 29.764C126.487 30.1129 127.467 30.1129 128.347 29.764L138.359 25.7936C138.917 25.5726 138.923 24.7851 138.368 24.5556L128.398 20.4298C127.488 20.0533 126.466 20.0533 125.557 20.4298" fill="#FCB400"/>
<path d="M127.866 31.9324V41.8509C127.866 42.3225 128.342 42.6456 128.78 42.4718L139.937 38.1415C140.061 38.0922 140.168 38.0066 140.243 37.8958C140.318 37.7852 140.358 37.6544 140.358 37.5205V27.6022C140.358 27.1305 139.882 26.8075 139.444 26.9812L128.287 31.3116C128.163 31.361 128.056 31.4466 127.981 31.5572C127.906 31.6679 127.866 31.7985 127.866 31.9324Z" fill="#18BFFF"/>
<path d="M125.261 32.4442L121.95 34.0429L121.613 34.2054L114.624 37.5543C114.181 37.768 113.616 37.4452 113.616 36.9529V27.6438C113.616 27.4658 113.707 27.3121 113.829 27.1963C113.88 27.1464 113.937 27.1036 113.999 27.0694C114.165 26.9692 114.404 26.9425 114.607 27.0225L125.205 31.222C125.744 31.4357 125.786 32.1904 125.261 32.4442Z" fill="#F82B60"/>
<path d="M125.261 32.4442L121.949 34.0429L113.829 27.1962C113.88 27.1463 113.936 27.1036 113.998 27.0694C114.165 26.9692 114.404 26.9425 114.607 27.0225L125.205 31.222C125.744 31.4357 125.786 32.1904 125.261 32.4442Z" fill="black" fill-opacity="0.25"/>
<g filter="url(#filter6_d_1_1599)">
<path d="M209.196 41.4087C217.534 41.4087 224.292 34.6498 224.292 26.3122C224.292 17.9747 217.534 11.2158 209.196 11.2158C200.858 11.2158 194.1 17.9747 194.1 26.3122C194.1 34.6498 200.858 41.4087 209.196 41.4087Z" fill="white"/>
</g>
<path fill-rule="evenodd" clip-rule="evenodd" d="M204.407 20.8105C204.909 21.2182 205.097 21.1871 206.039 21.1242L214.921 20.5909C215.109 20.5909 214.953 20.4029 214.89 20.3717L213.415 19.3053C213.132 19.0858 212.756 18.8346 212.034 18.8974L203.433 19.5247C203.12 19.5558 203.057 19.7127 203.182 19.8384L204.407 20.8105ZM204.94 22.8805V32.2262C204.94 32.7285 205.191 32.9164 205.756 32.8853L215.518 32.3205C216.083 32.2894 216.146 31.9439 216.146 31.5359V22.2529C216.146 21.8456 215.989 21.626 215.644 21.6573L205.442 22.2529C205.066 22.2846 204.94 22.4729 204.94 22.8805ZM214.577 23.3819C214.639 23.6644 214.577 23.9467 214.294 23.9785L213.824 24.0722V30.9718C213.415 31.1912 213.039 31.3167 212.725 31.3167C212.223 31.3167 212.097 31.1597 211.72 30.6896L208.643 25.8599V30.5328L209.617 30.7524C209.617 30.7524 209.617 31.3167 208.832 31.3167L206.666 31.4423C206.603 31.3167 206.666 31.0034 206.886 30.9405L207.452 30.7839V24.6055L206.666 24.5426C206.604 24.2601 206.76 23.8527 207.201 23.8211L209.523 23.6645L212.725 28.5571V24.229L211.908 24.1353C211.845 23.7899 212.097 23.5391 212.411 23.508L214.577 23.3819ZM202.711 18.678L211.657 18.0192C212.756 17.925 213.039 17.9881 213.729 18.4896L216.585 20.4968C217.056 20.8419 217.214 20.9359 217.214 21.3122V32.3205C217.214 33.0104 216.961 33.4184 216.083 33.4808L205.694 34.1082C205.034 34.1396 204.72 34.0456 204.375 33.6063L202.272 30.8778C201.895 30.3755 201.738 29.9998 201.738 29.5602V19.7752C201.738 19.2111 201.99 18.7404 202.711 18.678Z" fill="black"/>
<g filter="url(#filter7_d_1_1599)">
<path d="M82.4372 140.055C90.7747 140.055 97.5336 133.296 97.5336 124.959C97.5336 116.621 90.7747 109.862 82.4372 109.862C74.0997 109.862 67.3408 116.621 67.3408 124.959C67.3408 133.296 74.0997 140.055 82.4372 140.055Z" fill="white"/>
</g>
<path d="M78.1219 116.292H87.3113C89.2499 116.292 90.8239 117.866 90.8239 119.804V128.995C90.8239 130.933 89.2499 132.507 87.3113 132.507H78.1219C76.1832 132.507 74.6093 130.933 74.6093 128.995V119.804C74.6093 117.866 76.1832 116.292 78.1219 116.292Z" fill="#FFD02F"/>
<path d="M85.8766 118.316H84.0963L85.5791 120.922L82.316 118.316H80.5357L82.1672 121.503L78.7554 118.316H76.975L78.7554 122.371L76.975 130.481H78.7554L82.1672 121.79L80.5357 130.481H82.316L85.5791 121.215L84.0963 130.481H85.8766L89.1397 120.342L85.8766 118.316Z" fill="#050038"/>
<g filter="url(#filter8_d_1_1599)">
<path d="M32.8346 105.548C45.6982 105.548 56.1262 95.12 56.1262 82.2564C56.1262 69.3928 45.6982 58.9648 32.8346 58.9648C19.971 58.9648 9.54297 69.3928 9.54297 82.2564C9.54297 95.12 19.971 105.548 32.8346 105.548Z" fill="white"/>
</g>
<path d="M25.5064 80.2803C26.8429 80.2803 27.4728 80.5039 28.4406 81.3845L33.633 86.109C33.7866 86.2488 33.8173 86.3047 33.8481 86.3885C33.8634 86.4166 33.8634 86.4585 33.8634 86.4864C33.8634 86.5144 33.8634 86.5563 33.8481 86.5843C33.8173 86.6682 33.7866 86.7241 33.633 86.8638L30.0843 90.1067C29.9307 90.2464 29.8693 90.2744 29.7771 90.3024C29.7463 90.3164 29.7003 90.3164 29.6695 90.3164C29.6388 90.3164 29.5927 90.3164 29.562 90.3024C29.4699 90.2744 29.4084 90.2464 29.2548 90.1067L19.1926 80.9512C18.9007 80.6856 19.0083 80.2803 19.4999 80.2803H25.5064Z" fill="#08CF65"/>
<path d="M40.1623 74.5071C38.8258 74.5071 38.196 74.7308 37.2282 75.6114L32.0357 80.3359C31.8821 80.4757 31.8514 80.5317 31.8206 80.6155C31.8053 80.6434 31.8053 80.6854 31.8053 80.7133C31.8053 80.7413 31.8053 80.7832 31.8206 80.8112C31.8514 80.895 31.8821 80.9509 32.0357 81.0908L35.5844 84.3196C35.738 84.4594 35.7995 84.4874 35.8916 84.5153C35.9224 84.5293 35.9684 84.5293 35.9992 84.5293C36.0299 84.5293 36.076 84.5293 36.1067 84.5153C36.1989 84.4874 36.2603 84.4594 36.4139 84.3196L46.4762 75.1641C46.768 74.8986 46.6605 74.4932 46.1688 74.4932H40.1623V74.5071Z" fill="#08CF65"/>
<g filter="url(#filter9_d_1_1599)">
<path d="M167.839 153.857C191.899 153.857 211.403 134.353 211.403 110.293C211.403 86.2337 191.899 66.7295 167.839 66.7295C143.779 66.7295 124.275 86.2337 124.275 110.293C124.275 134.353 143.779 153.857 167.839 153.857Z" fill="white"/>
</g>
<path d="M144.811 123.976L153.364 117.385C157.908 123.35 162.736 126.1 168.109 126.1C173.455 126.1 178.145 123.383 182.485 117.464L191.159 123.896C184.899 132.431 177.118 136.94 168.109 136.94C159.129 136.94 151.273 132.459 144.811 123.976Z" fill="url(#paint3_linear_1_1599)"/>
<path d="M168.082 95.3367L152.859 108.532L145.822 100.323L168.114 80.999L190.23 100.337L183.161 108.518L168.082 95.3367Z" fill="url(#paint4_linear_1_1599)"/>
<path fill-rule="evenodd" clip-rule="evenodd" d="M126.426 0.713868C126.122 0.714008 125.818 0.718614 125.515 0.72762L125.522 0.955835L125.535 1.41227L125.542 1.64048C125.838 1.63167 126.136 1.6272 126.433 1.62713C126.732 1.6272 127.029 1.63167 127.326 1.64048L127.332 1.41227L127.346 0.955835L127.352 0.72762C127.05 0.718614 126.746 0.714008 126.441 0.713868C126.436 0.713866 126.431 0.713868 126.426 0.713868ZM123.671 0.837612C123.054 0.892974 122.442 0.966642 121.837 1.05807L121.871 1.28383L121.939 1.73535L121.973 1.96111C122.56 1.87241 123.154 1.80093 123.752 1.74722L123.732 1.51981L123.691 1.06501L123.671 0.837612ZM120.018 1.38934C119.412 1.51868 118.814 1.66592 118.222 1.83048L118.283 2.05045L118.406 2.49037L118.467 2.71033C119.04 2.55071 119.621 2.40791 120.208 2.28245L120.161 2.05918L120.065 1.61263L120.018 1.38934ZM116.457 2.37991C115.873 2.58147 115.297 2.80023 114.73 3.03557L114.817 3.24647L114.992 3.66827L115.08 3.87917C115.629 3.6509 116.188 3.43873 116.755 3.24322L116.681 3.02739L116.532 2.59574L116.457 2.37991ZM113.045 3.79509C112.49 4.06584 111.943 4.35287 111.408 4.65557L111.521 4.85433L111.745 5.25186L111.858 5.45062C112.377 5.15697 112.906 4.87853 113.445 4.6159L113.344 4.4107L113.144 4.0003L113.045 3.79509ZM109.827 5.61322C109.31 5.9486 108.803 6.29919 108.308 6.66435L108.443 6.84815L108.714 7.21573L108.849 7.39952C109.33 7.04521 109.822 6.70507 110.324 6.37969L110.2 6.18807L109.952 5.80484L109.827 5.61322ZM106.853 7.80509C106.38 8.19997 105.919 8.60887 105.47 9.03115L105.627 9.19737L105.94 9.52978L106.097 9.696C106.531 9.28626 106.979 8.8895 107.438 8.50635L107.292 8.33104L107 7.98041L106.853 7.80509ZM104.163 10.3379C103.741 10.7863 103.332 11.2475 102.938 11.7209L103.113 11.8671L103.464 12.1597L103.639 12.3059C104.022 11.8466 104.419 11.3991 104.828 10.9641L104.662 10.8075L104.33 10.4945L104.163 10.3379ZM101.797 13.1749C101.432 13.6704 101.081 14.1773 100.746 14.6949L100.938 14.819L101.32 15.0674L101.512 15.1915C101.837 14.6893 102.178 14.1975 102.532 13.7167L102.348 13.5813L101.981 13.3104L101.797 13.1749ZM99.7879 16.2758C99.4856 16.8113 99.1979 17.3569 98.9276 17.9119L99.1331 18.012L99.5431 18.2122L99.7486 18.3123C100.011 17.7739 100.289 17.2447 100.583 16.7251L100.384 16.6128L99.987 16.3881L99.7879 16.2758ZM98.1678 19.597C97.9331 20.1645 97.7139 20.7405 97.512 21.3248L97.7285 21.3992L98.1595 21.5481L98.376 21.6227C98.5714 21.0561 98.7833 20.4973 99.0116 19.9467L98.8007 19.8593L98.3787 19.6844L98.1678 19.597ZM96.9632 23.0896C96.7988 23.6811 96.6508 24.2797 96.5221 24.885L96.7449 24.9328L97.1915 25.0281L97.4152 25.0759C97.5404 24.4888 97.6828 23.908 97.8426 23.3344L97.6225 23.2732L97.1833 23.1507L96.9632 23.0896ZM96.1906 26.7042C96.0992 27.3098 96.0252 27.9214 95.9705 28.5381L96.1979 28.5585L96.6527 28.5994L96.8801 28.6197C96.933 28.0213 97.0052 27.428 97.0938 26.8404L96.8682 26.8064L96.4161 26.7382L96.1906 26.7042ZM95.86 30.3821C95.8508 30.6897 95.8463 30.9984 95.8463 31.3082C95.8463 31.618 95.8508 31.9267 95.86 32.2342L96.0883 32.2275L96.5449 32.2139L96.7732 32.2071C96.7641 31.9086 96.7595 31.6089 96.7595 31.3082C96.7595 31.0075 96.7641 30.7078 96.7732 30.4093L96.5449 30.4025L96.0883 30.3889L95.86 30.3821ZM95.9705 34.0783C96.0252 34.695 96.0992 35.3066 96.1906 35.9122L96.4161 35.8782L96.8682 35.81L97.0938 35.776C97.0052 35.1884 96.933 34.5951 96.8801 33.9967L96.6527 34.0171L96.1979 34.0579L95.9705 34.0783ZM96.5221 37.7314C96.6508 38.3367 96.7988 38.9353 96.9632 39.5268L97.1833 39.4657L97.6225 39.3432L97.8426 39.282C97.6828 38.7084 97.5404 38.1276 97.4152 37.5405L97.1915 37.5883L96.7449 37.6836L96.5221 37.7314ZM97.512 41.2916C97.7139 41.8758 97.9331 42.4519 98.1678 43.0194L98.3787 42.932L98.8007 42.7571L99.0116 42.6697C98.7833 42.1191 98.5714 41.5603 98.376 40.9937L98.1595 41.0682L97.7285 41.2172L97.512 41.2916ZM98.9276 44.7045C99.1979 45.2595 99.4856 45.8051 99.7879 46.3406L99.987 46.2283L100.384 46.0036L100.583 45.8913C100.289 45.3717 100.011 44.8425 99.7486 44.3041L99.5431 44.4042L99.1331 44.6044L98.9276 44.7045ZM100.746 47.9215C101.081 48.4391 101.432 48.946 101.797 49.4415L101.981 49.306L102.348 49.0351L102.532 48.8997C102.178 48.4189 101.837 47.9271 101.512 47.4249L101.32 47.549L100.938 47.7974L100.746 47.9215ZM102.938 50.8955C103.332 51.3689 103.741 51.83 104.163 52.2785L104.33 52.1219L104.662 51.8089L104.828 51.6523C104.419 51.2172 104.022 50.7698 103.639 50.3105L103.464 50.4567L103.113 50.7493L102.938 50.8955ZM105.47 53.5853C105.919 54.0075 106.38 54.4164 106.853 54.8113L107 54.636L107.292 54.2854L107.438 54.11C106.979 53.7269 106.531 53.3301 106.097 52.9204L105.94 53.0866L105.627 53.419L105.47 53.5853ZM108.308 55.9521C108.803 56.3172 109.31 56.6678 109.827 57.0031L109.952 56.8115L110.2 56.4283L110.324 56.2367C109.822 55.9113 109.33 55.5711 108.849 55.2169L108.714 55.4006L108.443 55.7682L108.308 55.9521ZM111.408 57.9608C111.943 58.2635 112.49 58.5506 113.045 58.8213L113.144 58.6161L113.344 58.2057L113.445 58.0005C112.906 57.7379 112.377 57.4594 111.858 57.1658L111.745 57.3645L111.521 57.7621L111.408 57.9608ZM114.73 59.5808C115.297 59.8162 115.873 60.0349 116.457 60.2365L116.532 60.0207L116.681 59.589L116.755 59.3732C116.188 59.1777 115.629 58.9655 115.08 58.7372L114.992 58.9481L114.817 59.37L114.73 59.5808ZM118.222 60.7859C118.814 60.9504 119.412 61.0978 120.018 61.2271L120.065 61.0038L120.161 60.5572L120.208 60.3339C119.621 60.2085 119.04 60.0657 118.467 59.906L118.406 60.126L118.283 60.566L118.222 60.7859ZM121.837 61.5583C122.442 61.6497 123.054 61.7234 123.671 61.7788L123.691 61.5514L123.732 61.0966L123.752 60.8692C123.154 60.8155 122.56 60.744 121.973 60.6553L121.939 60.881L121.871 61.3326L121.837 61.5583ZM125.515 61.8887C125.822 61.898 126.131 61.9025 126.441 61.9025V61.6742V61.2176V60.9893C126.14 60.9893 125.841 60.9848 125.542 60.9759L125.535 61.2042L125.522 61.6606L125.515 61.8887ZM130.895 1.96111C130.306 1.87241 129.714 1.80093 129.115 1.74722L129.136 1.51981L129.176 1.06501L129.197 0.837612C129.813 0.892974 130.425 0.966642 131.031 1.05807L130.997 1.28383L130.928 1.73535L130.895 1.96111ZM134.401 2.71033C133.826 2.55071 133.246 2.4079 132.659 2.28245L132.706 2.05918L132.801 1.61263L132.85 1.38934C133.454 1.51868 134.054 1.66592 134.645 1.83048L134.584 2.05045L134.462 2.49037L134.401 2.71033ZM137.788 3.87917C137.237 3.6509 136.678 3.43873 136.112 3.24322L136.186 3.02739L136.336 2.59574L136.41 2.37991C136.994 2.58147 137.571 2.80023 138.138 3.03556L138.05 3.24647L137.876 3.66827L137.788 3.87917ZM141.01 5.45062C140.49 5.15697 139.961 4.87853 139.423 4.6159L139.522 4.4107L139.722 4.0003L139.823 3.79509C140.378 4.06584 140.923 4.35287 141.459 4.65557L141.347 4.85433L141.122 5.25186L141.01 5.45062ZM144.018 7.39951C143.537 7.04521 143.046 6.70507 142.543 6.37969L142.667 6.18807L142.916 5.80484L143.04 5.61322C143.557 5.94859 144.064 6.29919 144.56 6.66435L144.425 6.84814L144.153 7.21573L144.018 7.39951ZM146.771 9.696C146.335 9.28626 145.888 8.8895 145.428 8.50635L145.575 8.33104L145.868 7.98041L146.014 7.80509C146.487 8.19997 146.948 8.60887 147.396 9.03115L147.24 9.19736L146.927 9.52978L146.771 9.696ZM149.228 12.3059C148.845 11.8466 148.448 11.3991 148.038 10.9641L148.205 10.8075L148.537 10.4945L148.703 10.3379C149.126 10.7863 149.534 11.2475 149.93 11.7209L149.754 11.8671L149.404 12.1597L149.228 12.3059ZM151.355 15.1915C151.029 14.6893 150.69 14.1975 150.335 13.7167L150.519 13.5813L150.887 13.3104L151.07 13.1749C151.436 13.6704 151.786 14.1773 152.122 14.6949L151.93 14.819L151.546 15.0674L151.355 15.1915ZM153.119 18.3123C152.856 17.7739 152.577 17.2447 152.284 16.7251L152.482 16.6128L152.88 16.3881L153.079 16.2758C153.382 16.8113 153.669 17.3569 153.94 17.9119L153.734 18.012L153.324 18.2122L153.119 18.3123ZM154.491 21.6227C154.296 21.0561 154.084 20.4973 153.856 19.9467L154.066 19.8593L154.488 19.6844L154.699 19.597C154.934 20.1645 155.154 20.7405 155.355 21.3248L155.139 21.3992L154.707 21.5481L154.491 21.6227ZM155.452 25.0759C155.327 24.4888 155.184 23.908 155.024 23.3344L155.244 23.2732L155.684 23.1507L155.904 23.0896C156.069 23.6811 156.216 24.2797 156.345 24.885L156.122 24.9328L155.675 25.0281L155.452 25.0759ZM155.987 28.6197C155.934 28.0213 155.862 27.428 155.774 26.8404L155.999 26.8064L156.45 26.7382L156.677 26.7042C156.768 27.3098 156.841 27.9214 156.897 28.5381L156.67 28.5585L156.215 28.5994L155.987 28.6197ZM156.107 31.3082C156.107 31.0075 156.103 30.7078 156.094 30.4093L156.323 30.4025L156.779 30.3889L157.007 30.3821C157.016 30.6897 157.02 30.9984 157.02 31.3082H156.792H156.335H156.107Z" fill="url(#paint5_linear_1_1599)"/>
<path fill-rule="evenodd" clip-rule="evenodd" d="M16.8628 182.467C16.854 182.766 16.8495 183.065 16.8495 183.366C16.8495 183.666 16.854 183.966 16.8628 184.264L16.6346 184.272L16.1781 184.285L15.95 184.292C15.9408 183.984 15.9362 183.675 15.9362 183.366C15.9362 183.056 15.9408 182.748 15.9499 182.44L16.1781 182.446L16.6346 182.46L16.8628 182.467ZM17.1835 178.898C17.0948 179.485 17.0233 180.079 16.9696 180.677L16.7422 180.657L16.2874 180.616L16.06 180.596C16.1153 179.979 16.189 179.368 16.2804 178.762L16.5062 178.796L16.9577 178.864L17.1835 178.898ZM17.9327 175.392C17.7731 175.966 17.6302 176.546 17.5047 177.134L17.2815 177.086L16.835 176.99L16.6117 176.943C16.741 176.337 16.8883 175.738 17.0529 175.147L17.2728 175.209L17.7127 175.331L17.9327 175.392ZM19.1015 172.005C18.8733 172.555 18.661 173.114 18.4656 173.681L18.2497 173.606L17.8181 173.457L17.6023 173.382C17.8038 172.798 18.0226 172.222 18.2579 171.654L18.4688 171.742L18.8906 171.917L19.1015 172.005ZM20.673 168.783C20.3793 169.302 20.1009 169.831 19.8382 170.37L19.633 170.27L19.2226 170.07L19.0175 169.969C19.2882 169.415 19.5752 168.869 19.8779 168.333L20.0767 168.446L20.4742 168.67L20.673 168.783ZM22.6219 165.775C22.2675 166.255 21.9274 166.747 21.602 167.249L21.4104 167.125L21.0272 166.877L20.8356 166.753C21.171 166.235 21.5216 165.728 21.8867 165.233L22.0705 165.368L22.4381 165.639L22.6219 165.775ZM24.9183 163.022C24.5086 163.457 24.1118 163.904 23.7287 164.364L23.5534 164.217L23.2028 163.925L23.0274 163.778C23.4223 163.305 23.8312 162.844 24.2535 162.395L24.4197 162.553L24.7521 162.865L24.9183 163.022ZM27.5283 160.564C27.069 160.947 26.6215 161.344 26.1864 161.753L26.0299 161.587L25.7168 161.255L25.5603 161.089C26.0087 160.667 26.4699 160.258 26.9432 159.863L27.0895 160.038L27.382 160.389L27.5283 160.564ZM30.4138 158.437C29.9116 158.762 29.4198 159.103 28.9391 159.457L28.8036 159.273L28.5328 158.906L28.3972 158.722C28.8928 158.357 29.3996 158.006 29.9173 157.671L30.0414 157.862L30.2897 158.246L30.4138 158.437ZM33.5346 156.674C32.9963 156.936 32.467 157.215 31.9475 157.509L31.8351 157.309L31.6105 156.912L31.498 156.713C32.0337 156.411 32.5793 156.123 33.1342 155.853L33.2343 156.058L33.4345 156.468L33.5346 156.674ZM36.8449 155.301C36.2783 155.497 35.7196 155.709 35.1691 155.937L35.0817 155.726L34.9067 155.304L34.8193 155.093C35.3868 154.858 35.9629 154.639 36.5471 154.437L36.6215 154.654L36.7705 155.085L36.8449 155.301ZM40.2983 154.34C39.7111 154.466 39.1304 154.608 38.5568 154.768L38.4955 154.548L38.3731 154.109L38.3119 153.888C38.9034 153.723 39.5021 153.576 40.1074 153.447L40.1551 153.67L40.2505 154.117L40.2983 154.34ZM43.8421 153.804C43.2436 153.858 42.6504 153.93 42.0628 154.019L42.0287 153.793L41.9606 153.341L41.9264 153.116C42.5322 153.024 43.1437 152.95 43.7604 152.895L43.7808 153.122L43.8216 153.577L43.8421 153.804ZM46.5305 153.685C46.2298 153.685 45.9302 153.689 45.6316 153.698L45.6249 153.47L45.6113 153.013L45.6045 152.785C45.9121 152.776 46.2208 152.771 46.5305 152.771V153V153.456V153.685ZM16.06 186.136C16.1153 186.753 16.189 187.364 16.2804 187.97L16.5062 187.936L16.9577 187.867L17.1835 187.833C17.0948 187.246 17.0233 186.653 16.9696 186.054L16.7422 186.075L16.2874 186.116L16.06 186.136ZM16.6117 189.789C16.741 190.394 16.8883 190.993 17.0529 191.584L17.2728 191.523L17.7127 191.401L17.9327 191.34C17.7731 190.766 17.6302 190.185 17.5048 189.598L17.2815 189.645L16.835 189.741L16.6117 189.789ZM17.6023 193.35C17.8038 193.933 18.0226 194.509 18.2579 195.078L18.4688 194.99L18.8906 194.814L19.1015 194.727C18.8733 194.177 18.661 193.618 18.4656 193.051L18.2497 193.126L17.8181 193.275L17.6023 193.35ZM19.0175 196.762C19.2882 197.317 19.5752 197.863 19.878 198.398L20.0767 198.286L20.4742 198.061L20.673 197.949C20.3793 197.429 20.1009 196.9 19.8382 196.362L19.633 196.462L19.2227 196.662L19.0175 196.762ZM20.8356 199.979C21.171 200.497 21.5216 201.004 21.8867 201.499L22.0705 201.363L22.4381 201.092L22.6219 200.957C22.2676 200.477 21.9274 199.984 21.602 199.482L21.4104 199.606L21.0272 199.855L20.8356 199.979ZM23.0274 202.953C23.4223 203.427 23.8312 203.888 24.2535 204.336L24.4197 204.179L24.7521 203.867L24.9183 203.71C24.5086 203.275 24.1118 202.827 23.7287 202.368L23.5534 202.514L23.2028 202.806L23.0274 202.953ZM25.5603 205.643C26.0087 206.065 26.4699 206.474 26.9432 206.869L27.0895 206.693L27.382 206.343L27.5283 206.167C27.069 205.785 26.6215 205.387 26.1864 204.978L26.0299 205.144L25.7168 205.477L25.5603 205.643ZM28.3972 208.009C28.8928 208.375 29.3996 208.725 29.9173 209.06L30.0414 208.87L30.2897 208.486L30.4138 208.294C29.9116 207.969 29.4198 207.628 28.9391 207.274L28.8036 207.459L28.5328 207.826L28.3972 208.009ZM31.4981 210.019C32.0337 210.321 32.5793 210.608 33.1342 210.879L33.2343 210.673L33.4345 210.263L33.5346 210.058C32.9963 209.796 32.467 209.517 31.9475 209.223L31.8351 209.422L31.6105 209.819L31.4981 210.019ZM34.8193 211.639C35.3868 211.873 35.9629 212.093 36.5471 212.294L36.6215 212.078L36.7705 211.647L36.8449 211.43C36.2784 211.235 35.7196 211.023 35.1691 210.795L35.0817 211.006L34.9067 211.428L34.8193 211.639ZM38.3119 212.843C38.9034 213.009 39.5021 213.156 40.1074 213.284L40.1551 213.061L40.2505 212.615L40.2983 212.391C39.7111 212.266 39.1304 212.124 38.5568 211.964L38.4956 212.184L38.3731 212.623L38.3119 212.843ZM41.9265 213.616C42.5322 213.707 43.1437 213.781 43.7604 213.837L43.7808 213.609L43.8216 213.155L43.8421 212.927C43.2436 212.873 42.6504 212.801 42.0628 212.713L42.0287 212.939L41.9606 213.39L41.9265 213.616ZM45.6045 213.946C45.9121 213.956 46.2208 213.96 46.5305 213.96C46.8403 213.96 47.149 213.956 47.4566 213.946L47.4498 213.718L47.4362 213.261L47.4295 213.033C47.1309 213.042 46.8313 213.047 46.5305 213.047C46.2298 213.047 45.9302 213.042 45.6316 213.033L45.6249 213.261L45.6113 213.718L45.6045 213.946ZM49.3007 213.837C49.9174 213.781 50.5289 213.707 51.1346 213.616L51.1005 213.39L51.0324 212.939L50.9983 212.713C50.4107 212.801 49.8175 212.873 49.219 212.927L49.2394 213.155L49.2803 213.609L49.3007 213.837ZM52.9537 213.284C53.559 213.156 54.1577 213.009 54.7492 212.843L54.688 212.623L54.5655 212.184L54.5043 211.964C53.9307 212.124 53.35 212.266 52.7628 212.391L52.8106 212.615L52.906 213.061L52.9537 213.284ZM56.514 212.294C57.0982 212.093 57.6743 211.873 58.2418 211.639L58.1544 211.428L57.9794 211.006L57.892 210.795C57.3415 211.023 56.7827 211.235 56.2161 211.43L56.2906 211.647L56.4395 212.078L56.514 212.294ZM59.9268 210.879C60.4818 210.608 61.0274 210.321 61.563 210.019L61.4506 209.819L61.226 209.422L61.1136 209.223C60.5941 209.517 60.0648 209.796 59.5265 210.058L59.6266 210.263L59.8268 210.673L59.9268 210.879ZM63.1438 209.06C63.6615 208.725 64.1683 208.375 64.6639 208.009L64.5283 207.826L64.2574 207.459L64.122 207.274C63.6413 207.628 63.1495 207.969 62.6473 208.294L62.7714 208.486L63.0197 208.87L63.1438 209.06ZM66.1179 206.869C66.5912 206.474 67.0524 206.065 67.5008 205.643L67.3443 205.477L67.0312 205.144L66.8747 204.978C66.4396 205.387 65.9921 205.785 65.5328 206.167L65.679 206.343L65.9717 206.693L66.1179 206.869ZM68.8076 204.336C69.2299 203.888 69.6388 203.427 70.0337 202.953L69.8583 202.806L69.5077 202.514L69.3324 202.368C68.9492 202.827 68.5524 203.275 68.1427 203.71L68.309 203.867L68.6414 204.179L68.8076 204.336ZM71.1744 201.499C71.5395 201.004 71.8901 200.497 72.2255 199.979L72.0339 199.855L71.6507 199.606L71.4591 199.482C71.1337 199.984 70.7935 200.477 70.4392 200.957L70.623 201.092L70.9906 201.363L71.1744 201.499ZM73.1831 198.398C73.4859 197.863 73.7729 197.317 74.0436 196.762L73.8384 196.662L73.4281 196.462L73.2229 196.362C72.9602 196.9 72.6818 197.429 72.3881 197.949L72.5869 198.061L72.9844 198.286L73.1831 198.398ZM74.8032 195.078C75.0385 194.509 75.2573 193.933 75.4588 193.35L75.243 193.275L74.8113 193.126L74.5955 193.051C74.4 193.618 74.1878 194.177 73.9596 194.727L74.1705 194.814L74.5923 194.99L74.8032 195.078ZM76.0082 191.584C76.1728 190.993 76.32 190.394 76.4494 189.789L76.2261 189.741L75.7795 189.645L75.5563 189.598C75.4309 190.185 75.288 190.766 75.1284 191.34L75.3484 191.401L75.7883 191.523L76.0082 191.584ZM76.7807 187.97C76.8721 187.364 76.9458 186.753 77.0011 186.136L76.7737 186.116L76.3189 186.075L76.0915 186.054C76.0378 186.653 75.9663 187.246 75.8776 187.833L76.1034 187.867L76.5549 187.936L76.7807 187.97ZM77.1111 184.292C77.1203 183.984 77.1249 183.675 77.1249 183.366H76.8966H76.4399H76.2116C76.2116 183.666 76.2071 183.966 76.1983 184.264L76.4265 184.272L76.883 184.285L77.1111 184.292Z" fill="url(#paint6_linear_1_1599)"/>
<path d="M76.6678 183.366C76.6678 166.722 90.161 153.229 106.805 153.229" stroke="white" stroke-width="0.456632" stroke-dasharray="1.83 1.83"/>
<path d="M136.943 123.091C136.943 139.735 123.45 153.229 106.805 153.229" stroke="white" stroke-width="0.456632" stroke-dasharray="1.83 1.83"/>
<path fill-rule="evenodd" clip-rule="evenodd" d="M6.80945 65.6667C6.80003 65.6813 6.79061 65.6959 6.78123 65.7105L6.97332 65.8339L7.3575 66.0808L7.5496 66.2042C7.71103 65.9528 7.87672 65.7032 8.04671 65.4551L7.98062 65.4098C7.99131 65.3938 8.002 65.3779 8.01271 65.362L7.82319 65.2346L7.44415 64.98L7.25463 64.8527C7.08303 65.1081 6.91467 65.3669 6.74965 65.6291L6.80945 65.6667ZM10.1853 62.5125C9.7972 62.9625 9.42065 63.4266 9.05639 63.9044L8.87482 63.7659L8.51168 63.4891L8.3301 63.3507C8.70552 62.8582 9.09364 62.38 9.49369 61.9161L9.66659 62.0652L10.0124 62.3634L10.1853 62.5125ZM12.6872 59.9446C12.2465 60.345 11.8162 60.7604 11.3973 61.1904L11.2337 61.0311L10.9067 60.7124L10.7431 60.5531C11.175 60.1098 11.6186 59.6815 12.0729 59.2687L12.2265 59.4376L12.5336 59.7755L12.6872 59.9446ZM15.481 57.7003C14.9946 58.0446 14.5173 58.4044 14.0501 58.7798L13.907 58.6018L13.6211 58.2458L13.4781 58.0678C13.9599 57.6809 14.452 57.3098 14.9535 56.9549L15.0853 57.1412L15.3491 57.514L15.481 57.7003ZM18.5271 55.8111C18.0019 56.0943 17.4843 56.3939 16.9752 56.7096L16.8549 56.5156L16.6142 56.1275L16.4939 55.9335C17.0187 55.608 17.5522 55.2992 18.0937 55.0073L18.2021 55.2082L18.4188 55.6101L18.5271 55.8111ZM21.7792 54.3034C21.2232 54.5215 20.6734 54.7565 20.1305 55.0082L20.0344 54.8011L19.8423 54.3867L19.7464 54.1796C20.3059 53.9202 20.8727 53.678 21.4457 53.4533L21.529 53.6658L21.6958 54.0909L21.7792 54.3034ZM25.1891 53.1973C24.6106 53.3472 24.0364 53.5145 23.4674 53.6991L23.397 53.4819L23.2561 53.0476L23.1857 52.8304C23.772 52.6402 24.3637 52.4678 24.96 52.3132L25.0173 52.5343L25.1319 52.9763L25.1891 53.1973ZM28.7071 52.5078C28.1144 52.5873 27.5243 52.6848 26.9378 52.7996L26.8938 52.5756L26.806 52.1275L26.762 51.9035C27.3665 51.785 27.9747 51.6846 28.5856 51.6026L28.616 51.8289L28.6768 52.2815L28.7071 52.5078ZM32.2821 52.2452C31.6837 52.2531 31.0863 52.2789 30.4907 52.3226L30.474 52.095L30.4406 51.6395L30.4239 51.4119C31.0377 51.3667 31.6534 51.3401 32.2702 51.332L32.2731 51.5603L32.2791 52.017L32.2821 52.2452ZM35.8628 52.4152C35.2673 52.3506 34.671 52.3043 34.0749 52.276L34.0857 52.0479L34.1073 51.5919L34.1182 51.3637C34.7326 51.3929 35.3473 51.4406 35.9613 51.5072L35.9366 51.7342L35.8874 52.1881L35.8628 52.4152ZM39.3956 53.017C38.8119 52.8806 38.226 52.7625 37.6385 52.6624L37.6768 52.4374L37.7535 51.9872L37.7919 51.7621C38.3975 51.8653 39.0016 51.987 39.6034 52.1277L39.5514 52.35L39.4475 52.7946L39.3956 53.017ZM42.8298 54.0436C42.2661 53.8369 41.6986 53.6484 41.128 53.4779L41.1934 53.2592L41.3242 52.8217L41.3896 52.6029C41.9778 52.7787 42.563 52.9731 43.1441 53.186L43.0655 53.4005L42.9084 53.8292L42.8298 54.0436ZM46.114 55.4785C45.579 55.2052 45.0388 54.9497 44.4943 54.7117L44.5858 54.5024L44.7686 54.0841L44.86 53.8748C45.4213 54.1201 45.9781 54.3835 46.5295 54.6653L46.4256 54.8686L46.2179 55.2752L46.114 55.4785ZM48.4532 56.8091C48.1987 56.649 47.9427 56.4931 47.6854 56.3416L47.8012 56.1448L48.0329 55.7513L48.1487 55.5546C48.4139 55.7107 48.6776 55.8712 48.9397 56.0363L48.8181 56.2295L48.5749 56.6159L48.4532 56.8091ZM5.82961 67.294C5.52667 67.834 5.24178 68.3801 4.97483 68.9314L5.18032 69.0309L5.59131 69.2299L5.79681 69.3294C6.05577 68.7945 6.33216 68.2648 6.62612 67.7407L6.42699 67.629L6.02873 67.4057L5.82961 67.294ZM4.21987 70.6192C3.98441 71.1917 3.76746 71.7688 3.56888 72.3497L3.78493 72.4236L4.21701 72.5713L4.43305 72.6451C4.62566 72.0817 4.83608 71.5219 5.06447 70.9667L4.85333 70.8798L4.43102 70.7061L4.21987 70.6192ZM3.02454 74.1161C2.86062 74.7119 2.71541 75.3109 2.58876 75.9121L2.81217 75.9591L3.259 76.0533L3.48241 76.1003C3.60526 75.5172 3.74609 74.9363 3.90508 74.3584L3.68495 74.2979L3.24468 74.1767L3.02454 74.1161ZM2.26285 77.7314C2.17247 78.3423 2.10085 78.9546 2.04784 79.5675L2.2753 79.5871L2.73024 79.6265L2.9577 79.6462C3.00914 79.0516 3.07861 78.4576 3.16628 77.8651L2.94043 77.8317L2.48871 77.7648L2.26285 77.7314ZM1.94427 81.4128C1.92832 82.0295 1.93101 82.6457 1.95219 83.2608L2.18037 83.253L2.63674 83.2373L2.86491 83.2294C2.84437 82.6326 2.84175 82.0347 2.85722 81.4365L2.62899 81.4306L2.1725 81.4188L1.94427 81.4128ZM2.07131 85.1052C2.12951 85.7188 2.20613 86.3304 2.301 86.939L2.5266 86.9038L2.97778 86.8335L3.20337 86.7983C3.1113 86.2077 3.03696 85.6143 2.98049 85.0189L2.75319 85.0405L2.2986 85.0836L2.07131 85.1052ZM2.64033 88.7557C2.77156 89.3575 2.92088 89.9555 3.08812 90.5488L3.30787 90.4868L3.74737 90.3629L3.96712 90.301C3.80485 89.7253 3.65996 89.1451 3.53264 88.5611L3.30956 88.6097L2.86341 88.707L2.64033 88.7557ZM3.6428 92.312C3.8451 92.8928 4.06506 93.4691 4.30252 94.0381L4.51324 93.9504L4.93467 93.7741L5.1454 93.6865C4.91502 93.1339 4.70161 92.5759 4.50532 92.0115L4.28969 92.0864L3.85843 92.2362L3.6428 92.312ZM5.06525 95.7212C5.33594 96.2737 5.62376 96.819 5.92858 97.356L6.12714 97.2436L6.52427 97.018L6.72283 96.9057C6.42716 96.3842 6.14795 95.8555 5.88535 95.3194L5.68032 95.4198L5.27028 95.6207L5.06525 95.7212ZM6.88926 98.935C7.22439 99.4501 7.576 99.956 7.94395 100.453L8.12739 100.317L8.49424 100.045L8.67767 99.9085C8.3208 99.4272 7.97975 98.9368 7.65469 98.4373L7.46333 98.5615L7.08062 98.8108L6.88926 98.935ZM9.08923 101.903C9.48414 102.373 9.8948 102.834 10.321 103.282L10.4866 103.125L10.8176 102.811L10.9832 102.654C10.5698 102.218 10.1715 101.772 9.7885 101.316L9.61369 101.463L9.26405 101.757L9.08923 101.903ZM11.6344 104.584C12.0823 105.002 12.5451 105.408 13.0226 105.803L13.1679 105.626L13.4587 105.274L13.6041 105.098C13.1408 104.716 12.6918 104.321 12.2572 103.916L12.1015 104.083L11.7901 104.416L11.6344 104.584ZM14.4816 106.935C14.7302 107.117 14.9822 107.295 15.2378 107.47C15.4933 107.646 15.7506 107.816 16.0095 107.983L16.1328 107.79L16.3797 107.406L16.5031 107.214C16.2518 107.052 16.0021 106.887 15.754 106.717C15.5059 106.547 15.2612 106.374 15.02 106.197L14.8854 106.382L14.6162 106.751L14.4816 106.935ZM17.5929 108.934C18.1329 109.237 18.679 109.522 19.2304 109.789L19.3298 109.584L19.5288 109.172L19.6284 108.966C19.0935 108.708 18.5637 108.431 18.0396 108.137L17.928 108.336L17.7046 108.735L17.5929 108.934ZM20.9182 110.543C21.4906 110.779 22.0677 110.996 22.6486 111.195L22.7225 110.978L22.8702 110.546L22.9441 110.331C22.3806 110.138 21.8208 109.927 21.2656 109.699L21.1787 109.911L21.005 110.333L20.9182 110.543ZM24.415 111.739C25.0109 111.903 25.6098 112.049 26.211 112.175L26.258 111.952L26.3522 111.504L26.3992 111.281C25.8161 111.158 25.2352 111.017 24.6573 110.859L24.5968 111.079L24.4756 111.519L24.415 111.739ZM28.0303 112.501C28.6412 112.591 29.2535 112.662 29.8664 112.715L29.886 112.488L29.9254 112.033L29.9451 111.806C29.3505 111.754 28.7565 111.685 28.164 111.597L28.1306 111.823L28.0637 112.275L28.0303 112.501ZM31.7118 112.819C32.3284 112.835 32.9447 112.832 33.5597 112.811L33.5519 112.583L33.5362 112.127L33.5283 111.899C32.9315 111.919 32.3336 111.922 31.7353 111.906L31.7295 112.134L31.7177 112.591L31.7118 112.819ZM35.4041 112.692C36.0177 112.634 36.6293 112.557 37.2379 112.462L37.2027 112.237L37.1324 111.786L37.0973 111.56C36.5067 111.652 35.9132 111.726 35.3179 111.783L35.3394 112.01L35.3825 112.465L35.4041 112.692ZM39.0546 112.123C39.6564 111.992 40.2544 111.843 40.8477 111.675L40.7858 111.456L40.6618 111.017L40.5999 110.796C40.0242 110.959 39.444 111.103 38.86 111.231L38.9086 111.454L39.0059 111.9L39.0546 112.123ZM42.6105 111.121C43.1918 110.919 43.7676 110.699 44.3369 110.461L44.2489 110.25L44.0731 109.828L43.9853 109.618C43.4329 109.848 42.8744 110.062 42.3104 110.259L42.3854 110.474L42.5356 110.905L42.6105 111.121ZM46.0204 109.699C46.5728 109.427 47.1181 109.14 47.6551 108.835L47.5424 108.637L47.317 108.239L47.2043 108.04C46.6833 108.336 46.1545 108.616 45.6186 108.879L45.719 109.083L45.9199 109.493L46.0204 109.699ZM49.2341 107.874C49.749 107.539 50.2551 107.187 50.7516 106.819L50.6157 106.637L50.3438 106.269L50.2078 106.086C49.7262 106.443 49.2354 106.784 48.7359 107.109L48.8605 107.3L49.1095 107.683L49.2341 107.874ZM52.2024 105.674C52.6724 105.279 53.1323 104.868 53.5812 104.443L53.424 104.277L53.1095 103.946L52.9523 103.78C52.5169 104.194 52.0709 104.592 51.615 104.975L51.7618 105.15L52.0555 105.5L52.2024 105.674ZM54.8827 103.13C55.3005 102.681 55.7069 102.218 56.1012 101.741L55.9251 101.595L55.573 101.305L55.397 101.16C55.0144 101.623 54.6201 102.072 54.2148 102.506L54.3818 102.662L54.7157 102.973L54.8827 103.13ZM57.2343 100.282C57.4156 100.034 57.594 99.7816 57.7691 99.5259L57.5808 99.3971L57.204 99.1386L57.0157 99.0099C56.8458 99.2574 56.6726 99.5021 56.4965 99.7432L56.681 99.8784L57.0499 100.147L57.2343 100.282Z" fill="url(#paint7_linear_1_1599)"/>
<path fill-rule="evenodd" clip-rule="evenodd" d="M311.092 130.526C311.092 130.531 311.092 130.535 311.092 130.54H311.321H311.562L311.764 130.546L311.992 130.552C311.992 130.549 311.992 130.544 311.992 130.54H312.006C312.006 130.387 312.005 130.236 312.002 130.083C312.005 129.931 312.006 129.779 312.006 129.626H311.992C311.992 129.623 311.992 129.618 311.992 129.614L311.764 129.621L311.562 129.626H311.321H311.092C311.092 129.631 311.092 129.636 311.092 129.641H311.079C311.083 129.788 311.087 129.936 311.089 130.083C311.087 130.231 311.083 130.378 311.079 130.526H311.092ZM310.758 126.072C310.847 126.66 310.919 127.253 310.973 127.851L311.2 127.831L311.655 127.79L311.882 127.77C311.827 127.153 311.753 126.541 311.661 125.936L311.436 125.97L310.985 126.038L310.758 126.072ZM310.009 122.566C310.169 123.139 310.312 123.72 310.438 124.308L310.66 124.26L311.107 124.164L311.33 124.117C311.201 123.511 311.054 122.913 310.889 122.321L310.67 122.382L310.229 122.505L310.009 122.566ZM308.84 119.179C309.069 119.729 309.28 120.287 309.476 120.854L309.692 120.78L310.123 120.631L310.34 120.557C310.138 119.972 309.92 119.396 309.684 118.829L309.473 118.916L309.051 119.091L308.84 119.179ZM307.269 115.957C307.563 116.476 307.841 117.006 308.103 117.544L308.309 117.443L308.72 117.243L308.924 117.144C308.654 116.589 308.366 116.043 308.064 115.507L307.865 115.62L307.468 115.844L307.269 115.957ZM305.32 112.948C305.674 113.429 306.015 113.921 306.34 114.423L306.532 114.299L306.915 114.051L307.106 113.926C306.771 113.409 306.42 112.902 306.055 112.407L305.871 112.542L305.504 112.813L305.32 112.948ZM303.024 110.196C303.434 110.63 303.83 111.078 304.213 111.537L304.388 111.391L304.739 111.099L304.914 110.953C304.52 110.479 304.111 110.018 303.689 109.569L303.522 109.726L303.19 110.04L303.024 110.196ZM300.414 107.738C300.873 108.121 301.32 108.518 301.755 108.927L301.912 108.761L302.226 108.429L302.382 108.262C301.933 107.84 301.472 107.431 300.999 107.037L300.853 107.212L300.56 107.563L300.414 107.738ZM297.528 105.611C298.03 105.936 298.522 106.277 299.003 106.631L299.139 106.448L299.409 106.08L299.545 105.896C299.049 105.531 298.542 105.18 298.025 104.845L297.9 105.037L297.652 105.419L297.528 105.611ZM294.407 103.848C294.946 104.11 295.475 104.388 295.994 104.682L296.107 104.483L296.331 104.086L296.444 103.887C295.908 103.585 295.362 103.298 294.808 103.027L294.708 103.232L294.508 103.642L294.407 103.848ZM291.097 102.475C291.664 102.67 292.223 102.882 292.773 103.111L292.86 102.9L293.035 102.478L293.123 102.267C292.555 102.032 291.979 101.813 291.395 101.612L291.32 101.828L291.171 102.26L291.097 102.475ZM287.643 101.514C288.231 101.639 288.812 101.783 289.385 101.942L289.446 101.722L289.569 101.282L289.63 101.062C289.039 100.898 288.44 100.75 287.834 100.621L287.787 100.844L287.692 101.291L287.643 101.514ZM284.1 100.979C284.698 101.033 285.292 101.104 285.879 101.193L285.913 100.967L285.981 100.515L286.015 100.29C285.41 100.198 284.799 100.124 284.181 100.07L284.161 100.297L284.12 100.752L284.1 100.979ZM281.411 100.859C281.712 100.859 282.011 100.863 282.31 100.872L282.317 100.644L282.331 100.187L282.337 99.959C282.03 99.9499 281.721 99.9453 281.411 99.9453V100.174V100.63V100.859ZM311.882 132.396C311.827 133.014 311.753 133.625 311.661 134.231L311.436 134.196L310.985 134.129L310.758 134.094C310.847 133.507 310.919 132.913 310.973 132.315L311.2 132.335L311.655 132.376L311.882 132.396ZM311.33 136.049C311.201 136.655 311.054 137.254 310.889 137.845L310.67 137.784L310.229 137.661L310.009 137.6C310.169 137.027 310.312 136.446 310.438 135.858L310.66 135.907L311.107 136.002L311.33 136.049ZM310.34 139.61C310.138 140.195 309.92 140.77 309.684 141.338L309.473 141.25L309.051 141.075L308.84 140.988C309.069 140.438 309.28 139.879 309.476 139.312L309.692 139.386L310.123 139.535L310.34 139.61ZM308.924 143.023C308.654 143.578 308.366 144.124 308.064 144.659L307.865 144.546L307.468 144.322L307.269 144.209C307.563 143.69 307.841 143.161 308.103 142.622L308.309 142.723L308.72 142.923L308.924 143.023ZM307.106 146.24C306.771 146.757 306.42 147.264 306.055 147.76L305.871 147.624L305.504 147.354L305.32 147.218C305.674 146.737 306.015 146.246 306.34 145.744L306.532 145.868L306.915 146.115L307.106 146.24ZM304.914 149.214C304.52 149.687 304.111 150.148 303.689 150.597L303.522 150.441L303.19 150.127L303.024 149.971C303.434 149.536 303.83 149.088 304.213 148.629L304.388 148.775L304.739 149.068L304.914 149.214ZM302.382 151.904C301.933 152.326 301.472 152.735 300.999 153.13L300.853 152.955L300.56 152.604L300.414 152.429C300.873 152.045 301.32 151.649 301.755 151.239L301.912 151.405L302.226 151.737L302.382 151.904ZM299.545 154.271C299.049 154.635 298.542 154.986 298.025 155.322L297.9 155.13L297.652 154.747L297.528 154.555C298.03 154.23 298.522 153.89 299.003 153.536L299.139 153.719L299.409 154.086L299.545 154.271ZM296.444 156.279C295.908 156.582 295.362 156.869 294.808 157.139L294.708 156.935L294.508 156.524L294.407 156.319C294.946 156.056 295.475 155.778 295.994 155.485L296.107 155.683L296.331 156.081L296.444 156.279ZM293.123 157.899C292.555 158.135 291.979 158.353 291.395 158.555L291.32 158.339L291.171 157.907L291.097 157.692C291.664 157.496 292.223 157.284 292.773 157.055L292.86 157.266L293.035 157.688L293.123 157.899ZM289.63 159.105C289.039 159.269 288.44 159.416 287.834 159.546L287.787 159.322L287.692 158.875L287.643 158.653C288.231 158.527 288.812 158.384 289.385 158.224L289.446 158.444L289.569 158.885L289.63 159.105ZM286.015 159.876C285.41 159.968 284.799 160.042 284.181 160.097L284.161 159.87L284.12 159.415L284.1 159.188C284.698 159.134 285.292 159.063 285.879 158.974L285.913 159.2L285.981 159.651L286.015 159.876ZM282.337 160.207C282.03 160.216 281.721 160.221 281.411 160.221C281.102 160.221 280.793 160.216 280.485 160.207L280.492 159.979L280.505 159.523L280.513 159.295C280.811 159.303 281.111 159.307 281.411 159.307C281.712 159.307 282.011 159.303 282.31 159.295L282.317 159.523L282.331 159.979L282.337 160.207ZM278.641 160.097C278.025 160.042 277.413 159.968 276.808 159.876L276.841 159.651L276.91 159.2L276.944 158.974C277.531 159.063 278.125 159.134 278.723 159.188L278.703 159.415L278.661 159.87L278.641 160.097ZM274.988 159.546C274.383 159.416 273.785 159.269 273.193 159.105L273.254 158.885L273.376 158.444L273.438 158.224C274.011 158.384 274.592 158.527 275.179 158.653L275.132 158.875L275.036 159.322L274.988 159.546ZM271.428 158.555C270.844 158.353 270.268 158.135 269.701 157.899L269.787 157.688L269.963 157.266L270.05 157.055C270.6 157.284 271.159 157.496 271.726 157.692L271.651 157.907L271.502 158.339L271.428 158.555ZM268.015 157.139C267.46 156.869 266.914 156.582 266.379 156.279L266.491 156.081L266.716 155.683L266.828 155.485C267.348 155.778 267.877 156.056 268.416 156.319L268.315 156.524L268.115 156.935L268.015 157.139ZM264.798 155.322C264.28 154.986 263.773 154.635 263.278 154.271L263.414 154.086L263.685 153.719L263.82 153.536C264.3 153.89 264.793 154.23 265.295 154.555L265.171 154.747L264.922 155.13L264.798 155.322ZM261.824 153.13C261.351 152.735 260.889 152.326 260.441 151.904L260.598 151.737L260.91 151.405L261.067 151.239C261.502 151.649 261.95 152.045 262.409 152.429L262.263 152.604L261.971 152.955L261.824 153.13ZM259.134 150.597C258.712 150.148 258.303 149.687 257.908 149.214L258.084 149.068L258.435 148.775L258.61 148.629C258.993 149.088 259.39 149.536 259.799 149.971L259.633 150.127L259.3 150.441L259.134 150.597ZM256.768 147.76C256.403 147.264 256.052 146.757 255.717 146.24L255.908 146.115L256.291 145.868L256.483 145.744C256.808 146.246 257.149 146.737 257.503 147.218L257.319 147.354L256.951 147.624L256.768 147.76ZM254.759 144.659C254.456 144.124 254.169 143.578 253.898 143.023L254.104 142.923L254.514 142.723L254.719 142.622C254.981 143.161 255.26 143.69 255.554 144.209L255.355 144.322L254.958 144.546L254.759 144.659ZM253.139 141.338C252.904 140.77 252.685 140.195 252.483 139.61L252.699 139.535L253.13 139.386L253.347 139.312C253.542 139.879 253.754 140.438 253.982 140.988L253.771 141.075L253.349 141.25L253.139 141.338ZM251.934 137.845C251.77 137.254 251.622 136.655 251.493 136.049L251.716 136.002L252.162 135.907L252.386 135.858C252.511 136.446 252.654 137.027 252.813 137.6L252.593 137.661L252.154 137.784L251.934 137.845ZM251.161 134.231C251.07 133.625 250.996 133.014 250.941 132.396L251.169 132.376L251.623 132.335L251.851 132.315C251.904 132.913 251.976 133.507 252.065 134.094L251.839 134.129L251.387 134.196L251.161 134.231ZM250.831 130.552C250.822 130.245 250.817 129.936 250.817 129.626H251.045H251.502H251.73C251.73 129.928 251.735 130.227 251.744 130.526L251.516 130.532L251.059 130.546L250.831 130.552Z" fill="url(#paint8_linear_1_1599)"/>
<path d="M251.274 130.568C251.274 113.923 237.78 100.431 221.136 100.431C204.491 100.431 191.912 113.01 191.912 129.655" stroke="white" stroke-width="0.456632" stroke-dasharray="1.83 1.83"/>
<path fill-rule="evenodd" clip-rule="evenodd" d="M308.396 41.3333C308.474 41.4648 308.552 41.597 308.628 41.7302L308.827 41.616L309.222 41.3877L309.419 41.2736C309.265 41.0053 309.106 40.7403 308.944 40.4785L308.751 40.5985L308.597 40.693C308.506 40.5552 308.414 40.4179 308.32 40.2811L308.132 40.4102L307.755 40.6683L307.566 40.7973C307.736 41.0454 307.902 41.2951 308.064 41.5465L308.256 41.423L308.396 41.3333ZM306.106 38.028C306.476 38.4925 306.835 38.9706 307.181 39.462L307.367 39.3306L307.741 39.0679L307.927 38.9364C307.571 38.43 307.202 37.9373 306.819 37.4584L306.641 37.6009L306.284 37.8856L306.106 38.028ZM303.704 35.3663C304.129 35.7833 304.542 36.2148 304.945 36.6605L305.114 36.5076L305.454 36.2017L305.623 36.0487C305.208 35.5891 304.782 35.1443 304.343 34.7143L304.184 34.8773L303.864 35.2033L303.704 35.3663ZM300.998 33.0169C301.47 33.3795 301.934 33.7574 302.386 34.1503L302.536 33.9779L302.836 33.6331L302.985 33.4607C302.519 33.0556 302.041 32.666 301.553 32.2922L301.415 32.4734L301.137 32.8357L300.998 33.0169ZM298.026 31.0127C298.54 31.3158 299.046 31.6349 299.542 31.9699L299.67 31.7806L299.925 31.402L300.053 31.2127C299.541 30.8674 299.02 30.5384 298.489 30.2259L298.373 30.4226L298.142 30.816L298.026 31.0127ZM294.834 29.3818C295.382 29.621 295.921 29.8768 296.455 30.149L296.559 29.9457L296.766 29.539L296.87 29.3358C296.32 29.0551 295.763 28.7914 295.2 28.545L295.108 28.7542L294.926 29.1726L294.834 29.3818ZM291.469 28.1461C292.041 28.3181 292.609 28.5072 293.17 28.7134L293.249 28.499L293.406 28.0704L293.485 27.8561C292.907 27.6437 292.321 27.4487 291.731 27.2715L291.665 27.4901L291.535 27.9274L291.469 28.1461ZM287.98 27.3226C288.569 27.4248 289.155 27.5447 289.737 27.682L289.789 27.4598L289.894 27.0153L289.947 26.7931C289.347 26.6517 288.743 26.5281 288.136 26.4228L288.096 26.6477L288.019 27.0977L287.98 27.3226ZM284.418 26.9236C285.015 26.9543 285.611 27.003 286.204 27.0695L286.23 26.8426L286.281 26.3888L286.306 26.1619C285.695 26.0934 285.08 26.0433 284.464 26.0117L284.453 26.2396L284.429 26.6957L284.418 26.9236ZM280.832 26.9566C281.431 26.9149 282.028 26.8914 282.625 26.8859L282.622 26.6576L282.619 26.201L282.616 25.9727C282.001 25.9783 281.385 26.0025 280.769 26.0455L280.785 26.2733L280.817 26.7288L280.832 26.9566ZM277.28 27.423C277.868 27.309 278.458 27.2133 279.049 27.1358L279.02 26.9094L278.96 26.4567L278.93 26.2303C278.321 26.3103 277.713 26.4088 277.106 26.5264L277.149 26.7506L277.236 27.1988L277.28 27.423ZM273.808 28.3176C274.38 28.1326 274.955 27.9659 275.531 27.8174L275.474 27.5963L275.36 27.1541L275.303 26.933C274.708 27.0862 274.116 27.2581 273.527 27.4487L273.597 27.6659L273.738 28.1004L273.808 28.3176ZM270.472 29.626C271.018 29.3733 271.566 29.1385 272.12 28.9216L272.037 28.709L271.87 28.2839L271.786 28.0713C271.216 28.295 270.649 28.537 270.088 28.7974L270.184 29.0045L270.375 29.4189L270.472 29.626ZM268.083 30.8662C268.344 30.7159 268.606 30.5698 268.869 30.4283L268.761 30.2273L268.544 29.8252L268.436 29.6242C268.165 29.77 267.895 29.9204 267.627 30.0753L267.741 30.273L267.969 30.6685L268.083 30.8662ZM309.784 42.6362C310.087 43.1763 310.372 43.7223 310.639 44.2736L310.433 44.3732L310.022 44.5722L309.817 44.6716C309.557 44.1368 309.281 43.607 308.987 43.0829L309.186 42.9712L309.585 42.7478L309.784 42.6362ZM311.394 45.9615C311.629 46.534 311.846 47.1111 312.044 47.692L311.829 47.7658L311.397 47.9135L311.18 47.9873C310.987 47.4239 310.777 46.8642 310.549 46.3089L310.76 46.2221L311.182 46.0484L311.394 45.9615ZM312.588 49.4584C312.753 50.0542 312.898 50.6531 313.025 51.2543L312.801 51.3014L312.355 51.3954L312.131 51.4426C312.008 50.8595 311.867 50.2785 311.708 49.7006L311.928 49.6401L312.368 49.519L312.588 49.4584ZM313.351 53.0737C313.44 53.6845 313.513 54.2968 313.566 54.9097L313.338 54.9294L312.883 54.9688L312.656 54.9884C312.604 54.3939 312.534 53.7999 312.447 53.2073L312.673 53.1738L313.124 53.107L313.351 53.0737ZM313.669 56.755C313.685 57.3717 313.682 57.9879 313.661 58.6031L313.433 58.5953L312.976 58.5795L312.748 58.5717C312.769 57.9749 312.772 57.3769 312.756 56.7787L312.985 56.7727L313.44 56.761L313.669 56.755ZM313.542 60.4474C313.484 61.0611 313.408 61.6726 313.313 62.2812L313.087 62.246L312.636 62.1757L312.41 62.1405C312.502 61.55 312.576 60.9566 312.633 60.3611L312.861 60.3827L313.314 60.4258L313.542 60.4474ZM312.973 64.0978C312.842 64.6997 312.692 65.2977 312.525 65.891L312.305 65.829L311.866 65.7051L311.646 65.6432C311.808 65.0676 311.954 64.4873 312.081 63.9033L312.303 63.952L312.75 64.0493L312.973 64.0978ZM311.971 67.6539C311.768 68.2352 311.548 68.8109 311.311 69.3802L311.1 69.2923L310.679 69.1165L310.468 69.0286C310.698 68.4763 310.912 67.9178 311.108 67.3537L311.323 67.4288L311.755 67.5788L311.971 67.6539ZM310.548 71.0638C310.278 71.6162 309.989 72.1613 309.685 72.6984L309.486 72.5857L309.089 72.3603L308.891 72.2476C309.186 71.7266 309.465 71.1978 309.728 70.6618L309.933 70.7624L310.343 70.9633L310.548 71.0638ZM308.724 74.2775C308.389 74.7923 308.038 75.2985 307.67 75.7949L307.486 75.6589L307.119 75.3871L306.935 75.2511C307.292 74.7696 307.634 74.2787 307.959 73.7793L308.15 73.9037L308.533 74.1529L308.724 74.2775ZM306.524 77.2457C306.129 77.7158 305.719 78.1756 305.292 78.6245L305.127 78.4673L304.795 78.1529L304.63 77.9956C305.044 77.5603 305.442 77.1142 305.825 76.6583L306 76.8052L306.349 77.0989L306.524 77.2457ZM303.979 79.926C303.531 80.3438 303.069 80.7502 302.591 81.1446L302.446 80.9685L302.154 80.6164L302.009 80.4403C302.472 80.0578 302.921 79.6634 303.356 79.2581L303.511 79.4251L303.823 79.759L303.979 79.926ZM301.131 82.2776C300.883 82.459 300.631 82.6373 300.375 82.8124C300.12 82.9875 299.863 83.1582 299.604 83.3245L299.48 83.1325L299.234 82.7482L299.11 82.5562C299.362 82.3947 299.611 82.2291 299.859 82.059C300.108 81.889 300.352 81.716 300.594 81.5399L300.728 81.7243L300.997 82.0932L301.131 82.2776ZM298.021 84.2761C297.48 84.5791 296.934 84.864 296.383 85.1309L296.284 84.9254L296.085 84.5144L295.985 84.3089C296.519 84.05 297.05 83.7736 297.573 83.4796L297.686 83.6788L297.909 84.077L298.021 84.2761ZM294.695 85.8859C294.123 86.1213 293.546 86.3383 292.965 86.5368L292.891 86.3208L292.743 85.8888L292.669 85.6727C293.233 85.4801 293.792 85.2697 294.348 85.0413L294.435 85.2524L294.608 85.6747L294.695 85.8859ZM291.198 87.0812C290.602 87.2452 290.003 87.3904 289.402 87.5169L289.355 87.2936L289.261 86.8467L289.214 86.6233C289.797 86.5005 290.378 86.3596 290.956 86.2007L291.016 86.4208L291.138 86.861L291.198 87.0812ZM287.583 87.8429C286.972 87.9333 286.359 88.0049 285.747 88.0579L285.727 87.8305L285.688 87.3755L285.668 87.1481C286.263 87.0966 286.857 87.0272 287.449 86.9395L287.483 87.1653L287.549 87.617L287.583 87.8429ZM283.902 88.1614C283.285 88.1774 282.669 88.1748 282.053 88.1536L282.062 87.9254L282.077 87.469L282.085 87.2409C282.682 87.2614 283.28 87.264 283.878 87.2485L283.884 87.4768L283.895 87.9332L283.902 88.1614ZM280.21 88.0344C279.596 87.9762 278.984 87.8996 278.376 87.8047L278.41 87.5791L278.481 87.128L278.516 86.9024C279.106 86.9945 279.7 87.0688 280.295 87.1252L280.274 87.3526L280.231 87.8072L280.21 88.0344ZM276.559 87.4654C275.957 87.3342 275.359 87.1849 274.766 87.0177L274.828 86.7978L274.952 86.3584L275.013 86.1386C275.589 86.3009 276.169 86.4458 276.754 86.5731L276.704 86.7962L276.608 87.2423L276.559 87.4654ZM273.003 86.4629C272.421 86.2607 271.846 86.0407 271.277 85.8032L271.365 85.5925L271.54 85.171L271.628 84.9604C272.18 85.1908 272.739 85.4041 273.302 85.6005L273.228 85.8161L273.078 86.2473L273.003 86.4629ZM269.593 85.0405C269.04 84.7698 268.495 84.482 267.958 84.1771L268.071 83.9786L268.296 83.5815L268.409 83.3829C268.93 83.6786 269.459 83.9578 269.995 84.2204L269.894 84.4255L269.693 84.8355L269.593 85.0405ZM266.379 83.2165C265.864 82.8814 265.358 82.5297 264.862 82.1617L264.997 81.9784L265.269 81.6115L265.406 81.428C265.887 81.7849 266.378 82.1259 266.878 82.4511L266.753 82.6424L266.504 83.0251L266.379 83.2165ZM263.411 81.0165C262.941 80.6216 262.481 80.2109 262.032 79.7847L262.189 79.6192L262.504 79.2881L262.661 79.1225C263.097 79.5359 263.542 79.9342 263.998 80.3172L263.851 80.492L263.558 80.8417L263.411 81.0165ZM260.73 78.4714C260.313 78.0234 259.907 77.5606 259.512 77.0832L259.688 76.9378L260.04 76.647L260.216 76.5016C260.599 76.9649 260.994 77.414 261.398 77.8485L261.232 78.0042L260.898 78.3157L260.73 78.4714ZM258.379 75.6242C258.198 75.3756 258.019 75.1235 257.845 74.868L258.033 74.7389L258.409 74.4808L258.598 74.3518C258.768 74.5998 258.94 74.8445 259.117 75.0858L258.932 75.2203L258.563 75.4895L258.379 75.6242Z" fill="url(#paint9_linear_1_1599)"/>
<path d="M103.962 125.568C103.962 137.408 94.364 147.006 82.5251 147.006C70.6856 147.006 61.0879 137.408 61.0879 125.568" stroke="url(#paint10_linear_1_1599)" stroke-width="0.456632" stroke-dasharray="1.83 1.83"/>
<path d="M198.078 185.844C198.078 197.683 207.675 207.282 219.515 207.282C231.354 207.282 240.952 197.683 240.952 185.844" stroke="url(#paint11_linear_1_1599)" stroke-width="0.456632" stroke-dasharray="1.83 1.83"/>
<path d="M150.539 186.757C150.539 198.596 140.94 208.195 129.102 208.195C117.262 208.195 107.665 198.596 107.665 186.757" stroke="url(#paint12_linear_1_1599)" stroke-width="0.456632" stroke-dasharray="1.83 1.83"/>
<path d="M188.032 25.5416C188.032 13.7023 197.629 4.10449 209.469 4.10449C221.309 4.10449 230.906 13.7023 230.906 25.5416" stroke="url(#paint13_linear_1_1599)" stroke-width="0.456632" stroke-dasharray="1.83 1.83"/>
<path d="M150.588 187.19C150.588 161.158 171.691 140.055 197.724 140.055" stroke="white" stroke-width="0.456632" stroke-dasharray="1.83 1.83"/>
<path d="M197.724 187.19C197.724 161.158 176.621 140.055 150.589 140.055" stroke="white" stroke-width="0.456632" stroke-dasharray="1.83 1.83"/>
<path d="M142.868 83.8187C173.353 83.8187 184.879 53.681 188.032 24.915" stroke="white" stroke-width="0.456632" stroke-dasharray="1.83 1.83"/>
<path d="M125.527 61.4453C142.172 61.4453 155.665 74.9384 155.665 91.583" stroke="white" stroke-width="0.456632" stroke-dasharray="1.83 1.83"/>
<path d="M56.8766 100.021C74.4912 74.3138 109.61 67.7539 135.317 85.3685" stroke="white" stroke-width="0.456632" stroke-dasharray="1.83 1.83"/>
<path d="M179.96 67.0929C204.349 47.6962 239.598 51.4315 258.688 75.436" stroke="white" stroke-width="0.456632" stroke-dasharray="1.83 1.83"/>
</g>
</g>
</g>
<defs>
<filter id="filter0_d_1_1599" x="15.1089" y="154.914" width="63.0562" height="63.056" filterUnits="userSpaceOnUse" color-interpolation-filters="sRGB">
<feFlood flood-opacity="0" result="BackgroundImageFix"/>
<feColorMatrix in="SourceAlpha" type="matrix" values="0 0 0 0 0 0 0 0 0 0 0 0 0 0 0 0 0 0 127 0" result="hardAlpha"/>
<feOffset dy="4.11825"/>
<feGaussianBlur stdDeviation="4.11825"/>
<feComposite in2="hardAlpha" operator="out"/>
<feColorMatrix type="matrix" values="0 0 0 0 0.343614 0 0 0 0 0.154931 0 0 0 0 0.808333 0 0 0 0.18 0"/>
<feBlend mode="normal" in2="BackgroundImageFix" result="effect1_dropShadow_1_1599"/>
<feBlend mode="normal" in="SourceGraphic" in2="effect1_dropShadow_1_1599" result="shape"/>
</filter>
<filter id="filter1_d_1_1599" x="249.883" y="102.509" width="63.0562" height="63.056" filterUnits="userSpaceOnUse" color-interpolation-filters="sRGB">
<feFlood flood-opacity="0" result="BackgroundImageFix"/>
<feColorMatrix in="SourceAlpha" type="matrix" values="0 0 0 0 0 0 0 0 0 0 0 0 0 0 0 0 0 0 127 0" result="hardAlpha"/>
<feOffset dy="4.11825"/>
<feGaussianBlur stdDeviation="4.11825"/>
<feComposite in2="hardAlpha" operator="out"/>
<feColorMatrix type="matrix" values="0 0 0 0 0.343614 0 0 0 0 0.154931 0 0 0 0 0.808333 0 0 0 0.18 0"/>
<feBlend mode="normal" in2="BackgroundImageFix" result="effect1_dropShadow_1_1599"/>
<feBlend mode="normal" in="SourceGraphic" in2="effect1_dropShadow_1_1599" result="shape"/>
</filter>
<filter id="filter2_d_1_1599" x="251.082" y="29.0126" width="63.0562" height="63.056" filterUnits="userSpaceOnUse" color-interpolation-filters="sRGB">
<feFlood flood-opacity="0" result="BackgroundImageFix"/>
<feColorMatrix in="SourceAlpha" type="matrix" values="0 0 0 0 0 0 0 0 0 0 0 0 0 0 0 0 0 0 127 0" result="hardAlpha"/>
<feOffset dy="4.11825"/>
<feGaussianBlur stdDeviation="4.11825"/>
<feComposite in2="hardAlpha" operator="out"/>
<feColorMatrix type="matrix" values="0 0 0 0 0.343614 0 0 0 0 0.154931 0 0 0 0 0.808333 0 0 0 0.18 0"/>
<feBlend mode="normal" in2="BackgroundImageFix" result="effect1_dropShadow_1_1599"/>
<feBlend mode="normal" in="SourceGraphic" in2="effect1_dropShadow_1_1599" result="shape"/>
</filter>
<filter id="filter3_d_1_1599" x="196.266" y="166.13" width="46.6659" height="46.6654" filterUnits="userSpaceOnUse" color-interpolation-filters="sRGB">
<feFlood flood-opacity="0" result="BackgroundImageFix"/>
<feColorMatrix in="SourceAlpha" type="matrix" values="0 0 0 0 0 0 0 0 0 0 0 0 0 0 0 0 0 0 127 0" result="hardAlpha"/>
<feOffset dy="4.11825"/>
<feGaussianBlur stdDeviation="4.11825"/>
<feComposite in2="hardAlpha" operator="out"/>
<feColorMatrix type="matrix" values="0 0 0 0 0.343614 0 0 0 0 0.154931 0 0 0 0 0.808333 0 0 0 0.18 0"/>
<feBlend mode="normal" in2="BackgroundImageFix" result="effect1_dropShadow_1_1599"/>
<feBlend mode="normal" in="SourceGraphic" in2="effect1_dropShadow_1_1599" result="shape"/>
</filter>
<filter id="filter4_d_1_1599" x="106.551" y="166.13" width="46.6659" height="46.6654" filterUnits="userSpaceOnUse" color-interpolation-filters="sRGB">
<feFlood flood-opacity="0" result="BackgroundImageFix"/>
<feColorMatrix in="SourceAlpha" type="matrix" values="0 0 0 0 0 0 0 0 0 0 0 0 0 0 0 0 0 0 127 0" result="hardAlpha"/>
<feOffset dy="4.11825"/>
<feGaussianBlur stdDeviation="4.11825"/>
<feComposite in2="hardAlpha" operator="out"/>
<feColorMatrix type="matrix" values="0 0 0 0 0.343614 0 0 0 0 0.154931 0 0 0 0 0.808333 0 0 0 0.18 0"/>
<feBlend mode="normal" in2="BackgroundImageFix" result="effect1_dropShadow_1_1599"/>
<feBlend mode="normal" in="SourceGraphic" in2="effect1_dropShadow_1_1599" result="shape"/>
</filter>
<filter id="filter5_d_1_1599" x="95.0275" y="3.95304" width="63.0562" height="63.056" filterUnits="userSpaceOnUse" color-interpolation-filters="sRGB">
<feFlood flood-opacity="0" result="BackgroundImageFix"/>
<feColorMatrix in="SourceAlpha" type="matrix" values="0 0 0 0 0 0 0 0 0 0 0 0 0 0 0 0 0 0 127 0" result="hardAlpha"/>
<feOffset dy="4.11825"/>
<feGaussianBlur stdDeviation="4.11825"/>
<feComposite in2="hardAlpha" operator="out"/>
<feColorMatrix type="matrix" values="0 0 0 0 0.343614 0 0 0 0 0.154931 0 0 0 0 0.808333 0 0 0 0.18 0"/>
<feBlend mode="normal" in2="BackgroundImageFix" result="effect1_dropShadow_1_1599"/>
<feBlend mode="normal" in="SourceGraphic" in2="effect1_dropShadow_1_1599" result="shape"/>
</filter>
<filter id="filter6_d_1_1599" x="185.863" y="7.09757" width="46.6659" height="46.6654" filterUnits="userSpaceOnUse" color-interpolation-filters="sRGB">
<feFlood flood-opacity="0" result="BackgroundImageFix"/>
<feColorMatrix in="SourceAlpha" type="matrix" values="0 0 0 0 0 0 0 0 0 0 0 0 0 0 0 0 0 0 127 0" result="hardAlpha"/>
<feOffset dy="4.11825"/>
<feGaussianBlur stdDeviation="4.11825"/>
<feComposite in2="hardAlpha" operator="out"/>
<feColorMatrix type="matrix" values="0 0 0 0 0.343614 0 0 0 0 0.154931 0 0 0 0 0.808333 0 0 0 0.18 0"/>
<feBlend mode="normal" in2="BackgroundImageFix" result="effect1_dropShadow_1_1599"/>
<feBlend mode="normal" in="SourceGraphic" in2="effect1_dropShadow_1_1599" result="shape"/>
</filter>
<filter id="filter7_d_1_1599" x="59.1043" y="105.744" width="46.6659" height="46.6654" filterUnits="userSpaceOnUse" color-interpolation-filters="sRGB">
<feFlood flood-opacity="0" result="BackgroundImageFix"/>
<feColorMatrix in="SourceAlpha" type="matrix" values="0 0 0 0 0 0 0 0 0 0 0 0 0 0 0 0 0 0 127 0" result="hardAlpha"/>
<feOffset dy="4.11825"/>
<feGaussianBlur stdDeviation="4.11825"/>
<feComposite in2="hardAlpha" operator="out"/>
<feColorMatrix type="matrix" values="0 0 0 0 0.343614 0 0 0 0 0.154931 0 0 0 0 0.808333 0 0 0 0.18 0"/>
<feBlend mode="normal" in2="BackgroundImageFix" result="effect1_dropShadow_1_1599"/>
<feBlend mode="normal" in="SourceGraphic" in2="effect1_dropShadow_1_1599" result="shape"/>
</filter>
<filter id="filter8_d_1_1599" x="1.30646" y="54.8466" width="63.0562" height="63.056" filterUnits="userSpaceOnUse" color-interpolation-filters="sRGB">
<feFlood flood-opacity="0" result="BackgroundImageFix"/>
<feColorMatrix in="SourceAlpha" type="matrix" values="0 0 0 0 0 0 0 0 0 0 0 0 0 0 0 0 0 0 127 0" result="hardAlpha"/>
<feOffset dy="4.11825"/>
<feGaussianBlur stdDeviation="4.11825"/>
<feComposite in2="hardAlpha" operator="out"/>
<feColorMatrix type="matrix" values="0 0 0 0 0.343614 0 0 0 0 0.154931 0 0 0 0 0.808333 0 0 0 0.18 0"/>
<feBlend mode="normal" in2="BackgroundImageFix" result="effect1_dropShadow_1_1599"/>
<feBlend mode="normal" in="SourceGraphic" in2="effect1_dropShadow_1_1599" result="shape"/>
</filter>
<filter id="filter9_d_1_1599" x="114.906" y="62.0452" width="105.865" height="105.865" filterUnits="userSpaceOnUse" color-interpolation-filters="sRGB">
<feFlood flood-opacity="0" result="BackgroundImageFix"/>
<feColorMatrix in="SourceAlpha" type="matrix" values="0 0 0 0 0 0 0 0 0 0 0 0 0 0 0 0 0 0 127 0" result="hardAlpha"/>
<feOffset dy="4.68429"/>
<feGaussianBlur stdDeviation="4.68429"/>
<feComposite in2="hardAlpha" operator="out"/>
<feColorMatrix type="matrix" values="0 0 0 0 0.343614 0 0 0 0 0.154931 0 0 0 0 0.808333 0 0 0 0.18 0"/>
<feBlend mode="normal" in2="BackgroundImageFix" result="effect1_dropShadow_1_1599"/>
<feBlend mode="normal" in="SourceGraphic" in2="effect1_dropShadow_1_1599" result="shape"/>
</filter>
<linearGradient id="paint0_linear_1_1599" x1="2965.34" y1="182.775" x2="1804.95" y2="1538.86" gradientUnits="userSpaceOnUse">
<stop offset="0.18" stop-color="#0052CC"/>
<stop offset="1" stop-color="#2684FF"/>
</linearGradient>
<linearGradient id="paint1_linear_1_1599" x1="3038.65" y1="197.9" x2="1696.37" y2="1676.97" gradientUnits="userSpaceOnUse">
<stop offset="0.18" stop-color="#0052CC"/>
<stop offset="1" stop-color="#2684FF"/>
</linearGradient>
<linearGradient id="paint2_linear_1_1599" x1="994.549" y1="177.517" x2="994.549" y2="1743.06" gradientUnits="userSpaceOnUse">
<stop stop-color="#0091E6"/>
<stop offset="1" stop-color="#0079BF"/>
</linearGradient>
<linearGradient id="paint3_linear_1_1599" x1="144.811" y1="130.685" x2="191.159" y2="130.685" gradientUnits="userSpaceOnUse">
<stop stop-color="#8930FD"/>
<stop offset="1" stop-color="#49CCF9"/>
</linearGradient>
<linearGradient id="paint4_linear_1_1599" x1="145.822" y1="99.724" x2="190.23" y2="99.724" gradientUnits="userSpaceOnUse">
<stop stop-color="#FF02F0"/>
<stop offset="1" stop-color="#FFC800"/>
</linearGradient>
<linearGradient id="paint5_linear_1_1599" x1="125.984" y1="11.2146" x2="157.026" y2="9.58613" gradientUnits="userSpaceOnUse">
<stop stop-color="white"/>
<stop offset="0.984848" stop-color="white" stop-opacity="0"/>
</linearGradient>
<linearGradient id="paint6_linear_1_1599" x1="28.0254" y1="188.615" x2="29.1583" y2="154.032" gradientUnits="userSpaceOnUse">
<stop stop-color="white"/>
<stop offset="0.984848" stop-color="white" stop-opacity="0"/>
</linearGradient>
<linearGradient id="paint7_linear_1_1599" x1="29.8514" y1="82.0809" x2="40.8472" y2="51.0349" gradientUnits="userSpaceOnUse">
<stop stop-color="white"/>
<stop offset="0.984848" stop-color="white" stop-opacity="0"/>
</linearGradient>
<linearGradient id="paint8_linear_1_1599" x1="244.327" y1="130.083" x2="259.503" y2="90.0054" gradientUnits="userSpaceOnUse">
<stop stop-color="white"/>
<stop offset="0.984848" stop-color="white" stop-opacity="0"/>
</linearGradient>
<linearGradient id="paint9_linear_1_1599" x1="288.534" y1="61.9007" x2="266.657" y2="29.6567" gradientUnits="userSpaceOnUse">
<stop stop-color="white"/>
<stop offset="0.984848" stop-color="white" stop-opacity="0"/>
</linearGradient>
<linearGradient id="paint10_linear_1_1599" x1="82.5251" y1="149.279" x2="61.0879" y2="120.372" gradientUnits="userSpaceOnUse">
<stop stop-color="white"/>
<stop offset="0.984848" stop-color="white" stop-opacity="0"/>
</linearGradient>
<linearGradient id="paint11_linear_1_1599" x1="219.515" y1="209.555" x2="240.952" y2="180.647" gradientUnits="userSpaceOnUse">
<stop stop-color="white"/>
<stop offset="0.984848" stop-color="white" stop-opacity="0"/>
</linearGradient>
<linearGradient id="paint12_linear_1_1599" x1="129.102" y1="210.468" x2="107.665" y2="181.56" gradientUnits="userSpaceOnUse">
<stop stop-color="white"/>
<stop offset="0.984848" stop-color="white" stop-opacity="0"/>
</linearGradient>
<linearGradient id="paint13_linear_1_1599" x1="209.469" y1="1.83086" x2="230.906" y2="30.7386" gradientUnits="userSpaceOnUse">
<stop stop-color="white"/>
<stop offset="0.984848" stop-color="white" stop-opacity="0"/>
</linearGradient>
<clipPath id="clip0_1_1599">
<rect width="314.17" height="218.27" fill="white" transform="translate(0.67688 0.256836)"/>
</clipPath>
<clipPath id="clip1_1_1599">
<rect width="314.17" height="218.27" fill="white" transform="translate(0.67688 0.256836)"/>
</clipPath>
<clipPath id="clip2_1_1599">
<rect width="314.163" height="218.27" fill="white" transform="translate(0.680542 0.256836)"/>
</clipPath>
</defs>
</svg>
