<svg width="97" height="17" viewBox="0 0 97 17" fill="none" xmlns="http://www.w3.org/2000/svg">
<g clip-path="url(#clip0_1_1398)">
<path d="M16.6314 6.59819C16.7581 6.47249 16.8847 6.30811 16.8847 6.13407C16.8847 5.84399 16.573 5.72796 16.3392 5.68928L11.4496 4.98343L9.25805 0.583938C9.17039 0.400223 9.0048 0.1875 8.78078 0.1875C8.55675 0.1875 8.39117 0.400223 8.3035 0.583938L6.11194 4.98343L1.22233 5.68928C0.978828 5.72796 0.67688 5.84399 0.67688 6.13407C0.67688 6.30811 0.803503 6.47249 0.920386 6.59819L4.46584 10.0211L3.62818 14.8557C3.62708 14.8633 3.62599 14.8708 3.6249 14.8782C3.61637 14.9366 3.6087 14.989 3.6087 15.0491C3.6087 15.3005 3.73532 15.5325 4.01779 15.5325C4.15415 15.5325 4.28078 15.4842 4.4074 15.4165L8.78078 13.1346L13.1542 15.4165C13.2711 15.4842 13.4074 15.5325 13.5438 15.5325C13.8262 15.5325 13.9431 15.3005 13.9431 15.0491C13.9431 14.9814 13.9431 14.9234 13.9334 14.8557L13.0957 10.0211L16.6314 6.59819Z" fill="#FFC800"/>
<path d="M36.5795 6.59819C36.7061 6.47249 36.8327 6.30811 36.8327 6.13407C36.8327 5.84399 36.5211 5.72796 36.2873 5.68928L31.3977 4.98343L29.2061 0.583938C29.1185 0.400223 28.9529 0.1875 28.7288 0.1875C28.5048 0.1875 28.3392 0.400223 28.2516 0.583938L26.06 4.98343L21.1704 5.68928C20.9269 5.72796 20.625 5.84399 20.625 6.13407C20.625 6.30811 20.7516 6.47249 20.8685 6.59819L24.4139 10.0211L23.5762 14.8557C23.5752 14.8633 23.5741 14.8708 23.573 14.8782C23.5644 14.9366 23.5568 14.989 23.5568 15.0491C23.5568 15.3005 23.6834 15.5325 23.9659 15.5325C24.1022 15.5325 24.2288 15.4842 24.3555 15.4165L28.7288 13.1346L33.1022 15.4165C33.2191 15.4842 33.3555 15.5325 33.4918 15.5325C33.7743 15.5325 33.8912 15.3005 33.8912 15.0491C33.8912 14.9814 33.8912 14.9234 33.8814 14.8557L33.0438 10.0211L36.5795 6.59819Z" fill="#FFC800"/>
<path d="M56.5275 6.59819C56.6542 6.47249 56.7808 6.30811 56.7808 6.13407C56.7808 5.84399 56.4691 5.72796 56.2353 5.68928L51.3457 4.98343L49.1542 0.583938C49.0665 0.400223 48.9009 0.1875 48.6769 0.1875C48.4529 0.1875 48.2873 0.400223 48.1996 0.583938L46.0081 4.98343L41.1185 5.68928C40.875 5.72796 40.573 5.84399 40.573 6.13407C40.573 6.30811 40.6996 6.47249 40.8165 6.59819L44.362 10.0211L43.5243 14.8557C43.5232 14.8633 43.5221 14.8708 43.521 14.8782C43.5125 14.9366 43.5048 14.989 43.5048 15.0491C43.5048 15.3005 43.6314 15.5325 43.9139 15.5325C44.0503 15.5325 44.1769 15.4842 44.3035 15.4165L48.6769 13.1346L53.0503 15.4165C53.1672 15.4842 53.3035 15.5325 53.4399 15.5325C53.7224 15.5325 53.8392 15.3005 53.8392 15.0491C53.8392 14.9814 53.8392 14.9234 53.8295 14.8557L52.9918 10.0211L56.5275 6.59819Z" fill="#FFC800"/>
<path d="M76.4756 6.59819C76.6022 6.47249 76.7288 6.30811 76.7288 6.13407C76.7288 5.84399 76.4172 5.72796 76.1834 5.68928L71.2938 4.98343L69.1022 0.583938C69.0146 0.400223 68.849 0.1875 68.625 0.1875C68.4009 0.1875 68.2353 0.400223 68.1477 0.583938L65.9561 4.98343L61.0665 5.68928C60.823 5.72796 60.5211 5.84399 60.5211 6.13407C60.5211 6.30811 60.6477 6.47249 60.7646 6.59819L64.31 10.0211L63.4724 14.8557C63.4713 14.8633 63.4702 14.8708 63.4691 14.8782C63.4605 14.9366 63.4529 14.989 63.4529 15.0491C63.4529 15.3005 63.5795 15.5325 63.862 15.5325C63.9983 15.5325 64.125 15.4842 64.2516 15.4165L68.625 13.1346L72.9983 15.4165C73.1152 15.4842 73.2516 15.5325 73.3879 15.5325C73.6704 15.5325 73.7873 15.3005 73.7873 15.0491C73.7873 14.9814 73.7873 14.9234 73.7775 14.8557L72.9399 10.0211L76.4756 6.59819Z" fill="#FFC800"/>
<path d="M96.4236 6.59819C96.5503 6.47249 96.6769 6.30811 96.6769 6.13407C96.6769 5.84399 96.3652 5.72796 96.1314 5.68928L91.2418 4.98343L89.0503 0.583938C88.9626 0.400223 88.797 0.1875 88.573 0.1875C88.349 0.1875 88.1834 0.400223 88.0957 0.583938L85.9042 4.98343L81.0146 5.68928C80.7711 5.72796 80.4691 5.84399 80.4691 6.13407C80.4691 6.30811 80.5957 6.47249 80.7126 6.59819L84.2581 10.0211L83.4204 14.8557C83.4193 14.8633 83.4182 14.8708 83.4171 14.8782C83.4086 14.9366 83.4009 14.989 83.4009 15.0491C83.4009 15.3005 83.5275 15.5325 83.81 15.5325C83.9464 15.5325 84.073 15.4842 84.1996 15.4165L88.573 13.1346L92.9464 15.4165C93.0633 15.4842 93.1996 15.5325 93.336 15.5325C93.6185 15.5325 93.7353 15.3005 93.7353 15.0491C93.7353 14.9814 93.7353 14.9234 93.7256 14.8557L92.8879 10.0211L96.4236 6.59819Z" fill="#FFC800"/>
</g>
<defs>
<clipPath id="clip0_1_1398">
<rect width="96" height="16" fill="white" transform="translate(0.67688 0.1875)"/>
</clipPath>
</defs>
</svg>
