<svg width="31" height="32" viewBox="0 0 31 32" fill="none" xmlns="http://www.w3.org/2000/svg">
<g clip-path="url(#clip0_1_1567)">
<path d="M27.8319 26.3224C28.4564 24.6186 29.2769 21.4073 29.2769 16.2944C29.2769 14.7559 29.0096 10.9973 29.0096 10.9973C29.0096 10.9973 24.198 9.91504 15.3768 9.91504C6.55568 9.91504 1.47683 10.9973 1.47683 10.9973L1.47681 16.2944C1.47681 21.5081 2.32997 24.7148 2.95853 26.3698C3.32231 27.3277 4.07262 28.0481 5.05574 28.3367C6.65238 28.8054 9.7754 29.3959 15.3768 29.3959C20.8289 29.3959 23.9329 28.8622 25.5669 28.4213C26.6346 28.1333 27.4513 27.3607 27.8319 26.3224Z" fill="#4AB9FD" fill-opacity="0.1"/>
<path d="M29.2769 16.7033C29.2769 19.8754 29.1086 22.3745 28.9056 24.2353C28.6194 26.8582 26.6364 28.7933 24.0097 29.042C21.9844 29.2337 19.1562 29.3954 15.3768 29.3954C11.5974 29.3954 8.76931 29.2337 6.74404 29.042C4.11729 28.7933 2.13427 26.8582 1.84809 24.2353C1.64507 22.3745 1.47681 19.8754 1.47681 16.7033C1.47681 14.5228 1.55632 12.6164 1.67197 10.9968C1.72516 10.2519 1.786 9.56767 1.85026 8.94532C2.14087 6.13105 4.28459 4.0197 7.1021 3.76228C9.14272 3.57584 11.8881 3.4209 15.3768 3.4209C18.8656 3.4209 21.611 3.57584 23.6516 3.76228C26.4691 4.0197 28.6128 6.13105 28.9034 8.94532C28.9677 9.56767 29.0285 10.2519 29.0817 10.9968C29.1974 12.6164 29.2769 14.5228 29.2769 16.7033Z" fill="#4AB9FD" fill-opacity="0.1"/>
<path d="M29.0817 10.9968C29.0285 10.2519 28.9677 9.56767 28.9034 8.94532C28.6128 6.13105 26.4691 4.0197 23.6516 3.76228C21.611 3.57584 18.8656 3.4209 15.3768 3.4209C11.8881 3.4209 9.14272 3.57584 7.1021 3.76228C4.28459 4.0197 2.14087 6.13105 1.85026 8.94532C1.786 9.56767 1.72516 10.2519 1.67197 10.9968M29.0817 10.9968C29.1974 12.6164 29.2769 14.5228 29.2769 16.7033C29.2769 19.8754 29.1086 22.3745 28.9056 24.2353C28.6194 26.8582 26.6364 28.7933 24.0097 29.042C21.9844 29.2337 19.1562 29.3954 15.3768 29.3954C11.5974 29.3954 8.76931 29.2337 6.74404 29.042C4.11729 28.7933 2.13427 26.8582 1.84809 24.2353C1.64507 22.3745 1.47681 19.8754 1.47681 16.7033C1.47681 14.5228 1.55632 12.6164 1.67197 10.9968M29.0817 10.9968C29.0817 10.9968 23.9366 9.91452 15.3768 9.91452C6.81707 9.91452 1.67197 10.9968 1.67197 10.9968" stroke="#4AB9FD" stroke-width="2" stroke-linecap="round" stroke-linejoin="round"/>
<path d="M7.9337 1.25684C7.9337 1.25684 7.89257 2.11363 7.89257 6.12706M22.8207 1.25684C22.8207 1.25684 22.8618 2.11363 22.8618 6.12706" stroke="#4AB9FD" stroke-width="2" stroke-linecap="round" stroke-linejoin="round"/>
<path d="M20.7226 19.1143H10.0303M20.7226 19.1143L16.3759 23.4434M20.7226 19.1143L16.3759 14.7852" stroke="#4AB9FD" stroke-width="2" stroke-linecap="round" stroke-linejoin="round"/>
</g>
<defs>
<clipPath id="clip0_1_1567">
<rect width="31" height="31" fill="white" transform="translate(0.00683594 0.256836)"/>
</clipPath>
</defs>
</svg>
