<svg width="85" height="14" viewBox="0 0 85 14" fill="none" xmlns="http://www.w3.org/2000/svg">
<g clip-path="url(#clip0_1_1404)">
<path d="M11.5854 9.02959C10.9074 11.1361 9.7207 12.9644 6.6452 13.0854C2.0691 13.0854 0.67688 9.27184 0.67688 7.2254C0.67688 1.95924 4.90234 0.6875 6.59727 0.6875C8.52194 0.6875 11.2464 1.57189 11.2464 3.84763C11.2464 4.64651 10.7377 5.42165 9.91459 5.42165C9.1157 5.42165 8.52193 4.8892 8.52193 4.02943C8.52193 2.87947 9.46635 2.72185 9.46635 2.40704C9.46635 1.60816 7.60214 1.28127 6.94835 1.28127C4.10302 1.28127 3.36416 3.35146 3.36416 7.22583C3.36416 9.00541 3.8124 10.3614 3.98167 10.7729C4.42991 11.7536 5.33762 12.3711 6.87537 12.4557C8.60701 12.5529 10.2536 11.1603 10.9678 9.02959H11.5854ZM15.243 6.87476C15.243 9.35648 15.2676 12.4925 18.258 12.4925C21.2484 12.4925 21.2722 9.35648 21.2722 6.87433C21.2722 4.41721 21.2484 1.28127 18.258 1.28127C15.2676 1.28127 15.243 4.41678 15.243 6.87476ZM23.9724 6.87476C23.9724 10.4581 21.3693 13.0854 18.2701 13.0854C15.1704 13.0854 12.5557 10.446 12.5557 6.87476C12.5557 3.30309 15.1583 0.687932 18.258 0.687932C21.3572 0.687932 23.9724 3.291 23.9724 6.87476ZM26.0668 1.66819H24.4444V0.990213H25.0619C25.619 1.00274 26.1635 0.978553 26.7201 0.929757C27.2772 0.893915 27.8343 0.808844 28.3792 0.687932V3.82345H28.4397C29.2627 1.95924 30.4131 0.687932 32.568 0.687932C33.6337 0.687932 36.0913 0.929757 36.0913 3.64165V12.0079H37.689V12.6859H32.2415V12.0079H33.7788V4.01734C33.7788 1.86251 33.1009 1.53518 31.9146 1.53518C29.9049 1.53518 28.3676 4.28378 28.3676 6.49907V11.9958H29.9653V12.6738H24.4444V11.9958H26.0668V1.66819ZM44.6752 0.990645V1.66862H46.4789L43.4885 10.1558H43.4281L40.5586 1.66819H42.1326V0.990213H36.8055V1.66819H38.2219L42.1809 13.0849H43.1979L47.2778 1.66819H48.6947V0.990213L44.6752 0.990645ZM56.6477 5.09475V4.08989C56.6477 1.95924 55.4006 1.28127 53.9237 1.28127C52.1437 1.28127 51.3448 2.93949 51.2843 3.14547C51.1025 3.77508 50.9937 4.44096 50.9937 5.09475H56.6477ZM59.3112 9.02959C58.7179 11.7778 56.7081 13.0854 54.1051 13.0854C51.0905 13.0854 48.1847 10.6641 48.1847 7.37093C48.1847 3.88433 50.4971 0.687932 54.0083 0.687932C57.0229 0.687932 59.2991 2.73394 59.3354 5.95453H50.9575V7.16495C50.9575 10.0949 51.3448 12.4557 54.5654 12.4557C56.2482 12.4557 58.2338 10.9789 58.6453 9.02959H59.3112ZM61.5882 1.66819H59.9659V0.990213H60.5829C61.14 1.00274 61.685 0.978553 62.2416 0.929757C62.7987 0.893915 63.3557 0.808844 63.9003 0.687932V3.82345H63.9612C64.7842 1.95924 65.9346 0.687932 68.1015 0.687932C69.1669 0.687932 71.6248 0.929757 71.6248 3.64165V12.0079H73.223V12.6859H67.7746V12.0079H69.3124V4.01734C69.3124 1.86251 68.6344 1.53518 67.4477 1.53518C65.438 1.53518 63.9003 4.28378 63.9003 6.49907V11.9958H65.4985V12.6738H59.9659V11.9958H61.5882V1.66819ZM81.9767 5.09475V4.08989C81.9767 1.95924 80.73 1.28127 79.2527 1.28127C77.4731 1.28127 76.6738 2.93949 76.6254 3.14547C76.4441 3.77508 76.3348 4.44096 76.3348 5.09475H81.9767ZM84.6402 9.02959C84.0473 11.7778 82.0376 13.0854 79.4345 13.0854C76.4199 13.0854 73.5262 10.6641 73.5262 7.37093C73.5262 3.88433 75.8265 0.687932 79.3498 0.687932C82.3645 0.687932 84.6402 2.73394 84.6769 5.95453H76.2985V7.16495C76.2985 10.0949 76.6859 12.4557 79.9065 12.4557C81.5893 12.4557 83.5749 10.9789 83.9864 9.02959H84.6402Z" fill="black"/>
</g>
<defs>
<clipPath id="clip0_1_1404">
<rect width="84" height="13" fill="white" transform="translate(0.67688 0.6875)"/>
</clipPath>
</defs>
</svg>
